<?xml version="1.0" encoding="UTF-8" standalone="no"?>
<!DOCTYPE svg PUBLIC "-//W3C//DTD SVG 1.1//EN"
"http://www.w3.org/Graphics/SVG/1.1/DTD/svg11.dtd">
<svg viewBox="0 0 909 1286" version="1.1" xmlns="http://www.w3.org/2000/svg" xmlns:xlink="http://www.w3.org/1999/xlink">
<defs>
<style type="text/css"><![CDATA[
.g0_3{
fill: #62D9D7;
}
.g1_3{
fill: #FFBF00;
fill-opacity: 0.4;
}
.g2_3{
fill: #FFFFFF;
}
.g3_3{
fill: #FFFFFF;
stroke: #FFFFFF;
stroke-width: 0.15277778;
stroke-linecap: butt;
stroke-linejoin: miter;
stroke-miterlimit: 22;
}
]]></style>
</defs>
<path fill-rule="evenodd" d="M-909.3,0H0V1286.2H-909.3Z" class="g0_3" />
<image preserveAspectRatio="none" x="0" y="0" width="910" height="1286" xlink:href="img/1.png" />
<path fill-rule="evenodd" d="M0,0H909.4V1286.2H0Z" class="g1_3" />
<path fill-rule="evenodd" d="M566,701.4C517.3,686.3,530.5,571.6,614.2,623.3c20.1,12.4,10.6,24.8,56.2,15.9c50.5,-9.9,21.4,114.8,-56.9,77.6c-31.1,-14.8,-35.9,-5.1,-77.9,8.7c-.2,0,-.9,0,-1.1,.1Zm41.8,-12.6v6.4c0,2,.2,3.5,.6,4.6c.4,1.2,1,2.1,1.7,2.7c1.1,1,2.5,1.7,4.3,2.2c1.7,.6,3.9,.8,6.4,.8c3.5,0,6.1,-.5,8,-1.5c1.9,-1.1,3.1,-2.3,3.8,-3.8c.4,-1.1,.7,-2.8,.7,-5.1v-6.3Zm-5.3,-5h36V695c0,2.5,-.2,4.4,-.5,5.8c-.5,1.8,-1.3,3.4,-2.6,4.7c-1.6,1.7,-3.6,3,-6.1,3.9c-2.5,.8,-5.4,1.2,-8.6,1.2c-2.7,0,-5.1,-.2,-7.2,-.8c-2.2,-.6,-3.9,-1.3,-5.3,-2.2c-1.4,-.9,-2.5,-1.9,-3.2,-3c-.8,-1.1,-1.4,-2.4,-1.9,-3.9c-.4,-1.5,-.6,-3.2,-.6,-5.2Zm26.2,-10.4h20.1V648h-4.5v20.9H633.2V648.1h-4.5v20.8Zm-41.3,-6.3h24.3v6.4H581V634.8h30.7v6.3H587.4v9.5h24.3V657H587.4Z" class="g2_3" />
<path d="M220.1,724.8H214V668.3h6.1Zm20.1,0h-5.9V668.3h6.2l29.7,45.9h.1V668.3h6v56.5h-6.2L240.4,678.9h-.2Zm61.7,-50.9H284.4v-5.6h41v5.6H307.9Zm117.3,11.2h-6.1c-.5,-4,-2.1,-7,-4.7,-9.2c-2.7,-2.1,-5.9,-3.2,-9.8,-3.2c-2.2,0,-4.3,.4,-6.2,1.2c-1.9,.7,-3.6,1.9,-5,3.5c-1.5,1.5,-2.7,3.5,-3.5,6.1c-.8,2.5,-1.2,5.5,-1.2,8.8v8.1c0,6.3,1.3,11.2,4,14.7c2.7,3.6,6.7,5.3,11.8,5.3c4.3,0,7.9,-1.2,10.7,-3.6c2.8,-2.4,4.2,-5.6,4.2,-9.4v-6H398.1v-5.6h21.3v11.6c0,1.6,-.2,3.2,-.7,4.8c-.4,1.7,-1.2,3.3,-2.2,5c-1,1.7,-2.3,3.1,-3.9,4.4c-1.5,1.3,-3.5,2.4,-6,3.2c-2.4,.8,-5.1,1.2,-8,1.2c-7.2,0,-12.7,-2.3,-16.4,-6.8c-3.8,-4.5,-5.7,-10.8,-5.7,-18.8v-8.1c0,-7.9,2.1,-14,6.1,-18.5c4,-4.5,9.4,-6.7,16.2,-6.7c3.1,0,5.9,.5,8.5,1.5c2.5,.9,4.6,2.3,6.3,4c1.6,1.6,2.9,3.5,3.9,5.7c1,2.1,1.5,4.4,1.7,6.8Zm18.2,11.1l-.1,5.7l.1,22.9h-6.2V668.3h19.9c3,0,5.6,.5,7.9,1.4c2.3,.9,4.2,2.1,5.6,3.6c1.4,1.6,2.5,3.3,3.2,5.3c.7,2,1.1,4.1,1.1,6.3c0,2.2,-.3,4.2,-.9,6c-.6,1.8,-1.5,3.4,-2.5,4.6c-1.1,1.3,-2.2,2.3,-3.4,3.1c-1.2,.8,-2.5,1.5,-4,1.9l11.8,24.3h-7.1L450.4,696.2c4.1,0,6.8,-1,8.9,-2.8c2.2,-1.9,3.2,-4.6,3.2,-8.1c0,-3.7,-1,-6.5,-3.2,-8.5c-2.2,-1.9,-5.2,-2.9,-9,-2.9H437.4Zm52,5.9l-1.8,5.1l-6,17.6h-6.3l20.3,-56.5h6l20.3,56.5h-6.6l-6,-17.6l-1.8,-5.1m0,0l-9,-26.2h-.1l-9,26.2m40.7,19.1c0,-1.2,.5,-2.2,1.3,-3c.9,-.9,1.9,-1.3,3.1,-1.3c1.2,0,2.2,.4,3.1,1.3c.8,.8,1.2,1.8,1.2,3c0,1.2,-.4,2.2,-1.2,3.1c-.9,.9,-1.9,1.3,-3.1,1.3c-1.2,0,-2.2,-.4,-3.1,-1.3c-.8,-.9,-1.3,-1.9,-1.3,-3.1Z" class="g3_3" />
<path fill-rule="evenodd" d="M333.5,668.3h33.4v5.6H339.1v45.3h27.8v5.6H333.5c0,-18.8,0,-37.6,0,-56.5Z" class="g3_3" />
<path fill-rule="evenodd" d="M365.4,698.7H346.5v-5.6h18.9Z" class="g3_3" />
<path fill-rule="evenodd" d="M413.4,701.4H398.1v-5.6h15.3Z" class="g3_3" />
<path fill-rule="evenodd" d="M307.4,724.8V681.3h-5.5v43.5Z" class="g3_3" />
<path fill-rule="evenodd" d="M566,701.4C517.3,686.3,530.5,571.6,614.2,623.3c20.1,12.4,10.6,24.8,56.2,15.9c50.5,-9.9,21.4,114.8,-56.9,77.6c-31.1,-14.8,-35.9,-5.1,-77.9,8.7c-.2,0,-.9,0,-1.1,.1Zm41.8,-12.6v6.4c0,2,.2,3.5,.6,4.6c.4,1.2,1,2.1,1.7,2.7c1.1,1,2.5,1.7,4.3,2.2c1.7,.6,3.9,.8,6.4,.8c3.5,0,6.1,-.5,8,-1.5c1.9,-1.1,3.1,-2.3,3.8,-3.8c.4,-1.1,.7,-2.8,.7,-5.1v-6.3Zm-5.3,-5h36V695c0,2.5,-.2,4.4,-.5,5.8c-.5,1.8,-1.3,3.4,-2.6,4.7c-1.6,1.7,-3.6,3,-6.1,3.9c-2.5,.8,-5.4,1.2,-8.6,1.2c-2.7,0,-5.1,-.2,-7.2,-.8c-2.2,-.6,-3.9,-1.3,-5.3,-2.2c-1.4,-.9,-2.5,-1.9,-3.2,-3c-.8,-1.1,-1.4,-2.4,-1.9,-3.9c-.4,-1.5,-.6,-3.2,-.6,-5.2Zm26.2,-10.4h20.1V648h-4.5v20.9H633.2V648.1h-4.5v20.8Zm-41.3,-6.3h24.3v6.4H581V634.8h30.7v6.3H587.4v9.5h24.3V657H587.4Z" class="g2_3" />
<path d="M220.1,724.8H214V668.3h6.1Zm20.1,0h-5.9V668.3h6.2l29.7,45.9h.1V668.3h6v56.5h-6.2L240.4,678.9h-.2Zm61.7,-50.9H284.4v-5.6h41v5.6H307.9Zm117.3,11.2h-6.1c-.5,-4,-2.1,-7,-4.7,-9.2c-2.7,-2.1,-5.9,-3.2,-9.8,-3.2c-2.2,0,-4.3,.4,-6.2,1.2c-1.9,.7,-3.6,1.9,-5,3.5c-1.5,1.5,-2.7,3.5,-3.5,6.1c-.8,2.5,-1.2,5.5,-1.2,8.8v8.1c0,6.3,1.3,11.2,4,14.7c2.7,3.6,6.7,5.3,11.8,5.3c4.3,0,7.9,-1.2,10.7,-3.6c2.8,-2.4,4.2,-5.6,4.2,-9.4v-6H398.1v-5.6h21.3v11.6c0,1.6,-.2,3.2,-.7,4.8c-.4,1.7,-1.2,3.3,-2.2,5c-1,1.7,-2.3,3.1,-3.9,4.4c-1.5,1.3,-3.5,2.4,-6,3.2c-2.4,.8,-5.1,1.2,-8,1.2c-7.2,0,-12.7,-2.3,-16.4,-6.8c-3.8,-4.5,-5.7,-10.8,-5.7,-18.8v-8.1c0,-7.9,2.1,-14,6.1,-18.5c4,-4.5,9.4,-6.7,16.2,-6.7c3.1,0,5.9,.5,8.5,1.5c2.5,.9,4.6,2.3,6.3,4c1.6,1.6,2.9,3.5,3.9,5.7c1,2.1,1.5,4.4,1.7,6.8Zm18.2,11.1l-.1,5.7l.1,22.9h-6.2V668.3h19.9c3,0,5.6,.5,7.9,1.4c2.3,.9,4.2,2.1,5.6,3.6c1.4,1.6,2.5,3.3,3.2,5.3c.7,2,1.1,4.1,1.1,6.3c0,2.2,-.3,4.2,-.9,6c-.6,1.8,-1.5,3.4,-2.5,4.6c-1.1,1.3,-2.2,2.3,-3.4,3.1c-1.2,.8,-2.5,1.5,-4,1.9l11.8,24.3h-7.1L450.4,696.2c4.1,0,6.8,-1,8.9,-2.8c2.2,-1.9,3.2,-4.6,3.2,-8.1c0,-3.7,-1,-6.5,-3.2,-8.5c-2.2,-1.9,-5.2,-2.9,-9,-2.9H437.4Zm52,5.9l-1.8,5.1l-6,17.6h-6.3l20.3,-56.5h6l20.3,56.5h-6.6l-6,-17.6l-1.8,-5.1m0,0l-9,-26.2h-.1l-9,26.2m40.7,19.1c0,-1.2,.5,-2.2,1.3,-3c.9,-.9,1.9,-1.3,3.1,-1.3c1.2,0,2.2,.4,3.1,1.3c.8,.8,1.2,1.8,1.2,3c0,1.2,-.4,2.2,-1.2,3.1c-.9,.9,-1.9,1.3,-3.1,1.3c-1.2,0,-2.2,-.4,-3.1,-1.3c-.8,-.9,-1.3,-1.9,-1.3,-3.1Z" class="g3_3" />
<path fill-rule="evenodd" d="M333.5,668.3h33.4v5.6H339.1v45.3h27.8v5.6H333.5c0,-18.8,0,-37.6,0,-56.5Z" class="g3_3" />
<path fill-rule="evenodd" d="M365.4,698.7H346.5v-5.6h18.9Z" class="g3_3" />
<path fill-rule="evenodd" d="M413.4,701.4H398.1v-5.6h15.3Z" class="g3_3" />
<path fill-rule="evenodd" d="M307.4,724.8V681.3h-5.5v43.5Z" class="g3_3" />
</svg>