<?xml version="1.0" encoding="UTF-8" standalone="no"?>
<!DOCTYPE svg PUBLIC "-//W3C//DTD SVG 1.1//EN"
"http://www.w3.org/Graphics/SVG/1.1/DTD/svg11.dtd">
<svg viewBox="0 0 909 1286" version="1.1" xmlns="http://www.w3.org/2000/svg" xmlns:xlink="http://www.w3.org/1999/xlink">
<defs>
<style type="text/css"><![CDATA[
.g0_48{
fill: #FFFFFF;
}
.g1_48{
fill: #FFFFFF;
stroke: #FFFFFF;
stroke-width: 0.15277778;
stroke-linecap: butt;
stroke-linejoin: miter;
stroke-miterlimit: 22;
}
.g2_48{
fill: #DA89F7;
stroke: #DA89F7;
stroke-width: 0.33;
stroke-linecap: butt;
stroke-linejoin: miter;
stroke-miterlimit: 22;
}
.g3_48{
fill: #FFFFFF;
fill-opacity: 0.97999996;
stroke: #DA89F7;
stroke-width: 0.33;
stroke-linecap: butt;
stroke-linejoin: miter;
stroke-miterlimit: 22;
stroke-opacity: 0.97999996;
}
.g4_48{
fill: #DA89F7;
}
.g5_48{
}
.g6_48{
fill: none;
stroke: #000000;
stroke-width: 2.1653194;
stroke-linecap: butt;
stroke-linejoin: miter;
stroke-miterlimit: 22;
}
.g7_48{
fill: none;
stroke: #373435;
stroke-width: 2.1653194;
stroke-linecap: butt;
stroke-linejoin: miter;
stroke-miterlimit: 22;
}
.g8_48{
fill: #DA89F7;
stroke: #DA89F7;
stroke-width: 0.7638889;
stroke-linecap: butt;
stroke-linejoin: miter;
stroke-miterlimit: 22;
}
]]></style>
</defs>
<image x="0" y="0" width="911" height="1289" xlink:href="shade/1.png" />
<path fill-rule="evenodd" d="M63.7,140.6C21.2,127.3,32.7,27.1,105.9,72.3C123.5,83.1,115.1,94,155,86.2c44.2,-8.7,18.7,100.3,-49.7,67.8C78.1,141.1,73.9,149.5,37.1,161.6c-.1,0,-.8,.1,-.9,.1Z" class="g0_48" />
<image preserveAspectRatio="none" x="251" y="208" width="408" height="897" xlink:href="img/1.png" />
<path fill-rule="evenodd" d="M538.1,1200.4c-36.5,-11.3,-26.6,-97.3,36.2,-58.6c15.1,9.3,7.9,18.7,42.1,11.9c37.9,-7.4,16.1,86.1,-42.6,58.2c-23.3,-11.1,-27,-3.8,-58.5,6.6c-.1,0,-.7,0,-.8,0Zm31.4,-9.5v4.8c0,1.5,.1,2.7,.4,3.5c.3,.9,.8,1.5,1.3,2.1c.8,.7,1.9,1.2,3.2,1.6c1.3,.4,2.9,.6,4.8,.6c2.6,0,4.6,-.4,6,-1.2c1.4,-.7,2.4,-1.7,2.9,-2.8c.3,-.8,.5,-2.1,.5,-3.8v-4.8Zm-4,-3.7h27v8.4c0,1.9,-.1,3.3,-.4,4.3c-.3,1.4,-1,2.6,-1.9,3.6c-1.2,1.3,-2.7,2.2,-4.6,2.9c-1.9,.6,-4,.9,-6.4,.9c-2.1,0,-3.9,-.2,-5.5,-.6c-1.6,-.4,-2.9,-1,-3.9,-1.7c-1,-.6,-1.9,-1.4,-2.4,-2.2c-.6,-.8,-1.1,-1.8,-1.4,-2.9c-.3,-1.1,-.5,-2.4,-.5,-3.9Zm19.6,-7.8h15.1v-19h-3.3V1176h-8.4v-15.6h-3.4V1176Zm-30.9,-4.7h18.2v4.7h-23v-29h23v4.8H554.2v7.1h18.2v4.8H554.2Z" class="g0_48" />
<path d="M278.7,1218h-4.6v-42.4h4.6Zm15.1,0h-4.5v-42.4H294l22.2,34.4h.2v-34.4h4.4V1218h-4.6l-22.3,-34.5h-.1ZM340,1179.8H326.9v-4.2h30.8v4.2H344.6Zm88,8.4h-4.5c-.4,-3,-1.6,-5.3,-3.6,-6.9c-2,-1.6,-4.4,-2.4,-7.3,-2.4c-1.7,0,-3.2,.3,-4.7,.9c-1.4,.5,-2.6,1.4,-3.8,2.6c-1.1,1.1,-1.9,2.7,-2.5,4.6c-.7,1.9,-1,4.1,-1,6.6v6.1c0,4.7,1,8.4,3.1,11c2,2.6,4.9,4,8.8,4c3.2,0,5.9,-.9,8,-2.8c2.1,-1.8,3.2,-4.1,3.2,-7v-4.5H412.2v-4.2h16v8.7c0,1.2,-.2,2.4,-.5,3.6c-.4,1.3,-.9,2.5,-1.7,3.8c-.8,1.2,-1.8,2.3,-2.9,3.3c-1.2,.9,-2.7,1.7,-4.5,2.3c-1.8,.6,-3.8,1,-6.1,1c-5.3,0,-9.4,-1.7,-12.3,-5.1c-2.8,-3.4,-4.2,-8.1,-4.2,-14.1v-6.1c0,-5.9,1.5,-10.5,4.5,-13.9c3.1,-3.4,7.1,-5,12.2,-5c2.3,0,4.5,.3,6.4,1.1c1.9,.7,3.5,1.7,4.7,3c1.2,1.2,2.2,2.7,2.9,4.3c.8,1.6,1.2,3.3,1.3,5.1Zm13.7,8.3l-.1,4.3l.1,17.2h-4.6v-42.4H452c2.2,0,4.2,.3,5.9,1c1.7,.7,3.1,1.6,4.2,2.8c1,1.1,1.8,2.4,2.4,3.9c.5,1.5,.8,3,.8,4.7c0,1.7,-.2,3.2,-.7,4.6c-.5,1.3,-1.1,2.5,-1.9,3.4c-.7,.9,-1.6,1.7,-2.5,2.3c-.9,.6,-1.9,1.1,-3,1.5L466,1218h-5.3l-9.3,-21.5c3.1,0,5.1,-.7,6.7,-2.1c1.6,-1.5,2.4,-3.5,2.4,-6.1c0,-2.7,-.8,-4.8,-2.4,-6.3c-1.7,-1.5,-3.9,-2.2,-6.7,-2.2h-9.7Zm39,4.4l-1.4,3.9l-4.5,13.2h-4.7l15.2,-42.4h4.5l15.3,42.4h-5l-4.5,-13.2l-1.3,-3.9m0,0l-6.8,-19.6h-.1l-6.7,19.6m30.5,14.4c0,-.9,.4,-1.7,1,-2.3c.6,-.7,1.4,-1,2.3,-1c.9,0,1.7,.3,2.3,1c.6,.6,1,1.4,1,2.3c0,.9,-.4,1.6,-1,2.3c-.6,.6,-1.4,.9,-2.3,.9c-.9,0,-1.7,-.3,-2.3,-.9c-.6,-.7,-1,-1.4,-1,-2.3Z" class="g1_48" />
<path fill-rule="evenodd" d="M363.8,1175.6h25v4.2H368v33.9h20.8v4.3h-25c0,-14.2,0,-28.3,0,-42.4Z" class="g1_48" />
<path fill-rule="evenodd" d="M387.6,1198.4H373.5v-4.2h14.1Z" class="g1_48" />
<path fill-rule="evenodd" d="M423.7,1200.4H412.2v-4.2h11.5Z" class="g1_48" />
<path fill-rule="evenodd" d="M344.2,1218v-32.6H340V1218Z" class="g1_48" />
<image x="277" y="347" width="352" height="625" xlink:href="shade/2.png" />
<path fill-rule="evenodd" d="M277.6,401.5H628.2V347.9H277.6Z" class="g2_48" />
<path d="M611.5,381.5l-2.7,-.4c-.2,-.6,-.4,-1.1,-.7,-1.6l1.6,-2.3c.2,-.2,.1,-.5,0,-.6l-1.8,-1.8c-.2,-.2,-.4,-.2,-.6,-.1l-2.3,1.6c-.5,-.2,-1,-.5,-1.6,-.6l-.5,-2.8c0,-.2,-.2,-.4,-.4,-.4h-2.6c-.2,0,-.4,.2,-.5,.4l-.4,2.8c-.6,.1,-1.1,.4,-1.6,.6l-2.3,-1.6c-.2,-.1,-.4,-.1,-.6,.1l-1.8,1.8c-.2,.1,-.2,.4,-.1,.6l1.6,2.3c-.3,.5,-.5,1,-.6,1.6l-2.8,.4c-.2,.1,-.4,.3,-.4,.5v2.6c0,.2,.2,.4,.4,.4l2.8,.5c.1,.6,.3,1.1,.6,1.6l-1.6,2.3c-.1,.2,-.1,.4,.1,.6l1.8,1.8c.1,.1,.4,.2,.6,0l2.3,-1.6c.5,.3,1,.5,1.6,.7l.4,2.7c.1,.3,.3,.4,.5,.4h2.6c.2,0,.4,-.1,.4,-.3l.5,-2.8c.6,-.2,1.1,-.4,1.6,-.7l2.3,1.6c.2,.2,.4,.1,.6,0l1.8,-1.8c.2,-.2,.2,-.5,.1,-.6l-1.7,-2.3c.3,-.5,.5,-1,.7,-1.6l2.8,-.5c.2,0,.3,-.2,.3,-.4V382c0,-.2,-.1,-.4,-.4,-.5Zm-10.3,5.1c-1.8,0,-3.3,-1.5,-3.3,-3.3c0,-1.8,1.5,-3.3,3.3,-3.3c1.8,0,3.3,1.5,3.3,3.3c0,1.8,-1.5,3.3,-3.3,3.3Z" class="g0_48" />
<path d="M296.6,381.9h20.1v2.2H296.6Z" class="g0_48" />
<path d="M296.6,375.2h20.1v2.2H296.6Z" class="g0_48" />
<path d="M296.6,388.6h20.1v2.2H296.6Z" class="g0_48" />
<path fill-rule="evenodd" d="M477.6,385.9c-10.8,-3.3,-7.9,-28.7,10.6,-17.3c4.5,2.8,2.4,5.5,12.4,3.6c11.2,-2.2,4.8,25.3,-12.5,17.1c-6.9,-3.3,-8,-1.1,-17.3,1.9c0,.1,-.2,.1,-.2,.1Zm9.2,-2.8v1.4c0,.5,0,.8,.1,1.1c.1,.2,.3,.4,.4,.6c.2,.2,.6,.3,.9,.5c.4,.1,.9,.1,1.5,.1c.7,0,1.3,-.1,1.7,-.3c.5,-.2,.7,-.5,.9,-.8c.1,-.3,.1,-.7,.1,-1.2v-1.4ZM485.6,382h8v2.5c0,.6,0,1,-.1,1.3c-.1,.4,-.3,.7,-.6,1c-.3,.4,-.8,.7,-1.4,.9c-.5,.2,-1.1,.3,-1.8,.3c-.6,0,-1.2,-.1,-1.7,-.2c-.4,-.2,-.8,-.3,-1.1,-.5c-.3,-.2,-.6,-.4,-.7,-.7c-.2,-.2,-.3,-.5,-.4,-.8c-.1,-.4,-.2,-.8,-.2,-1.2Zm5.8,-2.3h4.5v-5.6h-1v4.6h-2.5v-4.6h-1v4.6Zm-9.1,-1.4h5.4v1.4h-6.8v-8.5h6.8v1.4h-5.4v2.1h5.4v1.4h-5.4Z" class="g0_48" />
<path d="M401.1,391.1h-1.4V378.6h1.4Zm4.4,0h-1.3V378.6h1.4l6.5,10.2h.1V378.6h1.3v12.5h-1.4l-6.6,-10.2Zm13.6,-11.3h-3.8v-1.2h9.1v1.2h-3.9Zm26,2.5h-1.4c-.1,-.9,-.4,-1.5,-1,-2c-.6,-.5,-1.3,-.7,-2.2,-.7c-.5,0,-.9,.1,-1.3,.2c-.5,.2,-.8,.5,-1.2,.8c-.3,.3,-.5,.8,-.7,1.4c-.2,.5,-.3,1.2,-.3,1.9v1.8c0,1.4,.3,2.5,.9,3.3c.6,.7,1.5,1.1,2.6,1.1c1,0,1.8,-.2,2.4,-.8c.6,-.5,.9,-1.2,.9,-2.1v-1.3h-3.4v-1.2h4.7v2.5c0,.4,0,.8,-.1,1.1c-.1,.4,-.3,.7,-.5,1.1c-.2,.4,-.5,.7,-.9,1c-.3,.3,-.8,.5,-1.3,.7c-.5,.2,-1.1,.3,-1.8,.3c-1.6,0,-2.8,-.5,-3.6,-1.5c-.8,-1,-1.2,-2.4,-1.2,-4.2v-1.8c0,-1.7,.4,-3.1,1.3,-4.1c.9,-1,2.1,-1.5,3.6,-1.5c.7,0,1.3,.1,1.8,.4c.6,.2,1.1,.5,1.4,.8c.4,.4,.7,.8,.9,1.3c.2,.5,.4,1,.4,1.5Zm4,2.5v6.3h-1.3V378.6h4.3c.7,0,1.3,.1,1.8,.3c.5,.2,.9,.5,1.2,.8c.3,.4,.6,.7,.7,1.2c.2,.4,.3,.9,.3,1.4c0,.5,-.1,.9,-.2,1.3c-.2,.4,-.3,.7,-.6,1c-.2,.3,-.5,.5,-.7,.7c-.3,.2,-.6,.3,-.9,.4l2.6,5.4h-1.6L452,384.8c.9,0,1.5,-.2,2,-.7c.4,-.4,.7,-1,.7,-1.7c0,-.9,-.3,-1.5,-.8,-1.9c-.4,-.4,-1.1,-.7,-1.9,-.7h-2.9Zm11.5,1.3l-.4,1.1l-1.3,3.9h-1.4L462,378.6h1.3l4.5,12.5h-1.5L465,387.2l-.4,-1.1m0,0l-2,-5.8l-2,5.8m9,4.2c0,-.3,.1,-.5,.3,-.7c.2,-.2,.4,-.3,.7,-.3c.3,0,.5,.1,.7,.3c.2,.2,.2,.4,.2,.7c0,.3,0,.5,-.2,.7c-.2,.2,-.4,.3,-.7,.3c-.3,0,-.5,-.1,-.7,-.3c-.2,-.2,-.3,-.4,-.3,-.7Z" class="g1_48" />
<path fill-rule="evenodd" d="M426.1,378.6h7.4v1.2h-6.1v10h6.1v1.3h-7.4c0,-4.2,0,-8.3,0,-12.5Z" class="g1_48" />
<path fill-rule="evenodd" d="M433.2,385.3H429v-1.2h4.2Z" class="g1_48" />
<path fill-rule="evenodd" d="M443.8,385.9h-3.4v-1.2h3.4Z" class="g1_48" />
<path fill-rule="evenodd" d="M420.4,391.1v-9.6h-1.3v9.6Z" class="g1_48" />
<path fill-rule="evenodd" d="M417.9,971.6H628.3V401.5H417.9Z" class="g3_48" />
<path fill-rule="evenodd" d="M537.5,716.9h1.9v4.5c0,.3,.3,.6,.7,.6h3c.2,0,.4,-.1,.5,-.2c.1,0,.2,-.2,.2,-.4v-4.5h1.9c.2,0,.4,-.1,.5,-.1c0,-.1,.1,-.1,.1,-.2c.2,-.4,0,-.6,-.3,-.8l-2,-2.3q0,-.1,-.1,-.2l-1.8,-2.1c-.1,-.1,-.4,-.4,-.5,-.5c-.2,.1,-.2,.2,-.3,.3l-4.1,4.7c-.3,.4,-.4,.4,-.4,.7c0,.3,.3,.5,.7,.5Z" class="g4_48" />
<path fill-rule="evenodd" d="M480.3,679.5v13.8c0,1,.9,2,1.9,2H492c1,0,1.8,-.9,1.9,-1.8c.1,-.4,0,-3.2,0,-3.8c-.3,.2,-.5,.5,-.8,.7q-.1,.1,-.2,.2c-.4,.4,-.4,.1,-.4,.8c0,.5,0,1,0,1.6c0,.3,.1,.4,-.1,.6c-.1,.2,-.2,.3,-.5,.3h-9.6c-.3,0,-.6,-.3,-.6,-.6V679.6c0,-.4,.3,-.7,.6,-.7h9.6c.2,0,.4,.2,.5,.3c.2,.2,.1,.3,.1,.6v2c0,.3,.1,.2,.4,.4c.2,.2,.8,.8,1,.9c0,-.7,.1,-3.2,0,-3.7c0,-.9,-.9,-1.8,-1.9,-1.8h-9.8c-1,0,-1.9,1,-1.9,1.9Z" class="g4_48" />
<path fill-rule="evenodd" d="M489.2,682.6v1.8H485c-.3,0,-.6,.3,-.6,.6v2.8c0,.2,.1,.3,.2,.4c0,.1,.2,.3,.4,.3h4.2v1.7c0,.2,0,.4,.1,.5c0,0,.1,.1,.1,.1c.4,.2,.6,0,.8,-.3l2.1,-1.8q.1,-.1,.2,-.1l1.9,-1.7c.2,-.1,.5,-.4,.5,-.5c-.1,-.1,-.1,-.2,-.3,-.3l-4.3,-3.8c-.4,-.2,-.4,-.3,-.7,-.3c-.3,0,-.4,.3,-.4,.6Z" class="g4_48" />
<path fill-rule="evenodd" d="M545.8,777.7c-.2,.2,-.7,.5,-1,.6c-.8,.4,-1.8,.4,-2.6,0c-.3,-.1,-.7,-.4,-.9,-.6c-1.3,.6,-2.2,1.9,-2.5,3.2c-.2,.6,-.2,.9,.4,.9h8.7c.6,0,.5,-.4,.4,-.9c-.3,-1.3,-1.3,-2.6,-2.5,-3.2Zm-2.3,-5c1.5,0,2.7,1.2,2.7,2.7c0,1.4,-1.2,2.6,-2.7,2.6c-1.4,0,-2.6,-1.2,-2.6,-2.6c0,-1.5,1.2,-2.7,2.6,-2.7Z" class="g4_48" />
<path fill-rule="evenodd" d="M550.6,778.7c-.2,.1,-.5,.3,-.7,.4c-.6,.3,-1.3,.3,-1.9,.1c.4,.5,.6,1.1,.8,1.7c.1,.5,.1,.9,-.5,.9h3.9c.5,0,.4,-.3,.3,-.7c-.2,-1,-.9,-2,-1.9,-2.4Zm-1.7,-3.8c1.1,0,2,.9,2,2c0,1.1,-.9,2,-2,2c-1.1,0,-2,-.9,-2,-2c0,-1.1,.9,-2,2,-2Z" class="g4_48" />
<path fill-rule="evenodd" d="M548.4,769.6h.2c.3,0,.7,0,1,.2c.1,0,.2,.1,.4,.2l.3,.1q0,.1,0,.1c.2,.2,.5,.4,.6,.7c.2,.4,.2,.6,.2,1.1c0,.4,-.2,.9,-.5,1.3l-.3,.3c0,0,-.2,.2,-.3,.2c-.6,.4,-1.2,.5,-1.9,.4q-.1,0,-.2,0c-.3,.2,-.7,.4,-.9,.6c-.1,0,-.1,.1,-.2,.1c0,-.3,0,-.7,0,-1c0,-.1,0,-.2,0,-.2c-.2,-.2,-.4,-.3,-.5,-.5q-.2,-.2,-.3,-.5c-.1,-.2,-.2,-.5,-.2,-.9c0,-.2,.1,-.4,.1,-.5c.1,-.5,.4,-.8,.7,-1.1l.2,-.1q.1,-.1,.2,-.1c.4,-.3,.9,-.4,1.4,-.4Z" class="g4_48" />
<path fill-rule="evenodd" d="M538.6,770.2h-.2c-.3,0,-.7,.1,-1,.2c-.1,.1,-.2,.1,-.4,.2l-.2,.2c-.1,0,-.1,.1,-.1,.1c-.2,.2,-.4,.4,-.6,.6c-.1,.4,-.2,.6,-.2,1.1c0,.5,.2,1,.5,1.3q0,.1,.1,.1l.2,.2c.1,.1,.3,.2,.3,.3c.6,.3,1.2,.4,1.9,.4c.1,0,.1,-.1,.2,0c.3,.2,.7,.4,.9,.6q.1,0,.2,.1c0,-.4,0,-.7,0,-1q0,-.2,0,-.2c.2,-.2,.4,-.3,.5,-.5c.2,-.2,.2,-.3,.3,-.5c.1,-.3,.2,-.6,.2,-.9c0,-.2,-.1,-.4,-.1,-.5c-.2,-.5,-.4,-.8,-.7,-1.1l-.2,-.2q-.1,0,-.2,-.1c-.4,-.2,-.9,-.4,-1.4,-.4Z" class="g4_48" />
<path fill-rule="evenodd" d="M428.4,407.8c2.2,0,3.9,1.8,3.9,4V519.7c0,2.2,-1.7,3.9,-3.9,3.9c-2.1,0,-3.9,-1.7,-3.9,-3.9V411.8c0,-2.2,1.8,-4,3.9,-4Z" class="g4_48" />
<path fill-rule="evenodd" d="M563.5,417c-.4,.3,-1.1,.8,-1.6,1c-1.2,.6,-2.9,.6,-4.2,0c-.4,-.2,-1.1,-.7,-1.5,-1c-2,1,-3.5,3,-4,5.2c-.2,.8,-.3,1.3,.8,1.3h13.8c.9,0,.8,-.5,.7,-1.3c-.5,-2.2,-2,-4.2,-4,-5.2Zm-3.7,-7.9c2.4,0,4.3,1.9,4.3,4.2c0,2.4,-1.9,4.2,-4.3,4.2c-2.3,0,-4.2,-1.8,-4.2,-4.2c0,-2.3,1.9,-4.2,4.2,-4.2Z" class="g4_48" />
<path d="M762.8,325.5l-7.2,-1.2c-.4,-1.4,-1,-2.8,-1.7,-4.1l4.2,-6c.3,-.5,.3,-1.2,-.1,-1.6l-4.8,-4.7c-.4,-.4,-1,-.5,-1.5,-.1l-5.9,4.2c-1.3,-.7,-2.7,-1.3,-4.2,-1.7l-1.2,-7.2c-.1,-.6,-.6,-1,-1.2,-1h-6.7c-.6,0,-1.1,.4,-1.2,1l-1.2,7.1c-1.4,.5,-2.9,1,-4.2,1.8l-5.8,-4.2c-.5,-.4,-1.2,-.3,-1.6,.1l-4.7,4.7c-.5,.4,-.5,1.1,-.2,1.6l4.2,5.9c-.8,1.3,-1.4,2.7,-1.8,4.2l-7.1,1.2c-.6,.1,-1,.6,-1,1.2v6.7c0,.6,.4,1.1,1,1.2l7.1,1.2c.4,1.5,1,2.9,1.7,4.2l-4.1,5.9c-.4,.5,-.3,1.1,.1,1.6l4.7,4.7c.4,.4,1.1,.5,1.6,.1l5.9,-4.1c1.3,.7,2.7,1.3,4.2,1.7l1.2,7.1c.1,.6,.6,1,1.2,1h6.7c.5,0,1.1,-.4,1.2,-1l1.2,-7.1c1.5,-.5,2.9,-1,4.2,-1.8l6,4.2c.4,.4,1.1,.3,1.5,-.1l4.7,-4.7c.5,-.5,.5,-1.1,.2,-1.6L753.9,340c.7,-1.3,1.3,-2.7,1.7,-4.2l7.2,-1.2c.6,-.1,1,-.6,1,-1.2v-6.7c0,-.6,-.4,-1.1,-1,-1.2Zm-26.9,13.1c-4.7,0,-8.5,-3.8,-8.5,-8.5c0,-4.7,3.8,-8.5,8.5,-8.5c4.7,0,8.5,3.8,8.5,8.5c0,4.7,-3.8,8.5,-8.5,8.5Z" class="g5_48" />
<path d="M735.9,370.8c22.5,0,40.7,-18.2,40.7,-40.7c0,-22.5,-18.2,-40.7,-40.7,-40.7c-22.5,0,-40.7,18.2,-40.7,40.7c0,22.5,18.2,40.7,40.7,40.7Z" class="g6_48" />
<path d="M696.6,319.4l-86.9,57.8l117.5,-7.3" class="g7_48" />
<path fill-rule="evenodd" d="M909.3,0h909.5V1286.2H909.3Z" class="g8_48" />
</svg>