<?xml version="1.0" encoding="UTF-8" standalone="no"?>
<!DOCTYPE svg PUBLIC "-//W3C//DTD SVG 1.1//EN"
"http://www.w3.org/Graphics/SVG/1.1/DTD/svg11.dtd">
<svg viewBox="0 0 909 1286" version="1.1" xmlns="http://www.w3.org/2000/svg" xmlns:xlink="http://www.w3.org/1999/xlink">
<defs>
<clipPath id="c0_40"><path d="M171.8,442.7c-9.3,0,-16.9,-7.5,-16.9,-16.8c0,-9.3,7.6,-16.9,16.9,-16.9c9.3,0,16.8,7.6,16.8,16.9c0,9.3,-7.5,16.8,-16.8,16.8Z" /></clipPath>
<clipPath id="c1_40"><path d="M171.8,496.2c-9.3,0,-16.9,-7.5,-16.9,-16.8c0,-9.3,7.6,-16.9,16.9,-16.9c9.3,0,16.8,7.6,16.8,16.9c0,9.3,-7.5,16.8,-16.8,16.8Z" /></clipPath>
<clipPath id="c2_40"><path d="M171.8,549.8c-9.3,0,-16.9,-7.6,-16.9,-16.9c0,-9.3,7.6,-16.9,16.9,-16.9c9.3,0,16.8,7.6,16.8,16.9c0,9.3,-7.5,16.9,-16.8,16.9Z" /></clipPath>
<clipPath id="c3_40"><path d="M171.8,603.3c-9.3,0,-16.9,-7.6,-16.9,-16.9c0,-9.3,7.6,-16.8,16.9,-16.8c9.3,0,16.8,7.5,16.8,16.8c0,9.3,-7.5,16.9,-16.8,16.9Z" /></clipPath>
<clipPath id="c4_40"><path d="M512.7,391.9c-9.3,0,-16.9,-7.5,-16.9,-16.8c0,-9.3,7.6,-16.9,16.9,-16.9c9.3,0,16.8,7.6,16.8,16.9c0,9.3,-7.5,16.8,-16.8,16.8Z" /></clipPath>
<style type="text/css"><![CDATA[
.g0_40{
fill: #FFFFFF;
}
.g1_40{
fill: #6ADBD9;
}
.g2_40{
fill: #FFFFFF;
stroke: #E6E6E6;
stroke-width: 0.33;
stroke-linecap: butt;
stroke-linejoin: miter;
stroke-miterlimit: 22;
}
.g3_40{
fill: #CCCCCC;
fill-opacity: 0.3;
stroke: #E6E6E6;
stroke-width: 0.33;
stroke-linecap: butt;
stroke-linejoin: miter;
stroke-miterlimit: 22;
stroke-opacity: 0.3;
}
.g4_40{
fill: #FFFFFF;
stroke: #FFFFFF;
stroke-width: 0.15277778;
stroke-linecap: butt;
stroke-linejoin: miter;
stroke-miterlimit: 22;
}
.g5_40{
fill: none;
stroke: #62D9D7;
stroke-width: 0.7634306;
stroke-linecap: butt;
stroke-linejoin: miter;
stroke-miterlimit: 22;
}
.g6_40{
fill: #62D9D7;
stroke: #62D9D7;
stroke-width: 0.33;
stroke-linecap: butt;
stroke-linejoin: miter;
stroke-miterlimit: 22;
}
.g7_40{
fill: #62D9D7;
}
.g8_40{
fill: #FFFFFF;
stroke: #62D9D7;
stroke-width: 0.7634306;
stroke-linecap: butt;
stroke-linejoin: miter;
stroke-miterlimit: 22;
}
.g9_40{
fill: #DA89F7;
stroke: #DA89F7;
stroke-width: 0.33;
stroke-linecap: butt;
stroke-linejoin: miter;
stroke-miterlimit: 22;
}
.g10_40{
fill: #DA89F7;
stroke: #DA89F7;
stroke-width: 0.38072225;
stroke-linecap: butt;
stroke-linejoin: miter;
stroke-miterlimit: 22;
}
.g11_40{
fill: none;
stroke: #DA89F7;
stroke-width: 1.0827361;
stroke-linecap: butt;
stroke-linejoin: miter;
stroke-miterlimit: 22;
}
.g12_40{
fill: none;
stroke: #E6E6E6;
stroke-width: 0.86609715;
stroke-linecap: butt;
stroke-linejoin: miter;
stroke-miterlimit: 22;
}
.g13_40{
fill: #B3B3B3;
}
.g14_40{
fill: none;
stroke: #B3B3B3;
stroke-width: 0.33;
stroke-linecap: butt;
stroke-linejoin: miter;
stroke-miterlimit: 22;
}
.g15_40{
fill: #DA89F7;
}
.g16_40{
fill: #E6E6E6;
fill-opacity: 0.3;
}
.g17_40{
fill: none;
stroke: #000000;
stroke-width: 2.1653194;
stroke-linecap: butt;
stroke-linejoin: miter;
stroke-miterlimit: 22;
}
.g18_40{
}
]]></style>
</defs>
<image preserveAspectRatio="none" x="455" y="748" width="453" height="538" xlink:href="img/1.png" />
<image x="0" y="0" width="911" height="1289" xlink:href="shade/1.png" />
<path fill-rule="evenodd" d="M63.7,140.6C21.2,127.3,32.7,27.1,105.9,72.3C123.5,83.1,115.1,94,155,86.2c44.2,-8.7,18.7,100.3,-49.7,67.8C78.1,141.1,73.9,149.5,37.1,161.6c-.1,0,-.8,.1,-.9,.1Z" class="g0_40" />
<path fill-rule="evenodd" d="M145,309.8H433.6V265.7H145Z" class="g1_40" />
<path fill-rule="evenodd" d="M145,779.1H433.6V309.8H145Z" class="g2_40" />
<path fill-rule="evenodd" d="M145,340.6H433.6V748.3H145Z" class="g3_40" />
<path fill-rule="evenodd" d="M307.8,297c-8.8,-2.8,-6.5,-23.7,8.8,-14.3c3.7,2.3,1.9,4.6,10.2,2.9c9.2,-1.8,3.9,20.9,-10.3,14.2c-5.7,-2.7,-6.6,-1,-14.2,1.5c-.1,.1,-.2,.1,-.2,.1Zm7.6,-2.3v1.1c0,.4,.1,.7,.1,.9c.1,.2,.2,.3,.4,.5c.1,.1,.4,.3,.7,.4c.3,.1,.7,.1,1.2,.1c.6,0,1.1,-.1,1.5,-.3c.3,-.2,.5,-.4,.6,-.7c.1,-.1,.2,-.5,.2,-.9v-1.1Zm-.9,-.9H321v2c0,.5,0,.8,-.1,1c-.1,.4,-.2,.7,-.4,.9c-.3,.3,-.7,.6,-1.2,.7c-.4,.2,-.9,.2,-1.5,.2c-.5,0,-1,0,-1.3,-.1c-.4,-.1,-.7,-.3,-1,-.4c-.3,-.2,-.4,-.4,-.6,-.6c-.1,-.1,-.2,-.4,-.3,-.7c-.1,-.2,-.1,-.6,-.1,-.9Zm4.7,-1.9h3.7v-4.7h-.8V291H320v-3.7h-.8V291Zm-7.5,-1.2h4.4v1.2h-5.5v-7.1h5.5V286h-4.4v1.7h4.4v1.2h-4.4Z" class="g0_40" />
<path d="M244.8,301.2h-1.1V290.9h1.1Zm3.7,0h-1.1V290.9h1.1l5.5,8.4v-8.4h1.1v10.3H254l-5.5,-8.3ZM259.7,292h-3.2v-1.1H264V292h-3.2Zm21.4,2H280c-.1,-.7,-.4,-1.3,-.9,-1.7c-.5,-.4,-1.1,-.6,-1.8,-.6c-.4,0,-.7,.1,-1.1,.2c-.3,.2,-.6,.4,-.9,.7c-.3,.3,-.5,.6,-.6,1.1c-.2,.5,-.3,1,-.3,1.6v1.5c0,1.1,.3,2,.8,2.7c.5,.6,1.2,.9,2.1,.9c.8,0,1.5,-.2,2,-.6c.5,-.5,.7,-1,.7,-1.7V297h-2.8v-1.1h3.9v2.2c0,.2,0,.5,-.1,.8c-.1,.3,-.2,.6,-.4,.9c-.2,.3,-.4,.6,-.7,.8c-.3,.3,-.7,.5,-1.1,.6c-.4,.2,-.9,.2,-1.5,.2c-1.3,0,-2.3,-.4,-3,-1.2c-.6,-.8,-1,-2,-1,-3.4v-1.5c0,-1.4,.4,-2.6,1.1,-3.4c.7,-.8,1.7,-1.2,3,-1.2c.5,0,1.1,.1,1.5,.3c.5,.2,.9,.4,1.2,.7c.3,.3,.5,.7,.7,1.1c.2,.3,.3,.8,.3,1.2Zm3.3,2v5.2h-1.1V290.9h3.6c.5,0,1,.1,1.4,.3c.5,.2,.8,.4,1.1,.7c.2,.2,.4,.6,.5,.9c.2,.4,.2,.8,.2,1.2c0,.4,0,.7,-.1,1.1c-.1,.3,-.3,.6,-.5,.8c-.2,.2,-.4,.4,-.6,.6c-.2,.1,-.5,.2,-.7,.3l2.1,4.4H289L286.8,296c.7,0,1.2,-.2,1.6,-.5c.4,-.3,.6,-.8,.6,-1.5c0,-.6,-.2,-1.1,-.6,-1.5c-.4,-.4,-1,-.5,-1.6,-.5h-2.4Zm9.5,1.1l-.4,.9l-1,3.2h-1.2L295,290.9h1.1l3.7,10.3h-1.2L297.5,298l-.3,-.9m0,0l-1.7,-4.8l-1.6,4.8m7.4,3.5c0,-.2,.1,-.4,.2,-.6c.2,-.1,.4,-.2,.6,-.2c.2,0,.4,.1,.5,.2c.2,.2,.3,.4,.3,.6c0,.2,-.1,.4,-.3,.5c-.1,.2,-.3,.3,-.5,.3c-.2,0,-.4,-.1,-.6,-.3c-.1,-.1,-.2,-.3,-.2,-.5Z" class="g4_40" />
<path fill-rule="evenodd" d="M265.5,290.9h6.1V292h-5.1v8.2h5.1v1h-6.1c0,-3.4,0,-6.8,0,-10.3Z" class="g4_40" />
<path fill-rule="evenodd" d="M271.3,296.5h-3.4v-1h3.4Z" class="g4_40" />
<path fill-rule="evenodd" d="M280,297h-2.8v-1.1H280Z" class="g4_40" />
<path fill-rule="evenodd" d="M260.7,301.2v-7.9h-1v7.9Z" class="g4_40" />
<path d="M419.5,293.3l-2.3,-.3c-.1,-.5,-.3,-.9,-.5,-1.3l1.3,-1.9c.1,-.2,.1,-.4,-.1,-.5l-1.4,-1.5c-.2,-.1,-.4,-.2,-.5,-.1l-1.9,1.4c-.4,-.2,-.9,-.4,-1.3,-.6l-.4,-2.2c-.1,-.2,-.2,-.3,-.4,-.3h-2.1c-.2,0,-.4,.1,-.4,.3l-.4,2.2c-.4,.2,-.9,.3,-1.3,.6L406,287.7c-.2,-.1,-.4,0,-.5,.1l-1.5,1.5c-.2,.1,-.2,.3,-.1,.5l1.3,1.8c-.2,.5,-.4,.9,-.5,1.4l-2.3,.3c-.2,.1,-.3,.2,-.3,.4v2.1c0,.2,.1,.4,.3,.4l2.3,.4c.1,.5,.3,.9,.5,1.3l-1.3,1.9c-.1,.2,-.1,.4,0,.5l1.5,1.5c.2,.1,.4,.1,.5,0l1.9,-1.3c.4,.3,.9,.4,1.3,.6l.4,2.2c0,.2,.2,.3,.4,.3H412c.2,0,.3,-.1,.4,-.3l.4,-2.2c.4,-.2,.9,-.4,1.3,-.6l1.9,1.3c.1,.1,.3,.1,.5,0l1.5,-1.5c.1,-.1,.1,-.3,0,-.5l-1.3,-1.9c.2,-.4,.4,-.8,.5,-1.3l2.3,-.4c.2,0,.3,-.2,.3,-.4v-2.1c0,-.2,-.1,-.3,-.3,-.4Zm-8.5,4.2c-1.5,0,-2.7,-1.2,-2.7,-2.7c0,-1.5,1.2,-2.7,2.7,-2.7c1.4,0,2.6,1.2,2.6,2.7c0,1.5,-1.2,2.7,-2.6,2.7Z" class="g0_40" />
<path d="M158.9,293.6h16.5v1.9H158.9Z" class="g0_40" />
<path d="M158.9,288.1h16.5V290H158.9Z" class="g0_40" />
<path d="M158.9,299.2h16.5V301H158.9Z" class="g0_40" />
<path d="M145,340.6H433.6" class="g5_40" />
<path fill-rule="evenodd" d="M165,324.1c0,.3,.1,.5,.3,.7c1.9,1.9,3.8,3.8,5.7,5.6c.2,.3,.6,.7,1,.8h.2c.1,0,.2,-.1,.3,-.2c.3,-.3,.3,-.8,0,-1.1c-.6,-.6,-5.7,-5.6,-5.7,-5.7c.1,-.1,4.8,-4.9,5.3,-5.4c.4,-.4,.6,-.5,.6,-.9c0,-.4,-.3,-.7,-.7,-.7c-.4,0,-.8,.5,-1,.7c-1.7,1.8,-3.5,3.5,-5.2,5.2c-.2,.2,-.8,.7,-.8,1Z" class="g6_40" />
<path fill-rule="evenodd" d="M157.7,766.5c.1,-.1,2,-2,2.2,-2.2c.3,-.4,.7,-.7,1.1,-1.1l5.4,-5.5c0,-.1,-2.3,-2.4,-2.4,-2.4l-3.3,3.3c-1,1.1,-2.2,2.2,-3.3,3.3l-2.1,2.2c0,.1,1,1,1.1,1.2c.2,.2,1.2,1.1,1.3,1.2Z" class="g1_40" />
<path fill-rule="evenodd" d="M168.5,755.7v-.1c-.1,0,-.2,-.2,-.3,-.3c-.2,-.2,-2,-2,-2.1,-2l-1.3,1.3c0,.1,.4,.5,.5,.6c.2,.2,1.7,1.7,1.9,1.8Z" class="g1_40" />
<path fill-rule="evenodd" d="M153.5,768l1.7,-.4c.1,-.1,1.6,-.4,1.7,-.5l-.4,-.4c-.3,-.3,-.2,-.3,-.5,-.2c-.2,0,-1.1,.3,-1.3,.3l.5,-1.4c-.1,-.1,-.5,-.5,-.6,-.6c0,.1,-.2,.7,-.3,.8l-.5,1.6c-.1,.2,-.2,.6,-.3,.8Z" class="g1_40" />
<path fill-rule="evenodd" d="M274.1,763.1c0,.5,.3,.9,.7,.9h.9v4.9c0,.3,.3,.7,.7,.7h2.5v-4c0,-.5,.4,-.8,.8,-.8h1.6c.5,0,.8,.4,.8,.9v3.9h2.5c.4,0,.7,-.4,.7,-.7V764h.9c.4,0,.7,-.4,.8,-.8v-.1c-.1,-.1,-.1,-.2,-.2,-.4c-.1,-.2,-1.4,-1.4,-1.4,-1.5c-.1,-.1,-.1,-.3,-.1,-.5c0,-.6,0,-1.3,0,-1.9c0,-.4,.1,-.6,-.1,-.9c-.3,-.5,-.8,-.4,-1.5,-.4c-.3,0,-.5,.2,-.7,.4c-.1,.3,-.1,.4,-.1,.9c-.1,-.1,-.4,-.4,-.5,-.6c-.2,-.2,-.4,-.3,-.6,-.5c-.2,-.2,-.3,-.4,-.5,-.6c-.3,-.2,-.5,-.4,-.8,-.4c-.5,0,-.8,.4,-1,.7l-2.4,2.4c-.5,.5,-1.1,1,-1.6,1.6c-.3,.2,-.5,.5,-.8,.8c-.2,.2,-.6,.5,-.6,.9Z" class="g7_40" />
<path fill-rule="evenodd" d="M226.1,764.2c0,-.1,.3,-1.5,.3,-1.7H229l-.3,1.7Zm-5.2,.9c0,.3,.1,.6,.3,.9c.1,.1,.3,.2,.6,.2c.5,.1,1.2,0,1.8,0c-.1,.3,-.3,1.6,-.4,2c-.1,.4,-.1,.6,.1,1c.2,.4,.5,.3,.7,.4c.4,0,.7,-.1,1,-.5c.1,-.2,.2,-.6,.2,-.9c.1,-.3,.4,-1.9,.4,-2h2.7c-.1,.3,-.1,.7,-.2,1c-.1,.3,-.1,.7,-.2,1c-.1,.5,-.1,.9,.4,1.2c.1,.1,.2,.1,.4,.2c.2,0,.5,0,.7,-.2c.4,-.2,.4,-.7,.5,-1.2c.1,0,.4,-1.9,.5,-2c0,0,2,0,2.2,0c.4,0,.7,0,1,-.1c.8,-.6,.5,-1.9,-.6,-1.9c-.7,0,-1.5,0,-2.2,0l.3,-1.7c.2,0,1.8,0,2.1,0c.4,0,.6,0,.8,-.2c.3,-.2,.3,-.5,.4,-.7v-.3c-.1,-.2,0,-.3,-.3,-.6c-.2,-.1,-.4,-.2,-.7,-.2c-.6,0,-1.3,0,-1.9,0c.1,-.7,.8,-2.7,.5,-3.3c-.4,-.7,-1.5,-.7,-1.8,.1c-.2,.3,-.6,2.7,-.7,3.2h-2.7c0,-.2,.4,-1.8,.5,-2.2c0,-.4,.1,-.7,-.1,-1.1c-.3,-.5,-1,-.7,-1.5,-.3c-.4,.3,-.4,.8,-.5,1.4c-.1,.4,-.2,.8,-.2,1.1l-.2,1.1c-.1,0,0,0,-.1,0c-.1,.1,-1.8,0,-2.1,0c-.4,0,-.6,0,-.9,.2c-.8,.6,-.4,1.8,.5,1.8c.3,.1,1.7,.1,2.1,0l-.3,1.7c-.7,0,-1.4,0,-2,0c-.4,0,-.6,.1,-.8,.3c-.2,.2,-.2,.5,-.3,.6Z" class="g7_40" />
<path d="M145,748.3H433.6" class="g5_40" />
<path fill-rule="evenodd" d="M390.2,752.4H421c.3,0,.5,.2,.5,.4V770c0,.3,-.2,.5,-.5,.5H390.2c-.3,0,-.6,-.2,-.6,-.5V752.8c0,-.2,.3,-.4,.6,-.4Z" class="g8_40" />
<path fill-rule="evenodd" d="M413.6,766.3c.2,0,.2,-.1,.4,-.2c1,-1,2,-2,3,-3c.1,-.1,.4,-.3,.4,-.6v-.1c0,0,0,-.1,-.1,-.2c-.2,-.1,-.4,-.1,-.6,.1c-.3,.3,-3,3,-3.1,3.1c0,-.1,-2.6,-2.7,-2.9,-2.9c-.2,-.2,-.2,-.4,-.5,-.4c-.2,0,-.3,.2,-.3,.4c0,.2,.2,.5,.3,.6c1,.9,1.9,1.8,2.9,2.8c.1,.1,.3,.4,.5,.4Z" class="g9_40" />
<path fill-rule="evenodd" d="M395.8,759h8.1c.8,0,1.4,.7,1.4,1.5v5c0,.8,-.6,1.5,-1.4,1.5h-8.1c-.8,0,-1.4,-.7,-1.4,-1.5v-5c0,-.8,.6,-1.5,1.4,-1.5Z" class="g10_40" />
<path d="M396.6,758.4c.1,-5.9,6.6,-5.3,6.5,0" class="g11_40" />
<path fill-rule="evenodd" d="M151.6,394.1H427.1V350.6H151.6Z" class="g0_40" />
<path fill-rule="evenodd" d="M202.5,384.9c-2.9,0,-5.2,-2.4,-5.2,-5.2c0,-2.9,2.3,-5.2,5.2,-5.2c2.8,0,5.1,2.3,5.1,5.2c0,1.1,-.3,2.1,-.9,3l2.6,2.6c.3,.3,.3,.9,0,1.2c-.4,.4,-.9,.4,-1.3,0l-2.6,-2.6c-.8,.6,-1.8,1,-2.9,1Zm0,-1.7c-2,0,-3.5,-1.6,-3.5,-3.5c0,-1.9,1.5,-3.5,3.5,-3.5c1.9,0,3.4,1.6,3.4,3.5c0,1.9,-1.5,3.5,-3.4,3.5Z" class="g7_40" />
<path d="M195,370.9H383.6c1.8,0,3.2,1.4,3.2,3.2v12.7c0,1.7,-1.4,3.2,-3.2,3.2H195c-1.7,0,-3.2,-1.5,-3.2,-3.2V374.1c0,-1.8,1.5,-3.2,3.2,-3.2Z" class="g12_40" />
<path fill-rule="evenodd" d="M326.6,761.4c0,.3,.1,.3,.6,.4l2.3,.7c-.3,.5,-.4,.5,-.6,1.2c-.1,.4,-.2,1,-.2,1.5c-.3,.2,-.6,.4,-.6,.8c0,.3,.1,.4,.2,.6c0,.1,.2,.3,.3,.3l-.1,1c-.1,.8,-.2,1.7,-.3,2.5c-.1,.2,.1,.3,.2,.3H330c.3,0,.2,-.5,.2,-.7c0,-.1,-.1,-.3,-.1,-.4c0,-.4,-.3,-2.5,-.3,-2.7c.3,-.2,.4,-.4,.4,-.9c0,-.4,-.2,-.7,-.5,-.8c.1,-.2,.1,-.6,.2,-1.1c.1,-.4,.3,-.9,.6,-1.2h.1c0,0,.8,.2,.9,.3c.7,.2,1.5,.4,2.2,.6q.1,.1,.2,.1c.4,.1,1.7,.6,2,.6c.1,0,.2,0,.3,-.1l3.2,-1c.2,0,.4,-.1,.6,-.1l2.3,-.8c.2,0,.4,-.1,.6,-.2l2,-.6q.2,-.1,.2,-.2v-.1c0,-.1,-.1,-.2,-.1,-.2L341.2,760c-.8,-.3,-1.6,-.5,-2.3,-.8l-2.4,-.7c-.7,-.2,-.6,-.2,-1.2,0l-2.4,.7c-.2,.1,-.4,.2,-.6,.2l-5.2,1.7c-.2,0,-.5,.1,-.5,.3Z" class="g7_40" />
<path fill-rule="evenodd" d="M330.7,766.7c0,.4,.4,.7,.8,.9c.2,.2,.5,.3,.8,.5c.1,0,.2,0,.3,.1c1.9,.6,4.7,.6,6.7,-.1c.2,-.1,.6,-.2,.8,-.3c.4,-.3,.8,-.5,.9,-1c0,-.1,0,-.3,0,-.5c0,-.1,0,-.2,0,-.3l-.1,-2c-.1,0,-.2,.1,-.3,.1l-3.4,1.1c-.2,.1,-.4,.1,-.6,.2c-.7,.2,-.8,.2,-1.4,0L334,765c-.2,-.1,-.4,-.1,-.6,-.2l-2.5,-.8Z" class="g7_40" />
<path fill-rule="evenodd" d="M263.3,357.2c0,.4,.1,.4,.8,.6l2.6,.8c-.3,.5,-.4,.5,-.6,1.4c-.2,.4,-.3,1.2,-.3,1.7c-.4,.3,-.7,.5,-.7,1c0,.3,.1,.5,.2,.7c.1,.1,.3,.3,.4,.4l-.2,1.1c-.1,1,-.2,2,-.3,2.9c-.1,.3,.1,.4,.2,.4h1.9c.4,0,.3,-.5,.2,-.7c0,-.2,0,-.4,0,-.6c-.1,-.4,-.4,-2.9,-.4,-3.1c.3,-.3,.5,-.6,.5,-1.1c0,-.4,-.2,-.8,-.6,-1c0,-.2,0,-.6,.2,-1.2c.1,-.5,.4,-1.1,.7,-1.4c0,0,.1,-.1,.1,-.1c0,0,1,.3,1.1,.4c.9,.2,1.7,.5,2.6,.8c.1,0,.2,0,.2,0c.5,.2,2.1,.7,2.4,.7c.1,0,.2,0,.3,0l3.8,-1.2c.2,-.1,.5,-.2,.7,-.2l2.8,-.9c.2,-.1,.4,-.2,.6,-.2l2.5,-.8q.2,-.1,.2,-.3v-.1c0,-.1,-.1,-.2,-.2,-.2l-4.5,-1.4c-.9,-.3,-1.8,-.6,-2.7,-.9l-2.8,-.8c-.8,-.3,-.7,-.3,-1.5,0l-2.7,.8c-.3,.1,-.5,.2,-.7,.2l-6.2,2c-.2,.1,-.6,.1,-.6,.3Z" class="g7_40" />
<path fill-rule="evenodd" d="M268.2,363.5c0,.5,.5,.9,.8,1.1c.4,.3,.7,.4,1,.5c.2,.1,.3,.1,.4,.2c2.3,.7,5.6,.7,7.9,-.1c.3,-.1,.7,-.3,1,-.4c.4,-.3,.8,-.6,1,-1.1c.1,-.2,0,-.4,0,-.6q0,-.2,0,-.4l-.1,-2.3c-.2,0,-.3,0,-.4,.1l-4,1.2c-.3,.1,-.5,.2,-.7,.3c-.8,.2,-.9,.2,-1.6,0l-1.5,-.5c-.2,-.1,-.5,-.1,-.7,-.2l-2.9,-.9Z" class="g7_40" />
<path fill-rule="evenodd" d="M151.6,447.6H427.1V404.1H151.6Z" class="g0_40" />
<path fill-rule="evenodd" d="M171.8,409c9.3,0,16.8,7.6,16.8,16.9c0,9.3,-7.5,16.8,-16.8,16.8c-9.3,0,-16.9,-7.5,-16.9,-16.8c0,-9.3,7.6,-16.9,16.9,-16.9Z" class="g13_40" />
<g clip-path="url(#c0_40)">
<path fill-rule="evenodd" d="M176.6,426.8c-.5,.4,-1.4,1,-2,1.3c-1.7,.8,-4,.8,-5.6,0c-.6,-.3,-1.6,-.9,-2.1,-1.3c-2.6,1.3,-4.6,4,-5.2,6.9c-.3,1.1,-.4,1.8,.9,1.8H181c1.3,0,1.1,-.8,.9,-1.8c-.7,-2.9,-2.7,-5.6,-5.3,-6.9Zm-4.8,-10.5c3.1,0,5.6,2.5,5.6,5.6c0,3.1,-2.5,5.6,-5.6,5.6c-3.2,0,-5.7,-2.5,-5.7,-5.6c0,-3.1,2.5,-5.6,5.7,-5.6Z" class="g0_40" />
</g>
<path d="M171.8,409c9.3,0,16.8,7.6,16.8,16.9c0,9.3,-7.5,16.8,-16.8,16.8c-9.3,0,-16.9,-7.5,-16.9,-16.8c0,-9.3,7.6,-16.9,16.9,-16.9Z" class="g14_40" />
<path fill-rule="evenodd" d="M371.5,426.7H408v.4H371.5Z" class="g15_40" />
<path fill-rule="evenodd" d="M300.9,411.8c0,.2,.1,.2,.4,.3l1.4,.4q-.2,.3,-.4,.7c0,.3,-.1,.6,-.1,.9c-.2,.1,-.3,.3,-.3,.6c0,.1,0,.2,.1,.3c0,0,.1,.2,.2,.2l-.1,.6c-.1,.5,-.1,1,-.2,1.5c0,.1,0,.2,.1,.2h1c.2,0,.1,-.3,.1,-.4c0,-.1,0,-.2,0,-.3c-.1,-.2,-.2,-1.5,-.2,-1.6c.1,-.1,.2,-.3,.2,-.6c0,-.2,-.1,-.4,-.3,-.5c0,-.1,0,-.3,.1,-.6c.1,-.3,.2,-.6,.4,-.7c0,0,0,-.1,0,-.1c.1,0,.5,.2,.6,.2c.4,.2,.9,.3,1.3,.4c.1,0,.1,.1,.2,.1c.2,0,1,.3,1.2,.3c0,0,.1,0,.1,0l2,-.6c.1,-.1,.2,-.1,.3,-.1l1.5,-.5c.1,0,.2,-.1,.3,-.1L312,412c.1,0,.2,-.1,.2,-.1v-.1c0,0,-.1,-.1,-.1,-.1l-2.3,-.7c-.5,-.2,-1,-.3,-1.4,-.5l-1.5,-.4c-.4,-.1,-.3,-.1,-.7,0l-1.4,.4c-.2,.1,-.3,.1,-.4,.1l-3.2,1c-.1,.1,-.3,.1,-.3,.2Z" class="g15_40" />
<path fill-rule="evenodd" d="M303.4,415c0,.3,.3,.5,.5,.6c.1,.1,.3,.2,.5,.3q.1,0,.2,0c1.1,.4,2.8,.4,4,0c.2,0,.4,-.1,.5,-.2c.3,-.1,.5,-.3,.6,-.6c0,-.1,0,-.2,0,-.3q0,-.1,0,-.2l-.1,-1.2c-.1,0,-.1,.1,-.2,.1l-2.1,.6c-.1,.1,-.2,.1,-.3,.1c-.4,.2,-.5,.2,-.9,.1l-.7,-.3c-.1,0,-.2,-.1,-.4,-.1l-1.5,-.5Z" class="g15_40" />
<path fill-rule="evenodd" d="M302.7,428.8h7.7v-1.2c0,-.2,-.2,-.4,-.4,-.4h-6.8c-.3,0,-.5,.2,-.5,.5Zm-.3,-6.5c0,.2,0,.3,.1,.4h8.1c.1,0,.1,-.2,.1,-.3l-4.2,-2.3Zm6,.9h1.4v3.6h-1.4Zm-5.1,0h1.4v3.6h-1.4Zm2.6,0h1.3v3.6h-1.3Z" class="g15_40" />
<path fill-rule="evenodd" d="M304.2,440.3c0,0,.1,0,.1,0q0,.1,.1,.1l.1,.1c-.1,0,-.2,0,-.2,-.1c0,0,-.1,-.1,-.1,-.1Zm3.1,-2.6c-.1,.1,-.1,0,-.1,0h.1Zm.3,.1l-.1,.1c-.1,0,-.1,-.1,-.1,-.1q-.1,0,-.1,-.1c.1,0,0,0,.1,0c0,.1,0,0,0,.1c0,0,.1,0,.1,0h.1Zm-3.1,-3.7c-.1,.2,-.2,0,-.2,0c0,0,-.1,0,-.1,-.1q.1,0,.1,0c0,.1,0,0,.1,.1c0,.1,0,0,.1,0Zm.1,-.3v-.1h3.9c0,.3,0,.5,0,.8c0,.3,0,.4,-.1,.7c-.2,.5,-.6,.9,-1.1,1.3c-.1,.1,-.4,.3,-.4,.3c-.2,.2,-.2,.5,-.1,.7c.1,.1,.4,.3,.5,.3c0,0,.1,0,.1,.1v.1l.4,.3c.3,.2,.7,.9,.7,1.3c0,0,.1,1.1,0,1.2c0,0,-2.6,0,-2.9,0c-.4,0,-.7,0,-1,0l-.1,-.4c0,.1,-.1,0,-.1,-.1c0,-.1,.1,-.1,.2,-.1c-.1,-.1,-.1,-.6,0,-.6c0,-.3,.2,-.7,.3,-.9c.2,-.2,.4,-.5,.7,-.7c0,0,.1,-.1,.1,-.1c.3,-.2,.6,-.3,.6,-.6c.1,-.4,-.1,-.5,-.3,-.7c-.6,-.4,-1.1,-.8,-1.4,-1.5c-.1,-.3,0,-.7,0,-1q-.1,0,-.2,0c-.1,-.1,0,-.3,.2,-.2q-.1,0,-.1,-.1h.1Zm-.5,.3c.2,-.1,.3,.2,.1,.2v.1h-.1c0,.4,.1,.6,.2,.9c.1,.3,.2,.6,.4,.8c.2,.2,.6,.5,.9,.8c.1,0,.2,.1,.3,.2c0,.2,0,.1,-.1,.2c-.4,.3,-.9,.7,-1.2,1.1c-.1,.2,-.3,.5,-.4,.8c-.1,.4,-.1,.9,-.1,1.2c.1,0,.2,0,.2,.2c-.1,0,-.1,.1,-.2,0q.1,0,.1,.1h-.1q0,.1,-.1,.1c0,0,-.1,.1,-.1,.1c0,.1,0,0,0,.1c-.1,.1,-.1,.5,.3,.5c.8,0,1.8,0,2.6,0c.6,0,1.1,0,1.7,0c.3,0,.6,.1,.7,-.2c0,-.1,0,-.3,0,-.4c-.1,-.1,-.2,-.1,-.2,-.1c-.1,-1.3,.1,-1.5,-.7,-2.6c-.1,-.1,-.5,-.5,-.6,-.5c-.1,-.1,.1,0,-.1,.1v.1c0,0,0,-.1,-.1,-.1v-.1c-.1,-.1,.1,-.1,.1,-.2c0,0,-.2,-.1,-.3,-.1q-.1,-.1,-.1,-.3c0,0,.1,-.1,.2,-.1c.7,-.6,1.3,-1.1,1.5,-2c.1,-.3,.1,-1,.1,-1.3c.1,0,.2,-.1,.2,-.2c.1,-.1,0,-.3,0,-.4c-.1,-.2,-.5,-.2,-.8,-.2h-3.7c-.3,0,-.7,0,-.8,.2c0,.1,-.1,.3,0,.4c0,.1,.1,.1,.2,.2Z" class="g15_40" />
<path fill-rule="evenodd" d="M306.9,438.3c0,.1,-.1,.2,-.1,.1c0,.1,-.1,.2,-.2,.2c-.1,-.1,-.1,-.2,0,-.2q0,-.1,0,-.2c.1,.1,0,.1,.1,.1c0,0,0,-.1,.1,-.1v.2q.1,-.1,.1,-.1Zm.3,-.1q-.1,0,-.1,-.1c0,.1,0,.2,-.1,.2v.1c-.1,0,0,0,-.1,-.1c0,0,-.1,-.1,0,-.2c0,0,.1,0,.1,0V438c-.1,0,-.3,-.2,-.4,-.2c-.1,-.1,-.4,.1,-.4,.2c-.6,.3,-1,.8,-1.2,1.4c0,.2,-.2,1,-.1,1.1c.1,.1,1.4,.1,1.6,.1c.3,0,1.6,0,1.7,-.1c.1,0,0,-.2,0,-.3c0,-.4,-.1,-.8,-.2,-1.1c-.2,-.3,-.5,-.7,-.7,-.9Z" class="g15_40" />
<path fill-rule="evenodd" d="M306.7,436.6c.3,-.1,.4,-.2,.6,-.4c.3,-.2,.8,-.8,.7,-1c-.1,0,-1.9,0,-2.2,0q-.8,0,-.6,.3c0,.1,.1,.2,.2,.3c0,.1,.1,.1,.1,.2c0,0,.1,0,.1,.1l.3,.2c.1,.1,.2,.2,.4,.3q.2,.1,.4,0Z" class="g15_40" />
<path fill-rule="evenodd" d="M304.6,440.2l-.1,.2l.1,.4c.3,0,.6,0,1,0c.3,0,2.9,0,2.9,0c.1,-.1,0,-1.2,0,-1.2v1.2h-3.9v-1.2c-.1,0,-.1,.5,0,.6Z" class="g15_40" />
<path fill-rule="evenodd" d="M306.7,438.5q-.1,0,-.1,-.1c0,0,.1,0,.1,.1Zm.1,-.1c0,-.1,-.1,-.1,0,-.1v.1Zm.1,-.1l-.1,.1v-.2c-.1,0,-.1,.1,-.1,.1c-.1,0,0,0,-.1,-.1q0,.1,0,.2c-.1,0,-.1,.1,0,.2c.1,0,.2,-.1,.2,-.2c0,.1,.1,0,.1,-.1Z" class="g15_40" />
<path fill-rule="evenodd" d="M306.9,438.1c.1,0,.2,.1,.1,.1c0,.1,-.1,0,-.1,-.1Zm0,.2c.1,.1,0,.1,.1,.1q0,-.1,0,-.1c.1,0,.1,-.1,.1,-.2q0,.1,.1,.1q-.1,-.1,-.2,-.2v.1c0,0,-.1,0,-.1,0c-.1,.1,0,.2,0,.2Z" class="g15_40" />
<path fill-rule="evenodd" d="M307.6,437.7c-.1,.1,-.1,-.1,0,-.1c.1,.1,0,0,0,.1Zm.1,0c0,-.1,-.1,-.1,-.1,-.2c0,.1,-.2,.1,-.1,.2q0,.1,0,.1c.1,0,.1,.1,.1,.1q0,-.1,0,-.1c.2,-.1,0,-.2,.1,-.1Z" class="g15_40" />
<path fill-rule="evenodd" d="M304.2,434.3q0,-.1,0,-.1h.1c0,.1,-.1,.1,-.1,.1Zm-.1,-.2v.3h.1v-.1c.2,0,.1,-.3,-.1,-.2Z" class="g15_40" />
<path fill-rule="evenodd" d="M304.5,434c0,.1,-.1,.1,-.1,0c0,-.1,.1,-.1,.1,0Zm.1,.1v-.2c-.2,-.1,-.3,.1,-.2,.2q.1,0,.2,0Z" class="g15_40" />
<path fill-rule="evenodd" d="M304.3,440.5q0,.1,-.1,.1c-.1,-.1,0,-.2,.1,-.1Zm-.2,-.1v.2c.1,.1,.1,0,.2,0c0,-.2,-.1,-.2,-.2,-.2Z" class="g15_40" />
<path fill-rule="evenodd" d="M304.4,440.3c.1,-.1,.2,0,.1,.1h-.1Zm.1,.1l.1,-.2c-.1,0,-.2,0,-.2,.1c0,.1,.1,.2,.1,.1Z" class="g15_40" />
<path fill-rule="evenodd" d="M307.5,437.9l.1,-.1q-.1,0,-.1,0c0,0,-.1,0,-.1,0c0,-.1,0,0,0,-.1c-.1,0,0,0,-.1,0q0,.1,.1,.1c0,0,0,.1,.1,.1Z" class="g15_40" />
<path fill-rule="evenodd" d="M304.5,434.1c-.1,0,-.1,.1,-.1,0c-.1,-.1,-.1,0,-.1,-.1h-.1c0,.1,.1,.1,.1,.1c0,0,.1,.2,.2,0Z" class="g15_40" />
<path fill-rule="evenodd" d="M304.3,440.3c0,0,-.1,0,-.1,0c0,0,.1,.1,.1,.1c0,.1,.1,.1,.2,.1l-.1,-.1q-.1,0,-.1,-.1Z" class="g15_40" />
<path fill-rule="evenodd" d="M307.3,437.8v.1q.1,0,.1,.1q0,-.1,0,-.1c0,-.1,-.1,-.1,-.1,-.1Z" class="g15_40" />
<path fill-rule="evenodd" d="M306.7,438.5c0,-.1,-.1,-.1,-.1,-.1q0,.1,.1,.1Z" class="g15_40" />
<path fill-rule="evenodd" d="M306.9,438.1c0,.1,.1,.2,.1,.1c.1,0,0,-.1,-.1,-.1Z" class="g15_40" />
<path fill-rule="evenodd" d="M307.6,437.7c0,-.1,.1,0,0,-.1c-.1,0,-.1,.2,0,.1Z" class="g15_40" />
<path fill-rule="evenodd" d="M304.5,434c0,-.1,-.1,-.1,-.1,0c0,.1,.1,.1,.1,0Z" class="g15_40" />
<path fill-rule="evenodd" d="M304.4,440.3v.1h.1c.1,-.1,0,-.2,-.1,-.1Z" class="g15_40" />
<path fill-rule="evenodd" d="M304.2,434.3c0,0,.1,0,.1,-.1h-.1v.1Z" class="g15_40" />
<path fill-rule="evenodd" d="M304.3,440.5c-.1,-.1,-.2,0,-.1,.1q.1,0,.1,-.1Z" class="g15_40" />
<path fill-rule="evenodd" d="M303.9,441c0,-.1,0,0,0,-.1v.1Z" class="g15_40" />
<path fill-rule="evenodd" d="M304.1,440.7q.1,0,.1,0q0,-.1,-.1,-.1Z" class="g15_40" />
<path fill-rule="evenodd" d="M306.8,438.4q0,-.1,0,-.1c-.1,0,0,0,0,.1Z" class="g15_40" />
<path fill-rule="evenodd" d="M304.6,433.9v-.1q-.1,0,-.1,0q0,.1,.1,.1Z" class="g15_40" />
<path fill-rule="evenodd" d="M307.2,437.7c0,0,0,.1,.1,0q-.1,0,-.1,0Z" class="g15_40" />
<path fill-rule="evenodd" d="M309.2,433.1h.1l-.1,-.1Z" class="g15_40" />
<path fill-rule="evenodd" d="M151.6,501.1H427.1V457.7H151.6Z" class="g0_40" />
<path fill-rule="evenodd" d="M171.8,462.5c9.3,0,16.8,7.6,16.8,16.9c0,9.3,-7.5,16.8,-16.8,16.8c-9.3,0,-16.9,-7.5,-16.9,-16.8c0,-9.3,7.6,-16.9,16.9,-16.9Z" class="g13_40" />
<g clip-path="url(#c1_40)">
<path fill-rule="evenodd" d="M176.6,480.3c-.5,.4,-1.4,1.1,-2,1.3c-1.7,.8,-4,.8,-5.6,0c-.6,-.3,-1.6,-.9,-2.1,-1.3c-2.6,1.3,-4.6,4,-5.2,6.9c-.3,1.1,-.4,1.8,.9,1.8H181c1.3,0,1.1,-.8,.9,-1.8c-.7,-2.9,-2.7,-5.6,-5.3,-6.9Zm-4.8,-10.5c3.1,0,5.6,2.5,5.6,5.6c0,3.1,-2.5,5.6,-5.6,5.6c-3.2,0,-5.7,-2.5,-5.7,-5.6c0,-3.1,2.5,-5.6,5.7,-5.6Z" class="g0_40" />
</g>
<path d="M171.8,462.5c9.3,0,16.8,7.6,16.8,16.9c0,9.3,-7.5,16.8,-16.8,16.8c-9.3,0,-16.9,-7.5,-16.9,-16.8c0,-9.3,7.6,-16.9,16.9,-16.9Z" class="g14_40" />
<path fill-rule="evenodd" d="M371.5,480.2H408v.4H371.5Z" class="g15_40" />
<path fill-rule="evenodd" d="M300.9,465.3c0,.2,.1,.2,.4,.3l1.4,.4q-.2,.3,-.4,.7c0,.3,-.1,.7,-.1,.9c-.2,.2,-.3,.3,-.3,.6c0,.1,0,.2,.1,.3c0,0,.1,.2,.2,.2l-.1,.6c-.1,.5,-.1,1,-.2,1.5c0,.1,0,.2,.1,.2h1c.2,0,.1,-.3,.1,-.4c0,-.1,0,-.2,0,-.3c-.1,-.2,-.2,-1.5,-.2,-1.6c.1,-.1,.2,-.3,.2,-.5c0,-.3,-.1,-.5,-.3,-.6c0,-.1,0,-.3,.1,-.6c.1,-.2,.2,-.5,.4,-.7v-.1c.1,0,.5,.2,.6,.2c.4,.2,.9,.3,1.3,.4c.1,0,.1,.1,.2,.1c.2,0,1,.3,1.2,.3c0,0,.1,0,.1,0l2,-.6c.1,-.1,.2,-.1,.3,-.1l1.5,-.5c.1,0,.2,0,.3,-.1l1.2,-.4c.1,0,.2,-.1,.2,-.1v-.1c0,0,-.1,-.1,-.1,-.1l-2.3,-.7c-.5,-.2,-1,-.3,-1.4,-.5l-1.5,-.4c-.4,-.1,-.3,-.1,-.7,0l-1.4,.4c-.2,.1,-.3,.1,-.4,.2l-3.2,1c-.1,0,-.3,0,-.3,.1Z" class="g15_40" />
<path fill-rule="evenodd" d="M303.4,468.6c0,.2,.3,.4,.5,.5c.1,.1,.3,.2,.5,.3q.1,0,.2,.1c1.1,.3,2.8,.3,4,-.1c.2,0,.4,-.1,.5,-.2c.3,-.1,.5,-.3,.6,-.5q0,-.2,0,-.4c0,0,0,-.1,0,-.1l-.1,-1.3q-.1,.1,-.2,.1l-2.1,.6c-.1,.1,-.2,.1,-.3,.2c-.4,.1,-.5,.1,-.9,0l-.7,-.3c-.1,0,-.2,0,-.4,-.1l-1.5,-.5Z" class="g15_40" />
<path fill-rule="evenodd" d="M302.7,482.3h7.7v-1.2c0,-.2,-.2,-.4,-.4,-.4h-6.8c-.3,0,-.5,.2,-.5,.5Zm-.3,-6.5c0,.2,0,.3,.1,.4h8.1c.1,0,.1,-.2,.1,-.3l-4.2,-2.3Zm6,.9h1.4v3.6h-1.4Zm-5.1,0h1.4v3.6h-1.4Zm2.6,0h1.3v3.6h-1.3Z" class="g15_40" />
<path fill-rule="evenodd" d="M304.2,493.8c0,0,.1,0,.1,0q0,.1,.1,.1l.1,.1c-.1,.1,-.2,0,-.2,-.1c0,0,-.1,0,-.1,-.1Zm3.1,-2.5q-.1,0,-.1,0q0,-.1,.1,-.1v.1Zm.3,.1h-.1c-.1,0,-.1,-.1,-.1,-.1q-.1,0,-.1,-.1c.1,0,0,0,.1,0c0,.1,0,0,0,.1c0,0,.1,0,.1,0l.1,.1Zm-3.1,-3.8c-.1,.2,-.2,0,-.2,0c0,0,-.1,0,-.1,-.1q.1,0,.1,0q0,.1,.1,.1c0,.1,0,0,.1,0Zm.1,-.3v-.1h3.9c0,.3,0,.5,0,.8c0,.3,0,.4,-.1,.7c-.2,.6,-.6,.9,-1.1,1.3c-.1,.1,-.4,.3,-.4,.4c-.2,.1,-.2,.4,-.1,.6c.1,.1,.4,.3,.5,.3c0,0,.1,0,.1,.1v.1l.4,.3c.3,.2,.7,.9,.7,1.3c0,.1,.1,1.1,0,1.2c0,0,-2.6,0,-2.9,0c-.4,0,-.7,0,-1,0l-.1,-.4c0,.1,-.1,0,-.1,-.1c0,-.1,.1,-.1,.2,-.1c-.1,0,-.1,-.6,0,-.6c0,-.3,.2,-.7,.3,-.8c.2,-.3,.4,-.6,.7,-.8c0,0,.1,-.1,.1,-.1c.3,-.2,.6,-.3,.6,-.6c.1,-.4,-.1,-.5,-.3,-.7c-.6,-.4,-1.1,-.8,-1.4,-1.5c-.1,-.3,0,-.7,0,-1q-.1,0,-.2,0c-.1,-.1,0,-.3,.2,-.2q-.1,0,-.1,0q0,-.1,.1,-.1Zm-.5,.3c.2,0,.3,.2,.1,.2v.1h-.1c0,.4,.1,.6,.2,1c.1,.2,.2,.5,.4,.7c.2,.2,.6,.6,.9,.8c.1,0,.2,.1,.3,.2q0,.2,-.1,.2c-.4,.3,-.9,.7,-1.2,1.1c-.1,.2,-.3,.5,-.4,.8c-.1,.4,-.1,.9,-.1,1.3c.1,-.1,.2,-.1,.2,.1q-.1,.1,-.2,0q.1,.1,.1,.1h-.1q0,.1,-.1,.1c0,0,-.1,.1,-.1,.1c0,.1,0,0,0,.1c-.1,.1,-.1,.5,.3,.5c.8,0,1.8,0,2.6,0c.6,0,1.1,0,1.7,0c.3,0,.6,.1,.7,-.2c0,0,0,-.3,0,-.3c-.1,-.2,-.2,-.2,-.2,-.2c-.1,-1.3,.1,-1.5,-.7,-2.6c-.1,-.1,-.5,-.5,-.6,-.5c-.1,0,.1,0,-.1,.1v.1l-.1,-.1v-.1c-.1,-.1,.1,-.1,.1,-.2c0,0,-.2,-.1,-.3,-.1q-.1,-.1,-.1,-.3c0,0,.1,-.1,.2,-.1c.7,-.5,1.3,-1.1,1.5,-2c.1,-.3,.1,-1,.1,-1.3c.1,0,.2,-.1,.2,-.2c.1,-.1,0,-.3,0,-.4c-.1,-.2,-.5,-.1,-.8,-.1h-3.7c-.3,0,-.7,-.1,-.8,.1c0,.1,-.1,.3,0,.4c0,.1,.1,.2,.2,.2Z" class="g15_40" />
<path fill-rule="evenodd" d="M306.9,491.8c0,.1,-.1,.2,-.1,.1c0,.1,-.1,.2,-.2,.2c-.1,-.1,-.1,-.2,0,-.2q0,-.1,0,-.2c.1,.1,0,.1,.1,.2c0,0,0,-.1,0,-.1c0,0,0,-.1,.1,-.1v.2q.1,0,.1,-.1Zm.3,-.1q-.1,0,-.1,0c0,0,0,.1,-.1,.1c0,.1,0,0,0,.1c-.1,0,0,0,-.1,-.1c0,0,-.1,-.1,0,-.1c0,-.1,.1,-.1,.1,-.1v-.1c-.1,0,-.3,-.1,-.4,-.2c-.1,0,-.4,.1,-.4,.2c-.6,.3,-1,.8,-1.2,1.4c0,.2,-.2,1,-.1,1.2c.1,0,1.4,0,1.6,0c.3,0,1.6,0,1.7,0c.1,-.1,0,-.3,0,-.4c0,-.4,-.1,-.8,-.2,-1.1c-.2,-.3,-.5,-.7,-.7,-.9Z" class="g15_40" />
<path fill-rule="evenodd" d="M306.7,490.2c.3,-.2,.4,-.3,.6,-.5c.3,-.2,.8,-.8,.7,-1c-.1,0,-1.9,0,-2.2,0q-.8,0,-.6,.3c0,.1,.1,.2,.2,.3c0,.1,.1,.1,.1,.2c0,0,.1,.1,.1,.1l.3,.2v.1c.1,0,.2,.1,.4,.2q.2,.1,.4,.1Z" class="g15_40" />
<path fill-rule="evenodd" d="M304.6,493.7l-.1,.2l.1,.4c.3,0,.6,0,1,0c.3,0,2.9,0,2.9,0c.1,-.1,0,-1.1,0,-1.2v1.2h-3.9v-1.2c-.1,0,-.1,.6,0,.6Z" class="g15_40" />
<path fill-rule="evenodd" d="M306.7,492c-.1,.1,-.1,0,-.1,-.1c0,0,.1,0,.1,.1Zm.1,-.1c0,-.1,-.1,-.1,0,-.1c0,0,0,.1,0,.1Zm.1,-.1q0,.1,-.1,.1v-.2c-.1,0,-.1,.1,-.1,.1c0,0,0,.1,0,.1c-.1,-.1,0,-.1,-.1,-.2q0,.1,0,.2c-.1,0,-.1,.1,0,.2c.1,0,.2,-.1,.2,-.2c0,.1,.1,0,.1,-.1Z" class="g15_40" />
<path fill-rule="evenodd" d="M306.9,491.7c.1,-.1,.2,0,.1,0c0,.1,-.1,.1,-.1,0Zm0,.1c.1,.1,0,.1,.1,.1c0,-.1,0,0,0,-.1c.1,0,.1,-.1,.1,-.1h.1q-.1,-.1,-.2,-.2v.1c0,0,-.1,0,-.1,.1c-.1,0,0,.1,0,.1Z" class="g15_40" />
<path fill-rule="evenodd" d="M307.6,491.2c-.1,.1,-.1,-.1,0,-.1c.1,.1,0,0,0,.1Zm.1,0c0,-.1,-.1,-.1,-.1,-.2c0,.1,-.2,.1,-.1,.2q0,.1,0,.1q.1,.1,.1,.1q0,-.1,0,-.1c.2,-.1,0,-.1,.1,-.1Z" class="g15_40" />
<path fill-rule="evenodd" d="M304.2,487.8q0,-.1,0,-.1h.1c0,.1,-.1,.1,-.1,.1Zm-.1,-.2v.3h.1v-.1c.2,0,.1,-.2,-.1,-.2Z" class="g15_40" />
<path fill-rule="evenodd" d="M304.5,487.5c0,.1,-.1,.1,-.1,0c0,-.1,.1,-.1,.1,0Zm.1,.1v-.2c-.2,-.1,-.3,.1,-.2,.2q.1,0,.2,0Z" class="g15_40" />
<path fill-rule="evenodd" d="M304.3,494q0,.1,-.1,.1c-.1,-.1,0,-.1,.1,-.1Zm-.2,0v.1q.1,.1,.2,0c0,-.2,-.1,-.2,-.2,-.1Z" class="g15_40" />
<path fill-rule="evenodd" d="M304.4,493.8c.1,-.1,.2,0,.1,.1h-.1Zm.1,.1l.1,-.2c-.1,0,-.2,0,-.2,.1c0,.1,.1,.2,.1,.1Z" class="g15_40" />
<path fill-rule="evenodd" d="M307.5,491.4h.1q-.1,-.1,-.1,-.1c0,0,-.1,0,-.1,0c0,-.1,0,0,0,-.1c-.1,0,0,0,-.1,0q0,.1,.1,.1c0,0,0,.1,.1,.1Z" class="g15_40" />
<path fill-rule="evenodd" d="M304.5,487.6c-.1,0,-.1,.1,-.1,0q-.1,0,-.1,-.1h-.1c0,.1,.1,.1,.1,.1c0,0,.1,.2,.2,0Z" class="g15_40" />
<path fill-rule="evenodd" d="M304.3,493.8c0,0,-.1,0,-.1,0c0,.1,.1,.1,.1,.1c0,.1,.1,.2,.2,.1l-.1,-.1q-.1,0,-.1,-.1Z" class="g15_40" />
<path fill-rule="evenodd" d="M307.3,491.3c0,0,0,.1,0,.1q.1,0,.1,.1q0,-.1,0,-.1c0,-.1,-.1,-.1,-.1,-.1Z" class="g15_40" />
<path fill-rule="evenodd" d="M306.7,492c0,-.1,-.1,-.1,-.1,-.1c0,.1,0,.2,.1,.1Z" class="g15_40" />
<path fill-rule="evenodd" d="M306.9,491.7c0,.1,.1,.1,.1,0c.1,0,0,-.1,-.1,0Z" class="g15_40" />
<path fill-rule="evenodd" d="M307.6,491.2c0,-.1,.1,0,0,-.1c-.1,0,-.1,.2,0,.1Z" class="g15_40" />
<path fill-rule="evenodd" d="M304.5,487.5c0,-.1,-.1,-.1,-.1,0c0,.1,.1,.1,.1,0Z" class="g15_40" />
<path fill-rule="evenodd" d="M304.4,493.8v.1h.1c.1,-.1,0,-.2,-.1,-.1Z" class="g15_40" />
<path fill-rule="evenodd" d="M304.2,487.8c0,0,.1,0,.1,-.1h-.1v.1Z" class="g15_40" />
<path fill-rule="evenodd" d="M304.3,494c-.1,0,-.2,0,-.1,.1q.1,0,.1,-.1Z" class="g15_40" />
<path fill-rule="evenodd" d="M303.9,494.5c0,-.1,0,0,0,-.1c0,0,0,.1,0,.1Z" class="g15_40" />
<path fill-rule="evenodd" d="M304.1,494.2q.1,0,.1,0l-.1,-.1Z" class="g15_40" />
<path fill-rule="evenodd" d="M306.8,491.9c0,0,0,-.1,0,-.1c-.1,0,0,0,0,.1Z" class="g15_40" />
<path fill-rule="evenodd" d="M304.6,487.4v-.1q-.1,0,-.1,.1h.1Z" class="g15_40" />
<path fill-rule="evenodd" d="M307.2,491.3h.1q0,-.1,0,-.1q-.1,0,-.1,.1Z" class="g15_40" />
<path fill-rule="evenodd" d="M309.2,486.6h.1l-.1,-.1Z" class="g15_40" />
<path fill-rule="evenodd" d="M151.6,554.6H427.1V511.2H151.6Z" class="g0_40" />
<path fill-rule="evenodd" d="M171.8,516c9.3,0,16.8,7.6,16.8,16.9c0,9.3,-7.5,16.9,-16.8,16.9c-9.3,0,-16.9,-7.6,-16.9,-16.9c0,-9.3,7.6,-16.9,16.9,-16.9Z" class="g13_40" />
<g clip-path="url(#c2_40)">
<path fill-rule="evenodd" d="M176.6,533.8c-.5,.4,-1.4,1.1,-2,1.4c-1.7,.8,-4,.8,-5.6,-.1c-.6,-.2,-1.6,-.9,-2.1,-1.3c-2.6,1.3,-4.6,4,-5.2,6.9c-.3,1.1,-.4,1.8,.9,1.8H181c1.3,0,1.1,-.7,.9,-1.8c-.7,-2.9,-2.7,-5.6,-5.3,-6.9Zm-4.8,-10.5c3.1,0,5.6,2.5,5.6,5.6c0,3.1,-2.5,5.6,-5.6,5.6c-3.2,0,-5.7,-2.5,-5.7,-5.6c0,-3.1,2.5,-5.6,5.7,-5.6Z" class="g0_40" />
</g>
<path d="M171.8,516c9.3,0,16.8,7.6,16.8,16.9c0,9.3,-7.5,16.9,-16.8,16.9c-9.3,0,-16.9,-7.6,-16.9,-16.9c0,-9.3,7.6,-16.9,16.9,-16.9Z" class="g14_40" />
<path fill-rule="evenodd" d="M371.5,533.7H408v.4H371.5Z" class="g15_40" />
<path fill-rule="evenodd" d="M300.9,518.8c0,.2,.1,.2,.4,.3l1.4,.4q-.2,.3,-.4,.7c0,.3,-.1,.7,-.1,.9c-.2,.2,-.3,.3,-.3,.6c0,.1,0,.2,.1,.3c0,.1,.1,.2,.2,.2l-.1,.6c-.1,.5,-.1,1,-.2,1.5c0,.1,0,.2,.1,.2h1c.2,0,.1,-.3,.1,-.4c0,-.1,0,-.2,0,-.3c-.1,-.2,-.2,-1.5,-.2,-1.6c.1,-.1,.2,-.3,.2,-.5c0,-.3,-.1,-.4,-.3,-.6c0,-.1,0,-.3,.1,-.6c.1,-.2,.2,-.5,.4,-.7c.1,0,.5,.1,.6,.1c.4,.2,.9,.3,1.3,.4q.1,.1,.2,.1c.2,.1,1,.3,1.2,.3c0,0,.1,0,.1,0l2,-.6c.1,0,.2,-.1,.3,-.1l1.5,-.5c.1,0,.2,0,.3,-.1L312,519c.1,0,.2,0,.2,-.1v-.1c0,0,-.1,-.1,-.1,-.1l-2.3,-.7c-.5,-.1,-1,-.3,-1.4,-.4l-1.5,-.5c-.4,-.1,-.3,-.1,-.7,0l-1.4,.5c-.2,0,-.3,0,-.4,.1l-3.2,1c-.1,0,-.3,0,-.3,.1Z" class="g15_40" />
<path fill-rule="evenodd" d="M303.4,522.1c0,.2,.3,.4,.5,.5c.1,.2,.3,.2,.5,.3q.1,0,.2,.1c1.1,.4,2.8,.3,4,-.1c.2,0,.4,-.1,.5,-.2c.3,-.1,.5,-.3,.6,-.5c0,-.1,0,-.2,0,-.4c0,0,0,-.1,0,-.1l-.1,-1.2q-.1,0,-.2,0l-2.1,.7c-.1,0,-.2,0,-.3,.1c-.4,.1,-.5,.1,-.9,0l-.7,-.3c-.1,0,-.2,0,-.4,-.1l-1.5,-.4Z" class="g15_40" />
<path fill-rule="evenodd" d="M302.7,535.8h7.7v-1.2c0,-.2,-.2,-.4,-.4,-.4h-6.8c-.3,0,-.5,.2,-.5,.5Zm-.3,-6.4c0,.1,0,.2,.1,.4h8.1c.1,-.1,.1,-.2,.1,-.4l-4.2,-2.3Zm6,.8h1.4v3.6h-1.4Zm-5.1,0h1.4v3.6h-1.4Zm2.6,0h1.3v3.6h-1.3Z" class="g15_40" />
<path fill-rule="evenodd" d="M304.2,547.3c0,0,.1,0,.1,.1l.1,.1h.1c-.1,.1,-.2,0,-.2,-.1c0,0,-.1,0,-.1,-.1Zm3.1,-2.5q-.1,0,-.1,0q0,-.1,.1,-.1v.1Zm.3,.1h-.1c-.1,0,-.1,-.1,-.1,-.1q-.1,0,-.1,-.1c.1,0,0,0,.1,0c0,.1,0,0,0,.1c0,0,.1,0,.1,0l.1,.1Zm-3.1,-3.7c-.1,.1,-.2,0,-.2,-.1c0,0,-.1,0,-.1,-.1q.1,0,.1,0q0,.1,.1,.1c0,.1,0,0,.1,.1Zm.1,-.4v-.1h3.9c0,.3,0,.6,0,.8c0,.3,0,.4,-.1,.7c-.2,.6,-.6,1,-1.1,1.3c-.1,.1,-.4,.3,-.4,.4c-.2,.1,-.2,.4,-.1,.6c.1,.1,.4,.3,.5,.3c0,0,.1,0,.1,.1v.1l.4,.3c.3,.3,.7,.9,.7,1.3c0,.1,.1,1.1,0,1.2c0,0,-2.6,0,-2.9,0c-.4,0,-.7,0,-1,0l-.1,-.4c0,.1,-.1,0,-.1,-.1c0,-.1,.1,-.1,.2,-.1c-.1,0,-.1,-.6,0,-.6c0,-.3,.2,-.7,.3,-.8c.2,-.3,.4,-.6,.7,-.8c0,0,.1,0,.1,-.1c.3,-.2,.6,-.3,.6,-.5c.1,-.5,-.1,-.6,-.3,-.8c-.6,-.4,-1.1,-.8,-1.4,-1.5c-.1,-.3,0,-.6,0,-1q-.1,0,-.2,0c-.1,-.1,0,-.3,.2,-.2q-.1,0,-.1,0q0,-.1,.1,-.1Zm-.5,.4c.2,-.1,.3,.2,.1,.1v.1h-.1c0,.4,.1,.7,.2,1c.1,.2,.2,.5,.4,.7c.2,.2,.6,.6,.9,.8c.1,.1,.2,.2,.3,.2q0,.2,-.1,.2c-.4,.3,-.9,.7,-1.2,1.1c-.1,.2,-.3,.5,-.4,.9c-.1,.3,-.1,.8,-.1,1.2c.1,-.1,.2,-.1,.2,.1q-.1,.1,-.2,0v.1q.1,0,.1,0h-.1q0,.1,-.1,.1c0,0,-.1,.1,-.1,.1c0,.1,0,0,0,.1c-.1,.2,-.1,.5,.3,.5c.8,0,1.8,0,2.6,0c.6,0,1.1,0,1.7,0c.3,0,.6,.1,.7,-.1c0,-.1,0,-.3,0,-.4c-.1,-.2,-.2,-.2,-.2,-.2c-.1,-1.3,.1,-1.5,-.7,-2.6c-.1,-.1,-.5,-.5,-.6,-.5c-.1,0,.1,.1,-.1,.1v.1l-.1,-.1v-.1c-.1,-.1,.1,-.1,.1,-.1c0,-.1,-.2,-.2,-.3,-.2q-.1,-.1,-.1,-.3c0,0,.1,-.1,.2,-.1c.7,-.5,1.3,-1.1,1.5,-2c.1,-.3,.1,-1,.1,-1.3c.1,0,.2,-.1,.2,-.2c.1,-.1,0,-.3,0,-.4c-.1,-.2,-.5,-.1,-.8,-.1h-3.7c-.3,0,-.7,-.1,-.8,.1c0,.1,-.1,.3,0,.4c0,.2,.1,.2,.2,.2Z" class="g15_40" />
<path fill-rule="evenodd" d="M306.9,545.3c0,.1,-.1,.2,-.1,.1c0,.2,-.1,.2,-.2,.2c-.1,0,-.1,-.2,0,-.2q0,-.1,0,-.1c.1,0,0,0,.1,.1c0,0,0,-.1,0,-.1c0,0,0,-.1,.1,-.1v.2q.1,0,.1,-.1Zm.3,-.1q-.1,0,-.1,0q0,.1,-.1,.1q0,.1,0,.1c-.1,0,0,0,-.1,-.1c0,0,-.1,-.1,0,-.1c0,-.1,.1,-.1,.1,-.1c-.1,-.1,-.3,-.2,-.4,-.3c-.1,0,-.4,.1,-.4,.2c-.6,.3,-1,.8,-1.2,1.5c0,.1,-.2,.9,-.1,1.1c.1,0,1.4,0,1.6,0c.3,0,1.6,0,1.7,0c.1,-.1,0,-.3,0,-.4c0,-.4,-.1,-.7,-.2,-1.1c-.2,-.3,-.5,-.7,-.7,-.9Z" class="g15_40" />
<path fill-rule="evenodd" d="M306.7,543.7c.3,-.2,.4,-.3,.6,-.5c.3,-.1,.8,-.8,.7,-.9c-.1,-.1,-1.9,-.1,-2.2,-.1q-.8,0,-.6,.3c0,.1,.1,.2,.2,.3c0,.1,.1,.1,.1,.2c0,0,.1,.1,.1,.1l.3,.2c0,0,0,.1,0,.1c.1,.1,.2,.1,.4,.2q.2,.1,.4,.1Z" class="g15_40" />
<path fill-rule="evenodd" d="M304.6,547.2l-.1,.2l.1,.4c.3,0,.6,0,1,0c.3,0,2.9,0,2.9,0c.1,-.1,0,-1.1,0,-1.2v1.2h-3.9v-1.2c-.1,0,-.1,.6,0,.6Z" class="g15_40" />
<path fill-rule="evenodd" d="M306.7,545.5c-.1,.1,-.1,0,-.1,0c0,-.1,.1,-.1,.1,0Zm.1,-.1c0,0,-.1,-.1,0,-.1v.1Zm.1,-.1q0,.1,-.1,.1v-.2c-.1,0,-.1,.1,-.1,.1c0,0,0,.1,0,.1c-.1,-.1,0,-.1,-.1,-.1v.1c-.1,0,-.1,.2,0,.2c.1,0,.2,0,.2,-.2c0,.1,.1,0,.1,-.1Z" class="g15_40" />
<path fill-rule="evenodd" d="M306.9,545.2c.1,-.1,.2,0,.1,.1c0,0,-.1,0,-.1,-.1Zm0,.1c.1,.1,0,.1,.1,.1v-.1q.1,0,.1,-.1h.1q-.1,-.1,-.2,-.1c0,0,-.1,0,-.1,.1c-.1,0,0,.1,0,.1Z" class="g15_40" />
<path fill-rule="evenodd" d="M307.6,544.7c-.1,.1,-.1,-.1,0,-.1c.1,.1,0,.1,0,.1Zm.1,0c0,-.1,-.1,-.1,-.1,-.1c0,0,-.2,0,-.1,.1q0,.1,0,.1q.1,.1,.1,.1q0,-.1,0,-.1c.2,0,0,-.1,.1,-.1Z" class="g15_40" />
<path fill-rule="evenodd" d="M304.2,541.3q0,-.1,0,-.1h.1c0,.1,-.1,.1,-.1,.1Zm-.1,-.1v.2h.1v-.1c.2,.1,.1,-.2,-.1,-.1Z" class="g15_40" />
<path fill-rule="evenodd" d="M304.5,541c0,.1,-.1,.1,-.1,0c0,0,.1,-.1,.1,0Zm.1,.1v-.2c-.2,-.1,-.3,.1,-.2,.2q.1,0,.2,0Z" class="g15_40" />
<path fill-rule="evenodd" d="M304.3,547.5q0,.1,-.1,.1c-.1,-.1,0,-.1,.1,-.1Zm-.2,0v.1q.1,.1,.2,0c0,-.2,-.1,-.2,-.2,-.1Z" class="g15_40" />
<path fill-rule="evenodd" d="M304.4,547.3c.1,-.1,.2,0,.1,.1h-.1Zm.1,.1l.1,-.2c-.1,0,-.2,0,-.2,.1c0,.1,.1,.2,.1,.1Z" class="g15_40" />
<path fill-rule="evenodd" d="M307.5,544.9h.1q-.1,-.1,-.1,-.1c0,0,-.1,0,-.1,0c0,-.1,0,0,0,-.1c-.1,0,0,0,-.1,0q0,.1,.1,.1c0,0,0,.1,.1,.1Z" class="g15_40" />
<path fill-rule="evenodd" d="M304.5,541.2c-.1,-.1,-.1,0,-.1,-.1q-.1,0,-.1,-.1h-.1c0,.1,.1,.1,.1,.1c0,.1,.1,.2,.2,.1Z" class="g15_40" />
<path fill-rule="evenodd" d="M304.3,547.4c0,-.1,-.1,-.1,-.1,-.1c0,.1,.1,.1,.1,.1c0,.1,.1,.2,.2,.1h-.1q-.1,-.1,-.1,-.1Z" class="g15_40" />
<path fill-rule="evenodd" d="M307.3,544.8q0,.1,0,.1c.1,0,.1,.1,.1,.1q0,-.1,0,-.1c0,-.1,-.1,-.1,-.1,-.1Z" class="g15_40" />
<path fill-rule="evenodd" d="M306.7,545.5c0,-.1,-.1,-.1,-.1,0c0,0,0,.1,.1,0Z" class="g15_40" />
<path fill-rule="evenodd" d="M306.9,545.2c0,.1,.1,.1,.1,.1c.1,-.1,0,-.2,-.1,-.1Z" class="g15_40" />
<path fill-rule="evenodd" d="M307.6,544.7c0,0,.1,0,0,-.1c-.1,0,-.1,.2,0,.1Z" class="g15_40" />
<path fill-rule="evenodd" d="M304.5,541c0,-.1,-.1,0,-.1,0c0,.1,.1,.1,.1,0Z" class="g15_40" />
<path fill-rule="evenodd" d="M304.4,547.3v.1h.1c.1,-.1,0,-.2,-.1,-.1Z" class="g15_40" />
<path fill-rule="evenodd" d="M304.2,541.3c0,0,.1,0,.1,-.1h-.1v.1Z" class="g15_40" />
<path fill-rule="evenodd" d="M304.3,547.5c-.1,0,-.2,0,-.1,.1q.1,0,.1,-.1Z" class="g15_40" />
<path fill-rule="evenodd" d="M303.9,548c0,-.1,0,0,0,-.1c0,0,0,.1,0,.1Z" class="g15_40" />
<path fill-rule="evenodd" d="M304.1,547.7q.1,0,.1,0h-.1Z" class="g15_40" />
<path fill-rule="evenodd" d="M306.8,545.4q0,-.1,0,-.1c-.1,0,0,.1,0,.1Z" class="g15_40" />
<path fill-rule="evenodd" d="M304.6,540.9v-.1q-.1,0,-.1,.1h.1Z" class="g15_40" />
<path fill-rule="evenodd" d="M307.2,544.8h.1q0,-.1,0,-.1q-.1,0,-.1,.1Z" class="g15_40" />
<path fill-rule="evenodd" d="M309.2,540.1h.1h-.1Z" class="g15_40" />
<path fill-rule="evenodd" d="M151.6,608.1H427.1V564.7H151.6Z" class="g0_40" />
<path fill-rule="evenodd" d="M171.8,569.6c9.3,0,16.8,7.5,16.8,16.8c0,9.3,-7.5,16.9,-16.8,16.9c-9.3,0,-16.9,-7.6,-16.9,-16.9c0,-9.3,7.6,-16.8,16.9,-16.8Z" class="g13_40" />
<g clip-path="url(#c3_40)">
<path fill-rule="evenodd" d="M176.6,587.3c-.5,.4,-1.4,1.1,-2,1.4c-1.7,.8,-4,.8,-5.6,0c-.6,-.3,-1.6,-1,-2.1,-1.4c-2.6,1.3,-4.6,4,-5.2,7c-.3,1,-.4,1.7,.9,1.7H181c1.3,0,1.1,-.7,.9,-1.8c-.7,-2.9,-2.7,-5.6,-5.3,-6.9Zm-4.8,-10.5c3.1,0,5.6,2.5,5.6,5.6c0,3.1,-2.5,5.6,-5.6,5.6c-3.2,0,-5.7,-2.5,-5.7,-5.6c0,-3.1,2.5,-5.6,5.7,-5.6Z" class="g0_40" />
</g>
<path d="M171.8,569.6c9.3,0,16.8,7.5,16.8,16.8c0,9.3,-7.5,16.9,-16.8,16.9c-9.3,0,-16.9,-7.6,-16.9,-16.9c0,-9.3,7.6,-16.8,16.9,-16.8Z" class="g14_40" />
<path fill-rule="evenodd" d="M371.5,587.2H408v.4H371.5Z" class="g15_40" />
<path fill-rule="evenodd" d="M300.9,572.4c0,.2,.1,.1,.4,.2l1.4,.4q-.2,.3,-.4,.8c0,.2,-.1,.6,-.1,.8c-.2,.2,-.3,.3,-.3,.6c0,.1,0,.2,.1,.3c0,.1,.1,.2,.2,.2l-.1,.6c-.1,.5,-.1,1,-.2,1.5c0,.1,0,.2,.1,.2h1c.2,0,.1,-.3,.1,-.4c0,-.1,0,-.2,0,-.3c-.1,-.2,-.2,-1.5,-.2,-1.6c.1,-.1,.2,-.3,.2,-.5c0,-.3,-.1,-.4,-.3,-.5c0,-.1,0,-.4,.1,-.7c.1,-.2,.2,-.5,.4,-.7c.1,0,.5,.1,.6,.1c.4,.2,.9,.3,1.3,.5q.1,0,.2,0c.2,.1,1,.4,1.2,.4c0,0,.1,-.1,.1,-.1l2,-.6c.1,0,.2,-.1,.3,-.1l1.5,-.4c.1,-.1,.2,-.1,.3,-.2l1.2,-.3c.1,-.1,.2,-.1,.2,-.2c0,-.1,-.1,-.1,-.1,-.2l-2.3,-.7c-.5,-.1,-1,-.3,-1.4,-.4l-1.5,-.5c-.4,-.1,-.3,-.1,-.7,0l-1.4,.5c-.2,0,-.3,0,-.4,.1l-3.2,1c-.1,0,-.3,0,-.3,.2Z" class="g15_40" />
<path fill-rule="evenodd" d="M303.4,575.6c0,.2,.3,.4,.5,.6c.1,.1,.3,.1,.5,.2c.1,0,.1,.1,.2,.1c1.1,.4,2.8,.3,4,0c.2,-.1,.4,-.2,.5,-.3c.3,-.1,.5,-.3,.6,-.5c0,-.1,0,-.2,0,-.4v-.1l-.1,-1.2q-.1,0,-.2,0l-2.1,.7c-.1,0,-.2,0,-.3,.1c-.4,.1,-.5,.1,-.9,0l-.7,-.2c-.1,-.1,-.2,-.1,-.4,-.2l-1.5,-.4Z" class="g15_40" />
<path fill-rule="evenodd" d="M302.7,589.3h7.7v-1.2c0,-.2,-.2,-.4,-.4,-.4h-6.8c-.3,0,-.5,.3,-.5,.6Zm-.3,-6.4c0,.1,0,.2,.1,.4h8.1c.1,-.1,.1,-.2,.1,-.4l-4.2,-2.3Zm6,.8h1.4v3.6h-1.4Zm-5.1,0h1.4v3.6h-1.4Zm2.6,0h1.3v3.6h-1.3Z" class="g15_40" />
<path fill-rule="evenodd" d="M304.2,600.8c0,0,.1,0,.1,.1c0,0,0,.1,.1,.1h.1c-.1,.1,-.2,0,-.2,0c0,-.1,-.1,-.1,-.1,-.2Zm3.1,-2.5q-.1,0,-.1,0h.1c0,0,0,-.1,0,0Zm.3,.1h-.1q-.1,0,-.1,-.1q-.1,0,-.1,-.1c.1,0,0,0,.1,0c0,.1,0,0,0,.1c0,0,.1,0,.1,0c0,.1,0,0,.1,.1Zm-3.1,-3.7c-.1,.1,-.2,0,-.2,-.1c0,0,-.1,0,-.1,-.1q.1,0,.1,0q0,.1,.1,.1c0,.1,0,0,.1,.1Zm.1,-.4v-.1h3.9c0,.3,0,.6,0,.8c0,.4,0,.5,-.1,.7c-.2,.6,-.6,1,-1.1,1.3c-.1,.1,-.4,.3,-.4,.4c-.2,.1,-.2,.5,-.1,.6c.1,.1,.4,.3,.5,.4q0,-.1,0,-.1c0,0,.1,.1,.1,.1v.1l.4,.3c.3,.3,.7,.9,.7,1.3c0,.1,.1,1.1,0,1.2c0,0,-2.6,0,-2.9,0c-.4,0,-.7,0,-1,0l-.1,-.4c0,.1,-.1,0,-.1,0c0,-.2,.1,-.2,.2,-.1c-.1,-.1,-.1,-.7,0,-.7c0,-.3,.2,-.7,.3,-.8c.2,-.3,.4,-.6,.7,-.7c0,-.1,.1,-.1,.1,-.2c.3,-.2,.6,-.3,.6,-.5c.1,-.5,-.1,-.6,-.3,-.7c-.6,-.4,-1.1,-.9,-1.4,-1.6c-.1,-.3,0,-.6,0,-1c-.1,0,-.1,.1,-.2,0c-.1,-.1,0,-.2,.2,-.1v-.1q-.1,0,-.1,0q0,-.1,.1,-.1Zm-.5,.4c.2,-.1,.3,.2,.1,.2h-.1c0,.4,.1,.7,.2,1c.1,.3,.2,.5,.4,.7c.2,.3,.6,.6,.9,.8c.1,.1,.2,.2,.3,.2q0,.2,-.1,.2c-.4,.3,-.9,.7,-1.2,1.1c-.1,.3,-.3,.5,-.4,.9c-.1,.3,-.1,.8,-.1,1.2c.1,-.1,.2,0,.2,.1q-.1,.1,-.2,0v.1q.1,0,.1,0h-.1q0,.1,-.1,.1c0,.1,-.1,.1,-.1,.1q0,.1,0,.1c-.1,.2,-.1,.5,.3,.5c.8,.1,1.8,0,2.6,0c.6,0,1.1,0,1.7,0c.3,0,.6,.1,.7,-.1c0,-.1,0,-.3,0,-.4c-.1,-.2,-.2,-.2,-.2,-.2c-.1,-1.3,.1,-1.5,-.7,-2.6c-.1,-.1,-.5,-.5,-.6,-.5c-.1,0,.1,.1,-.1,.1c0,.1,0,0,0,.1l-.1,-.1v-.1c-.1,-.1,.1,-.1,.1,-.1c0,-.1,-.2,-.2,-.3,-.2q-.1,-.1,-.1,-.3c0,0,.1,0,.2,-.1c.7,-.5,1.3,-1.1,1.5,-2c.1,-.3,.1,-1,.1,-1.3c.1,0,.2,0,.2,-.2c.1,-.1,0,-.3,0,-.4c-.1,-.2,-.5,-.1,-.8,-.1h-3.7c-.3,0,-.7,-.1,-.8,.1c0,.1,-.1,.3,0,.4c0,.2,.1,.2,.2,.2Z" class="g15_40" />
<path fill-rule="evenodd" d="M306.9,598.8c0,.2,-.1,.2,-.1,.2c0,.1,-.1,.2,-.2,.1c-.1,0,-.1,-.1,0,-.2q0,-.1,0,-.1c.1,0,0,0,.1,.1q0,-.1,.1,-.1v.1q.1,0,.1,-.1Zm.3,-.1q-.1,0,-.1,0q0,.1,-.1,.1q0,.1,0,.1c-.1,0,0,0,-.1,-.1c0,0,-.1,0,0,-.1c0,-.1,.1,-.1,.1,-.1c-.1,-.1,-.3,-.2,-.4,-.3c-.1,0,-.4,.1,-.4,.2c-.6,.3,-1,.8,-1.2,1.5c0,.1,-.2,.9,-.1,1.1c.1,0,1.4,0,1.6,0c.3,0,1.6,0,1.7,0c.1,-.1,0,-.3,0,-.4c0,-.4,-.1,-.7,-.2,-1c-.2,-.4,-.5,-.8,-.7,-1Z" class="g15_40" />
<path fill-rule="evenodd" d="M306.7,597.2c.3,-.2,.4,-.3,.6,-.5c.3,-.1,.8,-.8,.7,-.9c-.1,-.1,-1.9,0,-2.2,0c-.8,0,-.8,-.1,-.6,.2c0,.1,.1,.2,.2,.3c0,.1,.1,.1,.1,.2c0,0,.1,.1,.1,.1l.3,.2c0,0,0,.1,0,.1c.1,.1,.2,.1,.4,.2c.2,.2,.2,.1,.4,.1Z" class="g15_40" />
<path fill-rule="evenodd" d="M304.6,600.8l-.1,.1l.1,.4c.3,0,.6,0,1,0c.3,0,2.9,0,2.9,0c.1,-.1,0,-1.1,0,-1.2v1.2h-3.9v-1.2c-.1,0,-.1,.6,0,.7Z" class="g15_40" />
<path fill-rule="evenodd" d="M306.7,599q-.1,.1,-.1,0c0,-.1,.1,-.1,.1,0Zm.1,-.1c0,0,-.1,-.1,0,-.1v.1Zm.1,-.1q0,.1,-.1,.1v-.1q-.1,0,-.1,.1c-.1,-.1,0,-.1,-.1,-.1v.1c-.1,.1,-.1,.2,0,.2c.1,.1,.2,0,.2,-.1c0,0,.1,0,.1,-.2Z" class="g15_40" />
<path fill-rule="evenodd" d="M306.9,598.7c.1,0,.2,0,.1,.1c0,0,-.1,0,-.1,-.1Zm0,.1c.1,.1,0,.1,.1,.1v-.1q.1,0,.1,-.1h.1q-.1,-.1,-.2,-.1c0,0,-.1,0,-.1,.1c-.1,.1,0,.1,0,.1Z" class="g15_40" />
<path fill-rule="evenodd" d="M307.6,598.2c-.1,.1,-.1,-.1,0,-.1c.1,.1,0,.1,0,.1Zm.1,0c0,-.1,-.1,-.1,-.1,-.1c0,0,-.2,0,-.1,.1q0,.1,0,.1q.1,.1,.1,.1c0,-.1,0,0,0,-.1c.2,0,0,-.1,.1,-.1Z" class="g15_40" />
<path fill-rule="evenodd" d="M304.2,594.8q0,-.1,0,-.1h.1c0,.1,-.1,.1,-.1,.1Zm-.1,-.1v.2h.1c.2,0,.1,-.3,-.1,-.2Z" class="g15_40" />
<path fill-rule="evenodd" d="M304.5,594.5c0,.1,-.1,.1,-.1,0c0,0,.1,0,.1,0Zm.1,.1v-.1c-.2,-.1,-.3,0,-.2,.1c.1,.1,.1,0,.2,0Z" class="g15_40" />
<path fill-rule="evenodd" d="M304.3,601q0,.1,-.1,.1c-.1,-.1,0,-.1,.1,-.1Zm-.2,0v.1q.1,.1,.2,0c0,-.1,-.1,-.2,-.2,-.1Z" class="g15_40" />
<path fill-rule="evenodd" d="M304.4,600.8c.1,0,.2,0,.1,.1h-.1Zm.1,.1l.1,-.1c-.1,-.1,-.2,-.1,-.2,.1c0,0,.1,.1,.1,0Z" class="g15_40" />
<path fill-rule="evenodd" d="M307.5,598.4h.1c-.1,-.1,-.1,0,-.1,-.1c0,0,-.1,0,-.1,0c0,-.1,0,0,0,-.1c-.1,0,0,0,-.1,0q0,.1,.1,.1q0,.1,.1,.1Z" class="g15_40" />
<path fill-rule="evenodd" d="M304.5,594.7c-.1,-.1,-.1,0,-.1,-.1q-.1,0,-.1,-.1h-.1c0,.1,.1,.1,.1,.1c0,.1,.1,.2,.2,.1Z" class="g15_40" />
<path fill-rule="evenodd" d="M304.3,600.9c0,-.1,-.1,-.1,-.1,-.1c0,.1,.1,.1,.1,.2c0,0,.1,.1,.2,0h-.1c-.1,0,-.1,-.1,-.1,-.1Z" class="g15_40" />
<path fill-rule="evenodd" d="M307.3,598.4q.1,.1,.1,.1q0,-.1,0,-.1c0,0,-.1,-.1,-.1,-.1v.1Z" class="g15_40" />
<path fill-rule="evenodd" d="M306.7,599c0,-.1,-.1,-.1,-.1,0q0,.1,.1,0Z" class="g15_40" />
<path fill-rule="evenodd" d="M306.9,598.7c0,.1,.1,.1,.1,.1c.1,-.1,0,-.1,-.1,-.1Z" class="g15_40" />
<path fill-rule="evenodd" d="M307.6,598.2c0,0,.1,0,0,-.1c-.1,0,-.1,.2,0,.1Z" class="g15_40" />
<path fill-rule="evenodd" d="M304.5,594.5c0,0,-.1,0,-.1,0c0,.1,.1,.1,.1,0Z" class="g15_40" />
<path fill-rule="evenodd" d="M304.4,600.8v.1h.1c.1,-.1,0,-.1,-.1,-.1Z" class="g15_40" />
<path fill-rule="evenodd" d="M304.2,594.8c0,0,.1,0,.1,-.1h-.1v.1Z" class="g15_40" />
<path fill-rule="evenodd" d="M304.3,601c-.1,0,-.2,0,-.1,.1q.1,0,.1,-.1Z" class="g15_40" />
<path fill-rule="evenodd" d="M303.9,601.5v-.1q0,.1,0,.1Z" class="g15_40" />
<path fill-rule="evenodd" d="M304.1,601.2q.1,0,.1,0h-.1Z" class="g15_40" />
<path fill-rule="evenodd" d="M306.8,598.9q0,-.1,0,-.1c-.1,0,0,.1,0,.1Z" class="g15_40" />
<path fill-rule="evenodd" d="M304.6,594.4v-.1q-.1,0,-.1,.1h.1Z" class="g15_40" />
<path fill-rule="evenodd" d="M307.2,598.3h.1c0,-.1,0,0,0,0q-.1,0,-.1,0Z" class="g15_40" />
<path fill-rule="evenodd" d="M309.2,593.6h.1h-.1Z" class="g15_40" />
<path fill-rule="evenodd" d="M475.8,779.1H764.4V309.8H475.8Z" class="g2_40" />
<path fill-rule="evenodd" d="M475.8,340.6H764.4V748.3H475.8Z" class="g16_40" />
<path fill-rule="evenodd" d="M475.8,309.8H764.4V265.7H475.8Z" class="g1_40" />
<path d="M475.8,748.3H764.4" class="g5_40" />
<path fill-rule="evenodd" d="M640.4,297c-8.9,-2.8,-6.5,-23.7,8.8,-14.3c3.6,2.3,1.9,4.6,10.2,2.9c9.2,-1.8,3.9,20.9,-10.4,14.2c-5.6,-2.7,-6.5,-1,-14.2,1.5c0,.1,-.1,.1,-.2,.1Zm7.6,-2.3v1.1c0,.4,0,.7,.1,.9c.1,.2,.2,.3,.3,.5c.2,.1,.5,.3,.8,.4c.3,.1,.7,.1,1.2,.1c.6,0,1.1,-.1,1.4,-.3c.4,-.2,.6,-.4,.7,-.7c.1,-.1,.1,-.5,.1,-.9v-1.1Zm-1,-.9h6.6v2c0,.5,0,.8,-.1,1c-.1,.4,-.3,.7,-.5,.9c-.3,.3,-.6,.6,-1.1,.7c-.5,.2,-1,.2,-1.6,.2c-.5,0,-.9,0,-1.3,-.1c-.4,-.1,-.7,-.3,-.9,-.4c-.3,-.2,-.5,-.4,-.6,-.6c-.2,-.1,-.3,-.4,-.4,-.7c0,-.2,-.1,-.6,-.1,-.9Zm4.8,-1.9h3.7v-4.7h-.9V291h-2v-3.7h-.8V291Zm-7.5,-1.2h4.4v1.2h-5.6v-7.1h5.6V286h-4.4v1.7h4.4v1.2h-4.4Z" class="g0_40" />
<path d="M577.4,301.2h-1.1V290.9h1.1Zm3.7,0H580V290.9h1.1l5.4,8.4h.1v-8.4h1v10.3h-1.1l-5.4,-8.3ZM592.3,292h-3.2v-1.1h7.5V292h-3.2Zm21.4,2h-1.2c0,-.7,-.3,-1.3,-.8,-1.7c-.5,-.4,-1.1,-.6,-1.8,-.6c-.4,0,-.8,.1,-1.1,.2c-.4,.2,-.7,.4,-.9,.7c-.3,.3,-.5,.6,-.7,1.1c-.1,.5,-.2,1,-.2,1.6v1.5c0,1.1,.3,2,.7,2.7c.5,.6,1.2,.9,2.2,.9c.8,0,1.4,-.2,1.9,-.6c.5,-.5,.8,-1,.8,-1.7V297h-2.8v-1.1h3.9v2.2c0,.2,0,.5,-.1,.8c-.1,.3,-.2,.6,-.4,.9c-.2,.3,-.5,.6,-.7,.8c-.3,.3,-.7,.5,-1.1,.6c-.5,.2,-1,.2,-1.5,.2c-1.3,0,-2.3,-.4,-3,-1.2c-.7,-.8,-1,-2,-1,-3.4v-1.5c0,-1.4,.4,-2.6,1.1,-3.4c.7,-.8,1.7,-1.2,2.9,-1.2c.6,0,1.1,.1,1.6,.3c.4,.2,.8,.4,1.1,.7c.3,.3,.6,.7,.7,1.1c.2,.3,.3,.8,.4,1.2Zm3.3,2v5.2h-1.2V290.9h3.7c.5,0,1,.1,1.4,.3c.4,.2,.8,.4,1,.7c.3,.2,.5,.6,.6,.9c.1,.4,.2,.8,.2,1.2c0,.4,-.1,.7,-.2,1.1c-.1,.3,-.2,.6,-.4,.8c-.2,.2,-.4,.4,-.6,.6c-.3,.1,-.5,.2,-.8,.3l2.2,4.4h-1.3L619.3,296c.8,0,1.3,-.2,1.7,-.5c.4,-.3,.5,-.8,.5,-1.5c0,-.6,-.2,-1.1,-.6,-1.5c-.3,-.4,-.9,-.5,-1.6,-.5H617Zm9.4,1.1l-.3,.9l-1.1,3.2h-1.1l3.7,-10.3h1.1l3.7,10.3h-1.3l-1,-3.2l-.4,-.9m0,0l-1.6,-4.8l-1.7,4.8m7.5,3.5c0,-.2,0,-.4,.2,-.6c.1,-.1,.3,-.2,.5,-.2c.3,0,.4,.1,.6,.2c.2,.2,.2,.4,.2,.6c0,.2,0,.4,-.2,.5c-.2,.2,-.3,.3,-.6,.3c-.2,0,-.4,-.1,-.5,-.3c-.2,-.1,-.2,-.3,-.2,-.5Z" class="g4_40" />
<path fill-rule="evenodd" d="M598.1,290.9h6V292h-5v8.2h5v1h-6c0,-3.4,0,-6.8,0,-10.3Z" class="g4_40" />
<path fill-rule="evenodd" d="M603.9,296.5h-3.5v-1h3.5Z" class="g4_40" />
<path fill-rule="evenodd" d="M612.6,297h-2.8v-1.1h2.8Z" class="g4_40" />
<path fill-rule="evenodd" d="M593.3,301.2v-7.9h-1v7.9Z" class="g4_40" />
<path d="M752,293.3l-2.2,-.3c-.2,-.5,-.3,-.9,-.6,-1.3l1.4,-1.9c.1,-.2,0,-.4,-.1,-.5L749,287.8c-.1,-.1,-.3,-.2,-.5,-.1l-1.8,1.4c-.5,-.2,-.9,-.4,-1.4,-.6l-.4,-2.2c0,-.2,-.2,-.3,-.3,-.3h-2.2c-.1,0,-.3,.1,-.3,.3l-.4,2.2c-.5,.2,-.9,.3,-1.3,.6l-1.9,-1.4c-.1,-.1,-.3,0,-.5,.1l-1.5,1.5c-.1,.1,-.1,.3,0,.5l1.3,1.8c-.2,.5,-.4,.9,-.6,1.4l-2.2,.3c-.2,.1,-.3,.2,-.3,.4v2.1c0,.2,.1,.4,.3,.4l2.2,.4c.2,.5,.4,.9,.6,1.3l-1.3,1.9c-.1,.2,-.1,.4,0,.5l1.5,1.5c.1,.1,.3,.1,.5,0l1.9,-1.3c.4,.3,.8,.4,1.3,.6l.4,2.2c0,.2,.2,.3,.3,.3h2.2c.1,0,.3,-.1,.3,-.3l.4,-2.2c.5,-.2,.9,-.4,1.4,-.6l1.9,1.3c.1,.1,.3,.1,.4,0l1.5,-1.5c.2,-.1,.2,-.3,.1,-.5l-1.4,-1.9c.3,-.4,.4,-.8,.6,-1.3l2.3,-.4c.1,0,.3,-.2,.3,-.4v-2.1c0,-.2,-.2,-.3,-.4,-.4Zm-8.5,4.2c-1.5,0,-2.7,-1.2,-2.7,-2.7c0,-1.5,1.2,-2.7,2.7,-2.7c1.5,0,2.7,1.2,2.7,2.7c0,1.5,-1.2,2.7,-2.7,2.7Z" class="g0_40" />
<path fill-rule="evenodd" d="M752.7,345.9c2,0,3.7,1.6,3.7,3.7V451.5c0,2,-1.7,3.7,-3.7,3.7c-2.1,0,-3.7,-1.7,-3.7,-3.7V349.6c0,-2.1,1.6,-3.7,3.7,-3.7Z" class="g15_40" />
<path fill-rule="evenodd" d="M495.4,484H744.8V425.3H495.4Z" class="g2_40" />
<path fill-rule="evenodd" d="M495.4,420.9H744.8V400.5H495.4Z" class="g2_40" />
<path d="M491.4,293.6H508v1.9H491.4Z" class="g0_40" />
<path d="M491.4,288.1H508V290H491.4Z" class="g0_40" />
<path d="M491.4,299.2H508V301H491.4Z" class="g0_40" />
<path d="M475.8,340.6H764.4" class="g5_40" />
<path fill-rule="evenodd" d="M495.8,324.1c0,.3,.1,.5,.3,.7c1.9,1.9,3.8,3.8,5.7,5.6c.2,.3,.6,.7,1,.8h.1c.2,0,.3,-.1,.4,-.2c.3,-.3,.3,-.8,0,-1.1c-.6,-.6,-5.7,-5.6,-5.7,-5.7c0,-.1,4.8,-4.9,5.3,-5.4c.4,-.4,.6,-.5,.6,-.9c0,-.4,-.3,-.7,-.7,-.7c-.4,0,-.8,.5,-1,.7c-1.8,1.8,-3.5,3.5,-5.2,5.2c-.2,.2,-.8,.7,-.8,1Z" class="g6_40" />
<path fill-rule="evenodd" d="M572.4,678.6h95.4c8.5,0,15.4,6.9,15.4,15.4c0,8.4,-6.9,15.3,-15.4,15.3H572.4c-8.4,0,-15.3,-6.9,-15.3,-15.3c0,-8.5,6.9,-15.4,15.3,-15.4Z" class="g15_40" />
<path d="M576.2,698.2h-1.1v-8.5h1.2l2.7,6.2h.1l2.7,-6.2H583v8.5h-1.1v-6h-.1l-2.3,5.2h-.9l-2.3,-5.2h-.1Zm14.1,-1.1v1.1H585v-8.5h5.3v1.1h-4v2.6H590v1h-3.7v2.7Zm5.1,-3.6v1c0,.9,.2,1.6,.6,2.1c.4,.4,.9,.7,1.6,.7c.6,0,1.1,-.2,1.4,-.5c.4,-.4,.5,-.8,.5,-1.3h1.3v.1c0,.3,-.1,.5,-.1,.8c-.1,.3,-.3,.5,-.4,.8c-.2,.2,-.4,.4,-.7,.6c-.2,.2,-.5,.3,-.9,.4c-.3,.1,-.7,.2,-1.1,.2c-1.1,0,-1.9,-.3,-2.5,-1c-.6,-.7,-.9,-1.6,-.9,-2.9v-1.1c0,-1.2,.3,-2.2,.9,-2.9c.6,-.6,1.4,-1,2.5,-1c.5,0,.9,.1,1.4,.3c.4,.1,.7,.4,1,.6c.2,.3,.4,.6,.6,1c.1,.3,.2,.7,.2,1v.1h-1.3c0,-.2,0,-.5,-.1,-.7c-.1,-.2,-.2,-.4,-.4,-.6c-.1,-.1,-.3,-.3,-.6,-.4c-.2,-.1,-.5,-.2,-.8,-.2c-.7,0,-1.2,.3,-1.6,.8c-.4,.4,-.6,1.1,-.6,2.1Zm7.4,4.7h-1.3l3,-8.5h1.4l2.9,8.5h-1.3l-.8,-2.4h-3.1Zm2.4,-7.1h-.1l-1.2,3.7h2.5Zm6,7.1H610v-8.5h1.1l4.2,6.3v-6.3h1.2v8.5h-1.1l-4.2,-6.3Zm7.3,-8.5h2.9c.5,0,1,.1,1.4,.2c.4,.1,.8,.3,1.1,.6c.3,.2,.5,.5,.7,.9c.2,.3,.3,.7,.4,1.1c.1,.5,.1,.9,.1,1.5c0,.5,0,.9,-.1,1.3c-.1,.5,-.2,.9,-.4,1.2c-.2,.4,-.4,.7,-.7,.9c-.3,.3,-.6,.5,-1.1,.6c-.4,.2,-.9,.2,-1.4,.2h-2.9Zm1.3,1.1v6.3h1.5c.8,0,1.5,-.2,1.9,-.8c.4,-.5,.6,-1.3,.6,-2.3c0,-.5,0,-1,-.1,-1.3c-.1,-.4,-.3,-.7,-.5,-1c-.2,-.3,-.4,-.5,-.8,-.7c-.3,-.1,-.7,-.2,-1.1,-.2Zm8.1,7.4h-1.3v-8.5h1.3Zm5.1,0h-1.3v-7.4h-2.5v-1.1h6.3v1.1H633Zm3.2,0h-1.3l3,-8.5h1.4l3,8.5h-1.4l-.8,-2.4H637Zm2.4,-7.1l-1.3,3.7h2.5Zm4.8,-1.4h2.9c.5,0,1,.1,1.4,.2c.4,.1,.8,.3,1.1,.6c.3,.2,.5,.5,.7,.9c.2,.3,.3,.7,.4,1.1c.1,.5,.1,.9,.1,1.5c0,.5,0,.9,-.1,1.3c-.1,.5,-.2,.9,-.4,1.2c-.2,.4,-.4,.7,-.7,.9c-.3,.3,-.7,.5,-1.1,.6c-.4,.2,-.9,.2,-1.4,.2h-2.9Zm1.3,1.1v6.3h1.4c.9,0,1.5,-.2,2,-.8c.4,-.5,.6,-1.3,.6,-2.3c0,-.5,0,-1,-.1,-1.3c-.1,-.4,-.3,-.7,-.5,-1c-.2,-.3,-.4,-.5,-.8,-.7c-.3,-.1,-.7,-.2,-1.2,-.2Zm7.2,7.4h-1.3l2.9,-8.5h1.4l3,8.5h-1.4l-.8,-2.4h-3Zm2.3,-7.1l-1.2,3.7h2.4Zm8,-1.4c.5,0,.9,.1,1.3,.2c.3,.1,.6,.3,.8,.6c.3,.2,.4,.5,.5,.8c.2,.3,.2,.6,.2,1c0,.3,0,.6,-.1,.9c-.1,.3,-.2,.5,-.4,.7c-.2,.2,-.3,.4,-.5,.5c-.2,.1,-.4,.2,-.6,.3l1.8,3.5h-1.5l-1.5,-3.3h-1.9v3.3H659v-8.5Zm-1.9,4.1H662c.5,0,1,-.1,1.3,-.3c.2,-.3,.4,-.7,.4,-1.2c0,-.5,-.2,-.8,-.5,-1.1c-.3,-.3,-.7,-.4,-1.2,-.4h-1.7Z" class="g0_40" />
<path fill-rule="evenodd" d="M512.7,358.2c9.3,0,16.8,7.6,16.8,16.9c0,9.3,-7.5,16.8,-16.8,16.8c-9.3,0,-16.9,-7.5,-16.9,-16.8c0,-9.3,7.6,-16.9,16.9,-16.9Z" class="g13_40" />
<g clip-path="url(#c4_40)">
<path fill-rule="evenodd" d="M517.5,376c-.5,.4,-1.4,1.1,-2,1.3c-1.7,.8,-3.9,.8,-5.6,0c-.6,-.3,-1.5,-.9,-2,-1.3c-2.7,1.3,-4.7,4,-5.3,6.9c-.3,1.1,-.4,1.8,.9,1.8h18.4c1.3,0,1.1,-.8,.9,-1.8c-.7,-2.9,-2.7,-5.6,-5.3,-6.9Zm-4.8,-10.5c3.1,0,5.6,2.5,5.6,5.6c0,3.1,-2.5,5.6,-5.6,5.6c-3.1,0,-5.7,-2.5,-5.7,-5.6c0,-3.1,2.6,-5.6,5.7,-5.6Z" class="g0_40" />
</g>
<path d="M512.7,358.2c9.3,0,16.8,7.6,16.8,16.9c0,9.3,-7.5,16.8,-16.8,16.8c-9.3,0,-16.9,-7.5,-16.9,-16.8c0,-9.3,7.6,-16.9,16.9,-16.9Z" class="g14_40" />
<path fill-rule="evenodd" d="M642.4,362.5q0,.2,.3,.3l1.4,.4q-.2,.3,-.3,.7c-.1,.2,-.2,.6,-.2,.9c-.2,.1,-.3,.3,-.3,.5c0,.2,0,.3,.1,.3c0,.1,.1,.2,.2,.3l-.1,.5c-.1,.5,-.1,1.1,-.2,1.5c0,.2,.1,.2,.1,.2h1c.2,0,.1,-.2,.1,-.4q0,-.1,0,-.2c0,-.2,-.2,-1.5,-.2,-1.6c.2,-.2,.3,-.3,.3,-.6c0,-.2,-.2,-.4,-.4,-.5c.1,-.1,.1,-.3,.1,-.6c.1,-.3,.2,-.6,.4,-.7q0,-.1,.1,-.1c0,0,.5,.2,.5,.2c.5,.1,.9,.3,1.3,.4q.1,0,.2,0c.2,.1,1,.4,1.2,.4q.1,0,.2,0l1.9,-.7c.1,0,.2,0,.4,-.1l1.4,-.4c.1,0,.2,-.1,.3,-.1l1.3,-.4c.1,0,.1,-.1,.1,-.2c0,-.1,-.1,-.1,-.1,-.1l-2.3,-.7c-.5,-.2,-1,-.4,-1.4,-.5l-1.4,-.4c-.5,-.2,-.4,-.2,-.8,0l-1.4,.4c-.1,0,-.2,.1,-.4,.1l-3.1,1c-.2,.1,-.3,.1,-.3,.2Z" class="g15_40" />
<path fill-rule="evenodd" d="M644.8,365.7c0,.3,.3,.5,.5,.6c.2,.1,.3,.2,.5,.3q.1,0,.2,0c1.2,.4,2.8,.4,4,0c.2,-.1,.4,-.1,.5,-.2c.3,-.2,.5,-.3,.6,-.6c0,-.1,0,-.2,0,-.3q0,-.1,0,-.2l-.1,-1.2q-.1,0,-.2,.1l-2,.6c-.2,.1,-.3,.1,-.4,.1c-.4,.2,-.5,.1,-.8,0l-.8,-.2c-.1,-.1,-.2,-.1,-.4,-.1l-1.5,-.5Z" class="g15_40" />
<path fill-rule="evenodd" d="M644.1,379.4h7.8v-1.1c0,-.3,-.2,-.5,-.5,-.5h-6.8c-.3,0,-.5,.3,-.5,.6Zm-.2,-6.4c-.1,.2,-.1,.3,0,.4H652c.1,-.1,.2,-.2,.1,-.4L648,370.8Zm5.9,.8h1.4v3.7h-1.4Zm-5.1,0h1.4v3.7h-1.4Zm2.6,0h1.4v3.7h-1.4Z" class="g15_40" />
<path fill-rule="evenodd" d="M645.7,391c0,0,.1,0,.1,0q0,.1,0,.1h.1c-.1,.1,-.1,0,-.2,0c0,0,-.1,-.1,0,-.1Zm3,-2.6c-.1,.1,-.1,0,-.1,0h.1Zm.3,.1h-.1c-.1,0,0,0,-.1,0c0,-.1,-.1,0,-.1,-.2c.1,.1,0,.1,.2,.1q-.1,0,0,0c0,0,0,.1,0,.1c.1,0,0,0,.1,0Zm-3.1,-3.7c-.1,.1,-.2,0,-.2,0c0,0,-.1,-.1,0,-.1c.1,0,0,0,.1,.1c0,.1,0,0,.1,0Zm.1,-.3v-.1h4c0,.2,0,.5,0,.8c-.1,.3,-.1,.4,-.2,.7c-.2,.5,-.6,.9,-1.1,1.3c-.1,.1,-.3,.2,-.4,.3c-.2,.2,-.2,.5,-.1,.7c.1,0,.4,.3,.5,.3v-.1q.1,.1,.1,.1q.1,.1,.1,.1l.3,.4c.3,.2,.8,.9,.7,1.3c.1,0,.1,1.1,.1,1.1c-.1,.1,-2.7,.1,-3,.1c-.3,0,-.7,0,-1,-.1v-.3c-.1,0,-.2,0,-.2,-.1c0,-.1,.1,-.2,.2,-.1c0,-.1,0,-.6,0,-.7c0,-.2,.2,-.6,.3,-.8c.2,-.2,.5,-.5,.7,-.7q.1,-.1,.2,-.1c.2,-.2,.5,-.4,.5,-.6c.1,-.4,-.1,-.5,-.3,-.7c-.6,-.4,-1.1,-.9,-1.3,-1.5c-.2,-.4,-.1,-.7,-.1,-1.1q-.1,.1,-.2,.1c-.1,-.1,0,-.3,.2,-.2c0,0,-.1,0,-.1,-.1c0,0,.1,0,.1,0Zm-.4,.3c.2,-.1,.2,.2,0,.2v.1c-.1,.3,0,.6,.1,.9c.1,.3,.3,.5,.4,.7c.2,.3,.6,.6,.9,.8c.1,.1,.3,.2,.3,.3q0,.1,-.1,.2c-.4,.3,-.8,.7,-1.1,1.1c-.2,.2,-.4,.5,-.5,.8c-.1,.4,0,.8,0,1.2c.1,0,.2,0,.1,.1q0,.1,-.1,.1c0,.1,.1,0,0,.1c0,.1,0,0,-.1,.1q-.1,0,-.2,.1c0,.1,0,0,0,0q.1,.1,0,.1c-.1,.1,-.1,.5,.3,.5c.8,0,1.8,0,2.6,0c.6,0,1.2,0,1.7,0c.3,0,.6,0,.7,-.2c.1,-.1,.1,-.3,0,-.4c0,-.1,-.2,-.1,-.2,-.2c-.1,-1.3,.2,-1.5,-.7,-2.6c-.1,0,-.5,-.4,-.6,-.5c0,0,.1,.1,-.1,.1q.1,.1,.1,.1q-.1,0,-.1,0q-.1,-.1,-.1,-.1c0,-.1,.1,-.2,.1,-.2c0,0,-.2,-.1,-.2,-.2c-.2,-.1,-.2,0,-.2,-.2c.1,0,.1,-.1,.2,-.2c.7,-.5,1.3,-1,1.5,-2c.1,-.2,.1,-.9,.1,-1.2c.1,-.1,.2,-.1,.2,-.2c.1,-.1,.1,-.3,0,-.4c-.1,-.2,-.5,-.2,-.8,-.2h-3.7c-.2,0,-.6,0,-.8,.2c0,0,0,.2,0,.4q.1,.1,.3,.2Z" class="g15_40" />
<path fill-rule="evenodd" d="M648.3,389q0,.1,-.1,.1c0,.1,-.1,.2,-.2,.1c0,0,-.1,-.1,0,-.2v-.1c.1,0,0,0,.1,.1q.1,-.1,.2,-.1v.2q0,-.1,0,-.1Zm.3,-.2h-.1q0,.1,-.1,.2v.1c0,0,0,-.1,-.1,-.1q0,-.1,0,-.2c0,0,.1,0,.2,0v-.1c-.1,-.1,-.3,-.2,-.5,-.2c-.1,-.1,-.3,.1,-.4,.1c-.6,.4,-1,.9,-1.2,1.5c0,.2,-.2,1,-.1,1.1c.1,.1,1.4,0,1.7,0c.2,0,1.5,.1,1.6,0c.1,0,0,-.3,0,-.4c0,-.3,-.1,-.7,-.2,-1c-.2,-.3,-.4,-.7,-.7,-.9Z" class="g15_40" />
<path fill-rule="evenodd" d="M648.1,387.3c.3,-.1,.4,-.2,.7,-.4c.2,-.2,.7,-.8,.6,-1c-.1,0,-1.9,0,-2.2,0c-.8,0,-.8,-.1,-.6,.2c0,.2,.1,.3,.2,.4c0,0,.1,.1,.1,.1q.1,.1,.2,.2l.2,.2h.1c.1,.1,.2,.2,.3,.2q.3,.2,.4,.1Z" class="g15_40" />
<path fill-rule="evenodd" d="M646,390.9v.5c.3,.1,.7,.1,1,.1c.3,0,2.9,0,3,-.1c0,0,0,-1.1,-.1,-1.1v1.1H646v-1.2c0,.1,0,.6,0,.7Z" class="g15_40" />
<path fill-rule="evenodd" d="M648.1,389.2c0,0,-.1,0,-.1,-.1c0,0,.1,-.1,.1,.1ZM648.3,389v.1v-.2q-.1,0,-.2,.1c-.1,-.1,0,-.1,-.1,-.1q0,.1,0,.1c-.1,.1,0,.2,0,.2c.1,.1,.2,0,.2,-.1q.1,0,.1,-.1Z" class="g15_40" />
<path fill-rule="evenodd" d="M648.3,388.8c.1,0,.2,.1,.1,.1c0,.1,-.1,0,-.1,-.1Zm0,.2c.1,0,.1,.1,.1,.1q0,-.1,0,-.1q.1,-.1,.1,-.2q.1,0,.1,0c0,0,-.1,0,-.1,-.1v.1c-.1,0,-.2,0,-.2,0q0,.1,0,.2Z" class="g15_40" />
<path fill-rule="evenodd" d="M649.1,388.4c-.2,.1,-.2,-.1,-.1,-.1q.1,0,.1,.1Zm0,-.1c0,0,-.1,-.1,-.1,-.1c0,0,-.1,.1,-.1,.2l.1,.1h.1l-.1,-.1c.2,0,.1,-.1,.1,-.1Z" class="g15_40" />
<path fill-rule="evenodd" d="M645.6,384.9v-.1h.1c0,.1,0,.2,-.1,.1Zm0,-.1v.3V385c.2,0,.2,-.3,0,-.2Z" class="g15_40" />
<path fill-rule="evenodd" d="M645.9,384.6c.1,.2,0,.1,-.1,.1c0,-.1,.1,-.1,.1,-.1Zm.1,.1v-.1c-.2,-.1,-.3,.1,-.2,.2q.1,0,.2,-.1Z" class="g15_40" />
<path fill-rule="evenodd" d="M645.7,391.2c0,0,0,.1,-.1,.1c0,-.1,0,-.2,.1,-.1Zm-.1,-.1v.2q.1,0,.1,-.1c.1,-.1,0,-.1,-.1,-.1Z" class="g15_40" />
<path fill-rule="evenodd" d="M645.9,390.9c0,0,.1,0,0,.1h-.1Zm.1,.2v-.2c-.1,-.1,-.2,0,-.2,.1c0,.1,.1,.1,.2,.1Z" class="g15_40" />
<path fill-rule="evenodd" d="M648.9,388.5h.1c-.1,0,0,0,-.1,0c0,0,0,-.1,0,-.1q-.1,0,0,0c-.2,0,-.1,0,-.2,-.1c0,.2,.1,.1,.1,.2c.1,0,0,0,.1,0Z" class="g15_40" />
<path fill-rule="evenodd" d="M645.9,384.8c-.1,0,-.1,.1,-.1,0c-.1,-.1,0,-.1,-.1,-.1c-.1,0,0,.1,0,.1c0,0,.1,.1,.2,0Z" class="g15_40" />
<path fill-rule="evenodd" d="M645.8,391c0,0,-.1,0,-.1,0c-.1,0,0,.1,0,.1c.1,0,.1,.1,.2,0h-.1V391Z" class="g15_40" />
<path fill-rule="evenodd" d="M648.7,388.5c0,.1,.1,.1,.1,.1h.1l-.1,-.1l-.1,-.1q0,.1,0,.1Z" class="g15_40" />
<path fill-rule="evenodd" d="M648.1,389.2c0,-.2,-.1,-.1,-.1,-.1c0,.1,.1,.1,.1,.1Z" class="g15_40" />
<path fill-rule="evenodd" d="M648.3,388.8c0,.1,.1,.2,.1,.1c.1,0,0,-.1,-.1,-.1Z" class="g15_40" />
<path fill-rule="evenodd" d="M649.1,388.4q0,-.1,-.1,-.1c-.1,0,-.1,.2,.1,.1Z" class="g15_40" />
<path fill-rule="evenodd" d="M645.9,384.6c0,0,-.1,0,-.1,.1c.1,0,.2,.1,.1,-.1Z" class="g15_40" />
<path fill-rule="evenodd" d="M645.9,390.9l-.1,.1h.1c.1,-.1,0,-.1,0,-.1Z" class="g15_40" />
<path fill-rule="evenodd" d="M645.6,384.9c.1,.1,.1,0,.1,-.1h-.1q0,.1,0,.1Z" class="g15_40" />
<path fill-rule="evenodd" d="M645.7,391.2c-.1,-.1,-.1,0,-.1,.1c.1,0,.1,-.1,.1,-.1Z" class="g15_40" />
<path fill-rule="evenodd" d="M645.3,391.7q.1,0,0,-.1c0,0,0,.1,0,0v.1Z" class="g15_40" />
<path fill-rule="evenodd" d="M645.6,391.4c.1,-.1,0,0,0,-.1Z" class="g15_40" />
<path fill-rule="evenodd" d="M646,384.6v-.1c0,0,-.1,0,-.1,0c0,.1,.1,.1,.1,.1Z" class="g15_40" />
<path fill-rule="evenodd" d="M648.6,388.4c0,0,0,.1,.1,0q-.1,0,-.1,0Z" class="g15_40" />
<path fill-rule="evenodd" d="M650.6,383.7c.1,.1,0,.1,.1,.1q0,-.1,0,-.1Z" class="g15_40" />
<path fill-rule="evenodd" d="M488.5,766.5c.1,-.1,2,-2,2.2,-2.2c.3,-.4,.7,-.7,1.1,-1.1l5.4,-5.5c0,-.1,-2.3,-2.4,-2.4,-2.4l-3.3,3.3c-1,1.1,-2.2,2.2,-3.3,3.3l-2.1,2.2c0,.1,1,1,1.1,1.2c.2,.2,1.2,1.1,1.3,1.2Z" class="g1_40" />
<path fill-rule="evenodd" d="M499.3,755.7v-.1c-.1,0,-.2,-.2,-.3,-.3c-.2,-.2,-2,-2,-2.1,-2l-1.4,1.3c.1,.1,.5,.5,.6,.6c.2,.2,1.7,1.7,1.9,1.8Z" class="g1_40" />
<path fill-rule="evenodd" d="M484.3,768l1.7,-.4c.1,-.1,1.6,-.4,1.7,-.5l-.4,-.4c-.3,-.3,-.2,-.3,-.5,-.2c-.2,0,-1.1,.3,-1.3,.3l.5,-1.4c-.1,-.1,-.5,-.5,-.6,-.6c-.1,.1,-.2,.7,-.3,.8l-.5,1.6c-.1,.2,-.2,.6,-.3,.8Z" class="g1_40" />
<path fill-rule="evenodd" d="M604.9,763.1c0,.5,.3,.9,.7,.9h.9v4.9c0,.3,.3,.7,.7,.7h2.5v-4c0,-.5,.3,-.8,.8,-.8h1.6c.5,0,.8,.4,.8,.9v3.9h2.5c.4,0,.7,-.4,.7,-.7V764h.9c.4,0,.7,-.4,.7,-.8v-.1c0,-.1,0,-.2,-.1,-.4c-.1,-.2,-1.4,-1.4,-1.4,-1.5c-.1,-.1,-.1,-.3,-.1,-.5c0,-.6,0,-1.3,0,-1.9c0,-.4,.1,-.6,-.1,-.9c-.3,-.5,-.8,-.4,-1.5,-.4c-.3,0,-.5,.2,-.7,.4c-.1,.3,-.1,.4,-.1,.9c-.1,-.1,-.4,-.4,-.5,-.6c-.2,-.2,-.4,-.3,-.6,-.5c-.2,-.2,-.3,-.4,-.5,-.6c-.3,-.2,-.5,-.4,-.9,-.4c-.4,0,-.7,.4,-.9,.7l-2.4,2.4c-.5,.5,-1.1,1,-1.6,1.6c-.3,.2,-.5,.5,-.8,.8c-.2,.2,-.6,.5,-.6,.9Z" class="g7_40" />
<path fill-rule="evenodd" d="M720.5,752.4h30.9c.3,0,.5,.2,.5,.4V770c0,.3,-.2,.5,-.5,.5H720.5c-.3,0,-.5,-.2,-.5,-.5V752.8c0,-.2,.2,-.4,.5,-.4Z" class="g8_40" />
<path fill-rule="evenodd" d="M744,766.3c.1,0,.2,-.1,.3,-.2c1,-1,2.1,-2,3.1,-3c.1,-.1,.3,-.3,.4,-.6v-.1c0,0,-.1,-.1,-.1,-.2c-.2,-.1,-.4,-.1,-.6,.1c-.3,.3,-3,3,-3.1,3.1c-.1,-.1,-2.6,-2.7,-2.9,-2.9c-.2,-.2,-.3,-.4,-.5,-.4c-.2,0,-.4,.2,-.4,.4c0,.2,.3,.5,.4,.6c1,.9,1.9,1.8,2.8,2.8c.1,.1,.4,.4,.6,.4Z" class="g9_40" />
<path fill-rule="evenodd" d="M726.2,759h8c.9,0,1.5,.7,1.5,1.5v5c0,.8,-.6,1.5,-1.5,1.5h-8c-.8,0,-1.5,-.7,-1.5,-1.5v-5c0,-.8,.7,-1.5,1.5,-1.5Z" class="g10_40" />
<path d="M727,758.4c.1,-5.9,6.6,-5.3,6.5,0" class="g11_40" />
<path fill-rule="evenodd" d="M556.9,764.2c0,-.1,.3,-1.5,.3,-1.7h2.6l-.3,1.7Zm-5.2,.9c0,.3,0,.6,.3,.9c.1,.1,.3,.2,.6,.2c.5,.1,1.2,0,1.8,0c-.1,.3,-.3,1.6,-.4,2c-.1,.4,-.1,.6,.1,1c.2,.4,.5,.3,.7,.4c.4,0,.7,-.1,1,-.5c.1,-.2,.2,-.6,.2,-.9c.1,-.3,.4,-1.9,.4,-2h2.7c-.1,.3,-.1,.7,-.2,1c-.1,.3,-.1,.7,-.2,1c-.1,.5,-.1,.9,.4,1.2c.1,.1,.2,.1,.4,.2c.2,0,.5,0,.7,-.2c.4,-.2,.4,-.7,.5,-1.2c0,0,.4,-1.9,.5,-2c0,0,2,0,2.2,0c.4,0,.7,0,1,-.1c.8,-.6,.5,-1.9,-.6,-1.9c-.7,0,-1.5,0,-2.2,0l.3,-1.7c.2,0,1.8,0,2.1,0c.4,0,.6,0,.8,-.2c.3,-.2,.3,-.5,.4,-.7v-.3c-.1,-.2,0,-.3,-.3,-.6c-.2,-.1,-.4,-.2,-.7,-.2c-.6,0,-1.3,0,-1.9,0c.1,-.7,.8,-2.7,.5,-3.3c-.4,-.7,-1.5,-.7,-1.9,.1c-.1,.3,-.5,2.7,-.6,3.2h-2.7c0,-.2,.4,-1.8,.5,-2.2c0,-.4,.1,-.7,-.1,-1.1c-.3,-.5,-1,-.7,-1.5,-.3c-.4,.3,-.4,.8,-.5,1.4c-.1,.4,-.2,.8,-.2,1.1l-.3,1.1c0,0,.1,0,0,0c-.1,.1,-1.8,0,-2.1,0c-.4,0,-.6,0,-.9,.2c-.8,.6,-.4,1.8,.5,1.8c.3,.1,1.7,.1,2.1,0l-.3,1.7c-.7,0,-1.4,0,-2,0c-.4,0,-.6,.1,-.8,.3c-.2,.2,-.3,.5,-.3,.6Z" class="g7_40" />
<path fill-rule="evenodd" d="M658.6,761.4c0,.3,.1,.3,.6,.4l2.2,.7c-.2,.5,-.3,.5,-.5,1.2c-.1,.4,-.3,1,-.3,1.5c-.3,.2,-.5,.4,-.5,.8c0,.3,.1,.4,.1,.6c.1,.1,.3,.3,.4,.3l-.1,1c-.2,.8,-.3,1.7,-.4,2.5c0,.2,.1,.3,.2,.3H662c.3,0,.2,-.5,.1,-.7c0,-.1,0,-.3,0,-.4c-.1,-.4,-.4,-2.5,-.4,-2.7c.3,-.2,.5,-.4,.5,-.9c0,-.4,-.2,-.7,-.5,-.8c0,-.2,0,-.6,.2,-1.1c0,-.4,.3,-.9,.5,-1.2c0,0,.1,0,.1,0c.1,0,.9,.2,1,.3c.7,.2,1.4,.4,2.1,.6c.1,.1,.2,.1,.3,.1c.3,.1,1.7,.6,2,.6c.1,0,.2,0,.3,-.1l3.2,-1c.2,0,.3,-.1,.5,-.1l2.4,-.8c.2,0,.4,-.1,.6,-.2l2,-.6q.2,-.1,.2,-.2v-.1c0,-.1,-.1,-.2,-.2,-.2L673.1,760c-.7,-.3,-1.5,-.5,-2.3,-.8l-2.3,-.7c-.7,-.2,-.6,-.2,-1.3,0l-2.3,.7c-.2,.1,-.4,.2,-.6,.2l-5.2,1.7c-.2,0,-.5,.1,-.5,.3Z" class="g7_40" />
<path fill-rule="evenodd" d="M662.7,766.7c0,.4,.4,.7,.7,.9c.3,.2,.6,.3,.9,.5c.1,0,.2,0,.3,.1c1.9,.6,4.7,.6,6.6,-.1c.3,-.1,.6,-.2,.9,-.3c.4,-.3,.7,-.5,.9,-1c0,-.1,0,-.3,0,-.5c0,-.1,0,-.2,0,-.3l-.2,-2c-.1,0,-.2,.1,-.3,.1l-3.4,1.1c-.2,.1,-.4,.1,-.6,.2c-.6,.2,-.7,.2,-1.3,0l-1.3,-.4c-.2,-.1,-.4,-.1,-.6,-.2l-2.5,-.8Z" class="g7_40" />
<path d="M408,425.9h44.3V223.6M411.2,193.1h82.2v30.5H411.2Zm82.2,22.5h49.4v102M382.5,817.2h82.3v30.4H382.5Zm0,15.2H350.9V771.6" class="g17_40" />
<path fill-rule="evenodd" d="M387.5,828.6c0,.5,.2,.4,1,.7l3.4,1c-.4,.7,-.6,.7,-.9,1.8c-.1,.6,-.3,1.6,-.3,2.2c-.5,.4,-.8,.7,-.8,1.4c0,.3,0,.6,.2,.8c0,.1,.3,.5,.5,.5l-.2,1.5c-.2,1.2,-.3,2.5,-.5,3.8c-.1,.3,.2,.5,.3,.5h2.5c.5,0,.3,-.8,.3,-1c-.1,-.3,-.1,-.5,-.1,-.7c-.1,-.6,-.6,-3.8,-.6,-4.1c.5,-.3,.7,-.7,.7,-1.3c0,-.6,-.3,-1.1,-.7,-1.3c0,-.3,0,-.9,.2,-1.7c.2,-.6,.5,-1.3,.9,-1.7c0,-.1,.1,-.1,.1,-.1c.1,-.1,1.3,.3,1.5,.4c1.1,.4,2.2,.7,3.3,1c.1,.1,.2,.1,.4,.1c.5,.2,2.6,.9,3,.9c.2,0,.3,0,.4,-.1l4.9,-1.5c.3,-.1,.6,-.2,.9,-.3l3.6,-1.1c.3,-.1,.6,-.2,.9,-.3l3.1,-.9c.2,-.1,.3,-.3,.3,-.4v-.1c0,-.2,-.2,-.3,-.3,-.4l-5.8,-1.8c-1.1,-.3,-2.3,-.7,-3.5,-1.1l-3.6,-1.1c-1,-.3,-.9,-.4,-1.9,0l-3.5,1.1c-.4,.1,-.6,.2,-.9,.3l-8,2.5c-.3,.1,-.8,.2,-.8,.5Z" class="g18_40" />
<path fill-rule="evenodd" d="M393.8,836.7c0,.6,.6,1.1,1.1,1.4c.4,.3,.8,.5,1.3,.7c.2,0,.3,.1,.5,.1c2.9,1,7.1,1,10.1,0c.5,-.2,1,-.4,1.3,-.6c.6,-.3,1.1,-.7,1.4,-1.4c0,-.3,0,-.5,0,-.8c0,-.2,0,-.3,0,-.4l-.2,-3.1c-.2,0,-.3,.1,-.5,.1l-5.2,1.7c-.3,.1,-.6,.2,-.9,.3c-1,.3,-1.1,.3,-2.1,0l-1.8,-.6c-.4,-.1,-.7,-.2,-1,-.3L394,832.6Z" class="g18_40" />
<path fill-rule="evenodd" d="M419.8,213.1h65v.7h-65Z" class="g18_40" />
<image x="908" y="-1" width="913" height="1290" xlink:href="shade/2.png" />
<image preserveAspectRatio="none" x="908" y="782" width="910" height="504" xlink:href="img/2.png" />
</svg>