<?xml version="1.0" encoding="UTF-8" standalone="no"?>
<!DOCTYPE svg PUBLIC "-//W3C//DTD SVG 1.1//EN"
"http://www.w3.org/Graphics/SVG/1.1/DTD/svg11.dtd">
<svg viewBox="0 0 909 1286" version="1.1" xmlns="http://www.w3.org/2000/svg" xmlns:xlink="http://www.w3.org/1999/xlink">
<defs>
<style type="text/css"><![CDATA[
.g0_4{
fill: #FFFFFF;
}
.g1_4{
fill: #FFFFFF;
stroke: #FFFFFF;
stroke-width: 0.15277778;
stroke-linecap: butt;
stroke-linejoin: miter;
stroke-miterlimit: 22;
}
.g2_4{
fill: #FFFFFF;
fill-opacity: 0.5;
}
]]></style>
</defs>
<image x="0" y="0" width="911" height="1289" xlink:href="shade/1.png" />
<path fill-rule="evenodd" d="M585.5,576.1C528.3,558.3,543.8,423.5,642.2,484.3c23.6,14.5,12.4,29.1,66,18.6c59.4,-11.6,25.1,134.9,-66.9,91.2c-36.5,-17.4,-42.2,-6,-91.6,10.2c-.2,.1,-1,.1,-1.2,.2Zm49.1,-14.9v7.5c0,2.4,.3,4.2,.8,5.5c.4,1.3,1.1,2.4,2,3.2c1.2,1.1,2.9,1.9,4.9,2.5c2.1,.7,4.6,1,7.6,1c4.1,0,7.2,-.6,9.4,-1.8c2.2,-1.2,3.7,-2.7,4.5,-4.5c.5,-1.2,.8,-3.2,.8,-6v-7.4Zm-6.1,-5.9h42.2v13.2c0,2.9,-.2,5.2,-.6,6.8c-.5,2.2,-1.5,4,-3,5.6c-1.9,2,-4.3,3.5,-7.2,4.5c-3,1,-6.3,1.5,-10.1,1.5c-3.2,0,-6,-.3,-8.5,-1c-2.5,-.7,-4.5,-1.6,-6.2,-2.6c-1.6,-1.1,-2.9,-2.2,-3.8,-3.5c-.9,-1.3,-1.6,-2.8,-2.1,-4.6c-.5,-1.7,-.7,-3.8,-.7,-6.1Zm30.7,-12.2h23.6V513.3h-5.2v24.5H664.4V513.4h-5.2v24.4Zm-48.6,-7.4h28.6v7.5h-36V497.7h36v7.5H610.6v11.2h28.6v7.4H610.6Z" class="g0_4" />
<path d="M179,603.5h-7.2V537.2H179Zm23.6,0h-7V537.2h7.3l34.9,53.9h.2V537.2h7v66.3h-7.2l-35,-53.9h-.2Zm72.5,-59.8H254.5v-6.5h48.3v6.5H282.2ZM413,556.9h-7.2c-.6,-4.7,-2.4,-8.3,-5.6,-10.8c-3.1,-2.5,-6.9,-3.8,-11.4,-3.8c-2.7,0,-5.1,.5,-7.3,1.4c-2.2,.9,-4.2,2.3,-5.9,4.1c-1.8,1.8,-3.1,4.2,-4.1,7.2c-1,3,-1.5,6.5,-1.5,10.4v9.5c0,7.4,1.6,13.1,4.8,17.3c3.2,4.1,7.8,6.2,13.8,6.2c5.1,0,9.3,-1.4,12.6,-4.3c3.3,-2.8,4.9,-6.5,4.9,-11V576h-18v-6.6h25.1v13.7c0,1.9,-.3,3.8,-.8,5.7c-.5,1.9,-1.4,3.8,-2.6,5.8c-1.2,2,-2.8,3.7,-4.6,5.2c-1.8,1.5,-4.1,2.8,-7,3.7c-2.8,1,-6,1.5,-9.5,1.5c-8.4,0,-14.8,-2.7,-19.2,-8c-4.4,-5.4,-6.7,-12.7,-6.7,-22.1v-9.5c0,-9.3,2.4,-16.6,7.1,-21.8c4.7,-5.3,11.1,-7.9,19.1,-7.9c3.6,0,7,.6,10,1.7c2.9,1.2,5.4,2.8,7.3,4.7c2,2,3.5,4.3,4.7,6.8c1.1,2.5,1.8,5.1,2,8Zm21.4,13l-.1,6.7l.1,26.9h-7.3V537.2h23.4c3.4,0,6.6,.5,9.3,1.5c2.7,1.1,4.9,2.5,6.5,4.3c1.7,1.9,2.9,3.9,3.8,6.2c.8,2.3,1.3,4.8,1.3,7.4c0,2.6,-.4,5,-1.1,7.1c-.7,2.2,-1.7,4,-2.9,5.4c-1.3,1.5,-2.6,2.7,-4,3.7c-1.4,.9,-3,1.7,-4.7,2.2l13.8,28.5h-8.3L449.7,569.9c4.8,0,8,-1.1,10.5,-3.3c2.5,-2.2,3.7,-5.4,3.7,-9.5c0,-4.3,-1.3,-7.6,-3.8,-9.9c-2.6,-2.3,-6.1,-3.5,-10.5,-3.5H434.4Zm61.1,7l-2.1,6l-7.1,20.6h-7.4l23.8,-66.3h7.1l23.9,66.3h-7.8l-7.1,-20.6l-2,-6m0,0L506.2,546.1h-.1l-10.6,30.8m47.9,22.5c0,-1.5,.5,-2.7,1.5,-3.7c1,-1,2.2,-1.5,3.6,-1.5c1.4,0,2.6,.5,3.6,1.5c1,1,1.5,2.2,1.5,3.7c0,1.3,-.5,2.5,-1.5,3.6c-1,1,-2.2,1.5,-3.6,1.5c-1.4,0,-2.6,-.5,-3.6,-1.5c-1,-1.1,-1.5,-2.3,-1.5,-3.6Z" class="g1_4" />
<path fill-rule="evenodd" d="M312.3,537.2h39.1v6.5H318.8v53.2h32.6v6.6H312.3c0,-22.1,0,-44.2,0,-66.3Z" class="g1_4" />
<path fill-rule="evenodd" d="M349.7,572.9H327.6v-6.6h22.1Z" class="g1_4" />
<path fill-rule="evenodd" d="M406.1,576h-18v-6.6h18Z" class="g1_4" />
<path fill-rule="evenodd" d="M281.6,603.5v-51h-6.5v51Z" class="g1_4" />
<path fill-rule="evenodd" d="M585.5,576.1C528.3,558.3,543.8,423.5,642.2,484.3c23.6,14.5,12.4,29.1,66,18.6c59.4,-11.6,25.1,134.9,-66.9,91.2c-36.5,-17.4,-42.2,-6,-91.6,10.2c-.2,.1,-1,.1,-1.2,.2Zm49.1,-14.9v7.5c0,2.4,.3,4.2,.8,5.5c.4,1.3,1.1,2.4,2,3.2c1.2,1.1,2.9,1.9,4.9,2.5c2.1,.7,4.6,1,7.6,1c4.1,0,7.2,-.6,9.4,-1.8c2.2,-1.2,3.7,-2.7,4.5,-4.5c.5,-1.2,.8,-3.2,.8,-6v-7.4Zm-6.1,-5.9h42.2v13.2c0,2.9,-.2,5.2,-.6,6.8c-.5,2.2,-1.5,4,-3,5.6c-1.9,2,-4.3,3.5,-7.2,4.5c-3,1,-6.3,1.5,-10.1,1.5c-3.2,0,-6,-.3,-8.5,-1c-2.5,-.7,-4.5,-1.6,-6.2,-2.6c-1.6,-1.1,-2.9,-2.2,-3.8,-3.5c-.9,-1.3,-1.6,-2.8,-2.1,-4.6c-.5,-1.7,-.7,-3.8,-.7,-6.1Zm30.7,-12.2h23.6V513.3h-5.2v24.5H664.4V513.4h-5.2v24.4Zm-48.6,-7.4h28.6v7.5h-36V497.7h36v7.5H610.6v11.2h28.6v7.4H610.6Z" class="g0_4" />
<path d="M179,603.5h-7.2V537.2H179Zm23.6,0h-7V537.2h7.3l34.9,53.9h.2V537.2h7v66.3h-7.2l-35,-53.9h-.2Zm72.5,-59.8H254.5v-6.5h48.3v6.5H282.2ZM413,556.9h-7.2c-.6,-4.7,-2.4,-8.3,-5.6,-10.8c-3.1,-2.5,-6.9,-3.8,-11.4,-3.8c-2.7,0,-5.1,.5,-7.3,1.4c-2.2,.9,-4.2,2.3,-5.9,4.1c-1.8,1.8,-3.1,4.2,-4.1,7.2c-1,3,-1.5,6.5,-1.5,10.4v9.5c0,7.4,1.6,13.1,4.8,17.3c3.2,4.1,7.8,6.2,13.8,6.2c5.1,0,9.3,-1.4,12.6,-4.3c3.3,-2.8,4.9,-6.5,4.9,-11V576h-18v-6.6h25.1v13.7c0,1.9,-.3,3.8,-.8,5.7c-.5,1.9,-1.4,3.8,-2.6,5.8c-1.2,2,-2.8,3.7,-4.6,5.2c-1.8,1.5,-4.1,2.8,-7,3.7c-2.8,1,-6,1.5,-9.5,1.5c-8.4,0,-14.8,-2.7,-19.2,-8c-4.4,-5.4,-6.7,-12.7,-6.7,-22.1v-9.5c0,-9.3,2.4,-16.6,7.1,-21.8c4.7,-5.3,11.1,-7.9,19.1,-7.9c3.6,0,7,.6,10,1.7c2.9,1.2,5.4,2.8,7.3,4.7c2,2,3.5,4.3,4.7,6.8c1.1,2.5,1.8,5.1,2,8Zm21.4,13l-.1,6.7l.1,26.9h-7.3V537.2h23.4c3.4,0,6.6,.5,9.3,1.5c2.7,1.1,4.9,2.5,6.5,4.3c1.7,1.9,2.9,3.9,3.8,6.2c.8,2.3,1.3,4.8,1.3,7.4c0,2.6,-.4,5,-1.1,7.1c-.7,2.2,-1.7,4,-2.9,5.4c-1.3,1.5,-2.6,2.7,-4,3.7c-1.4,.9,-3,1.7,-4.7,2.2l13.8,28.5h-8.3L449.7,569.9c4.8,0,8,-1.1,10.5,-3.3c2.5,-2.2,3.7,-5.4,3.7,-9.5c0,-4.3,-1.3,-7.6,-3.8,-9.9c-2.6,-2.3,-6.1,-3.5,-10.5,-3.5H434.4Zm61.1,7l-2.1,6l-7.1,20.6h-7.4l23.8,-66.3h7.1l23.9,66.3h-7.8l-7.1,-20.6l-2,-6m0,0L506.2,546.1h-.1l-10.6,30.8m47.9,22.5c0,-1.5,.5,-2.7,1.5,-3.7c1,-1,2.2,-1.5,3.6,-1.5c1.4,0,2.6,.5,3.6,1.5c1,1,1.5,2.2,1.5,3.7c0,1.3,-.5,2.5,-1.5,3.6c-1,1,-2.2,1.5,-3.6,1.5c-1.4,0,-2.6,-.5,-3.6,-1.5c-1,-1.1,-1.5,-2.3,-1.5,-3.6Z" class="g1_4" />
<path fill-rule="evenodd" d="M312.3,537.2h39.1v6.5H318.8v53.2h32.6v6.6H312.3c0,-22.1,0,-44.2,0,-66.3Z" class="g1_4" />
<path fill-rule="evenodd" d="M349.7,572.9H327.6v-6.6h22.1Z" class="g1_4" />
<path fill-rule="evenodd" d="M406.1,576h-18v-6.6h18Z" class="g1_4" />
<path fill-rule="evenodd" d="M281.6,603.5v-51h-6.5v51Z" class="g1_4" />
<path fill-rule="evenodd" d="M355.2,352.9c-.9,.8,-2.8,2.2,-4,2.7c-3.4,1.6,-7.7,1.6,-11.1,0c-1.2,-.6,-3,-1.9,-4,-2.7c-5.2,2.7,-9.1,8,-10.5,13.8c-.4,2.1,-.7,3.5,2,3.5h36.3c2.6,0,2.3,-1.5,1.8,-3.6c-1.3,-5.7,-5.2,-11.1,-10.5,-13.7Zm-9.5,-20.7c6.2,0,11.2,4.9,11.2,11.1c0,6.1,-5,11.1,-11.2,11.1c-6.2,0,-11.2,-5,-11.2,-11.1c0,-6.2,5,-11.1,11.2,-11.1Z" class="g0_4" />
<path fill-rule="evenodd" d="M375.5,357.1c-.7,.6,-2.1,1.6,-3.1,2c-2.4,1.2,-5.5,1.2,-7.9,.2c1.5,2.2,2.6,4.7,3.2,7.3c.5,2.1,.8,3.6,-1.8,3.6h16.2c2,0,1.7,-1.1,1.4,-2.7c-1,-4.4,-4,-8.4,-8,-10.4Zm-7.2,-15.8c4.7,0,8.5,3.8,8.5,8.4c0,4.7,-3.8,8.5,-8.5,8.5c-4.7,0,-8.5,-3.8,-8.5,-8.5c0,-4.6,3.8,-8.4,8.5,-8.4Z" class="g0_4" />
<path fill-rule="evenodd" d="M366,318.8h1c1.4,.1,2.8,.4,4.1,.9c.7,.3,1.2,.5,1.7,.8l1.2,.8c.1,.1,.2,.2,.3,.3c.9,.8,1.8,1.7,2.3,2.8c.8,1.6,1.1,2.5,1.1,4.6c0,2,-.9,3.9,-2.1,5.4c-.1,.2,-.2,.2,-.3,.4l-1,.9c-.3,.3,-1.1,.8,-1.5,1.1c-2.3,1.4,-5,1.9,-7.8,1.6c-.6,-.1,-.5,-.2,-.9,.1c-1.2,.7,-2.8,1.6,-3.8,2.3c-.3,.2,-.5,.3,-.8,.4c0,-1.3,0,-2.7,0,-4.1c0,-.6,.1,-.7,-.1,-.9c-.8,-.6,-1.5,-1.2,-2.1,-2c-.6,-.8,-.8,-1,-1.2,-1.9c-.6,-1.3,-.8,-2.4,-.8,-4c0,-.7,.2,-1.6,.4,-2.1c.6,-2,1.5,-3.2,3,-4.6l.7,-.6c.3,-.1,.5,-.3,.8,-.5c1.7,-1,3.8,-1.6,5.8,-1.7Z" class="g0_4" />
<path fill-rule="evenodd" d="M325.2,321.7h-1c-1.4,0,-2.8,.3,-4.1,.8c-.6,.3,-1.1,.5,-1.7,.9l-1.1,.7c-.1,.1,-.2,.2,-.3,.3c-.9,.8,-1.8,1.7,-2.3,2.8c-.8,1.7,-1.1,2.5,-1.1,4.6c0,2,.9,3.9,2.1,5.4c.1,.2,.2,.2,.3,.4l1,.9c.3,.3,1.1,.9,1.4,1.1c2.4,1.4,5,1.9,7.8,1.6c.7,-.1,.5,-.2,.9,.1c1.2,.7,2.8,1.6,3.8,2.3c.3,.2,.5,.3,.8,.5c0,-1.4,0,-2.8,0,-4.2c0,-.5,-.1,-.7,.1,-.9c.8,-.6,1.5,-1.2,2.1,-2c.6,-.8,.7,-1,1.2,-1.9c.6,-1.3,.7,-2.4,.7,-3.9c0,-.8,-.1,-1.7,-.3,-2.2c-.6,-2,-1.5,-3.2,-3,-4.6l-.8,-.5c-.2,-.2,-.4,-.4,-.7,-.5c-1.7,-1.1,-3.8,-1.7,-5.8,-1.7Z" class="g0_4" />
<path fill-rule="evenodd" d="M339.1,301.1c-.6,.5,-1.9,1.4,-2.7,1.8c-2.3,1.1,-5.3,1.1,-7.6,0c-.9,-.4,-2.1,-1.3,-2.8,-1.8c-3.6,1.8,-6.3,5.4,-7.2,9.4c-.3,1.5,-.5,2.4,1.3,2.4h25c1.8,0,1.6,-1,1.2,-2.4c-.9,-4,-3.6,-7.6,-7.2,-9.4Zm-6.5,-14.3c4.2,0,7.7,3.4,7.7,7.6c0,4.3,-3.5,7.7,-7.7,7.7c-4.3,0,-7.7,-3.4,-7.7,-7.7c0,-4.2,3.4,-7.6,7.7,-7.6Z" class="g0_4" />
<path fill-rule="evenodd" d="M353.1,303.9c-.6,.4,-1.5,1.1,-2.1,1.4c-1.7,.8,-3.8,.8,-5.5,.1c1,1.6,1.8,3.3,2.2,5.1c.3,1.4,.5,2.4,-1.2,2.4h11.1c1.3,0,1.2,-.8,.9,-1.8c-.7,-3.1,-2.7,-5.8,-5.4,-7.2Zm-5,-10.8c3.2,0,5.8,2.6,5.8,5.8c0,3.2,-2.6,5.8,-5.8,5.8c-3.2,0,-5.9,-2.6,-5.9,-5.8c0,-3.2,2.7,-5.8,5.9,-5.8Z" class="g0_4" />
<path fill-rule="evenodd" d="M312.1,303.9c.6,.4,1.5,1.1,2.2,1.4c1.6,.8,3.7,.8,5.4,.1c-1,1.6,-1.8,3.3,-2.2,5.1c-.3,1.4,-.5,2.4,1.2,2.4H307.6c-1.3,0,-1.2,-.8,-.9,-1.8c.7,-3.1,2.7,-5.8,5.4,-7.2Zm5,-10.8c-3.2,0,-5.8,2.6,-5.8,5.8c0,3.2,2.6,5.8,5.8,5.8c3.3,0,5.9,-2.6,5.9,-5.8c0,-3.2,-2.6,-5.8,-5.9,-5.8Z" class="g0_4" />
<path fill-rule="evenodd" d="M393.1,294.1h-1.5c-2,.1,-4,.5,-5.8,1.2c-.9,.4,-1.6,.8,-2.4,1.3l-1.7,1.1c-.2,.1,-.3,.2,-.5,.4c-1.2,1.1,-2.5,2.5,-3.3,4c-1.2,2.4,-1.6,3.6,-1.6,6.6c0,2.9,1.3,5.7,3.1,7.9c.2,.2,.3,.3,.4,.5l1.4,1.4c.5,.4,1.6,1.2,2.2,1.5c3.3,2,7.1,2.8,11.2,2.3c.9,-.1,.7,-.2,1.3,.2c1.7,1.1,4,2.3,5.5,3.4c.3,.2,.7,.4,1.1,.6c0,-2,0,-4,0,-6c0,-.8,-.2,-1.1,.2,-1.3c1.1,-.9,2.1,-1.8,3,-2.9c.8,-1.1,1.1,-1.5,1.7,-2.8c.8,-1.8,1.1,-3.5,1.1,-5.7c0,-1,-.3,-2.3,-.5,-3.1c-.9,-2.9,-2.2,-4.7,-4.4,-6.6l-1,-.8c-.4,-.3,-.7,-.5,-1.1,-.7C399,295,396,294.2,393.1,294.1Z" class="g0_4" />
<path fill-rule="evenodd" d="M355.3,252.8c41,0,74.3,33.3,74.3,74.4c0,41,-33.3,74.3,-74.3,74.3C314.2,401.5,281,368.2,281,327.2c0,-41.1,33.2,-74.4,74.3,-74.4Z" class="g2_4" />
<path fill-rule="evenodd" d="M540.5,289.2c0,1,.2,.9,2,1.5l7.3,2.2c-.8,1.5,-1.1,1.6,-1.8,3.9c-.4,1.3,-.8,3.4,-.8,4.8c-1,.7,-1.7,1.5,-1.7,2.9c0,.8,.2,1.3,.4,1.8c.2,.3,.8,1,1.1,1.1l-.4,3.2c-.4,2.7,-.7,5.5,-1.1,8.1c-.1,.7,.4,1.1,.7,1.1h5.4c1.1,0,.7,-1.5,.6,-2.1c-.1,-.5,-.1,-1,-.2,-1.5c-.2,-1.2,-1.2,-8.3,-1.2,-8.8c1.1,-.7,1.5,-1.5,1.5,-2.9c0,-1.3,-.6,-2.3,-1.6,-2.8c.1,-.6,.1,-1.8,.5,-3.5c.3,-1.3,1,-2.9,1.9,-3.8c0,-.1,.3,-.2,.3,-.3c.2,0,2.8,.9,3.2,1c2.3,.8,4.8,1.4,7.1,2.2c.3,.1,.5,.2,.8,.3c1.2,.3,5.6,1.9,6.5,1.9c.4,0,.7,-.1,1,-.2L582.5,296c.6,-.2,1.3,-.4,1.9,-.6l7.7,-2.4c.6,-.2,1.3,-.5,1.9,-.6l6.7,-2.2c.6,-.1,.7,-.4,.7,-.7v-.3c0,-.4,-.3,-.6,-.6,-.7l-12.4,-3.9c-2.6,-.8,-5.2,-1.7,-7.7,-2.4L573,279.8c-2.2,-.8,-1.9,-.8,-4.1,0l-7.7,2.4c-.6,.2,-1.3,.3,-1.9,.6L542,288.2c-.6,.2,-1.5,.3,-1.5,1Z" class="g0_4" />
<path fill-rule="evenodd" d="M553.9,306.7c0,1.3,1.5,2.5,2.5,3.1c.9,.6,1.8,1,2.7,1.4c.4,.2,.7,.2,1.1,.4c6.3,2.1,15.4,1.9,21.9,-.2c.9,-.3,2,-.7,2.7,-1.2c1.3,-.7,2.5,-1.5,2.9,-3c.2,-.6,.1,-1.1,.1,-1.8c0,-.4,0,-.5,0,-.9l-.4,-6.6c-.4,.1,-.7,.2,-1,.3l-11.2,3.5c-.7,.3,-1.4,.4,-2.1,.7c-2.1,.7,-2.3,.6,-4.4,0l-4,-1.3c-.7,-.2,-1.4,-.4,-2.1,-.6l-8.2,-2.6Z" class="g0_4" />
<path fill-rule="evenodd" d="M554.8,252.8c41.1,0,74.4,33.3,74.4,74.4c0,41,-33.3,74.3,-74.4,74.3c-41,0,-74.3,-33.3,-74.3,-74.3c0,-41.1,33.3,-74.4,74.3,-74.4Z" class="g2_4" />
<image preserveAspectRatio="none" x="0" y="645" width="909" height="641" xlink:href="img/1.png" />
</svg>