<?xml version="1.0" encoding="UTF-8" standalone="no"?>
<!DOCTYPE svg PUBLIC "-//W3C//DTD SVG 1.1//EN"
"http://www.w3.org/Graphics/SVG/1.1/DTD/svg11.dtd">
<svg viewBox="0 0 909 1286" version="1.1" xmlns="http://www.w3.org/2000/svg" xmlns:xlink="http://www.w3.org/1999/xlink">
<defs>
<style type="text/css"><![CDATA[
.g0_29{
fill: #FFFFFF;
}
.g1_29{
fill: #FFFFFF;
stroke: #FFFFFF;
stroke-width: 0.15277778;
stroke-linecap: butt;
stroke-linejoin: miter;
stroke-miterlimit: 22;
}
.g2_29{
fill: #FFFFFF;
fill-opacity: 0.5;
}
.g3_29{
fill: none;
stroke: #FFFFFF;
stroke-width: 3.2480555;
stroke-linecap: butt;
stroke-linejoin: miter;
stroke-miterlimit: 22;
}
]]></style>
</defs>
<image x="0" y="0" width="910" height="1289" xlink:href="shade/1.png" />
<path fill-rule="evenodd" d="M585.5,633.7C528.3,615.9,543.8,481.2,642.2,541.9c23.6,14.6,12.4,29.2,66,18.7c59.4,-11.7,25.1,134.9,-66.9,91.1C604.8,634.4,599.1,645.8,549.7,662c-.2,0,-1,.1,-1.2,.1Zm49.1,-14.9v7.6c0,2.3,.3,4.1,.8,5.5c.4,1.3,1.1,2.3,2,3.1c1.2,1.1,2.9,2,4.9,2.6c2.1,.6,4.6,.9,7.6,.9c4.1,0,7.2,-.6,9.4,-1.8c2.2,-1.2,3.7,-2.7,4.5,-4.4c.5,-1.3,.8,-3.3,.8,-6v-7.5ZM628.5,613h42.2v13.1c0,3,-.2,5.3,-.6,6.8c-.5,2.2,-1.5,4.1,-3,5.6c-1.9,2.1,-4.3,3.6,-7.2,4.6c-3,1,-6.3,1.5,-10.1,1.5c-3.2,0,-6,-.4,-8.5,-1.1c-2.5,-.6,-4.5,-1.5,-6.2,-2.6c-1.6,-1,-2.9,-2.2,-3.8,-3.4c-.9,-1.3,-1.6,-2.8,-2.1,-4.6c-.5,-1.8,-.7,-3.8,-.7,-6.2Zm30.7,-12.2h23.6V570.9h-5.2v24.6H664.4V571h-5.2v24.5Zm-48.6,-7.4h28.6v7.4h-36V555.4h36v7.4H610.6V574h28.6v7.5H610.6Z" class="g0_29" />
<path d="M179,661.2h-7.2V594.8H179Zm23.6,0h-7V594.8h7.3l34.9,53.9h.2V594.8h7v66.4h-7.2l-35,-53.9h-.2Zm72.5,-59.8H254.5v-6.6h48.3v6.6H282.2ZM413,614.5h-7.2c-.6,-4.6,-2.4,-8.2,-5.6,-10.8c-3.1,-2.5,-6.9,-3.7,-11.4,-3.7c-2.7,0,-5.1,.4,-7.3,1.3c-2.2,.9,-4.2,2.3,-5.9,4.1c-1.8,1.8,-3.1,4.3,-4.1,7.3c-1,2.9,-1.5,6.4,-1.5,10.3v9.5c0,7.4,1.6,13.2,4.8,17.3c3.2,4.2,7.8,6.2,13.8,6.2c5.1,0,9.3,-1.4,12.6,-4.2c3.3,-2.9,4.9,-6.5,4.9,-11v-7.1h-18v-6.6h25.1v13.7c0,1.8,-.3,3.7,-.8,5.6c-.5,2,-1.4,3.9,-2.6,5.9c-1.2,1.9,-2.8,3.7,-4.6,5.2c-1.8,1.5,-4.1,2.7,-7,3.7c-2.8,.9,-6,1.4,-9.5,1.4c-8.4,0,-14.8,-2.7,-19.2,-8c-4.4,-5.3,-6.7,-12.7,-6.7,-22.1V623c0,-9.2,2.4,-16.5,7.1,-21.8c4.7,-5.2,11.1,-7.8,19.1,-7.8c3.6,0,7,.5,10,1.7c2.9,1.1,5.4,2.7,7.3,4.7c2,2,3.5,4.2,4.7,6.7c1.1,2.5,1.8,5.2,2,8Zm21.4,13.1l-.1,6.7l.1,26.9h-7.3V594.8h23.4c3.4,0,6.6,.6,9.3,1.6c2.7,1.1,4.9,2.5,6.5,4.3c1.7,1.8,2.9,3.9,3.8,6.2c.8,2.3,1.3,4.8,1.3,7.4c0,2.6,-.4,5,-1.1,7.1c-.7,2.1,-1.7,3.9,-2.9,5.4c-1.3,1.5,-2.6,2.7,-4,3.6c-1.4,1,-3,1.7,-4.7,2.3l13.8,28.5h-8.3L449.7,627.6c4.8,0,8,-1.1,10.5,-3.4c2.5,-2.2,3.7,-5.3,3.7,-9.4c0,-4.4,-1.3,-7.7,-3.8,-10c-2.6,-2.3,-6.1,-3.4,-10.5,-3.4H434.4Zm61.1,6.9l-2.1,6l-7.1,20.7h-7.4l23.8,-66.4h7.1l23.9,66.4h-7.8l-7.1,-20.7l-2,-6m0,0L506.2,603.8h-.1l-10.6,30.7M543.4,657c0,-1.4,.5,-2.6,1.5,-3.6c1,-1,2.2,-1.5,3.6,-1.5c1.4,0,2.6,.5,3.6,1.5c1,1,1.5,2.2,1.5,3.6c0,1.4,-.5,2.6,-1.5,3.6c-1,1,-2.2,1.5,-3.6,1.5c-1.4,0,-2.6,-.5,-3.6,-1.5c-1,-1,-1.5,-2.2,-1.5,-3.6Z" class="g1_29" />
<path fill-rule="evenodd" d="M312.3,594.8h39.1v6.6H318.8v53.2h32.6v6.6H312.3c0,-22.1,0,-44.3,0,-66.4Z" class="g1_29" />
<path fill-rule="evenodd" d="M349.7,630.5H327.6V624h22.1Z" class="g1_29" />
<path fill-rule="evenodd" d="M406.1,633.7h-18v-6.6h18Z" class="g1_29" />
<path fill-rule="evenodd" d="M281.6,661.2V610.1h-6.5v51.1Z" class="g1_29" />
<path fill-rule="evenodd" d="M585.5,633.7C528.3,615.9,543.8,481.2,642.2,541.9c23.6,14.6,12.4,29.2,66,18.7c59.4,-11.7,25.1,134.9,-66.9,91.1C604.8,634.4,599.1,645.8,549.7,662c-.2,0,-1,.1,-1.2,.1Zm49.1,-14.9v7.6c0,2.3,.3,4.1,.8,5.5c.4,1.3,1.1,2.3,2,3.1c1.2,1.1,2.9,2,4.9,2.6c2.1,.6,4.6,.9,7.6,.9c4.1,0,7.2,-.6,9.4,-1.8c2.2,-1.2,3.7,-2.7,4.5,-4.4c.5,-1.3,.8,-3.3,.8,-6v-7.5ZM628.5,613h42.2v13.1c0,3,-.2,5.3,-.6,6.8c-.5,2.2,-1.5,4.1,-3,5.6c-1.9,2.1,-4.3,3.6,-7.2,4.6c-3,1,-6.3,1.5,-10.1,1.5c-3.2,0,-6,-.4,-8.5,-1.1c-2.5,-.6,-4.5,-1.5,-6.2,-2.6c-1.6,-1,-2.9,-2.2,-3.8,-3.4c-.9,-1.3,-1.6,-2.8,-2.1,-4.6c-.5,-1.8,-.7,-3.8,-.7,-6.2Zm30.7,-12.2h23.6V570.9h-5.2v24.6H664.4V571h-5.2v24.5Zm-48.6,-7.4h28.6v7.4h-36V555.4h36v7.4H610.6V574h28.6v7.5H610.6Z" class="g0_29" />
<path d="M179,661.2h-7.2V594.8H179Zm23.6,0h-7V594.8h7.3l34.9,53.9h.2V594.8h7v66.4h-7.2l-35,-53.9h-.2Zm72.5,-59.8H254.5v-6.6h48.3v6.6H282.2ZM413,614.5h-7.2c-.6,-4.6,-2.4,-8.2,-5.6,-10.8c-3.1,-2.5,-6.9,-3.7,-11.4,-3.7c-2.7,0,-5.1,.4,-7.3,1.3c-2.2,.9,-4.2,2.3,-5.9,4.1c-1.8,1.8,-3.1,4.3,-4.1,7.3c-1,2.9,-1.5,6.4,-1.5,10.3v9.5c0,7.4,1.6,13.2,4.8,17.3c3.2,4.2,7.8,6.2,13.8,6.2c5.1,0,9.3,-1.4,12.6,-4.2c3.3,-2.9,4.9,-6.5,4.9,-11v-7.1h-18v-6.6h25.1v13.7c0,1.8,-.3,3.7,-.8,5.6c-.5,2,-1.4,3.9,-2.6,5.9c-1.2,1.9,-2.8,3.7,-4.6,5.2c-1.8,1.5,-4.1,2.7,-7,3.7c-2.8,.9,-6,1.4,-9.5,1.4c-8.4,0,-14.8,-2.7,-19.2,-8c-4.4,-5.3,-6.7,-12.7,-6.7,-22.1V623c0,-9.2,2.4,-16.5,7.1,-21.8c4.7,-5.2,11.1,-7.8,19.1,-7.8c3.6,0,7,.5,10,1.7c2.9,1.1,5.4,2.7,7.3,4.7c2,2,3.5,4.2,4.7,6.7c1.1,2.5,1.8,5.2,2,8Zm21.4,13.1l-.1,6.7l.1,26.9h-7.3V594.8h23.4c3.4,0,6.6,.6,9.3,1.6c2.7,1.1,4.9,2.5,6.5,4.3c1.7,1.8,2.9,3.9,3.8,6.2c.8,2.3,1.3,4.8,1.3,7.4c0,2.6,-.4,5,-1.1,7.1c-.7,2.1,-1.7,3.9,-2.9,5.4c-1.3,1.5,-2.6,2.7,-4,3.6c-1.4,1,-3,1.7,-4.7,2.3l13.8,28.5h-8.3L449.7,627.6c4.8,0,8,-1.1,10.5,-3.4c2.5,-2.2,3.7,-5.3,3.7,-9.4c0,-4.4,-1.3,-7.7,-3.8,-10c-2.6,-2.3,-6.1,-3.4,-10.5,-3.4H434.4Zm61.1,6.9l-2.1,6l-7.1,20.7h-7.4l23.8,-66.4h7.1l23.9,66.4h-7.8l-7.1,-20.7l-2,-6m0,0L506.2,603.8h-.1l-10.6,30.7M543.4,657c0,-1.4,.5,-2.6,1.5,-3.6c1,-1,2.2,-1.5,3.6,-1.5c1.4,0,2.6,.5,3.6,1.5c1,1,1.5,2.2,1.5,3.6c0,1.4,-.5,2.6,-1.5,3.6c-1,1,-2.2,1.5,-3.6,1.5c-1.4,0,-2.6,-.5,-3.6,-1.5c-1,-1,-1.5,-2.2,-1.5,-3.6Z" class="g1_29" />
<path fill-rule="evenodd" d="M312.3,594.8h39.1v6.6H318.8v53.2h32.6v6.6H312.3c0,-22.1,0,-44.3,0,-66.4Z" class="g1_29" />
<path fill-rule="evenodd" d="M349.7,630.5H327.6V624h22.1Z" class="g1_29" />
<path fill-rule="evenodd" d="M406.1,633.7h-18v-6.6h18Z" class="g1_29" />
<path fill-rule="evenodd" d="M281.6,661.2V610.1h-6.5v51.1Z" class="g1_29" />
<image preserveAspectRatio="none" x="0" y="645" width="908" height="641" xlink:href="img/1.png" />
<path fill-rule="evenodd" d="M355.2,429.5c-.9,.8,-2.8,2.1,-4,2.7c-3.4,1.6,-7.7,1.6,-11.1,0c-1.2,-.6,-3,-1.9,-4,-2.7c-5.2,2.6,-9.1,8,-10.5,13.8c-.4,2.1,-.7,3.4,2,3.4h36.3c2.6,0,2.3,-1.4,1.8,-3.5c-1.3,-5.8,-5.2,-11.1,-10.5,-13.7Zm-9.5,-20.8c6.2,0,11.2,5,11.2,11.1c0,6.2,-5,11.2,-11.2,11.2c-6.2,0,-11.2,-5,-11.2,-11.2c0,-6.1,5,-11.1,11.2,-11.1Z" class="g0_29" />
<path fill-rule="evenodd" d="M375.5,433.6c-.7,.7,-2.1,1.7,-3.1,2.1c-2.4,1.1,-5.5,1.2,-7.9,.2c1.5,2.2,2.6,4.7,3.2,7.3c.5,2.1,.8,3.5,-1.8,3.5h16.2c2,0,1.7,-1.1,1.4,-2.6c-1,-4.4,-4,-8.5,-8,-10.5Zm-7.2,-15.7c4.7,0,8.5,3.7,8.5,8.4c0,4.7,-3.8,8.5,-8.5,8.5c-4.7,0,-8.5,-3.8,-8.5,-8.5c0,-4.7,3.8,-8.4,8.5,-8.4Z" class="g0_29" />
<path fill-rule="evenodd" d="M366,395.4h1c1.4,.1,2.8,.4,4.1,.9c.7,.2,1.2,.5,1.7,.8l1.2,.8c.1,.1,.2,.2,.3,.3c.9,.7,1.8,1.7,2.3,2.7c.8,1.7,1.1,2.6,1.1,4.6c0,2,-.9,4,-2.1,5.5c-.1,.1,-.2,.2,-.3,.3l-1,1c-.3,.3,-1.1,.8,-1.5,1c-2.3,1.4,-5,1.9,-7.8,1.6c-.6,0,-.5,-.1,-.9,.2c-1.2,.7,-2.8,1.6,-3.8,2.3c-.3,.1,-.5,.3,-.8,.4c0,-1.4,0,-2.8,0,-4.1c0,-.6,.1,-.8,-.1,-.9c-.8,-.6,-1.5,-1.3,-2.1,-2.1c-.6,-.7,-.8,-1,-1.2,-1.9c-.6,-1.2,-.8,-2.4,-.8,-3.9c0,-.7,.2,-1.6,.4,-2.2c.6,-1.9,1.5,-3.2,3,-4.5l.7,-.6c.3,-.2,.5,-.3,.8,-.5c1.7,-1,3.8,-1.6,5.8,-1.7Z" class="g0_29" />
<path fill-rule="evenodd" d="M325.2,398.2h-1c-1.4,.1,-2.8,.4,-4.1,.9c-.6,.2,-1.1,.5,-1.7,.8l-1.1,.8c-.1,.1,-.2,.2,-.3,.3c-.9,.8,-1.8,1.7,-2.3,2.8c-.8,1.6,-1.1,2.5,-1.1,4.5c0,2,.9,4,2.1,5.5c.1,.1,.2,.2,.3,.4l1,.9c.3,.3,1.1,.8,1.4,1c2.4,1.4,5,2,7.8,1.6c.6,0,.5,-.1,.9,.2c1.2,.7,2.8,1.6,3.8,2.3c.3,.1,.5,.3,.8,.4c0,-1.4,0,-2.7,0,-4.1c0,-.6,-.1,-.8,.1,-.9c.8,-.6,1.5,-1.2,2.1,-2c.6,-.8,.7,-1.1,1.2,-2c.6,-1.2,.7,-2.4,.7,-3.9c0,-.7,-.1,-1.6,-.3,-2.2c-.6,-1.9,-1.5,-3.2,-3,-4.5l-.8,-.6c-.2,-.2,-.4,-.3,-.7,-.5c-1.7,-1,-3.8,-1.6,-5.8,-1.7Z" class="g0_29" />
<path fill-rule="evenodd" d="M339.1,377.6c-.6,.6,-1.9,1.5,-2.7,1.9c-2.3,1.1,-5.3,1.1,-7.6,0c-.9,-.4,-2.1,-1.3,-2.8,-1.9c-3.6,1.8,-6.3,5.5,-7.2,9.5c-.3,1.5,-.5,2.4,1.3,2.4h25c1.8,0,1.6,-1,1.2,-2.4c-.9,-4,-3.6,-7.7,-7.2,-9.5Zm-6.5,-14.2c4.2,0,7.7,3.4,7.7,7.6c0,4.2,-3.5,7.6,-7.7,7.6c-4.3,0,-7.7,-3.4,-7.7,-7.6c0,-4.2,3.4,-7.6,7.7,-7.6Z" class="g0_29" />
<path fill-rule="evenodd" d="M353.1,380.5c-.6,.4,-1.5,1.1,-2.1,1.4c-1.7,.8,-3.8,.8,-5.5,.1c1,1.5,1.8,3.3,2.2,5.1c.3,1.4,.5,2.4,-1.2,2.4h11.1c1.3,0,1.2,-.8,.9,-1.9c-.7,-3,-2.7,-5.8,-5.4,-7.1Zm-5,-10.8c3.2,0,5.8,2.5,5.8,5.7c0,3.2,-2.6,5.8,-5.8,5.8c-3.3,0,-5.9,-2.6,-5.9,-5.8c0,-3.2,2.6,-5.7,5.9,-5.7Z" class="g0_29" />
<path fill-rule="evenodd" d="M312.1,380.5c.6,.4,1.5,1.1,2.2,1.4c1.6,.8,3.7,.8,5.4,.1c-1,1.5,-1.8,3.3,-2.2,5.1c-.3,1.4,-.5,2.4,1.2,2.4H307.6c-1.3,0,-1.2,-.8,-.9,-1.9c.7,-3,2.7,-5.8,5.4,-7.1Zm5,-10.8c-3.2,0,-5.8,2.5,-5.8,5.7c0,3.2,2.6,5.8,5.8,5.8c3.3,0,5.9,-2.6,5.9,-5.8c0,-3.2,-2.6,-5.7,-5.9,-5.7Z" class="g0_29" />
<path fill-rule="evenodd" d="M393.1,370.7h-1.5c-2,.1,-4,.5,-5.8,1.2c-.9,.4,-1.6,.7,-2.5,1.2l-1.6,1.1c-.2,.2,-.3,.3,-.5,.4c-1.2,1.2,-2.5,2.5,-3.3,4.1c-1.2,2.4,-1.6,3.6,-1.6,6.6c0,2.9,1.3,5.7,3.1,7.9c.2,.2,.3,.3,.4,.5l1.4,1.3c.5,.5,1.6,1.3,2.1,1.6c3.4,2,7.2,2.7,11.3,2.3c.9,-.1,.7,-.2,1.3,.2c1.7,1,4,2.3,5.5,3.3c.3,.2,.7,.5,1.1,.7c0,-2.1,0,-4.1,0,-6.1c0,-.8,-.2,-1,.2,-1.3c1.1,-.8,2.1,-1.7,3,-2.9c.8,-1.1,1.1,-1.4,1.7,-2.8c.8,-1.7,1.1,-3.4,1.1,-5.6c0,-1.1,-.3,-2.3,-.5,-3.2c-.9,-2.8,-2.2,-4.6,-4.4,-6.6l-1,-.8c-.4,-.2,-.7,-.4,-1.1,-.7c-2.5,-1.5,-5.5,-2.3,-8.4,-2.4Z" class="g0_29" />
<path fill-rule="evenodd" d="M355.3,329.4c41,0,74.3,33.3,74.3,74.3c0,41.1,-33.3,74.4,-74.3,74.4C314.2,478.1,281,444.8,281,403.7c0,-41,33.2,-74.3,74.3,-74.3Z" class="g2_29" />
<path fill-rule="evenodd" d="M540.5,365.8c0,1,.2,.9,2,1.4l7.3,2.3c-.8,1.5,-1.1,1.6,-1.8,3.8c-.4,1.4,-.8,3.4,-.8,4.9c-1,.7,-1.7,1.5,-1.7,2.9c0,.8,.2,1.3,.4,1.8c.2,.3,.8,1,1.1,1.1l-.4,3.2c-.4,2.6,-.7,5.5,-1.1,8.1c-.1,.7,.4,1.1,.7,1.1h5.4c1.1,0,.7,-1.6,.6,-2.1c-.1,-.6,-.1,-1,-.2,-1.5c-.2,-1.2,-1.2,-8.3,-1.2,-8.8c1.1,-.7,1.5,-1.5,1.5,-2.9c0,-1.3,-.6,-2.3,-1.6,-2.8c.1,-.6,.1,-1.8,.5,-3.6c.3,-1.2,1,-2.9,1.9,-3.8c0,0,.3,-.2,.3,-.2c.2,0,2.8,.8,3.2,.9c2.3,.8,4.8,1.5,7.1,2.3c.3,.1,.5,.2,.8,.2c1.2,.4,5.6,2,6.5,2c.4,0,.7,-.2,1,-.3l10.5,-3.3c.6,-.2,1.3,-.4,1.9,-.6l7.7,-2.4c.6,-.2,1.3,-.4,1.9,-.6l6.7,-2.1c.6,-.2,.7,-.4,.7,-.8v-.2c0,-.4,-.3,-.6,-.6,-.7l-12.4,-3.9c-2.6,-.8,-5.2,-1.7,-7.7,-2.4L573,356.3c-2.2,-.7,-1.9,-.7,-4.1,0l-7.7,2.4c-.6,.3,-1.3,.4,-1.9,.6L542,364.8c-.6,.2,-1.5,.3,-1.5,1Z" class="g0_29" />
<path fill-rule="evenodd" d="M553.9,383.2c0,1.4,1.5,2.5,2.5,3.2c.9,.6,1.8,1,2.7,1.4c.4,.1,.7,.2,1.1,.3c6.3,2.1,15.4,2,21.9,-.1c.9,-.3,2,-.8,2.7,-1.2c1.3,-.8,2.5,-1.6,2.9,-3c.2,-.6,.1,-1.1,.1,-1.8c0,-.4,0,-.5,0,-.9l-.4,-6.6c-.4,0,-.7,.2,-1,.3l-11.2,3.5c-.7,.2,-1.4,.4,-2.1,.6c-2.1,.7,-2.3,.7,-4.4,.1l-4,-1.3c-.7,-.3,-1.4,-.4,-2.1,-.7l-8.2,-2.5Z" class="g0_29" />
<path fill-rule="evenodd" d="M554.8,329.4c41.1,0,74.4,33.3,74.4,74.3c0,41.1,-33.3,74.4,-74.4,74.4c-41,0,-74.3,-33.3,-74.3,-74.4c0,-41,33.3,-74.3,74.3,-74.3Z" class="g2_29" />
<path fill-rule="evenodd" d="M63.7,140.6C21.2,127.3,32.7,27.1,105.9,72.3C123.5,83.1,115.1,94,155,86.2c44.2,-8.7,18.7,100.3,-49.7,67.8C78.1,141.1,73.9,149.5,37.1,161.6c-.1,0,-.8,.1,-.9,.1Z" class="g0_29" />
<path d="M0,140.1H909.3" class="g3_29" />
</svg>