<?xml version="1.0" encoding="UTF-8" standalone="no"?>
<!DOCTYPE svg PUBLIC "-//W3C//DTD SVG 1.1//EN"
"http://www.w3.org/Graphics/SVG/1.1/DTD/svg11.dtd">
<svg viewBox="0 0 909 1286" version="1.1" xmlns="http://www.w3.org/2000/svg" xmlns:xlink="http://www.w3.org/1999/xlink">
<defs>
<style type="text/css"><![CDATA[
.g0_32{
fill: #FFFFFF;
}
.g1_32{
fill: #FFFFFF;
fill-opacity: 0.91999996;
}
.g2_32{
fill: #6ADBD9;
}
.g3_32{
fill: none;
stroke: #6ADBD9;
stroke-width: 1.1455278;
stroke-linecap: butt;
stroke-linejoin: miter;
stroke-miterlimit: 22;
}
.g4_32{
fill: #FFFFFF;
stroke: #FFFFFF;
stroke-width: 0.15277778;
stroke-linecap: butt;
stroke-linejoin: miter;
stroke-miterlimit: 22;
}
.g5_32{
fill: #62D9D7;
}
.g6_32{
fill: none;
stroke: #FFFFFF;
stroke-width: 0.86609715;
stroke-linecap: butt;
stroke-linejoin: miter;
stroke-miterlimit: 22;
}
.g7_32{
fill: none;
stroke: #62D9D7;
stroke-width: 1.0827361;
stroke-linecap: butt;
stroke-linejoin: miter;
stroke-miterlimit: 22;
}
.g8_32{
fill: none;
stroke: #FFFFFF;
stroke-width: 0.4581806;
stroke-linecap: butt;
stroke-linejoin: miter;
stroke-miterlimit: 22;
stroke-dasharray: 1,1;
}
.g9_32{
stroke: #000000;
stroke-width: 0.33;
stroke-linecap: butt;
stroke-linejoin: miter;
stroke-miterlimit: 22;
}
.g10_32{
fill: none;
stroke: #000000;
stroke-width: 2.1653194;
stroke-linecap: butt;
stroke-linejoin: miter;
stroke-miterlimit: 22;
}
]]></style>
</defs>
<image x="0" y="0" width="911" height="1289" xlink:href="shade/1.png" />
<image preserveAspectRatio="none" x="455" y="858" width="453" height="428" xlink:href="img/1.png" />
<path fill-rule="evenodd" d="M63.7,140.6C21.2,127.3,32.7,27.1,105.9,72.3C123.5,83.1,115.1,94,155,86.2c44.2,-8.7,18.7,100.3,-49.7,67.8C78.1,141.1,73.9,149.5,37.1,161.6c-.1,0,-.8,.1,-.9,.1Z" class="g0_32" />
<image preserveAspectRatio="none" x="517" y="198" width="325" height="676" xlink:href="img/2.png" />
<image x="173" y="260" width="307" height="544" xlink:href="shade/2.png" />
<path fill-rule="evenodd" d="M174.1,803.8H357.2V307.7H174.1Z" class="g1_32" />
<path fill-rule="evenodd" d="M174.1,307.7H479.2V261.1H174.1Z" class="g2_32" />
<path d="M464.7,290.3l-2.4,-.4c-.1,-.5,-.3,-.9,-.6,-1.4l1.4,-2c.2,-.1,.1,-.3,0,-.5l-1.6,-1.6c-.1,-.1,-.4,-.1,-.5,0l-2,1.4c-.4,-.2,-.9,-.4,-1.4,-.6l-.4,-2.4c0,-.2,-.2,-.3,-.4,-.3h-2.2c-.2,0,-.4,.1,-.4,.3l-.4,2.4c-.5,.2,-1,.3,-1.4,.6l-2,-1.4c-.2,-.1,-.4,-.1,-.5,0l-1.6,1.6c-.1,.1,-.2,.4,0,.5l1.3,2c-.2,.5,-.4,.9,-.5,1.4l-2.4,.4c-.2,0,-.4,.2,-.4,.4v2.2c0,.2,.2,.4,.4,.4l2.4,.5c.1,.5,.3,.9,.5,1.4l-1.4,1.9c-.1,.2,-.1,.4,.1,.6l1.6,1.5c.1,.2,.3,.2,.5,.1l2,-1.4c.4,.2,.9,.4,1.4,.6l.4,2.4c0,.2,.2,.3,.4,.3h2.2c.2,0,.4,-.1,.4,-.3l.4,-2.4c.5,-.2,1,-.4,1.4,-.6l2,1.4c.2,.1,.4,.1,.5,-.1l1.6,-1.5c.2,-.2,.2,-.4,.1,-.6l-1.5,-1.9c.3,-.5,.5,-.9,.6,-1.4l2.4,-.5c.2,0,.4,-.2,.4,-.4v-2.2c0,-.2,-.2,-.4,-.4,-.4Zm-9,4.4c-1.6,0,-2.8,-1.3,-2.8,-2.9c0,-1.5,1.2,-2.8,2.8,-2.8c1.6,0,2.8,1.3,2.8,2.8c0,1.6,-1.2,2.9,-2.8,2.9Z" class="g0_32" />
<path d="M174.1,362.8H340.2" class="g3_32" />
<path d="M190.6,290.6h17.5v2H190.6Z" class="g0_32" />
<path d="M190.6,284.8h17.5v1.9H190.6Z" class="g0_32" />
<path d="M190.6,296.5h17.5v1.9H190.6Z" class="g0_32" />
<path fill-rule="evenodd" d="M348.1,294.1c-9.4,-2.9,-6.8,-24.9,9.3,-15c3.9,2.4,2,4.8,10.8,3.1c9.7,-1.9,4.1,22.1,-10.9,14.9c-6,-2.9,-7,-1,-15,1.7c-.1,0,-.2,0,-.3,0Zm8.1,-2.4v1.2c0,.4,0,.7,.1,.9c.1,.2,.2,.4,.3,.6c.2,.1,.5,.3,.8,.4c.4,.1,.8,.1,1.3,.1c.6,0,1.1,-.1,1.5,-.3c.4,-.2,.6,-.4,.7,-.7c.1,-.2,.2,-.5,.2,-1v-1.2Zm-1.1,-1h7v2.2c0,.5,-.1,.9,-.1,1.1c-.1,.4,-.3,.7,-.5,.9c-.3,.4,-.7,.6,-1.2,.8c-.5,.1,-1,.2,-1.7,.2c-.5,0,-.9,0,-1.4,-.2c-.4,-.1,-.7,-.2,-1,-.4c-.2,-.2,-.4,-.3,-.6,-.6c-.1,-.2,-.3,-.4,-.3,-.7c-.1,-.3,-.2,-.6,-.2,-1Zm5.1,-2H364v-4.8h-.8v4H361v-4h-.8v4Zm-8,-1.2h4.7v1.3H351v-7.5h5.9v1.2h-4.7v1.9h4.7v1.2h-4.7Z" class="g0_32" />
<path d="M281.5,298.6h-1.1V287.8h1.1Zm3.9,0h-1.1V287.8h1.2l5.7,8.8v-8.8h1.2v10.8h-1.2l-5.8,-8.8Zm11.9,-9.8h-3.4v-1h7.9v1h-3.4Zm22.6,2.2h-1.2c-.1,-.8,-.4,-1.4,-.9,-1.8c-.5,-.4,-1.2,-.6,-1.9,-.6c-.4,0,-.8,.1,-1.2,.2c-.4,.2,-.7,.4,-1,.7c-.3,.3,-.5,.7,-.6,1.2c-.2,.5,-.3,1,-.3,1.7v1.5c0,1.3,.3,2.2,.8,2.9c.5,.7,1.3,1,2.3,1c.8,0,1.5,-.2,2,-.7c.6,-.5,.8,-1.1,.8,-1.8v-1.2h-2.9v-1h4.1v2.2c0,.3,0,.6,-.1,.9c-.1,.3,-.3,.7,-.5,1c-.2,.3,-.4,.6,-.7,.8c-.3,.3,-.7,.5,-1.2,.6c-.4,.2,-.9,.3,-1.5,.3c-1.4,0,-2.4,-.5,-3.2,-1.3c-.7,-.9,-1,-2.1,-1,-3.7v-1.5c0,-1.5,.3,-2.7,1.1,-3.6c.8,-.8,1.8,-1.3,3.1,-1.3c.6,0,1.2,.1,1.7,.3c.5,.2,.9,.5,1.2,.8c.3,.3,.5,.7,.7,1.1c.2,.4,.3,.8,.4,1.3Zm3.5,2.1v5.5h-1.2V287.8H326c.6,0,1.1,.1,1.5,.2c.5,.2,.8,.4,1.1,.7c.3,.3,.5,.7,.6,1c.2,.4,.2,.8,.2,1.3c0,.4,0,.8,-.2,1.1c-.1,.4,-.2,.7,-.4,.9c-.2,.2,-.5,.4,-.7,.6c-.2,.2,-.5,.3,-.7,.4l2.2,4.6h-1.4l-2.3,-5.5c.8,0,1.3,-.2,1.7,-.5c.4,-.4,.6,-.9,.6,-1.6c0,-.7,-.2,-1.2,-.6,-1.6c-.4,-.4,-1,-.6,-1.7,-.6h-2.5Zm10,1.2l-.4,1l-1.1,3.3h-1.2l3.9,-10.8h1.1l3.9,10.8h-1.2l-1.2,-3.3l-.3,-1m0,0l-1.8,-5.1l-1.7,5.1m7.8,3.7c0,-.3,.1,-.5,.3,-.6c.1,-.2,.3,-.3,.5,-.3c.3,0,.5,.1,.6,.3c.2,.1,.3,.3,.3,.6c0,.2,-.1,.4,-.3,.5c-.1,.2,-.3,.3,-.6,.3c-.2,0,-.4,-.1,-.5,-.3c-.2,-.1,-.3,-.3,-.3,-.5Z" class="g4_32" />
<path fill-rule="evenodd" d="M303.4,287.8h6.4v1h-5.4v8.8h5.4v1h-6.4c0,-3.6,0,-7.2,0,-10.8Z" class="g4_32" />
<path fill-rule="evenodd" d="M309.5,293.6h-3.6v-1.1h3.6Z" class="g4_32" />
<path fill-rule="evenodd" d="M318.7,294.1h-2.9v-1h2.9Z" class="g4_32" />
<path fill-rule="evenodd" d="M298.4,298.6v-8.3h-1.1v8.3Z" class="g4_32" />
<path d="M174.1,417.9H340.2M174.1,473H340.2M174.1,528.2H340.2M174.1,583.3H340.2M174.1,638.4H340.2M174.1,693.5H340.2M174.1,748.6H340.2" class="g3_32" />
<path fill-rule="evenodd" d="M349.7,313.2c2.2,0,3.9,1.8,3.9,3.9V424.8c0,2.2,-1.7,4,-3.9,4c-2.1,0,-3.9,-1.8,-3.9,-4V317.1c0,-2.1,1.8,-3.9,3.9,-3.9Z" class="g5_32" />
<path d="M193,338.1h-1.3V329h1.4l2.8,6.6h.1l2.8,-6.6h1.4v9.1H199v-6.4h-.1l-2.4,5.5h-1.1L193,331.7Zm11.9,.1c-.9,0,-1.6,-.3,-2.2,-.9c-.5,-.6,-.8,-1.4,-.8,-2.4v-.7c0,-1,.3,-1.8,.8,-2.4c.6,-.5,1.3,-.8,2.2,-.8c.9,0,1.6,.3,2.1,.9c.6,.5,.8,1.3,.8,2.3v.7h-4.5v.1c0,.7,.1,1.2,.4,1.5c.3,.4,.7,.6,1.3,.6c.4,0,.7,-.1,.9,-.3c.3,-.1,.5,-.4,.6,-.7h1.2c-.1,.6,-.4,1.1,-.9,1.5c-.4,.4,-1.1,.6,-1.9,.6Zm-1.6,-4.3h3.2c0,-.5,-.1,-1,-.4,-1.3c-.3,-.4,-.7,-.6,-1.2,-.6c-.5,0,-.9,.2,-1.2,.6c-.3,.3,-.4,.8,-.4,1.3Zm11.9,-2.8v7h-1.3v-1h-.1c-.1,.3,-.3,.6,-.7,.8c-.3,.2,-.8,.3,-1.3,.3c-.7,0,-1.3,-.2,-1.8,-.7c-.4,-.4,-.6,-1,-.6,-1.8v-4.6h1.3v4.3c0,.5,.1,1,.4,1.2c.3,.3,.7,.4,1.2,.4c.4,0,.8,-.1,1.1,-.4c.3,-.3,.5,-.7,.5,-1.3v-4.2Zm8,7.1c-.4,0,-.8,-.1,-1.2,-.3c-.3,-.2,-.6,-.5,-.8,-.8v3.4h-1.4v-9.4h1.3v1h.1c.2,-.3,.5,-.6,.8,-.8c.4,-.2,.8,-.3,1.2,-.3c.8,0,1.5,.3,2,.9c.5,.5,.7,1.3,.7,2.4v.6c0,1,-.2,1.8,-.7,2.4c-.5,.6,-1.2,.9,-2,.9Zm-.3,-1.2c.5,0,.9,-.2,1.2,-.5c.3,-.4,.5,-1,.5,-1.7v-.5c0,-.7,-.2,-1.2,-.5,-1.6c-.3,-.4,-.7,-.6,-1.2,-.6c-.5,0,-1,.2,-1.3,.6c-.3,.4,-.4,.9,-.4,1.6v.5c0,.7,.1,1.2,.4,1.6c.4,.4,.8,.6,1.3,.6Zm7.4,1.2c-.9,0,-1.7,-.3,-2.2,-.9c-.5,-.6,-.8,-1.4,-.8,-2.4v-.7c0,-1,.3,-1.8,.8,-2.4c.5,-.5,1.2,-.8,2.2,-.8c.9,0,1.6,.3,2.1,.9c.5,.5,.8,1.3,.8,2.3v.7h-4.6v.1c0,.7,.2,1.2,.5,1.5c.3,.4,.7,.6,1.2,.6c.4,0,.7,-.1,1,-.3c.2,-.1,.4,-.4,.5,-.7h1.3c-.1,.6,-.4,1.1,-.9,1.5c-.5,.4,-1.1,.6,-1.9,.6Zm-1.7,-4.3h3.3c0,-.5,-.2,-1,-.5,-1.3c-.3,-.4,-.7,-.6,-1.1,-.6c-.5,0,-.9,.2,-1.2,.6c-.3,.3,-.5,.8,-.5,1.3Zm6.2,4.2v-7h1.4v.9c.1,-.3,.3,-.5,.6,-.7c.3,-.2,.7,-.3,1.1,-.3c.2,0,.3,0,.5,0v1.2c-.2,0,-.4,0,-.6,0c-1.1,0,-1.6,.5,-1.6,1.7v4.2Zm9.9,0v-7H246v7Zm.1,-8.2c-.2,-.1,-.3,-.3,-.3,-.5c0,-.2,.1,-.4,.3,-.6c.1,-.1,.3,-.2,.5,-.2c.3,0,.4,.1,.6,.2c.2,.2,.2,.4,.2,.6c0,.2,0,.4,-.2,.5c-.2,.2,-.3,.3,-.6,.3c-.2,0,-.4,-.1,-.5,-.3Zm-4.3,8.2v-5.9h-1v-1.1h1v-.7c0,-.7,.1,-1.2,.5,-1.5c.3,-.3,.9,-.5,1.7,-.5c.2,0,.4,0,.5,.1v1c-.1,0,-.2,0,-.3,0c-.4,0,-.7,0,-.9,.2c-.1,.2,-.2,.4,-.2,.8v.6h1.3v1.1h-1.3v5.9Zm7.5,0v-9.6h1.4v9.6Z" class="g5_32" />
<path fill-rule="evenodd" d="M330.6,336.2c-.4,.4,-1.2,.9,-1.7,1.2c-1.4,.6,-3.2,.6,-4.6,0c-.5,-.3,-1.2,-.8,-1.7,-1.2c-2.1,1.1,-3.8,3.4,-4.3,5.8c-.2,.9,-.3,1.4,.8,1.4h15.1c1.1,0,1,-.6,.8,-1.4c-.6,-2.4,-2.2,-4.7,-4.4,-5.8Zm-4,-8.6c2.6,0,4.7,2.1,4.7,4.6c0,2.6,-2.1,4.7,-4.7,4.7c-2.5,0,-4.6,-2.1,-4.6,-4.7c0,-2.5,2.1,-4.6,4.6,-4.6Z" class="g2_32" />
<path d="M193,394.3h-1.3v-9h1.4l2.8,6.6h.1l2.8,-6.6h1.4v9H199V388h-.1l-2.4,5.5h-1.1L193,388Zm9.3,0v-6.9h1.3v6.9Zm.1,-8.1c-.2,-.1,-.3,-.3,-.3,-.5c0,-.3,.1,-.5,.3,-.6c.1,-.2,.3,-.2,.6,-.2c.2,0,.4,0,.5,.2c.2,.1,.3,.3,.3,.6c0,.2,-.1,.4,-.3,.5c-.1,.2,-.3,.2,-.5,.2c-.3,0,-.5,0,-.6,-.2Zm3.2,8.1v-6.9h1.3v.9h.1c.1,-.3,.4,-.5,.7,-.7c.4,-.2,.8,-.4,1.3,-.4c.8,0,1.4,.3,1.8,.7c.5,.5,.7,1.1,.7,2v4.4h-1.3v-4.2c0,-.5,-.2,-1,-.5,-1.3c-.3,-.2,-.7,-.4,-1.1,-.4c-.6,0,-1,.2,-1.2,.5c-.3,.3,-.4,.7,-.4,1.2v4.2Zm7.7,0v-9.5h1.4v3.5c.2,-.3,.4,-.5,.8,-.7c.3,-.2,.7,-.4,1.2,-.4c.8,0,1.4,.3,1.8,.7c.5,.5,.7,1.1,.7,2v4.4h-1.3v-4.2c0,-.5,-.2,-1,-.4,-1.3c-.3,-.2,-.7,-.4,-1.2,-.4c-.5,0,-.9,.2,-1.2,.5c-.3,.3,-.4,.7,-.4,1.2v4.2Zm11.6,-.8c-.4,.6,-1,.9,-2,.9c-.6,0,-1.2,-.1,-1.6,-.5c-.4,-.4,-.6,-.9,-.6,-1.6c0,-.6,.2,-1.1,.6,-1.4c.4,-.4,1,-.6,1.8,-.6h1.8v-.7c0,-.4,-.1,-.7,-.3,-.9c-.3,-.3,-.6,-.4,-1,-.4c-.5,0,-.8,.1,-1,.3c-.3,.2,-.4,.5,-.4,.8h-1.3c.1,-.6,.3,-1.2,.7,-1.6c.5,-.4,1.1,-.6,2,-.6c.8,0,1.4,.2,1.9,.6c.5,.4,.8,1,.8,1.8v4.7H225v-.8Zm-1.6,-.1c.5,0,.9,-.1,1.2,-.4c.3,-.2,.4,-.6,.4,-1v-.8h-1.6c-.4,0,-.7,.1,-1,.3c-.2,.2,-.3,.4,-.3,.8c0,.3,.1,.6,.4,.8c.3,.2,.6,.3,.9,.3Zm8,-6v-1.8h1.3v1.8H234v1h-1.4v3.9c0,.4,.1,.7,.2,.8c.2,.1,.5,.2,.9,.2c.1,0,.2,0,.3,0v1c-.2,.1,-.4,.1,-.6,.1c-.4,0,-.8,-.1,-1.1,-.1c-.2,-.1,-.4,-.2,-.6,-.4c-.2,-.2,-.3,-.4,-.3,-.6c-.1,-.3,-.1,-.6,-.1,-.9v-4h-1v-1Zm10,0v6.9H240v-.9h-.1c-.1,.3,-.4,.5,-.7,.7c-.4,.2,-.8,.3,-1.3,.3c-.8,0,-1.3,-.2,-1.8,-.6c-.4,-.4,-.7,-1,-.7,-1.8v-4.6h1.4v4.2c0,.6,.1,1,.4,1.3c.3,.2,.7,.4,1.1,.4c.5,0,.9,-.2,1.2,-.5c.3,-.3,.4,-.7,.4,-1.2v-4.2Zm1.9,6.9v-6.9h1.3v.8h.1c.1,-.2,.3,-.5,.6,-.7c.3,-.1,.6,-.3,1.1,-.3c.1,0,.3,.1,.4,.1v1.2c-.1,0,-.3,-.1,-.5,-.1c-1.1,0,-1.6,.6,-1.6,1.7v4.2Zm5,0v-6.9h1.3v.9h.1c.1,-.3,.3,-.6,.6,-.8c.3,-.2,.7,-.3,1.2,-.3c.5,0,.9,.1,1.2,.3c.4,.2,.6,.5,.7,.9h.1c.1,-.3,.4,-.6,.8,-.8c.3,-.2,.8,-.4,1.3,-.4c.8,0,1.3,.3,1.7,.7c.5,.4,.7,1,.7,1.7v4.7h-1.4v-4.4c0,-.5,-.1,-.8,-.3,-1.1c-.3,-.3,-.6,-.4,-1.1,-.4c-.4,0,-.8,.2,-1,.4c-.3,.3,-.4,.7,-.4,1.2v4.3h-1.3V390c0,-.5,-.2,-.9,-.4,-1.2c-.3,-.3,-.6,-.4,-1.1,-.4c-.4,0,-.7,.1,-1,.4c-.3,.3,-.4,.7,-.4,1.2v4.3Zm15.4,-.8c-.4,.6,-1,.9,-1.9,.9c-.7,0,-1.3,-.1,-1.7,-.5c-.4,-.4,-.6,-.9,-.6,-1.6c0,-.6,.2,-1.1,.6,-1.4c.4,-.4,1,-.6,1.8,-.6h1.8v-.7c0,-.4,-.1,-.7,-.3,-.9c-.3,-.3,-.6,-.4,-1,-.4c-.4,0,-.8,.1,-1,.3c-.2,.2,-.4,.5,-.4,.8h-1.3c.1,-.6,.3,-1.2,.8,-1.6c.4,-.4,1.1,-.6,1.9,-.6c.8,0,1.4,.2,1.9,.6c.5,.4,.8,1,.8,1.8v4.7h-1.3v-.8Zm-1.6,-.1c.5,0,.9,-.1,1.2,-.4c.3,-.2,.4,-.6,.4,-1v-.8H262c-.4,0,-.7,.1,-1,.3c-.2,.2,-.3,.4,-.3,.8c0,.3,.2,.6,.4,.8c.3,.2,.6,.3,.9,.3Z" class="g5_32" />
<path fill-rule="evenodd" d="M329.6,390.8c-.3,.2,-.9,.6,-1.3,.8c-1,.5,-2.4,.5,-3.4,0c-.4,-.2,-1,-.6,-1.3,-.8c-1.6,.8,-2.8,2.5,-3.2,4.3c-.2,.6,-.3,1,.6,1h11.3c.8,0,.7,-.4,.6,-1c-.4,-1.9,-1.7,-3.5,-3.3,-4.3Zm-3,-6.5c2,0,3.5,1.5,3.5,3.4c0,2,-1.5,3.5,-3.5,3.5c-1.9,0,-3.5,-1.5,-3.5,-3.5c0,-1.9,1.6,-3.4,3.5,-3.4Z" class="g2_32" />
<path fill-rule="evenodd" d="M335.9,392.1c-.2,.2,-.6,.5,-.9,.6c-.8,.4,-1.7,.4,-2.5,.1c.5,.7,.8,1.4,1,2.3c.1,.6,.2,1,-.6,1H338c.6,0,.5,-.3,.4,-.8c-.3,-1.4,-1.2,-2.6,-2.5,-3.2Zm-2.2,-5c1.4,0,2.6,1.2,2.6,2.7c0,1.4,-1.2,2.6,-2.6,2.6c-1.5,0,-2.7,-1.2,-2.7,-2.6c0,-1.5,1.2,-2.7,2.7,-2.7Z" class="g2_32" />
<path fill-rule="evenodd" d="M317.3,392.1c.3,.2,.7,.5,1,.6c.7,.4,1.7,.4,2.5,.1c-.5,.7,-.9,1.4,-1,2.3c-.2,.6,-.3,1,.5,1h-5c-.7,0,-.6,-.3,-.5,-.8c.3,-1.4,1.3,-2.6,2.5,-3.2Zm2.3,-5c-1.5,0,-2.7,1.2,-2.7,2.7c0,1.4,1.2,2.6,2.7,2.6c1.5,0,2.6,-1.2,2.6,-2.6c0,-1.5,-1.1,-2.7,-2.6,-2.7Z" class="g2_32" />
<path d="M195.4,503.6h-1.5l-3.1,-9h1.5l2.4,7.4l2.4,-7.4h1.5Zm7.6,-.8c-.4,.6,-1.1,1,-2,1c-.7,0,-1.2,-.2,-1.7,-.6c-.4,-.4,-.6,-.9,-.6,-1.6c0,-.6,.2,-1.1,.7,-1.4c.4,-.4,1,-.6,1.8,-.6H203v-.7c0,-.4,-.1,-.7,-.4,-.9c-.2,-.3,-.6,-.4,-1,-.4c-.4,0,-.7,.1,-1,.3c-.2,.2,-.3,.5,-.4,.8H199c0,-.6,.3,-1.2,.7,-1.5c.4,-.4,1.1,-.6,1.9,-.6c.8,0,1.5,.2,2,.6c.5,.4,.7,.9,.7,1.7v4.7H203v-.8Zm-1.6,-.1c.4,0,.8,-.1,1.1,-.4c.3,-.2,.5,-.6,.5,-1v-.8h-1.6c-.5,0,-.8,.1,-1,.3c-.2,.2,-.3,.5,-.3,.8c0,.3,.1,.6,.4,.8c.2,.2,.5,.3,.9,.3Zm7.6,2.5c.5,0,.9,-.1,1.2,-.4c.3,-.3,.5,-.7,.5,-1.3v-1h-.1c-.1,.3,-.4,.5,-.7,.8c-.4,.2,-.8,.3,-1.3,.3c-.8,0,-1.5,-.3,-2,-.9c-.5,-.6,-.7,-1.4,-.7,-2.4v-.5c0,-1,.2,-1.8,.7,-2.4c.5,-.6,1.2,-.8,2,-.8c.5,0,.9,.1,1.3,.3c.3,.2,.6,.4,.8,.8v-1H212v6.9c0,.3,0,.7,-.2,1c-.1,.3,-.2,.5,-.4,.7c-.2,.2,-.4,.4,-.7,.5c-.3,.2,-.5,.3,-.8,.4c-.3,0,-.6,.1,-.9,.1c-.9,0,-1.6,-.2,-2.1,-.6c-.5,-.4,-.8,-.9,-.9,-1.5h1.4c.1,.3,.2,.5,.5,.7c.3,.2,.6,.3,1.1,.3Zm0,-7.5c-.6,0,-1,.2,-1.3,.5c-.3,.4,-.5,1,-.5,1.7v.4c0,.7,.2,1.2,.5,1.6c.3,.4,.7,.6,1.3,.6c.5,0,.9,-.2,1.2,-.6c.3,-.4,.5,-.9,.5,-1.6v-.4c0,-.7,-.2,-1.2,-.5,-1.6c-.3,-.4,-.7,-.6,-1.2,-.6Zm8.8,5.1c-.4,.6,-1,1,-1.9,1c-.7,0,-1.3,-.2,-1.7,-.6c-.4,-.4,-.6,-.9,-.6,-1.6c0,-.6,.2,-1.1,.6,-1.4c.4,-.4,1,-.6,1.8,-.6h1.8v-.7c0,-.4,-.1,-.7,-.3,-.9c-.3,-.3,-.6,-.4,-1,-.4c-.4,0,-.8,.1,-1,.3c-.2,.2,-.4,.5,-.4,.8h-1.3c.1,-.6,.3,-1.2,.8,-1.5c.4,-.4,1.1,-.6,1.9,-.6c.8,0,1.4,.2,1.9,.6c.5,.4,.8,.9,.8,1.7v4.7h-1.3v-.8Zm-1.6,-.1c.5,0,.9,-.1,1.2,-.4c.3,-.2,.4,-.6,.4,-1v-.8h-1.6c-.4,0,-.7,.1,-.9,.3c-.3,.2,-.4,.5,-.4,.8c0,.3,.2,.6,.4,.8c.3,.2,.6,.3,.9,.3Zm4.6,-4c0,-.4,0,-.7,.2,-1c.1,-.3,.3,-.5,.6,-.6c.2,-.2,.5,-.3,.8,-.4c.3,-.1,.7,-.2,1,-.2c.8,0,1.4,.2,1.9,.6c.4,.4,.7,.9,.7,1.6h-1.3c0,-.3,-.1,-.6,-.3,-.8c-.2,-.2,-.6,-.3,-1,-.3c-.4,0,-.7,.1,-1,.2c-.2,.2,-.4,.4,-.4,.8c0,.1,.1,.2,.1,.3c.1,.1,.2,.2,.3,.3c.1,.1,.2,.1,.4,.2c.1,0,.3,.1,.4,.1c.2,0,.3,.1,.5,.1h.1c.3,.1,.5,.1,.7,.2c.3,0,.5,.1,.7,.2c.2,.1,.4,.2,.5,.4c.1,.1,.2,.3,.3,.5c.1,.2,.1,.4,.1,.7c0,.6,-.2,1.2,-.7,1.6c-.5,.4,-1.2,.6,-2.1,.6c-.8,0,-1.5,-.2,-1.9,-.6c-.5,-.3,-.8,-.8,-.8,-1.5h1.3c.1,.3,.2,.6,.5,.8c.2,.1,.6,.2,1,.2c.5,0,.8,-.1,1.1,-.3c.2,-.1,.3,-.4,.3,-.7c0,-.1,0,-.2,0,-.3c-.1,-.1,-.1,-.2,-.2,-.2c-.1,-.1,-.2,-.2,-.3,-.2c0,-.1,-.1,-.1,-.3,-.2c-.2,0,-.3,0,-.4,-.1c-.1,0,-.2,0,-.4,0q-.1,0,-.1,-.1c-.4,0,-.7,-.1,-.9,-.2c-.3,-.1,-.5,-.2,-.8,-.4c-.2,-.1,-.4,-.3,-.5,-.5c-.1,-.2,-.1,-.5,-.1,-.8Zm12.3,5.1c-.9,0,-1.7,-.3,-2.2,-.9c-.5,-.6,-.8,-1.4,-.8,-2.4v-.8c0,-.9,.3,-1.7,.8,-2.3c.5,-.6,1.2,-.9,2.1,-.9c1,0,1.7,.3,2.2,.9c.5,.6,.8,1.4,.8,2.4v.7h-4.6v.1c0,.6,.2,1.1,.5,1.5c.3,.4,.7,.6,1.2,.6c.4,0,.7,-.1,1,-.3c.2,-.2,.4,-.4,.5,-.7h1.3c-.1,.6,-.4,1.1,-.9,1.5c-.5,.4,-1.1,.6,-1.9,.6Zm-1.7,-4.3h3.3c0,-.6,-.2,-1,-.5,-1.4c-.3,-.3,-.7,-.5,-1.1,-.5c-.5,0,-.9,.2,-1.2,.5c-.3,.4,-.5,.8,-.5,1.4Zm5.9,-.8c0,-.4,.1,-.7,.3,-1c.1,-.3,.3,-.5,.6,-.6c.2,-.2,.5,-.3,.8,-.4c.3,-.1,.6,-.2,1,-.2c.8,0,1.4,.2,1.9,.6c.4,.4,.6,.9,.6,1.6h-1.2c0,-.3,-.1,-.6,-.3,-.8c-.2,-.2,-.6,-.3,-1,-.3c-.4,0,-.8,.1,-1,.2c-.2,.2,-.4,.4,-.4,.8c0,.1,.1,.2,.1,.3c.1,.1,.2,.2,.3,.3c.1,.1,.2,.1,.4,.2c.1,0,.3,.1,.4,.1c.2,0,.3,.1,.5,.1q.1,0,.1,0c.3,.1,.5,.1,.7,.2c.2,0,.5,.1,.7,.2c.2,.1,.4,.2,.5,.4c.1,.1,.2,.3,.3,.5c.1,.2,.1,.4,.1,.7c0,.6,-.2,1.2,-.7,1.6c-.5,.4,-1.2,.6,-2.1,.6c-.8,0,-1.5,-.2,-2,-.6c-.4,-.3,-.7,-.8,-.7,-1.5h1.3c.1,.3,.2,.6,.5,.8c.2,.1,.6,.2,1,.2c.5,0,.8,-.1,1.1,-.3c.2,-.1,.3,-.4,.3,-.7c0,-.1,0,-.2,0,-.3c-.1,-.1,-.1,-.2,-.2,-.2c-.1,-.1,-.2,-.2,-.3,-.2c0,-.1,-.2,-.1,-.3,-.2c-.2,0,-.3,0,-.4,-.1c-.1,0,-.2,0,-.5,0v-.1c-.4,0,-.7,-.1,-.9,-.2c-.3,-.1,-.5,-.2,-.8,-.4c-.2,-.1,-.4,-.3,-.5,-.5c-.1,-.2,-.2,-.5,-.2,-.8Zm7.4,-2v-1.8H246v1.8h1.4v1.1H246v3.8c0,.4,.1,.7,.3,.8c.1,.2,.4,.2,.8,.2c.1,0,.2,0,.3,0v1.1c-.1,0,-.3,0,-.6,0c-.4,0,-.8,0,-1,-.1c-.3,-.1,-.5,-.2,-.7,-.4c-.1,-.2,-.2,-.4,-.3,-.6c-.1,-.3,-.1,-.6,-.1,-.9v-3.9h-1v-1.1Zm8.1,6.1c-.3,.6,-1,1,-1.9,1c-.7,0,-1.3,-.2,-1.7,-.6c-.4,-.4,-.6,-.9,-.6,-1.6c0,-.6,.2,-1.1,.6,-1.4c.4,-.4,1,-.6,1.8,-.6h1.8v-.7c0,-.4,-.1,-.7,-.3,-.9c-.3,-.3,-.6,-.4,-1,-.4c-.4,0,-.8,.1,-1,.3c-.2,.2,-.4,.5,-.4,.8h-1.3c.1,-.6,.3,-1.2,.8,-1.5c.4,-.4,1.1,-.6,1.9,-.6c.8,0,1.4,.2,1.9,.6c.5,.4,.8,.9,.8,1.7v4.7h-1.3v-.8Zm-1.5,-.1c.4,0,.8,-.1,1.1,-.4c.3,-.2,.4,-.6,.4,-1v-.8h-1.6c-.4,0,-.7,.1,-.9,.3c-.3,.2,-.4,.5,-.4,.8c0,.3,.2,.6,.4,.8c.3,.2,.6,.3,1,.3Zm.7,-6.9h-1l1.2,-1.9h1.3Zm6.8,9.4c.6,0,1,-.1,1.3,-.4c.3,-.3,.4,-.7,.4,-1.3v-1c-.1,.3,-.4,.5,-.8,.8c-.3,.2,-.7,.3,-1.2,.3c-.8,0,-1.5,-.3,-2,-.9c-.5,-.6,-.7,-1.4,-.7,-2.4v-.5c0,-1,.2,-1.8,.7,-2.4c.5,-.6,1.2,-.8,2,-.8c.5,0,.9,.1,1.2,.3c.4,.2,.7,.4,.8,.8h.1v-1h1.3v6.9c0,.3,-.1,.7,-.2,1c-.1,.3,-.3,.5,-.4,.7c-.2,.2,-.5,.4,-.7,.5c-.3,.2,-.6,.3,-.9,.4c-.3,0,-.6,.1,-.9,.1c-.9,0,-1.6,-.2,-2,-.6c-.5,-.4,-.8,-.9,-.9,-1.5h1.3c.1,.3,.3,.5,.6,.7c.2,.2,.6,.3,1,.3Zm.1,-7.5c-.6,0,-1,.2,-1.3,.5c-.3,.4,-.5,1,-.5,1.7v.4c0,.7,.2,1.2,.5,1.6c.3,.4,.7,.6,1.3,.6c.5,0,.9,-.2,1.2,-.6c.3,-.4,.4,-.9,.4,-1.6v-.4c0,-.7,-.1,-1.2,-.4,-1.6c-.3,-.4,-.7,-.6,-1.2,-.6Zm5,5.9v-6.9h1.3v6.9Zm.1,-8.1c-.2,-.1,-.3,-.3,-.3,-.5c0,-.3,.1,-.4,.3,-.6c.1,-.1,.3,-.2,.6,-.2c.2,0,.4,.1,.5,.2c.2,.2,.3,.3,.3,.6c0,.2,-.1,.4,-.3,.5c-.1,.2,-.3,.3,-.5,.3c-.3,0,-.5,-.1,-.6,-.3Zm6,1c1,0,1.7,.4,2.3,1c.5,.6,.8,1.4,.8,2.3v.6c0,1,-.3,1.8,-.8,2.4c-.6,.7,-1.3,1,-2.3,1c-1,0,-1.7,-.3,-2.3,-1c-.5,-.6,-.8,-1.4,-.8,-2.4v-.5c0,-1,.3,-1.8,.9,-2.4c.5,-.6,1.2,-1,2.2,-1Zm1.3,1.7c-.3,-.4,-.7,-.6,-1.3,-.6c-.5,0,-1,.2,-1.3,.6c-.3,.5,-.4,1,-.4,1.7v.5c0,.7,.1,1.2,.4,1.6c.3,.5,.8,.7,1.3,.7c.6,0,1,-.2,1.3,-.7c.3,-.4,.4,-.9,.4,-1.6v-.5c0,-.7,-.1,-1.2,-.4,-1.7Z" class="g5_32" />
<path d="M196.3,723.2v1.2h-5.6v-9.1h5.6v1.2h-4.2v2.7h4v1.1h-4v2.9Zm3.1,1.2l-2.4,-7h1.4l1.7,5.5h.1l1.8,-5.5h1.4l-2.5,7Zm7.6,.1c-.9,0,-1.6,-.3,-2.2,-.9c-.5,-.6,-.8,-1.4,-.8,-2.4v-.7c0,-1,.3,-1.8,.8,-2.4c.6,-.5,1.3,-.8,2.2,-.8c.9,0,1.6,.3,2.1,.9c.6,.6,.8,1.3,.8,2.3v.7h-4.5v.1c0,.7,.1,1.2,.4,1.5c.3,.4,.8,.6,1.3,.6c.4,0,.7,-.1,.9,-.3c.3,-.1,.5,-.4,.6,-.7h1.2c-.1,.6,-.4,1.1,-.9,1.5c-.4,.4,-1.1,.6,-1.9,.6Zm-1.6,-4.3h3.2c0,-.5,-.1,-1,-.4,-1.3c-.3,-.4,-.7,-.6,-1.2,-.6c-.5,0,-.9,.2,-1.2,.6c-.3,.3,-.4,.8,-.4,1.3Zm6.2,4.2v-7h1.3v.9c.2,-.2,.4,-.5,.8,-.7c.3,-.2,.7,-.3,1.3,-.3c.7,0,1.3,.2,1.7,.7c.5,.4,.7,1.1,.7,1.9v4.5h-1.3v-4.3c0,-.5,-.1,-.9,-.4,-1.2c-.3,-.3,-.7,-.4,-1.2,-.4c-.5,0,-.9,.1,-1.2,.4c-.3,.4,-.4,.8,-.4,1.3v4.2Zm8.1,-7v-1.7H221v1.7h1.4v1.1H221v3.8c0,.4,.1,.7,.3,.8c.1,.2,.4,.2,.8,.2c.1,0,.2,0,.4,0v1.1c-.2,0,-.4,0,-.7,0c-.4,0,-.7,0,-1,-.1c-.3,-.1,-.5,-.2,-.7,-.4c-.1,-.1,-.2,-.3,-.3,-.6c0,-.2,-.1,-.5,-.1,-.9v-3.9h-.9v-1.1Zm7.1,-.1c.9,0,1.7,.3,2.2,.9c.6,.6,.8,1.4,.8,2.4v.6c0,1,-.2,1.8,-.8,2.4c-.5,.6,-1.3,.9,-2.2,.9c-1,0,-1.8,-.3,-2.3,-.9c-.5,-.6,-.8,-1.4,-.8,-2.4v-.6c0,-1,.3,-1.8,.8,-2.4c.5,-.6,1.3,-.9,2.3,-.9ZM228,719c-.3,-.4,-.7,-.6,-1.2,-.6c-.6,0,-1,.2,-1.3,.6c-.3,.4,-.5,.9,-.5,1.6v.5c0,.7,.2,1.3,.5,1.7c.3,.4,.7,.6,1.3,.6c.5,0,.9,-.2,1.2,-.6c.3,-.4,.5,-1,.5,-1.7v-.5c0,-.7,-.2,-1.2,-.5,-1.6Zm3.2,.4c0,-.4,.1,-.7,.2,-1c.2,-.2,.4,-.5,.6,-.6c.3,-.2,.5,-.3,.9,-.4c.3,-.1,.6,-.1,1,-.1c.8,0,1.4,.2,1.8,.6c.5,.3,.7,.9,.7,1.5h-1.2c0,-.3,-.2,-.6,-.4,-.8c-.2,-.2,-.5,-.3,-1,-.3c-.4,0,-.7,.1,-.9,.3c-.3,.1,-.4,.4,-.4,.7c0,.1,0,.2,.1,.4q.1,.1,.3,.2c.1,.1,.2,.1,.3,.2c.2,0,.3,.1,.5,.1c.1,0,.3,.1,.5,.1c.3,.1,.6,.1,.8,.2c.2,0,.4,.1,.6,.2c.2,.1,.4,.2,.5,.4c.2,.1,.3,.3,.4,.5c.1,.2,.1,.4,.1,.7c0,.7,-.3,1.2,-.8,1.6c-.5,.4,-1.2,.6,-2,.6c-.9,0,-1.5,-.2,-2,-.6c-.5,-.3,-.7,-.8,-.7,-1.4h1.3c0,.3,.2,.5,.4,.7c.3,.2,.6,.3,1.1,.3c.4,0,.8,-.1,1,-.3c.3,-.2,.4,-.5,.4,-.8c0,-.1,0,-.2,-.1,-.3c0,-.1,-.1,-.2,-.2,-.2c0,-.1,-.1,-.2,-.2,-.2c-.1,0,-.2,-.1,-.4,-.1c-.1,-.1,-.2,-.1,-.3,-.1c-.1,-.1,-.3,-.1,-.5,-.1h-.1c-.3,-.1,-.6,-.2,-.9,-.3c-.2,-.1,-.5,-.2,-.7,-.3c-.2,-.2,-.4,-.4,-.5,-.6c-.1,-.2,-.2,-.5,-.2,-.8Z" class="g5_32" />
<path fill-rule="evenodd" d="M319.1,712.7h1v1.4c0,.8,.7,1.5,1.5,1.5h.6c.8,0,1.4,-.7,1.4,-1.5v-1.4h6.1v1.4c0,.8,.6,1.5,1.5,1.5h.5c.9,0,1.5,-.7,1.5,-1.5v-1.4h1c.8,0,1.6,.7,1.6,1.5v12.9c0,.9,-.8,1.6,-1.6,1.6H319.1c-.9,0,-1.6,-.7,-1.6,-1.6V714.2c0,-.8,.7,-1.5,1.6,-1.5Zm15.1,4.8c-5.1,0,-10.1,0,-15.1,0v8.3c0,.7,.5,1.2,1.2,1.2c4.2,0,8.4,0,12.7,0c.6,0,1.2,-.5,1.2,-1.2Z" class="g5_32" />
<path fill-rule="evenodd" d="M321.9,710.6c.5,0,.9,.4,.9,.9v2.4c0,.4,-.4,.8,-.9,.8c-.5,0,-.9,-.4,-.9,-.8v-2.4c0,-.5,.4,-.9,.9,-.9Z" class="g5_32" />
<path fill-rule="evenodd" d="M331.4,710.6c.5,0,.9,.4,.9,.9v2.4c0,.4,-.4,.8,-.9,.8c-.4,0,-.8,-.4,-.8,-.8v-2.4c0,-.5,.4,-.9,.8,-.9Z" class="g5_32" />
<path fill-rule="evenodd" d="M322.9,719.3c.7,0,1.2,.5,1.2,1.1c0,.7,-.5,1.2,-1.2,1.2c-.6,0,-1.1,-.5,-1.1,-1.2c0,-.6,.5,-1.1,1.1,-1.1Z" class="g5_32" />
<path fill-rule="evenodd" d="M326.6,719.3c.7,0,1.2,.5,1.2,1.1c0,.7,-.5,1.2,-1.2,1.2c-.6,0,-1.1,-.5,-1.1,-1.2c0,-.6,.5,-1.1,1.1,-1.1Z" class="g5_32" />
<path fill-rule="evenodd" d="M330.3,719.3c.7,0,1.2,.5,1.2,1.1c0,.7,-.5,1.2,-1.2,1.2c-.6,0,-1.1,-.5,-1.1,-1.2c0,-.6,.5,-1.1,1.1,-1.1Z" class="g5_32" />
<path fill-rule="evenodd" d="M322.9,722.9c.7,0,1.2,.5,1.2,1.1c0,.7,-.5,1.2,-1.2,1.2c-.6,0,-1.1,-.5,-1.1,-1.2c0,-.6,.5,-1.1,1.1,-1.1Z" class="g5_32" />
<path fill-rule="evenodd" d="M326.6,722.9c.7,0,1.2,.5,1.2,1.1c0,.7,-.5,1.2,-1.2,1.2c-.6,0,-1.1,-.5,-1.1,-1.2c0,-.6,.5,-1.1,1.1,-1.1Z" class="g5_32" />
<path fill-rule="evenodd" d="M330.3,722.9c.7,0,1.2,.5,1.2,1.1c0,.7,-.5,1.2,-1.2,1.2c-.6,0,-1.1,-.5,-1.1,-1.2c0,-.6,.5,-1.1,1.1,-1.1Z" class="g5_32" />
<path d="M192,779.4h-1.3v-9H192l4.4,6.7v-6.7h1.3v9h-1.2l-4.4,-6.7H192Zm10.5,-7.1c1,0,1.7,.3,2.3,.9c.5,.6,.8,1.4,.8,2.4v.6c0,1,-.3,1.8,-.8,2.4c-.6,.6,-1.3,.9,-2.3,.9c-1,0,-1.7,-.3,-2.3,-.9c-.5,-.6,-.8,-1.4,-.8,-2.4v-.6c0,-1,.3,-1.8,.9,-2.4c.5,-.6,1.2,-.9,2.2,-.9Zm1.3,1.7c-.3,-.4,-.7,-.6,-1.3,-.6c-.5,0,-1,.2,-1.3,.6c-.3,.4,-.4,1,-.4,1.6v.6c0,.7,.1,1.2,.4,1.6c.3,.4,.8,.6,1.3,.6c.6,0,1,-.2,1.3,-.6c.3,-.4,.4,-.9,.4,-1.6v-.6c0,-.6,-.1,-1.2,-.4,-1.6Zm3.9,-1.6v-1.7H209v1.7h1.4v1.1H209v3.9c0,.4,.1,.6,.2,.8c.2,.1,.5,.2,.9,.2c.1,0,.2,0,.3,0v1c-.2,0,-.4,.1,-.6,.1c-.4,0,-.8,-.1,-1.1,-.2c-.2,0,-.4,-.2,-.6,-.3c-.2,-.2,-.3,-.4,-.3,-.6c-.1,-.3,-.1,-.6,-.1,-.9v-4h-1v-1.1Zm5.5,-.9h-1l1.2,-1.8h1.3Zm-1.1,7.9v-7h1.3v7Zm3.1,-3.2v-.6c0,-1,.2,-1.8,.8,-2.4c.5,-.6,1.2,-.9,2.1,-.9c.8,0,1.5,.2,2,.7c.5,.4,.7,.9,.8,1.6h-1.3c-.1,-.3,-.2,-.6,-.5,-.8c-.2,-.2,-.5,-.4,-.9,-.4c-.5,0,-.9,.2,-1.2,.6c-.3,.4,-.5,.9,-.5,1.6v.6c0,.7,.2,1.2,.5,1.6c.3,.4,.7,.6,1.2,.6c.4,0,.7,-.1,1,-.3c.2,-.2,.4,-.4,.4,-.7h1.3c-.1,.6,-.4,1.2,-.9,1.6c-.4,.3,-1.1,.5,-1.9,.5c-.6,0,-1.1,-.1,-1.6,-.4c-.4,-.3,-.8,-.7,-1,-1.2c-.2,-.5,-.3,-1,-.3,-1.7Zm7.3,3.2v-7h1.3v7Zm.1,-8.1c-.2,-.2,-.3,-.3,-.3,-.6c0,-.2,.1,-.4,.3,-.5c.1,-.2,.3,-.3,.6,-.3c.2,0,.4,.1,.5,.3c.2,.1,.3,.3,.3,.5c0,.3,-.1,.4,-.3,.6c-.1,.1,-.3,.2,-.5,.2c-.3,0,-.5,-.1,-.6,-.2Zm7.1,7.3c-.4,.6,-1.1,.9,-2,.9c-.7,0,-1.2,-.2,-1.6,-.6c-.5,-.3,-.7,-.9,-.7,-1.5c0,-.6,.2,-1.1,.7,-1.5c.4,-.3,1,-.5,1.8,-.5h1.8v-.7c0,-.4,-.1,-.7,-.4,-1c-.2,-.2,-.5,-.3,-1,-.3c-.4,0,-.7,.1,-.9,.3c-.3,.2,-.4,.4,-.4,.8h-1.3c0,-.7,.3,-1.2,.7,-1.6c.5,-.4,1.1,-.6,2,-.6c.7,0,1.4,.2,1.9,.6c.5,.4,.7,1,.7,1.7v4.8h-1.3v-.8Zm-1.6,-.1c.5,0,.8,-.2,1.1,-.4c.3,-.3,.5,-.6,.5,-1v-.8h-1.6c-.5,0,-.8,.1,-1,.3c-.2,.2,-.3,.4,-.3,.7c0,.4,.1,.7,.4,.9c.2,.2,.5,.3,.9,.3Zm4.5,-4c0,-.4,.1,-.7,.2,-1c.2,-.3,.4,-.5,.6,-.7c.3,-.1,.6,-.3,.9,-.4c.3,0,.6,-.1,1,-.1c.8,0,1.4,.2,1.8,.6c.5,.4,.7,.9,.7,1.5h-1.2c0,-.3,-.2,-.5,-.4,-.7c-.2,-.3,-.5,-.4,-1,-.4c-.4,0,-.7,.1,-.9,.3c-.3,.2,-.4,.4,-.4,.7c0,.2,0,.3,.1,.4c.1,.1,.2,.2,.3,.3c.1,0,.2,.1,.3,.1c.2,.1,.3,.1,.5,.2c.1,0,.3,0,.5,.1c.3,0,.6,.1,.8,.1c.2,.1,.4,.2,.6,.3c.2,.1,.4,.2,.6,.3c.1,.2,.2,.3,.3,.5c.1,.2,.1,.5,.1,.7c0,.7,-.3,1.3,-.8,1.6c-.5,.4,-1.2,.6,-2,.6c-.8,0,-1.5,-.2,-2,-.5c-.5,-.4,-.7,-.9,-.7,-1.5h1.3c0,.3,.2,.6,.4,.7c.3,.2,.6,.3,1.1,.3c.4,0,.8,-.1,1,-.3c.3,-.2,.4,-.4,.4,-.7c0,-.1,0,-.2,-.1,-.3c0,-.1,-.1,-.2,-.1,-.3c-.1,0,-.2,-.1,-.3,-.2c-.1,0,-.2,0,-.4,-.1c-.1,0,-.2,-.1,-.3,-.1c-.1,0,-.3,0,-.5,-.1h-.1c-.3,-.1,-.6,-.1,-.9,-.2c-.2,-.1,-.5,-.2,-.7,-.4c-.2,-.1,-.4,-.3,-.5,-.5c-.1,-.3,-.2,-.5,-.2,-.8Z" class="g5_32" />
<path fill-rule="evenodd" d="M317.2,492.5H322v-1c0,-.6,.5,-1,1,-1h4.3c.6,0,1,.4,1,1v1h4.8c.6,0,1.1,.5,1.1,1.1v4.9c-.9,-.8,-2.1,-1.3,-3.4,-1.3c-2,0,-3.8,1.1,-4.7,2.7h-10v-6.3c0,-.6,.5,-1.1,1.1,-1.1Zm5.5,0h4.9v-1.2h-4.9Zm2.4,5.1c.4,0,.8,.4,.8,.8c0,.4,-.4,.8,-.8,.8c-.4,0,-.7,-.4,-.7,-.8c0,-.4,.3,-.8,.7,-.8Zm2.3,9.1H317.2c-.6,0,-1.1,-.5,-1.1,-1.1v-4.7h9.6c-.2,.5,-.3,1.1,-.3,1.6c0,1.7,.8,3.2,2,4.2Z" class="g5_32" />
<path fill-rule="evenodd" d="M330.9,507.3c-2.5,0,-4.6,-2.1,-4.6,-4.6c0,-2.6,2.1,-4.6,4.6,-4.6c2.5,0,4.6,2,4.6,4.6c0,1,-.3,1.9,-.9,2.6l2.3,2.3c.3,.3,.3,.8,0,1.1c-.3,.3,-.7,.3,-1,0l-2.3,-2.3c-.8,.6,-1.7,.9,-2.7,.9Zm0,-1.5c-1.7,0,-3.1,-1.4,-3.1,-3.1c0,-1.7,1.4,-3.1,3.1,-3.1c1.7,0,3.1,1.4,3.1,3.1c0,1.7,-1.4,3.1,-3.1,3.1Z" class="g5_32" />
<path fill-rule="evenodd" d="M320.3,782.9h-1.4c-.7,0,-1.4,-.6,-1.4,-1.4V770.1c0,-.3,.3,-.6,.6,-.6h2.2v.7h-1.8c-.2,0,-.4,.2,-.4,.4v10.2c0,.6,.5,1.1,1.1,1.1h1.1Z" class="g5_32" />
<path fill-rule="evenodd" d="M321.4,767h13.4c.5,0,.9,.4,.9,1v12.5c0,1.3,-1,2.4,-2.4,2.4h-13V768.1c0,-.6,.5,-1.1,1.1,-1.1Z" class="g5_32" />
<path d="M334.1,773.3H322m12.1,2.6H322m12.1,2.4H322" class="g6_32" />
<path fill-rule="evenodd" d="M330,446.4c-.3,.2,-.9,.6,-1.2,.8c-1.1,.5,-2.5,.5,-3.5,0c-.4,-.2,-.9,-.6,-1.2,-.8c-1.7,.8,-2.9,2.4,-3.3,4.3c-.2,.6,-.3,1,.6,1h11.3c.8,0,.7,-.4,.6,-1.1c-.4,-1.8,-1.6,-3.4,-3.3,-4.2Zm-3,-6.5c2,0,3.5,1.5,3.5,3.4c0,2,-1.5,3.5,-3.5,3.5c-1.9,0,-3.5,-1.5,-3.5,-3.5c0,-1.9,1.6,-3.4,3.5,-3.4Z" class="g2_32" />
<path d="M316.5,451.7h21.1c.7,0,1.2,-.5,1.2,-1.2V438.3c0,-.7,-.5,-1.2,-1.2,-1.2H316.5c-.7,0,-1.2,.5,-1.2,1.2v12.2c0,.7,.5,1.2,1.2,1.2Z" class="g7_32" />
<path fill-rule="evenodd" d="M326.2,557c-.3,.2,-.8,.7,-1.2,.8c-1.1,.5,-2.5,.5,-3.5,0c-.4,-.2,-.9,-.6,-1.3,-.8c-1.6,.8,-2.8,2.5,-3.2,4.3c-.2,.7,-.3,1.1,.6,1.1H329c.8,0,.7,-.5,.5,-1.1c-.4,-1.8,-1.6,-3.5,-3.3,-4.3Zm-3,-6.5c2,0,3.6,1.5,3.6,3.5c0,1.9,-1.6,3.4,-3.6,3.4c-1.9,0,-3.5,-1.5,-3.5,-3.4c0,-2,1.6,-3.5,3.5,-3.5Z" class="g5_32" />
<path fill-rule="evenodd" d="M332.6,558.3c-.2,.2,-.7,.5,-1,.6c-.7,.4,-1.7,.4,-2.5,.1c.5,.7,.9,1.5,1,2.3c.2,.6,.3,1.1,-.5,1.1h5.1c.6,0,.5,-.4,.4,-.9c-.3,-1.3,-1.3,-2.6,-2.5,-3.2Zm-2.3,-5c1.5,0,2.7,1.2,2.7,2.7c0,1.4,-1.2,2.6,-2.7,2.6c-1.5,0,-2.7,-1.2,-2.7,-2.6c0,-1.5,1.2,-2.7,2.7,-2.7Z" class="g5_32" />
<path fill-rule="evenodd" d="M329.6,546.3h.3c.5,0,.9,.1,1.3,.3c.2,.1,.4,.1,.5,.2l.4,.3c0,0,.1,0,.1,.1c.3,.2,.6,.5,.7,.8c.3,.6,.4,.8,.4,1.5c0,.6,-.3,1.2,-.7,1.7c0,0,-.1,0,-.1,.1l-.3,.3c-.1,.1,-.3,.2,-.5,.3c-.7,.5,-1.5,.6,-2.4,.5q-.2,0,-.3,.1c-.4,.2,-.9,.5,-1.2,.7c-.1,0,-.1,.1,-.2,.1c0,-.4,0,-.8,0,-1.3q0,-.2,-.1,-.3c-.2,-.1,-.4,-.3,-.6,-.6c-.2,-.2,-.3,-.3,-.4,-.6c-.2,-.4,-.2,-.7,-.2,-1.2c0,-.3,0,-.5,.1,-.7c.2,-.6,.4,-1,.9,-1.4l.2,-.2c.1,-.1,.2,-.1,.3,-.2c.5,-.3,1.2,-.5,1.8,-.5Z" class="g5_32" />
<path fill-rule="evenodd" d="M316.8,547.2h-.3c-.4,0,-.9,.1,-1.3,.3c-.2,0,-.3,.1,-.5,.2l-.3,.3q-.1,0,-.2,0c-.2,.3,-.5,.6,-.7,.9c-.2,.5,-.3,.8,-.3,1.5c0,.6,.3,1.2,.7,1.7v.1l.3,.3c.1,.1,.4,.2,.5,.3c.7,.4,1.6,.6,2.4,.5q.2,0,.3,0c.4,.3,.9,.5,1.2,.8c.1,0,.2,.1,.2,.1c0,-.4,0,-.9,0,-1.3q0,-.2,.1,-.3c.2,-.2,.5,-.4,.7,-.6c.1,-.2,.2,-.3,.3,-.6c.2,-.4,.3,-.8,.3,-1.2c0,-.3,-.1,-.5,-.2,-.7c-.1,-.6,-.4,-1,-.9,-1.5l-.2,-.1c-.1,-.1,-.2,-.1,-.3,-.2c-.5,-.3,-1.1,-.5,-1.8,-.5Z" class="g5_32" />
<path fill-rule="evenodd" d="M318,612.5l2.7,-.4c0,-1,.2,-2,.6,-2.8c.8,-1.8,2.1,-3,3.9,-3.6c.5,-.2,1.6,-.4,2.1,-.3v1.3l1,-1c.1,-.1,.2,-.2,.3,-.4c.4,-.2,1.1,-1.1,1.3,-1.2c0,-.2,-1.9,-2,-2.3,-2.4c-.1,-.1,-.2,-.2,-.3,-.3v1.3c-.3,.1,-1.2,0,-2,.2c-2.2,.5,-4.2,1.9,-5.5,3.6c-.3,.4,-.6,.9,-.8,1.4c-.3,.6,-.5,1.1,-.6,1.7c-.1,.3,-.2,.6,-.2,.9c-.1,.2,-.1,.9,-.2,1Z" class="g5_32" />
<path fill-rule="evenodd" d="M333.5,609.7l2.4,-1.1c.3,.6,.4,1.3,.5,2c.1,.2,.1,.8,.2,.9v1c-.1,.1,-.1,.8,-.2,1c-.7,3.8,-3.4,6.7,-7.1,7.5c-.9,.2,-1.8,.2,-2,.3v1.2c-.2,-.1,-.5,-.4,-.7,-.6l-1.3,-1.3c-.1,-.2,-.6,-.5,-.6,-.7c.2,-.2,.9,-1,1.3,-1.3l1.3,-1.3v1.3c.5,.1,1.6,-.2,2.1,-.3c1.8,-.7,3.1,-1.8,3.9,-3.6c.7,-1.5,.8,-3.4,.2,-5Z" class="g5_32" />
<path fill-rule="evenodd" d="M334.5,605c-.2,.2,-.6,.4,-.8,.6c-.6,.2,-1.5,.2,-2.1,-.1c-.2,-.1,-.6,-.3,-.8,-.5c-1,.5,-1.7,1.5,-1.9,2.6c-.1,.4,-.2,.7,.3,.7h6.9c.5,0,.4,-.3,.3,-.7c-.2,-1.1,-1,-2.1,-1.9,-2.6Zm-1.9,-3.9c1.2,0,2.2,1,2.2,2.1c0,1.2,-1,2.1,-2.2,2.1c-1.1,0,-2.1,-.9,-2.1,-2.1c0,-1.1,1,-2.1,2.1,-2.1Z" class="g2_32" />
<path fill-rule="evenodd" d="M323,616.2c-.2,.1,-.5,.4,-.7,.5c-.7,.2,-1.5,.2,-2.1,0c-.2,-.2,-.5,-.4,-.7,-.5c-1,.4,-1.7,1.4,-1.9,2.5c-.1,.4,-.2,.6,.3,.6h6.7c.4,0,.4,-.3,.3,-.6c-.2,-1.1,-1,-2.1,-1.9,-2.5Zm-1.8,-3.8c1.2,0,2.1,.9,2.1,2c0,1.1,-.9,2,-2.1,2c-1.1,0,-2,-.9,-2,-2c0,-1.1,.9,-2,2,-2Z" class="g2_32" />
<path fill-rule="evenodd" d="M330.4,663.9c1.1,-1.1,2.7,.5,1.6,1.5c-.6,.7,-1.7,.3,-1.9,-.5c-.1,-.4,0,-.7,.3,-1Zm-4.2,-7.3h.9c1.1,.1,2.3,.3,3.3,.7c.6,.2,.9,.4,1.4,.7l1,.6c0,.1,.1,.2,.2,.3c.7,.6,1.5,1.4,1.9,2.2c.7,1.4,.9,2.1,.9,3.8c0,1.7,-.7,3.2,-1.7,4.5c-.1,.1,-.2,.2,-.3,.3l-.8,.7c-.2,.3,-.9,.7,-1.2,.9c-1.9,1.2,-4.1,1.6,-6.4,1.3c-.5,0,-.4,-.1,-.8,.1c-.9,.6,-2.2,1.4,-3.1,1.9c-.2,.2,-.4,.3,-.6,.4c0,-1.1,0,-2.3,0,-3.4c0,-.5,.1,-.6,-.1,-.8c-.7,-.4,-1.3,-1,-1.8,-1.6c-.4,-.6,-.6,-.8,-.9,-1.6c-.5,-1,-.7,-2,-.7,-3.2c0,-.6,.2,-1.3,.3,-1.8c.5,-1.6,1.3,-2.6,2.5,-3.7l.6,-.5c.2,-.1,.4,-.3,.6,-.4c1.5,-.9,3.2,-1.3,4.8,-1.4Zm-.6,7.6c.4,-1,2.1,-.9,2.2,.4c0,1.2,-1.7,1.6,-2.2,.5c-.1,-.4,-.2,-.5,0,-.9Zm-4.4,-.3c1.1,-1.1,2.7,.5,1.7,1.5c-.2,.2,-.5,.4,-.8,.4c-.4,0,-.7,-.2,-.8,-.3c-.5,-.5,-.5,-1.2,-.1,-1.6Z" class="g5_32" />
<image x="526" y="260" width="307" height="544" xlink:href="shade/3.png" />
<path fill-rule="evenodd" d="M526.9,803.8h183V307.7h-183Z" class="g1_32" />
<path fill-rule="evenodd" d="M526.9,307.7H832V261.1H526.9Z" class="g2_32" />
<path d="M817.4,290.3l-2.4,-.4c-.1,-.5,-.3,-.9,-.5,-1.4l1.4,-2c.1,-.1,.1,-.3,-.1,-.5l-1.6,-1.6c-.1,-.1,-.3,-.1,-.5,0l-1.9,1.4c-.5,-.2,-1,-.4,-1.4,-.6l-.5,-2.4c0,-.2,-.2,-.3,-.4,-.3h-2.2c-.2,0,-.4,.1,-.4,.3l-.4,2.4c-.5,.2,-.9,.3,-1.4,.6l-2,-1.4c-.1,-.1,-.3,-.1,-.5,0L801,286c-.1,.1,-.1,.4,0,.5l1.4,2c-.3,.5,-.5,.9,-.6,1.4l-2.4,.4c-.2,0,-.3,.2,-.3,.4v2.2c0,.2,.1,.4,.3,.4l2.4,.5c.1,.5,.3,.9,.6,1.4l-1.4,1.9c-.1,.2,-.1,.4,0,.6l1.6,1.5c.1,.2,.4,.2,.5,.1l2,-1.4c.4,.2,.9,.4,1.4,.6l.4,2.4c0,.2,.2,.3,.4,.3h2.2c.2,0,.4,-.1,.4,-.3l.5,-2.4c.4,-.2,.9,-.4,1.4,-.6l2,1.4c.1,.1,.3,.1,.5,-.1l1.6,-1.5c.1,-.2,.1,-.4,0,-.6l-1.4,-1.9c.2,-.5,.4,-.9,.5,-1.4l2.5,-.5c.1,0,.3,-.2,.3,-.4v-2.2c0,-.2,-.2,-.4,-.4,-.4Zm-9,4.4c-1.5,0,-2.8,-1.3,-2.8,-2.9c0,-1.5,1.3,-2.8,2.8,-2.8c1.6,0,2.9,1.3,2.9,2.8c0,1.6,-1.3,2.9,-2.9,2.9Z" class="g0_32" />
<path d="M526.9,362.8h166" class="g3_32" />
<path d="M543.4,290.6h17.5v2H543.4Z" class="g0_32" />
<path d="M543.4,284.8h17.5v1.9H543.4Z" class="g0_32" />
<path d="M543.4,296.5h17.5v1.9H543.4Z" class="g0_32" />
<path fill-rule="evenodd" d="M700.9,294.1c-9.4,-2.9,-6.9,-24.9,9.2,-15c3.9,2.4,2.1,4.8,10.8,3.1c9.8,-1.9,4.2,22.1,-10.9,14.9c-6,-2.9,-6.9,-1,-15,1.7c0,0,-.2,0,-.2,0Zm8,-2.4v1.2c0,.4,0,.7,.1,.9c.1,.2,.2,.4,.3,.6c.2,.1,.5,.3,.9,.4c.3,.1,.7,.1,1.2,.1c.7,0,1.2,-.1,1.5,-.3c.4,-.2,.6,-.4,.8,-.7c0,-.2,.1,-.5,.1,-1v-1.2Zm-1,-1h6.9v2.2c0,.5,0,.9,-.1,1.1c-.1,.4,-.3,.7,-.5,.9c-.3,.4,-.7,.6,-1.2,.8c-.5,.1,-1,.2,-1.6,.2c-.5,0,-1,0,-1.4,-.2c-.4,-.1,-.8,-.2,-1,-.4c-.3,-.2,-.5,-.3,-.7,-.6c-.1,-.2,-.2,-.4,-.3,-.7c-.1,-.3,-.1,-.6,-.1,-1Zm5,-2h3.9v-4.8h-.9v4h-2.1v-4h-.9v4ZM705,287.5h4.6v1.3h-5.9v-7.5h5.9v1.2H705v1.9h4.6v1.2H705Z" class="g0_32" />
<path d="M634.3,298.6h-1.2V287.8h1.2Zm3.9,0H637V287.8h1.2l5.7,8.8h.1v-8.8h1.1v10.8h-1.2l-5.7,-8.8ZM650,288.8h-3.3v-1h7.9v1h-3.4Zm22.6,2.2h-1.2c-.1,-.8,-.4,-1.4,-.9,-1.8c-.5,-.4,-1.1,-.6,-1.9,-.6c-.4,0,-.8,.1,-1.2,.2c-.3,.2,-.6,.4,-.9,.7c-.3,.3,-.5,.7,-.7,1.2c-.2,.5,-.2,1,-.2,1.7v1.5c0,1.3,.2,2.2,.7,2.9c.6,.7,1.3,1,2.3,1c.8,0,1.5,-.2,2.1,-.7c.5,-.5,.8,-1.1,.8,-1.8v-1.2h-3v-1h4.1v2.2c0,.3,0,.6,-.1,.9c-.1,.3,-.2,.7,-.4,1c-.2,.3,-.5,.6,-.8,.8c-.3,.3,-.6,.5,-1.1,.6c-.5,.2,-1,.3,-1.6,.3c-1.4,0,-2.4,-.5,-3.1,-1.3c-.8,-.9,-1.1,-2.1,-1.1,-3.7v-1.5c0,-1.5,.4,-2.7,1.1,-3.6c.8,-.8,1.9,-1.3,3.2,-1.3c.6,0,1.1,.1,1.6,.3c.5,.2,.9,.5,1.2,.8c.3,.3,.6,.7,.8,1.1c.2,.4,.3,.8,.3,1.3Zm3.5,2.1v5.5h-1.2V287.8h3.8c.6,0,1.1,.1,1.6,.2c.4,.2,.8,.4,1,.7c.3,.3,.5,.7,.6,1c.2,.4,.3,.8,.3,1.3c0,.4,-.1,.8,-.2,1.1c-.1,.4,-.3,.7,-.5,.9c-.2,.2,-.4,.4,-.6,.6c-.3,.2,-.5,.3,-.8,.4l2.2,4.6H681l-2.4,-5.5c.8,0,1.3,-.2,1.7,-.5c.4,-.4,.6,-.9,.6,-1.6c0,-.7,-.2,-1.2,-.6,-1.6c-.4,-.4,-1,-.6,-1.7,-.6h-2.5Zm10,1.2l-.3,1l-1.2,3.3h-1.2l3.9,-10.8h1.2l3.9,10.8h-1.3l-1.2,-3.3l-.3,-1m0,0l-1.7,-5.1h-.1l-1.7,5.1m7.8,3.7c0,-.3,.1,-.5,.3,-.6c.2,-.2,.4,-.3,.6,-.3c.2,0,.4,.1,.6,.3c.1,.1,.2,.3,.2,.6c0,.2,-.1,.4,-.2,.5c-.2,.2,-.4,.3,-.6,.3c-.2,0,-.4,-.1,-.6,-.3c-.2,-.1,-.3,-.3,-.3,-.5Z" class="g4_32" />
<path fill-rule="evenodd" d="M656.1,287.8h6.4v1h-5.3v8.8h5.3v1h-6.4c0,-3.6,0,-7.2,0,-10.8Z" class="g4_32" />
<path fill-rule="evenodd" d="M662.2,293.6h-3.6v-1.1h3.6Z" class="g4_32" />
<path fill-rule="evenodd" d="M671.5,294.1h-3v-1h3Z" class="g4_32" />
<path fill-rule="evenodd" d="M651.1,298.6v-8.3H650v8.3Z" class="g4_32" />
<path d="M526.9,417.9h166M526.9,473h166m-166,55.2h166m-166,55.1h166m-166,55.1h166m-166,55.1h166m-166,55.1h166" class="g3_32" />
<path fill-rule="evenodd" d="M702.4,678.1c2.2,0,4,1.8,4,3.9V789.7c0,2.2,-1.8,4,-4,4c-2.1,0,-3.9,-1.8,-3.9,-4V682c0,-2.1,1.8,-3.9,3.9,-3.9Z" class="g5_32" />
<path fill-rule="evenodd" d="M681.9,664.4c-.5,.3,-1.2,.9,-1.8,1.1c-1.4,.7,-3.2,.7,-4.7,0c-.5,-.2,-1.2,-.8,-1.7,-1.1c-2.2,1.1,-3.8,3.4,-4.4,5.8c-.2,.9,-.3,1.5,.8,1.5h12.6c-1.1,-.8,-1.9,-2.1,-1.9,-3.7c0,-1.3,.6,-2.5,1.6,-3.3c-.2,-.1,-.4,-.2,-.5,-.3Zm-4.1,-8.8c2.6,0,4.8,2.1,4.8,4.7c0,2.6,-2.2,4.7,-4.8,4.7c-2.6,0,-4.7,-2.1,-4.7,-4.7c0,-2.6,2.1,-4.7,4.7,-4.7Z" class="g5_32" />
<path fill-rule="evenodd" d="M685.5,672.1c-2.2,0,-3.9,-1.8,-3.9,-4c0,-2.2,1.7,-3.9,3.9,-3.9c2.2,0,3.9,1.7,3.9,3.9c0,.9,-.2,1.7,-.7,2.3l2,2c.2,.3,.2,.7,0,.9c-.3,.3,-.7,.3,-1,0l-1.9,-1.9c-.7,.4,-1.5,.7,-2.3,.7Zm0,-1.3c-1.5,0,-2.6,-1.2,-2.6,-2.7c0,-1.4,1.1,-2.6,2.6,-2.6c1.5,0,2.7,1.2,2.7,2.6c0,1.5,-1.2,2.7,-2.7,2.7Z" class="g5_32" />
<path fill-rule="evenodd" d="M678.3,556.7c3.3,.7,4,.4,6.1,3.5c.8,1.2,2.2,3.1,2.6,0c.1,-1.4,.8,-13.9,-.9,-13.9c-1.7,0,-1.4,2.8,-4.9,4.2c-3.6,1.4,-2.9,-1.9,-2.9,6.2Zm9.6,-2.4v1.6c.6,0,1.2,-.7,1.2,-1.6c0,-.8,-.6,-1.5,-1.2,-1.5Z" class="g5_32" />
<path fill-rule="evenodd" d="M672,552.8c0,4.3,-.1,3.9,5.5,3.9v-5.6c-2.5,0,-5.5,-.6,-5.5,1.7Z" class="g5_32" />
<path fill-rule="evenodd" d="M675.9,563.3c4.7,0,2.3,-1.1,1.9,-3.2l-.3,-2.7h-3.8c.3,.6,.6,2.4,.8,3.2c.2,1,.4,2.7,1.4,2.7Z" class="g5_32" />
<path d="M545.1,559.5h-1.3l3.1,-9h1.5l3.1,9h-1.4l-.9,-2.5H546Zm2.5,-7.5l-1.3,3.9h2.6Zm5,7.5v-6.9H554v.9c.2,-.3,.4,-.5,.8,-.7c.3,-.2,.7,-.3,1.2,-.3c.8,0,1.4,.2,1.8,.6c.5,.5,.7,1.1,.7,2v4.4h-1.3v-4.2c0,-.5,-.2,-1,-.5,-1.2c-.2,-.3,-.6,-.5,-1.1,-.5c-.5,0,-.9,.2,-1.2,.5c-.3,.3,-.4,.7,-.4,1.2v4.2Zm11,-7.8h-1l1.3,-1.9h1.3Zm2.5,.9v6.9h-1.3v-.9h-.1c-.1,.3,-.4,.6,-.7,.8c-.3,.2,-.8,.3,-1.3,.3c-.8,0,-1.3,-.3,-1.8,-.7c-.4,-.4,-.7,-1,-.7,-1.8v-4.6h1.4v4.2c0,.6,.1,1,.4,1.3c.3,.3,.7,.4,1.1,.4c.5,0,.9,-.2,1.2,-.5c.3,-.2,.4,-.7,.4,-1.2v-4.2Zm1.9,6.9v-6.9h1.3v.9h.1c.1,-.3,.4,-.5,.7,-.7c.4,-.2,.8,-.3,1.3,-.3c.7,0,1.3,.2,1.8,.6c.5,.5,.7,1.1,.7,2v4.4h-1.3v-4.2c0,-.5,-.2,-1,-.5,-1.2c-.3,-.3,-.7,-.5,-1.1,-.5c-.6,0,-1,.2,-1.2,.5c-.3,.3,-.5,.7,-.5,1.2v4.2Zm7.8,0v-6.9h1.3v6.9Zm.1,-8.1c-.2,-.1,-.3,-.3,-.3,-.5c0,-.3,.1,-.4,.3,-.6c.1,-.1,.3,-.2,.5,-.2c.3,0,.5,.1,.6,.2c.2,.2,.3,.3,.3,.6c0,.2,-.1,.4,-.3,.5c-.1,.2,-.3,.3,-.6,.3c-.2,0,-.4,-.1,-.5,-.3Zm6,1c1,0,1.7,.4,2.3,1c.5,.6,.8,1.4,.8,2.3v.6c0,1,-.3,1.8,-.8,2.4c-.6,.7,-1.3,1,-2.3,1c-1,0,-1.7,-.3,-2.3,-1c-.5,-.6,-.8,-1.4,-.8,-2.4v-.5c0,-1,.3,-1.8,.8,-2.4c.6,-.6,1.3,-1,2.3,-1Zm1.3,1.7c-.3,-.4,-.8,-.6,-1.3,-.6c-.6,0,-1,.2,-1.3,.6c-.3,.4,-.4,1,-.4,1.7v.5c0,.7,.1,1.2,.4,1.6c.3,.4,.7,.6,1.3,.6c.6,0,1,-.2,1.3,-.6c.3,-.4,.4,-.9,.4,-1.6v-.5c0,-.7,-.1,-1.3,-.4,-1.7Zm3.1,.5c0,-.4,.1,-.7,.3,-1c.1,-.3,.3,-.5,.6,-.6c.2,-.2,.5,-.3,.8,-.4c.3,-.1,.6,-.2,1,-.2c.8,0,1.4,.2,1.9,.6c.4,.4,.6,.9,.6,1.6h-1.2c0,-.3,-.1,-.6,-.3,-.8c-.2,-.2,-.6,-.3,-1,-.3c-.4,0,-.8,.1,-1,.2c-.2,.2,-.4,.4,-.4,.8c0,.1,.1,.2,.1,.3c.1,.1,.2,.2,.3,.3c.1,.1,.2,.1,.4,.2c.1,0,.3,.1,.4,.1c.2,0,.3,.1,.5,.1q.1,0,.1,0c.3,.1,.5,.1,.7,.2c.2,0,.5,.1,.7,.2c.2,.1,.3,.2,.5,.4c.1,.1,.2,.3,.3,.5c.1,.2,.1,.4,.1,.7c0,.6,-.2,1.2,-.7,1.6c-.5,.4,-1.2,.6,-2.1,.6c-.8,0,-1.5,-.2,-2,-.6c-.4,-.3,-.7,-.8,-.7,-1.5h1.3c.1,.3,.2,.6,.5,.8c.2,.1,.6,.2,1,.2c.5,0,.8,-.1,1.1,-.3c.2,-.1,.3,-.4,.3,-.7c0,-.1,0,-.2,0,-.3c-.1,-.1,-.1,-.2,-.2,-.2c-.1,-.1,-.2,-.2,-.3,-.2c0,-.1,-.2,-.1,-.3,-.2c-.2,0,-.3,0,-.4,-.1c-.1,0,-.2,0,-.5,0v-.1c-.4,0,-.7,-.1,-.9,-.2c-.3,-.1,-.5,-.2,-.8,-.4c-.2,-.1,-.4,-.3,-.5,-.5c-.1,-.2,-.2,-.5,-.2,-.8Z" class="g5_32" />
<path d="M544.1,613.3v-9h3.6c.7,0,1.3,.2,1.8,.5c.5,.4,.7,1,.7,1.7c0,.5,-.1,.9,-.4,1.3c-.3,.3,-.6,.5,-1.1,.7c.6,.1,1.1,.3,1.5,.7c.3,.4,.5,.9,.5,1.6c0,.8,-.3,1.4,-.9,1.8c-.5,.5,-1.3,.7,-2.2,.7Zm1.4,-7.9v2.7h1.3c.7,0,1.2,-.1,1.5,-.3c.4,-.3,.6,-.6,.6,-1.1c0,-.4,-.2,-.8,-.4,-1c-.3,-.2,-.7,-.3,-1.1,-.3Zm0,3.8v3H547c.3,0,.7,0,.9,-.1c.3,0,.5,-.1,.8,-.2c.2,-.1,.3,-.3,.5,-.5c.1,-.1,.1,-.4,.1,-.7c0,-.5,-.1,-.9,-.5,-1.1c-.3,-.3,-.7,-.4,-1.3,-.4Zm6.8,4.1v-7h1.3v7Zm.1,-8.1c-.2,-.2,-.3,-.4,-.3,-.6c0,-.2,.1,-.4,.3,-.6c.1,-.1,.3,-.2,.6,-.2c.2,0,.4,.1,.5,.2c.2,.2,.3,.4,.3,.6c0,.2,-.1,.4,-.3,.6c-.1,.1,-.3,.2,-.5,.2c-.3,0,-.5,-.1,-.6,-.2Zm3.3,8.1v-9.5H557v9.5Zm3.3,0v-9.5h1.3v3.5h.1c.1,-.3,.4,-.6,.7,-.8c.4,-.2,.8,-.3,1.3,-.3c.7,0,1.3,.2,1.8,.7c.5,.4,.7,1.1,.7,1.9v4.5h-1.4v-4.2c0,-.6,-.1,-1,-.4,-1.3c-.3,-.3,-.7,-.4,-1.1,-.4c-.6,0,-1,.1,-1.2,.5c-.3,.3,-.5,.7,-.5,1.2v4.2Zm10.4,.1c-.9,0,-1.6,-.3,-2.2,-.9c-.5,-.6,-.8,-1.4,-.8,-2.4v-.7c0,-1,.3,-1.8,.8,-2.3c.5,-.6,1.3,-.9,2.2,-.9c.9,0,1.6,.3,2.1,.9c.6,.6,.8,1.4,.8,2.4v.6h-4.5v.2c0,.6,.1,1.1,.4,1.5c.3,.3,.7,.5,1.3,.5c.3,0,.7,-.1,.9,-.2c.3,-.2,.4,-.5,.5,-.8h1.3c-.1,.6,-.4,1.1,-.9,1.5c-.4,.4,-1.1,.6,-1.9,.6Zm-1.6,-4.3H571c0,-.5,-.1,-1,-.4,-1.3c-.3,-.4,-.7,-.5,-1.2,-.5c-.5,0,-.9,.1,-1.2,.5c-.3,.3,-.4,.8,-.4,1.3Zm6.6,-2.8v-1.7h1.3v1.7h1.4v1.1h-1.4v3.9c0,.4,.1,.6,.3,.8c.1,.1,.4,.2,.8,.2c.1,0,.2,0,.4,0v1c-.2,0,-.4,0,-.7,0c-.4,0,-.8,0,-1,-.1c-.3,0,-.5,-.2,-.7,-.3c-.1,-.2,-.2,-.4,-.3,-.7c-.1,-.2,-.1,-.5,-.1,-.9v-3.9h-.9v-1.1Zm7,7.1c-.9,0,-1.7,-.3,-2.2,-.9c-.5,-.6,-.8,-1.4,-.8,-2.4v-.7c0,-1,.2,-1.8,.8,-2.3c.5,-.6,1.2,-.9,2.1,-.9c1,0,1.7,.3,2.2,.9c.5,.6,.8,1.4,.8,2.4v.6h-4.6v.2c0,.6,.2,1.1,.5,1.5c.3,.3,.7,.5,1.2,.5c.4,0,.7,-.1,1,-.2c.2,-.2,.4,-.5,.5,-.8h1.3c-.1,.6,-.4,1.1,-.9,1.5c-.5,.4,-1.1,.6,-1.9,.6Zm-1.7,-4.3H583c0,-.5,-.2,-1,-.5,-1.3c-.3,-.4,-.7,-.5,-1.2,-.5c-.4,0,-.8,.1,-1.1,.5c-.3,.3,-.5,.8,-.5,1.3Zm6.2,4.2v-7h1.3v.9h.1c.1,-.3,.3,-.5,.6,-.7c.3,-.2,.6,-.3,1.1,-.3c.1,0,.3,0,.4,0v1.2c-.1,0,-.3,0,-.5,0c-1.1,0,-1.6,.6,-1.6,1.7v4.2Zm5,0v-7h1.4v7Zm.1,-8.1c-.1,-.2,-.2,-.4,-.2,-.6c0,-.2,.1,-.4,.2,-.6c.2,-.1,.4,-.2,.6,-.2c.2,0,.4,.1,.6,.2c.1,.2,.2,.4,.2,.6c0,.2,-.1,.4,-.2,.6c-.2,.1,-.4,.2,-.6,.2c-.2,0,-.4,-.1,-.6,-.2Zm7.2,7.2c-.4,.7,-1.1,1,-2,1c-.7,0,-1.3,-.2,-1.7,-.6c-.4,-.4,-.6,-.9,-.6,-1.5c0,-.6,.2,-1.1,.6,-1.5c.5,-.3,1.1,-.5,1.9,-.5h1.8v-.7c0,-.4,-.2,-.8,-.4,-1c-.2,-.2,-.6,-.3,-1,-.3c-.4,0,-.7,.1,-1,.3c-.2,.2,-.4,.4,-.4,.8h-1.2c0,-.7,.2,-1.2,.7,-1.6c.4,-.4,1.1,-.6,1.9,-.6c.8,0,1.5,.2,1.9,.6c.5,.4,.8,1,.8,1.7v4.8h-1.3v-.9Zm-1.6,0c.4,0,.8,-.2,1.1,-.4c.3,-.3,.5,-.6,.5,-1v-.8h-1.7c-.4,0,-.7,.1,-.9,.3c-.2,.2,-.4,.4,-.4,.7c0,.4,.2,.7,.4,.9c.3,.2,.6,.3,1,.3Zm8.9,.9h-1.4v-9h1.4Zm2,0v-7h1.3v1h.1c.1,-.3,.4,-.6,.7,-.8c.3,-.2,.8,-.3,1.3,-.3c.7,0,1.3,.2,1.8,.7c.4,.4,.7,1.1,.7,1.9v4.5H612v-4.2c0,-.6,-.1,-1,-.4,-1.3c-.3,-.3,-.7,-.4,-1.2,-.4c-.5,0,-.9,.1,-1.2,.5c-.2,.3,-.4,.7,-.4,1.2v4.2Zm8.2,-7v-1.7H617v1.7h1.4v1.1H617v3.9c0,.4,.1,.6,.2,.8c.2,.1,.5,.2,.9,.2c.1,0,.2,0,.3,0v1c-.2,0,-.4,0,-.6,0c-.5,0,-.8,0,-1.1,-.1c-.3,0,-.5,-.2,-.6,-.3c-.2,-.2,-.3,-.4,-.4,-.7c0,-.2,0,-.5,0,-.9v-3.9h-1v-1.1Zm6.9,7.1c-.9,0,-1.6,-.3,-2.2,-.9c-.5,-.6,-.8,-1.4,-.8,-2.4v-.7c0,-1,.3,-1.8,.8,-2.3c.6,-.6,1.3,-.9,2.2,-.9c.9,0,1.6,.3,2.1,.9c.6,.6,.8,1.4,.8,2.4v.6H621v.2c0,.6,.1,1.1,.4,1.5c.3,.3,.7,.5,1.3,.5c.3,0,.7,-.1,.9,-.2c.3,-.2,.4,-.5,.5,-.8h1.3c-.1,.6,-.4,1.1,-.9,1.5c-.4,.4,-1.1,.6,-1.9,.6ZM621,609.1h3.2c0,-.5,-.1,-1,-.4,-1.3c-.3,-.4,-.7,-.5,-1.2,-.5c-.5,0,-.9,.1,-1.2,.5c-.3,.3,-.4,.8,-.4,1.3Zm8.9,5.7c.6,0,1,-.1,1.3,-.4c.3,-.3,.5,-.7,.5,-1.2v-1.1h-.1c-.1,.3,-.4,.6,-.7,.8c-.4,.2,-.8,.3,-1.3,.3c-.8,0,-1.5,-.3,-2,-.8c-.5,-.6,-.7,-1.4,-.7,-2.4v-.6c0,-1,.2,-1.8,.7,-2.3c.5,-.6,1.2,-.9,2,-.9c.5,0,.9,.1,1.3,.3c.3,.2,.6,.5,.8,.8v-1H633v6.9c0,.4,-.1,.7,-.2,1c-.1,.3,-.2,.6,-.4,.8c-.2,.2,-.4,.3,-.7,.5c-.3,.1,-.5,.2,-.8,.3c-.3,.1,-.6,.1,-1,.1c-.8,0,-1.5,-.2,-2,-.6c-.5,-.3,-.8,-.8,-.9,-1.5h1.4c0,.3,.2,.6,.5,.8c.3,.2,.6,.2,1,.2Zm.1,-7.5c-.6,0,-1,.2,-1.3,.6c-.3,.4,-.5,.9,-.5,1.6v.4c0,.7,.2,1.3,.5,1.7c.3,.3,.7,.5,1.3,.5c.5,0,.9,-.2,1.2,-.6c.3,-.3,.5,-.9,.5,-1.6v-.4c0,-.7,-.2,-1.2,-.5,-1.6c-.3,-.4,-.7,-.6,-1.2,-.6Zm4.9,6v-7h1.4v.9c.1,-.3,.3,-.5,.6,-.7c.3,-.2,.7,-.3,1.1,-.3c.2,0,.3,0,.5,0v1.2c-.1,0,-.3,0,-.6,0c-1.1,0,-1.6,.6,-1.6,1.7v4.2Zm8.7,-.9c-.4,.7,-1.1,1,-2,1c-.7,0,-1.2,-.2,-1.7,-.6c-.4,-.4,-.6,-.9,-.6,-1.5c0,-.6,.2,-1.1,.7,-1.5c.4,-.3,1,-.5,1.8,-.5h1.8v-.7c0,-.4,-.2,-.8,-.4,-1c-.2,-.2,-.6,-.3,-1,-.3c-.4,0,-.7,.1,-1,.3c-.2,.2,-.3,.4,-.4,.8h-1.2c0,-.7,.3,-1.2,.7,-1.6c.4,-.4,1.1,-.6,1.9,-.6c.8,0,1.5,.2,2,.6c.5,.4,.7,1,.7,1.7v4.8h-1.3v-.9Zm-1.6,0c.4,0,.8,-.2,1.1,-.4c.3,-.3,.5,-.6,.5,-1v-.8H642c-.5,0,-.8,.1,-1,.3c-.2,.2,-.3,.4,-.3,.7c0,.4,.1,.7,.4,.9c.2,.2,.5,.3,.9,.3Z" class="g5_32" />
<path fill-rule="evenodd" d="M668.6,610.3l17.9,-10.4c.3,-.1,.6,0,.8,.3l1.6,2.8c-.5,.3,-.7,1,-.4,1.5c.3,.6,1,.8,1.5,.5l1.7,2.8c.1,.3,0,.6,-.2,.8l-17.9,10.3c-.3,.2,-.7,.1,-.8,-.2l-1.7,-2.8c.6,-.3,.8,-1,.5,-1.6c-.3,-.5,-1,-.7,-1.6,-.4l-1.6,-2.8c-.2,-.3,-.1,-.7,.2,-.8Zm5.2,4.5l-.4,.3l-1.5,-2.5l-.9,.5l-.2,-.4l2.3,-1.4l.2,.5l-.9,.5Zm.1,-3.9l1.7,2.9l-.5,.3l-1.7,-3Zm4.2,.6l.4,.3c-.2,.3,-.5,.6,-.9,.9c-.2,.1,-.3,.2,-.5,.2c-.2,0,-.4,0,-.6,0c-.1,0,-.3,-.1,-.4,-.2c-.2,0,-.3,-.1,-.4,-.3c-.2,-.1,-.3,-.2,-.3,-.4c-.1,-.1,-.2,-.3,-.3,-.5c0,-.1,0,-.3,0,-.5c0,-.2,0,-.3,0,-.5c.1,-.2,.2,-.3,.3,-.5c.1,-.1,.3,-.2,.4,-.3c.4,-.3,.8,-.3,1.2,-.2v.4c-.3,0,-.6,0,-.9,.2c-.1,.1,-.2,.2,-.3,.3c-.1,.1,-.1,.3,-.2,.4c0,.2,0,.3,.1,.5c0,.1,.1,.3,.2,.4c0,.2,.1,.3,.3,.4c.1,.1,.2,.2,.3,.2c.2,.1,.3,.1,.5,.1c.1,0,.3,-.1,.4,-.2c.3,-.1,.5,-.4,.7,-.7Zm-.2,-2.9l.7,1.2c.1,-.2,.2,-.9,.4,-1.9l.7,-.4l-.6,2.3c.3,0,.6,.1,1.2,.3c.5,.1,.9,.2,1.1,.3l-.6,.4l-1.9,-.6l.7,1.3l-.5,.3l-1.7,-3Zm4.1,.9l1.4,-.8l.3,.4l-1.9,1.1l-1.7,-2.9l1.8,-1.1l.3,.5l-1.4,.7l.5,.8l1.2,-.7l.3,.4l-1.3,.8Zm3.3,-1.3l-.5,.3L683.4,606l-.9,.5l-.3,-.4l2.3,-1.4l.3,.4l-1,.6Z" class="g5_32" />
<path d="M677.5,601.6l5,8.7" class="g8_32" />
<path d="M549.9,668.7v1.2h-5.5v-9h5.5V662h-4.2v2.7h4v1.2h-4v2.8Zm1.7,1.2v-7h1.3v1h.1c.1,-.3,.4,-.6,.7,-.8c.4,-.2,.8,-.3,1.3,-.3c.8,0,1.4,.2,1.8,.7c.5,.4,.7,1.1,.7,1.9v4.5h-1.3v-4.2c0,-.6,-.2,-1,-.5,-1.3c-.3,-.3,-.7,-.4,-1.1,-.4c-.6,0,-1,.1,-1.2,.5c-.3,.3,-.4,.7,-.4,1.2v4.2Zm7.4,-3.2V666c0,-.9,.3,-1.7,.8,-2.3c.6,-.6,1.3,-.9,2.2,-.9c.8,0,1.5,.2,2,.7c.4,.4,.7,.9,.7,1.5h-1.2c-.1,-.3,-.3,-.5,-.5,-.7c-.3,-.3,-.6,-.4,-.9,-.4c-.5,0,-1,.2,-1.3,.6c-.3,.4,-.4,.9,-.4,1.6v.6c0,.7,.1,1.2,.4,1.6c.4,.4,.8,.6,1.3,.6c.4,0,.7,-.1,1,-.3c.2,-.2,.3,-.4,.4,-.7h1.3c-.1,.6,-.4,1.2,-.9,1.5c-.5,.4,-1.1,.6,-1.9,.6c-.6,0,-1.1,-.1,-1.6,-.4c-.4,-.3,-.8,-.7,-1,-1.2c-.2,-.5,-.4,-1.1,-.4,-1.7Zm10.1,-3.9c.9,0,1.7,.3,2.2,.9c.6,.6,.8,1.4,.8,2.4v.6c0,1,-.2,1.8,-.8,2.4c-.5,.6,-1.3,.9,-2.2,.9c-1,0,-1.7,-.3,-2.3,-.9c-.5,-.6,-.8,-1.4,-.8,-2.4v-.6c0,-1,.3,-1.8,.8,-2.4c.6,-.6,1.3,-.9,2.3,-.9Zm1.2,1.7c-.3,-.4,-.7,-.6,-1.2,-.6c-.6,0,-1,.2,-1.3,.6c-.3,.4,-.4,.9,-.4,1.6v.6c0,.6,.1,1.2,.4,1.6c.3,.4,.7,.6,1.3,.6c.5,0,1,-.2,1.2,-.6c.3,-.4,.5,-1,.5,-1.6v-.6c0,-.7,-.2,-1.2,-.5,-1.6Zm3.5,5.4v-7h1.3v1c.2,-.3,.4,-.6,.8,-.8c.3,-.2,.8,-.3,1.3,-.3c.7,0,1.3,.2,1.8,.7c.4,.4,.7,1.1,.7,1.9v4.5h-1.4v-4.2c0,-.6,-.1,-1,-.4,-1.3c-.3,-.3,-.7,-.4,-1.2,-.4c-.5,0,-.9,.1,-1.2,.5c-.2,.3,-.4,.7,-.4,1.2v4.2Zm8.2,-7v-1.7h1.3v1.7h1.3V664h-1.3v3.9c0,.4,.1,.6,.2,.8c.2,.1,.5,.2,.9,.2c.1,0,.2,0,.3,0v1c-.2,0,-.4,0,-.7,0c-.4,0,-.7,0,-1,-.1c-.3,0,-.5,-.2,-.6,-.3c-.2,-.2,-.3,-.4,-.4,-.7c0,-.2,-.1,-.5,-.1,-.9V664H581v-1.1Zm4.3,7v-7h1.4v.9c.1,-.3,.3,-.5,.6,-.7c.3,-.2,.6,-.3,1.1,-.3c.1,0,.3,0,.5,0V664c-.2,0,-.4,0,-.6,0c-1.1,0,-1.6,.6,-1.6,1.7v4.2Zm8.6,-.9c-.3,.7,-1,1,-1.9,1c-.7,0,-1.3,-.2,-1.7,-.6c-.4,-.4,-.6,-.9,-.6,-1.5c0,-.6,.2,-1.1,.6,-1.5c.4,-.3,1,-.5,1.8,-.5h1.8v-.7c0,-.4,-.1,-.8,-.3,-1c-.3,-.2,-.6,-.3,-1,-.3c-.4,0,-.8,.1,-1,.3c-.2,.2,-.4,.4,-.4,.8h-1.3c.1,-.7,.3,-1.2,.8,-1.6c.4,-.4,1.1,-.6,1.9,-.6c.8,0,1.4,.2,1.9,.6c.5,.4,.8,1,.8,1.7v4.8H595V669Zm-1.5,0c.4,0,.8,-.2,1.1,-.4c.3,-.3,.4,-.6,.4,-1v-.8h-1.6c-.4,0,-.7,.1,-.9,.3c-.3,.2,-.4,.4,-.4,.7c0,.4,.2,.7,.4,.9c.3,.2,.6,.3,1,.3Zm4.7,.9v-7h1.4v.9c.1,-.3,.3,-.5,.6,-.7c.3,-.2,.7,-.3,1.1,-.3c.2,0,.3,0,.5,0V664c-.2,0,-.3,0,-.6,0c-1.1,0,-1.6,.6,-1.6,1.7v4.2Zm13.2,-7v7H610v-1h-.1c-.1,.4,-.3,.6,-.7,.8c-.3,.2,-.7,.3,-1.3,.3c-.7,0,-1.3,-.2,-1.7,-.6c-.5,-.4,-.7,-1.1,-.7,-1.8v-4.7h1.3v4.3c0,.6,.2,1,.5,1.2c.2,.3,.6,.4,1.1,.4c.5,0,.9,-.1,1.1,-.4c.3,-.3,.5,-.7,.5,-1.2v-4.3Zm1.7,2c0,-.3,.1,-.6,.2,-.9c.1,-.3,.3,-.5,.6,-.7c.2,-.2,.5,-.3,.8,-.4c.3,-.1,.7,-.1,1,-.1c.8,0,1.5,.2,1.9,.6c.5,.4,.7,.9,.7,1.5H617c-.1,-.3,-.2,-.6,-.4,-.8c-.2,-.2,-.5,-.3,-1,-.3c-.4,0,-.7,.1,-1,.3c-.2,.2,-.3,.4,-.3,.7c0,.1,0,.3,.1,.4c0,.1,.1,.2,.2,.2c.1,.1,.3,.2,.4,.2c.2,.1,.3,.1,.5,.1c.1,.1,.3,.1,.4,.1q.1,0,.1,0c.3,.1,.6,.2,.8,.2c.2,.1,.4,.2,.6,.3c.2,.1,.4,.2,.5,.3c.2,.1,.3,.3,.4,.5c0,.2,.1,.4,.1,.7c0,.7,-.3,1.2,-.8,1.6c-.5,.4,-1.2,.6,-2.1,.6c-.8,0,-1.4,-.2,-1.9,-.5c-.5,-.4,-.7,-.9,-.7,-1.5h1.3c0,.3,.2,.5,.4,.7c.3,.2,.6,.3,1,.3c.5,0,.9,-.1,1.1,-.3c.2,-.2,.4,-.4,.4,-.7c0,-.2,0,-.3,-.1,-.4c0,0,-.1,-.1,-.2,-.2q-.1,-.1,-.2,-.2c-.1,0,-.2,-.1,-.4,-.1c-.1,0,-.3,-.1,-.4,-.1c-.1,0,-.2,-.1,-.4,-.1c0,0,-.1,0,-.1,0c-.3,-.1,-.6,-.2,-.9,-.3c-.2,0,-.5,-.2,-.7,-.3c-.2,-.2,-.4,-.3,-.5,-.6c-.2,-.2,-.2,-.5,-.2,-.8Zm12.6,-2v7h-1.3v-1c-.2,.4,-.4,.6,-.7,.8c-.4,.2,-.8,.3,-1.3,.3c-.8,0,-1.4,-.2,-1.8,-.6c-.5,-.4,-.7,-1.1,-.7,-1.8v-4.7h1.3v4.3c0,.6,.2,1,.5,1.2c.3,.3,.6,.4,1.1,.4c.5,0,.9,-.1,1.2,-.4c.3,-.3,.4,-.7,.4,-1.2v-4.3Zm5.9,6.1c-.4,.7,-1.1,1,-2,1c-.7,0,-1.3,-.2,-1.7,-.6c-.4,-.4,-.6,-.9,-.6,-1.5c0,-.6,.2,-1.1,.6,-1.5c.5,-.3,1.1,-.5,1.9,-.5h1.7v-.7c0,-.4,-.1,-.8,-.3,-1c-.2,-.2,-.6,-.3,-1,-.3c-.4,0,-.8,.1,-1,.3c-.2,.2,-.4,.4,-.4,.8h-1.2c0,-.7,.2,-1.2,.7,-1.6c.4,-.4,1.1,-.6,1.9,-.6c.8,0,1.5,.2,1.9,.6c.5,.4,.8,1,.8,1.7v4.8h-1.3V669Zm-1.6,0c.4,0,.8,-.2,1.1,-.4c.3,-.3,.4,-.6,.4,-1v-.8h-1.6c-.4,0,-.7,.1,-.9,.3c-.2,.2,-.4,.4,-.4,.7c0,.4,.2,.7,.4,.9c.3,.2,.6,.3,1,.3Zm.7,-7h-1l1.2,-1.8h1.3Zm4,7.9v-7H636v.9c.1,-.3,.3,-.5,.6,-.7c.3,-.2,.7,-.3,1.1,-.3c.2,0,.3,0,.5,0V664c-.1,0,-.3,0,-.6,0c-1.1,0,-1.6,.6,-1.6,1.7v4.2Zm5.1,0v-7H641v7Zm.1,-8.1c-.2,-.2,-.3,-.4,-.3,-.6c0,-.2,.1,-.4,.3,-.6c.1,-.1,.3,-.2,.5,-.2c.3,0,.5,.1,.6,.2c.2,.2,.3,.4,.3,.6c0,.2,-.1,.4,-.3,.6c-.1,.1,-.3,.2,-.6,.2c-.2,0,-.4,-.1,-.5,-.2Zm6,1c1,0,1.7,.3,2.3,.9c.5,.6,.8,1.4,.8,2.4v.6c0,1,-.3,1.8,-.8,2.4c-.6,.6,-1.3,.9,-2.3,.9c-1,0,-1.7,-.3,-2.3,-.9c-.5,-.6,-.8,-1.4,-.8,-2.4v-.6c0,-1,.3,-1.8,.8,-2.4c.6,-.6,1.3,-.9,2.3,-.9Zm1.3,1.7c-.3,-.4,-.7,-.6,-1.3,-.6c-.6,0,-1,.2,-1.3,.6c-.3,.4,-.4,.9,-.4,1.6v.6c0,.6,.1,1.2,.4,1.6c.3,.4,.7,.6,1.3,.6c.6,0,1,-.2,1.3,-.6c.3,-.4,.4,-1,.4,-1.6v-.6c0,-.7,-.1,-1.2,-.4,-1.6Z" class="g5_32" />
<path d="M545.7,723.3h-1.3v-9h5.5v1.2h-4.2v2.9h3.8v1.1h-3.8Zm8.2,.2c-.9,0,-1.6,-.3,-2.2,-.9c-.5,-.6,-.8,-1.4,-.8,-2.4v-.8c0,-.9,.3,-1.7,.8,-2.3c.5,-.6,1.3,-.9,2.2,-.9c.9,0,1.6,.3,2.1,.9c.5,.6,.8,1.4,.8,2.4v.7h-4.6v.1c0,.6,.2,1.1,.5,1.5c.3,.4,.7,.6,1.2,.6c.4,0,.7,-.1,1,-.3c.2,-.2,.4,-.4,.5,-.7h1.3c-.1,.6,-.4,1.1,-.9,1.5c-.5,.4,-1.1,.6,-1.9,.6Zm-1.7,-4.3h3.3c0,-.6,-.2,-1,-.5,-1.4c-.3,-.3,-.7,-.5,-1.1,-.5c-.5,0,-.9,.2,-1.2,.5c-.3,.4,-.5,.8,-.5,1.4Zm9,4.3c-1,0,-1.7,-.3,-2.2,-.9c-.6,-.6,-.9,-1.4,-.9,-2.4v-.8c0,-.9,.3,-1.7,.8,-2.3c.6,-.6,1.3,-.9,2.2,-.9c.9,0,1.6,.3,2.2,.9c.5,.6,.7,1.4,.7,2.4v.7h-4.5v.1c0,.6,.1,1.1,.4,1.5c.3,.4,.8,.6,1.3,.6c.4,0,.7,-.1,.9,-.3c.3,-.2,.5,-.4,.6,-.7H564c-.2,.6,-.5,1.1,-.9,1.5c-.5,.4,-1.2,.6,-1.9,.6Zm-1.7,-4.3h3.2c0,-.6,-.1,-1,-.4,-1.4c-.3,-.3,-.7,-.5,-1.2,-.5c-.5,0,-.9,.2,-1.2,.5c-.3,.4,-.4,.8,-.4,1.4Zm8.6,-3c.5,0,.9,.2,1.2,.4c.4,.2,.7,.4,.8,.7h.1v-3.5h1.3v9.5h-1.3v-1c-.2,.3,-.5,.6,-.8,.8c-.4,.2,-.8,.3,-1.3,.3c-.8,0,-1.5,-.3,-2,-.8c-.5,-.6,-.7,-1.4,-.7,-2.4v-.7c0,-.9,.2,-1.7,.7,-2.3c.5,-.6,1.2,-1,2,-1Zm.3,1.2c-.5,0,-.9,.2,-1.2,.5c-.3,.4,-.5,1,-.5,1.7v.5c0,.7,.2,1.3,.5,1.6c.3,.4,.7,.6,1.2,.6c.6,0,1,-.2,1.3,-.6c.3,-.3,.5,-.9,.5,-1.6v-.5c0,-.7,-.2,-1.2,-.5,-1.6c-.3,-.4,-.7,-.6,-1.3,-.6Zm10.2,-1.2c.5,0,.9,.2,1.3,.4c.3,.2,.6,.4,.7,.7h.1v-3.5H582v9.5h-1.3v-1c-.2,.3,-.5,.6,-.8,.8c-.4,.2,-.8,.3,-1.3,.3c-.8,0,-1.5,-.3,-2,-.8c-.5,-.6,-.7,-1.4,-.7,-2.4v-.7c0,-.9,.2,-1.7,.7,-2.3c.5,-.6,1.2,-1,2,-1Zm.3,1.2c-.5,0,-.9,.2,-1.2,.5c-.3,.4,-.4,1,-.4,1.7v.5c0,.7,.1,1.3,.4,1.6c.3,.4,.7,.6,1.2,.6c.6,0,1,-.2,1.3,-.6c.4,-.3,.5,-.9,.5,-1.6v-.5c0,-.7,-.2,-1.2,-.5,-1.6c-.3,-.4,-.7,-.6,-1.3,-.6Zm7.8,6.1c-.9,0,-1.7,-.3,-2.2,-.9c-.5,-.6,-.8,-1.4,-.8,-2.4v-.8c0,-.9,.3,-1.7,.8,-2.3c.5,-.6,1.2,-.9,2.1,-.9c1,0,1.7,.3,2.2,.9c.5,.6,.8,1.4,.8,2.4v.7H585v.1c0,.6,.2,1.1,.5,1.5c.3,.4,.7,.6,1.2,.6c.4,0,.7,-.1,1,-.3c.2,-.2,.4,-.4,.5,-.7h1.3c-.1,.6,-.4,1.1,-.9,1.5c-.5,.4,-1.1,.6,-1.9,.6ZM585,719.2h3.3c0,-.6,-.2,-1,-.5,-1.4c-.3,-.3,-.7,-.5,-1.1,-.5c-.5,0,-.9,.2,-1.2,.5c-.3,.4,-.5,.8,-.5,1.4Zm12.8,3.3c-.4,.6,-1.1,1,-2,1c-.7,0,-1.2,-.2,-1.6,-.6c-.5,-.4,-.7,-.9,-.7,-1.6c0,-.6,.2,-1.1,.7,-1.4c.4,-.4,1,-.6,1.8,-.6h1.8v-.7c0,-.4,-.1,-.7,-.4,-.9c-.2,-.3,-.5,-.4,-1,-.4c-.4,0,-.7,.1,-.9,.3c-.3,.2,-.4,.5,-.4,.8h-1.3c0,-.6,.3,-1.2,.7,-1.6c.5,-.4,1.1,-.6,2,-.6c.8,0,1.4,.3,1.9,.7c.5,.4,.7,.9,.7,1.7v4.7h-1.3v-.8Zm-1.6,-.1c.5,0,.8,-.1,1.1,-.4c.3,-.2,.5,-.6,.5,-1v-.8h-1.6c-.5,0,-.8,.1,-1,.3c-.2,.2,-.3,.5,-.3,.8c0,.3,.1,.6,.4,.8c.2,.2,.5,.3,.9,.3Zm5.3,-6v-1.8h1.3v1.8h1.3v1.1h-1.3v3.8c0,.4,.1,.7,.2,.8c.2,.2,.5,.2,.9,.2c.1,0,.2,0,.3,0v1c-.2,.1,-.4,.1,-.7,.1c-.4,0,-.7,0,-1,-.1c-.3,-.1,-.5,-.2,-.6,-.4c-.2,-.2,-.3,-.4,-.4,-.6c0,-.3,-.1,-.6,-.1,-.9v-3.9h-.9v-1.1Zm4.4,6.9v-6.9h1.3v6.9Zm.1,-8.1c-.2,-.1,-.3,-.3,-.3,-.5c0,-.3,.1,-.5,.3,-.6c.1,-.2,.3,-.2,.5,-.2c.3,0,.5,0,.6,.2c.2,.1,.3,.3,.3,.6c0,.2,-.1,.4,-.3,.5c-.1,.2,-.3,.3,-.6,.3c-.2,0,-.4,-.1,-.5,-.3Zm4.8,8.1l-2.4,-6.9h1.4l1.7,5.5l1.9,-5.5h1.3l-2.5,6.9Zm5,0v-6.9h1.3v6.9Zm.1,-8.1c-.2,-.1,-.3,-.3,-.3,-.5c0,-.3,.1,-.5,.3,-.6c.1,-.2,.3,-.2,.5,-.2c.3,0,.5,0,.6,.2c.2,.1,.3,.3,.3,.6c0,.2,-.1,.4,-.3,.5c-.1,.2,-.3,.3,-.6,.3c-.2,0,-.4,-.1,-.5,-.3Zm5.7,1c.4,0,.8,.2,1.2,.4c.3,.2,.6,.4,.8,.7v-3.5H625v9.5h-1.3v-1h-.1c-.2,.3,-.4,.6,-.8,.8c-.3,.2,-.8,.3,-1.2,.3c-.9,0,-1.6,-.3,-2,-.8c-.5,-.6,-.8,-1.4,-.8,-2.4v-.7c0,-.9,.3,-1.7,.8,-2.3c.5,-.6,1.1,-1,2,-1Zm.3,1.2c-.5,0,-.9,.2,-1.2,.5c-.4,.4,-.5,1,-.5,1.7v.5c0,.7,.1,1.3,.5,1.6c.3,.4,.7,.6,1.2,.6c.5,0,1,-.2,1.3,-.6c.3,-.3,.4,-.9,.4,-1.6v-.5c0,-.7,-.1,-1.2,-.4,-1.6c-.4,-.4,-.8,-.6,-1.3,-.6Zm8.9,5.1c-.4,.6,-1.1,1,-2,1c-.7,0,-1.2,-.2,-1.6,-.6c-.5,-.4,-.7,-.9,-.7,-1.6c0,-.6,.2,-1.1,.7,-1.4c.4,-.4,1,-.6,1.8,-.6h1.8v-.7c0,-.4,-.1,-.7,-.4,-.9c-.2,-.3,-.5,-.4,-1,-.4c-.4,0,-.7,.1,-.9,.3c-.3,.2,-.4,.5,-.4,.8h-1.3c0,-.6,.3,-1.2,.7,-1.6c.5,-.4,1.1,-.6,2,-.6c.8,0,1.4,.3,1.9,.7c.5,.4,.7,.9,.7,1.7v4.7h-1.3v-.8Zm-1.6,-.1c.5,0,.8,-.1,1.1,-.4c.3,-.2,.5,-.6,.5,-1v-.8h-1.6c-.5,0,-.8,.1,-1,.3c-.2,.2,-.3,.5,-.3,.8c0,.3,.1,.6,.4,.8c.2,.2,.5,.3,.9,.3Zm7.3,-6.2c.4,0,.8,.2,1.2,.4c.3,.2,.6,.4,.8,.7v-3.5h1.3v9.5h-1.3v-1c-.2,.3,-.5,.6,-.8,.8c-.4,.2,-.8,.3,-1.2,.3c-.9,0,-1.6,-.3,-2.1,-.8c-.5,-.6,-.7,-1.4,-.7,-2.4v-.7c0,-.9,.3,-1.7,.7,-2.3c.5,-.6,1.2,-1,2.1,-1Zm.2,1.2c-.5,0,-.9,.2,-1.2,.5c-.3,.4,-.4,1,-.4,1.7v.5c0,.7,.1,1.3,.4,1.6c.3,.4,.7,.6,1.3,.6c.5,0,.9,-.2,1.2,-.6c.4,-.3,.5,-.9,.5,-1.6v-.5c0,-.7,-.1,-1.2,-.5,-1.6c-.3,-.4,-.7,-.6,-1.3,-.6Zm7.8,6.1c-.9,0,-1.7,-.3,-2.2,-.9c-.5,-.6,-.8,-1.4,-.8,-2.4v-.8c0,-.9,.3,-1.7,.8,-2.3c.5,-.6,1.2,-.9,2.2,-.9c.9,0,1.6,.3,2.1,.9c.5,.6,.8,1.4,.8,2.4v.7h-4.6v.1c0,.6,.2,1.1,.5,1.5c.3,.4,.7,.6,1.2,.6c.4,0,.7,-.1,1,-.3c.2,-.2,.4,-.4,.5,-.7h1.3c-.1,.6,-.4,1.1,-.9,1.5c-.5,.4,-1.1,.6,-1.9,.6Zm-1.7,-4.3h3.3c0,-.6,-.2,-1,-.5,-1.4c-.3,-.3,-.7,-.5,-1.1,-.5c-.5,0,-.9,.2,-1.2,.5c-.3,.4,-.5,.8,-.5,1.4Zm6,-.8c0,-.4,0,-.7,.2,-1c.1,-.3,.3,-.5,.6,-.7c.2,-.1,.5,-.2,.8,-.3c.3,-.1,.7,-.2,1,-.2c.8,0,1.4,.2,1.9,.6c.4,.4,.7,.9,.7,1.6h-1.3c0,-.4,-.1,-.6,-.3,-.8c-.2,-.2,-.6,-.3,-1,-.3c-.4,0,-.7,.1,-1,.2c-.2,.2,-.4,.4,-.4,.7c0,.2,.1,.3,.1,.4c.1,.1,.2,.2,.3,.3c.1,.1,.2,.1,.4,.2c.1,0,.3,.1,.4,.1c.2,0,.3,.1,.5,.1h.1c.3,0,.5,.1,.7,.2c.3,0,.5,.1,.7,.2c.2,.1,.4,.2,.5,.4c.1,.1,.2,.3,.3,.5c.1,.2,.1,.4,.1,.6c0,.7,-.2,1.3,-.7,1.7c-.5,.4,-1.2,.6,-2.1,.6c-.8,0,-1.5,-.2,-1.9,-.6c-.5,-.3,-.8,-.8,-.8,-1.5h1.3c.1,.3,.2,.6,.5,.8c.2,.1,.6,.2,1,.2c.5,0,.8,-.1,1.1,-.3c.2,-.2,.3,-.4,.3,-.7c0,-.1,0,-.2,0,-.3c0,-.1,-.1,-.2,-.2,-.2c-.1,-.1,-.2,-.2,-.3,-.2c0,-.1,-.1,-.1,-.3,-.2c-.2,0,-.3,0,-.4,-.1c-.1,0,-.2,0,-.4,0c-.1,0,-.1,-.1,-.1,-.1c-.4,0,-.7,-.1,-.9,-.2c-.3,-.1,-.5,-.2,-.8,-.4c-.2,-.1,-.4,-.3,-.5,-.5c-.1,-.2,-.1,-.5,-.1,-.8Z" class="g5_32" />
<path fill-rule="evenodd" d="M672.7,726c1.4,.1,3,0,4.5,0c0,-.5,0,-4.2,0,-4.4c.2,0,2.8,0,3,0c0,.2,0,3.9,0,4.4c1.5,0,3.1,.1,4.5,0c.3,0,.5,-.3,.6,-.6c0,-.2,0,-4.4,0,-5.3c0,-.3,.1,-.3,-.1,-.5c-.5,-.3,-.9,-.7,-1.3,-1c-.4,-.4,-.9,-.7,-1.3,-1.1c-.1,-.1,-.2,-.2,-.3,-.3c-.7,-.5,-1.6,-1.3,-2.3,-1.8c-.2,-.2,-1.2,-1,-1.3,-1.1c-.2,.1,-.5,.4,-.6,.5c-.3,.2,-.5,.4,-.7,.5c-.4,.4,-.9,.8,-1.3,1.1l-3.9,3.2c-.2,.2,-.1,.2,-.1,.5c0,.9,0,5,0,5.3c0,.3,.3,.6,.6,.6Z" class="g5_32" />
<path fill-rule="evenodd" d="M678.7,713.3c.3,.2,2.6,2.2,3,2.5c.9,.7,2.1,1.7,3,2.5l1.7,1.4c.2,.1,.4,.4,.7,.2c.1,-.1,.3,-.3,.3,-.4c.7,-.8,.9,-.7,-.6,-1.8l-1.5,-1.3c0,-1.5,0,-3.2,0,-4.6c0,-.2,-.1,-.4,-.2,-.4c-.3,-.1,-2.4,-.1,-2.6,0c-.2,.2,-.1,.8,-.1,1.2c0,.4,0,.9,0,1.3c-.2,0,-2.6,-2.1,-2.8,-2.3c-.5,-.4,-1.3,-.4,-1.8,0l-1.4,1.2c-.8,.6,-1.9,1.6,-2.7,2.3l-4.1,3.4c-.3,.3,0,.6,.2,.8c.1,.1,.4,.6,.6,.6c.2,.1,.3,0,.4,-.1c.8,-.6,1.7,-1.3,2.4,-2c.6,-.5,1.4,-1.1,2.1,-1.7Z" class="g5_32" />
<path fill-rule="evenodd" d="M672.7,726c0,.1,.9,0,1.1,0c.6,0,3.2,.1,3.4,0v-4.4h3V726c.1,.1,3.5,0,4.3,0c.1,0,.2,.1,.2,0c-1.4,.1,-3,0,-4.5,0c0,-.5,0,-4.2,0,-4.4c-.2,0,-2.8,0,-3,0c0,.2,0,3.9,0,4.4c-1.5,0,-3.1,.1,-4.5,0Z" class="g5_32" />
<path d="M549.6,447.5v1.2H544v-9.1h5.6v1.2h-4.2v2.7h3.9v1.1h-3.9v2.9Zm3.1,1.2l-2.4,-7h1.4l1.7,5.5h.1l1.8,-5.5h1.4l-2.5,7Zm7.6,.1c-.9,0,-1.6,-.3,-2.2,-.9c-.5,-.6,-.8,-1.4,-.8,-2.4v-.8c0,-.9,.3,-1.7,.8,-2.3c.5,-.6,1.3,-.8,2.2,-.8c.9,0,1.6,.3,2.1,.8c.6,.6,.8,1.4,.8,2.4v.7h-4.5v.1c0,.6,.1,1.1,.4,1.5c.3,.4,.7,.6,1.3,.6c.3,0,.7,-.1,.9,-.3c.3,-.1,.4,-.4,.5,-.7h1.3c-.1,.6,-.4,1.1,-.9,1.5c-.4,.4,-1.1,.6,-1.9,.6Zm-1.6,-4.3h3.2c0,-.6,-.1,-1,-.4,-1.3c-.3,-.4,-.7,-.6,-1.2,-.6c-.5,0,-.9,.2,-1.2,.6c-.3,.3,-.4,.7,-.4,1.3Zm6.1,4.2v-7h1.4v.9c.2,-.3,.4,-.5,.8,-.7c.3,-.2,.7,-.3,1.2,-.3c.8,0,1.4,.2,1.8,.6c.5,.5,.7,1.1,.7,2v4.5h-1.3v-4.3c0,-.5,-.2,-.9,-.5,-1.2c-.2,-.3,-.6,-.5,-1.1,-.5c-.5,0,-.9,.2,-1.2,.5c-.3,.3,-.4,.8,-.4,1.3v4.2Zm8.2,-7V440h1.3v1.7h1.4v1.1h-1.4v3.8c0,.4,.1,.7,.3,.8c.1,.2,.4,.2,.8,.2c.1,0,.2,0,.4,0v1.1c-.2,0,-.4,0,-.7,0c-.4,0,-.8,0,-1,-.1c-.3,-.1,-.5,-.2,-.7,-.4c-.1,-.2,-.2,-.4,-.3,-.6c-.1,-.2,-.1,-.5,-.1,-.9v-3.9h-.9v-1.1Zm7.1,-.1c.9,0,1.7,.3,2.2,.9c.5,.6,.8,1.4,.8,2.4v.5c0,1,-.3,1.8,-.8,2.5c-.5,.6,-1.3,.9,-2.2,.9c-1,0,-1.8,-.3,-2.3,-.9c-.5,-.7,-.8,-1.5,-.8,-2.5v-.5c0,-1,.3,-1.8,.8,-2.4c.5,-.6,1.3,-.9,2.3,-.9Zm1.2,1.7c-.3,-.4,-.7,-.6,-1.2,-.6c-.6,0,-1,.2,-1.3,.6c-.3,.4,-.5,.9,-.5,1.6v.5c0,.7,.2,1.2,.5,1.7c.3,.4,.7,.6,1.3,.6c.5,0,.9,-.2,1.2,-.6c.3,-.4,.5,-1,.5,-1.7v-.5c0,-.7,-.2,-1.2,-.5,-1.6Zm3.2,.4c0,-.4,.1,-.7,.2,-1c.2,-.3,.4,-.5,.6,-.6c.3,-.2,.5,-.3,.8,-.4c.4,-.1,.7,-.1,1,-.1c.9,0,1.5,.2,1.9,.5c.5,.4,.7,.9,.7,1.6h-1.2c0,-.3,-.2,-.6,-.4,-.8c-.2,-.2,-.5,-.3,-1,-.3c-.4,0,-.7,.1,-1,.2c-.2,.2,-.3,.5,-.3,.8c0,.1,0,.2,.1,.3c0,.1,.1,.2,.2,.3c.2,.1,.3,.1,.4,.2c.2,0,.3,.1,.5,.1c.1,0,.3,.1,.4,.1q.1,0,.1,0c.3,.1,.6,.1,.8,.2c.2,0,.4,.1,.6,.2c.2,.1,.4,.2,.5,.4c.2,.1,.3,.3,.4,.5c0,.2,.1,.4,.1,.7c0,.7,-.3,1.2,-.8,1.6c-.5,.4,-1.2,.6,-2.1,.6c-.8,0,-1.4,-.2,-1.9,-.6c-.5,-.3,-.7,-.8,-.7,-1.5h1.3c0,.4,.2,.6,.4,.8c.3,.2,.6,.2,1,.2c.5,0,.9,-.1,1.1,-.2c.3,-.2,.4,-.5,.4,-.8c0,-.1,0,-.2,-.1,-.3c0,-.1,-.1,-.2,-.2,-.2c-.1,-.1,-.1,-.2,-.2,-.2c-.1,-.1,-.2,-.1,-.4,-.1c-.1,-.1,-.3,-.1,-.4,-.1c0,-.1,-.2,-.1,-.4,-.1c0,0,-.1,0,-.1,0c-.3,-.1,-.6,-.2,-.9,-.3c-.2,-.1,-.5,-.2,-.7,-.3c-.2,-.2,-.4,-.4,-.5,-.6c-.2,-.2,-.2,-.5,-.2,-.8Z" class="g5_32" />
<path fill-rule="evenodd" d="M672.4,436.9h1v1.5c0,.8,.7,1.5,1.5,1.5h.6c.8,0,1.4,-.7,1.4,-1.5v-1.5H683v1.5c0,.8,.6,1.5,1.4,1.5h.6c.8,0,1.5,-.7,1.5,-1.5v-1.5h.9c.9,0,1.6,.8,1.6,1.6v12.9c0,.9,-.7,1.6,-1.6,1.6h-15c-.9,0,-1.6,-.7,-1.6,-1.6V438.5c0,-.8,.7,-1.6,1.6,-1.6Zm15,4.9c-5,0,-10,0,-15,0v8.3c0,.7,.5,1.2,1.2,1.2c4.2,0,8.4,0,12.7,0c.6,0,1.1,-.5,1.1,-1.2Z" class="g5_32" />
<path fill-rule="evenodd" d="M675.2,434.9c.4,0,.8,.4,.8,.9v2.3c0,.5,-.4,.9,-.8,.9c-.5,0,-.9,-.4,-.9,-.9v-2.3c0,-.5,.4,-.9,.9,-.9Z" class="g5_32" />
<path fill-rule="evenodd" d="M684.7,434.9c.5,0,.9,.4,.9,.9v2.3c0,.5,-.4,.9,-.9,.9c-.4,0,-.8,-.4,-.8,-.9v-2.3c0,-.5,.4,-.9,.8,-.9Z" class="g5_32" />
<path fill-rule="evenodd" d="M676.2,443.6c.6,0,1.2,.5,1.2,1.1c0,.6,-.6,1.2,-1.2,1.2c-.6,0,-1.1,-.6,-1.1,-1.2c0,-.6,.5,-1.1,1.1,-1.1Z" class="g5_32" />
<path fill-rule="evenodd" d="M679.9,443.6c.7,0,1.2,.5,1.2,1.1c0,.6,-.5,1.2,-1.2,1.2c-.6,0,-1.1,-.6,-1.1,-1.2c0,-.6,.5,-1.1,1.1,-1.1Z" class="g5_32" />
<path fill-rule="evenodd" d="M683.6,443.6c.7,0,1.2,.5,1.2,1.1c0,.6,-.5,1.2,-1.2,1.2c-.6,0,-1.1,-.6,-1.1,-1.2c0,-.6,.5,-1.1,1.1,-1.1Z" class="g5_32" />
<path fill-rule="evenodd" d="M676.2,447.2c.6,0,1.2,.5,1.2,1.1c0,.7,-.6,1.2,-1.2,1.2c-.6,0,-1.1,-.5,-1.1,-1.2c0,-.6,.5,-1.1,1.1,-1.1Z" class="g5_32" />
<path fill-rule="evenodd" d="M679.9,447.2c.7,0,1.2,.5,1.2,1.1c0,.7,-.5,1.2,-1.2,1.2c-.6,0,-1.1,-.5,-1.1,-1.2c0,-.6,.5,-1.1,1.1,-1.1Z" class="g5_32" />
<path fill-rule="evenodd" d="M683.6,447.2c.7,0,1.2,.5,1.2,1.1c0,.7,-.5,1.2,-1.2,1.2c-.6,0,-1.1,-.5,-1.1,-1.2c0,-.6,.5,-1.1,1.1,-1.1Z" class="g5_32" />
<path d="M545.3,503.7H544v-9h1.3l4.4,6.7v-6.7H551v9h-1.2L545.4,497h-.1Zm10.5,-7.1c1,0,1.7,.3,2.2,.9c.6,.6,.9,1.4,.9,2.4v.6c0,1,-.3,1.8,-.9,2.4c-.5,.6,-1.2,.9,-2.2,.9c-1,0,-1.7,-.3,-2.3,-.9c-.5,-.6,-.8,-1.4,-.8,-2.4v-.6c0,-1,.3,-1.8,.8,-2.4c.6,-.6,1.3,-.9,2.3,-.9Zm1.3,1.7c-.3,-.4,-.8,-.6,-1.3,-.6c-.6,0,-1,.2,-1.3,.6c-.3,.4,-.4,.9,-.4,1.6v.6c0,.6,.1,1.2,.4,1.6c.3,.4,.7,.6,1.3,.6c.5,0,1,-.2,1.3,-.6c.3,-.4,.4,-.9,.4,-1.6v-.6c0,-.7,-.1,-1.2,-.4,-1.6Zm3.9,-1.6V495h1.3v1.7h1.4v1.1h-1.4v3.9c0,.4,.1,.6,.2,.8c.2,.1,.5,.2,.9,.2c.1,0,.2,0,.3,0v1c-.2,0,-.4,.1,-.6,.1c-.5,0,-.8,-.1,-1.1,-.2c-.2,0,-.5,-.2,-.6,-.3c-.2,-.2,-.3,-.4,-.3,-.7c-.1,-.2,-.1,-.5,-.1,-.9v-3.9h-1v-1.1Zm5.5,-.9h-1l1.2,-1.8H568Zm-1.1,7.9v-7h1.3v7Zm3.1,-3.2v-.6c0,-1,.2,-1.8,.7,-2.4c.6,-.6,1.3,-.9,2.2,-.9c.8,0,1.5,.2,2,.7c.5,.4,.7,.9,.8,1.5h-1.3c-.1,-.3,-.3,-.5,-.5,-.7c-.3,-.3,-.6,-.4,-.9,-.4c-.5,0,-1,.2,-1.3,.6c-.3,.4,-.4,.9,-.4,1.6v.6c0,.7,.2,1.2,.5,1.6c.3,.4,.7,.6,1.2,.6c.4,0,.7,-.1,1,-.3c.2,-.2,.4,-.4,.4,-.7h1.3c-.1,.6,-.4,1.2,-.9,1.5c-.5,.4,-1.1,.6,-1.9,.6c-.6,0,-1.1,-.1,-1.6,-.4c-.4,-.3,-.8,-.7,-1,-1.2c-.2,-.5,-.3,-1.1,-.3,-1.7Zm7.3,3.2v-7h1.3v7Zm.1,-8.1c-.2,-.2,-.3,-.4,-.3,-.6c0,-.2,.1,-.4,.3,-.5c.1,-.2,.3,-.3,.5,-.3c.3,0,.5,.1,.6,.3c.2,.1,.3,.3,.3,.5c0,.2,-.1,.4,-.3,.6c-.1,.1,-.3,.2,-.6,.2c-.2,0,-.4,-.1,-.5,-.2Zm7.1,7.2c-.4,.7,-1.1,1,-2,1c-.7,0,-1.2,-.2,-1.7,-.6c-.4,-.4,-.6,-.9,-.6,-1.5c0,-.6,.2,-1.1,.7,-1.5c.4,-.3,1,-.5,1.8,-.5H583V499c0,-.4,-.1,-.8,-.4,-1c-.2,-.2,-.6,-.3,-1,-.3c-.4,0,-.7,.1,-1,.3c-.2,.2,-.3,.4,-.4,.8H579c0,-.7,.3,-1.2,.7,-1.6c.4,-.4,1.1,-.6,1.9,-.6c.8,0,1.5,.2,2,.6c.5,.4,.7,1,.7,1.7v4.8H583v-.9Zm-1.6,0c.4,0,.8,-.2,1.1,-.4c.3,-.3,.5,-.6,.5,-1v-.8h-1.6c-.5,0,-.8,.1,-1,.3c-.2,.2,-.3,.4,-.3,.7c0,.4,.1,.7,.4,.9c.2,.2,.5,.3,.9,.3Zm4.5,-4.1c0,-.3,.1,-.6,.2,-.9c.2,-.3,.4,-.5,.6,-.7c.3,-.2,.5,-.3,.9,-.4c.3,-.1,.6,-.1,1,-.1c.8,0,1.4,.2,1.8,.6c.5,.4,.7,.9,.7,1.5h-1.2c0,-.3,-.2,-.5,-.4,-.8c-.2,-.2,-.5,-.3,-1,-.3c-.4,0,-.7,.1,-.9,.3c-.3,.2,-.4,.4,-.4,.7c0,.1,0,.3,.1,.4c.1,.1,.1,.2,.3,.2c.1,.1,.2,.2,.3,.2c.2,.1,.3,.1,.5,.1c.1,.1,.3,.1,.5,.1v.1c.3,0,.6,.1,.8,.1c.2,.1,.4,.2,.6,.3c.2,.1,.4,.2,.5,.3c.2,.1,.3,.3,.4,.5c0,.2,.1,.4,.1,.7c0,.7,-.3,1.2,-.8,1.6c-.5,.4,-1.2,.6,-2,.6c-.9,0,-1.5,-.2,-2,-.5c-.5,-.4,-.7,-.9,-.7,-1.5h1.3c0,.3,.2,.5,.4,.7c.3,.2,.6,.3,1,.3c.5,0,.9,-.1,1.1,-.3c.3,-.2,.4,-.4,.4,-.7c0,-.1,0,-.3,-.1,-.3c0,-.1,-.1,-.2,-.2,-.3c0,-.1,-.1,-.1,-.2,-.2c-.1,0,-.2,-.1,-.4,-.1c-.1,0,-.3,-.1,-.3,-.1c-.1,0,-.3,0,-.5,-.1h-.1c-.3,-.1,-.6,-.2,-.9,-.2c-.2,-.1,-.5,-.3,-.7,-.4c-.2,-.1,-.4,-.3,-.5,-.6c-.1,-.2,-.2,-.5,-.2,-.8Z" class="g5_32" />
<path fill-rule="evenodd" d="M673.6,507.2h-1.4c-.8,0,-1.4,-.6,-1.4,-1.4V494.4c0,-.3,.3,-.6,.6,-.6h2.2v.7h-1.8c-.2,0,-.4,.2,-.4,.4v10.2c0,.6,.5,1.1,1.1,1.1h1.1Z" class="g5_32" />
<path fill-rule="evenodd" d="M674.7,491.3h13.4c.5,0,.9,.4,.9,1v12.5c0,1.3,-1.1,2.4,-2.4,2.4h-13V492.4c0,-.6,.5,-1.1,1.1,-1.1Z" class="g5_32" />
<path d="M687.4,497.6H675.3m12.1,2.6H675.3m12.1,2.4H675.3" class="g6_32" />
<path fill-rule="evenodd" d="M671.3,336.8l2.7,-.4c0,-1,.2,-2,.6,-2.9c.8,-1.7,2.1,-2.9,3.9,-3.5c.5,-.2,1.5,-.4,2.1,-.3v1.2l1,-.9c.1,-.2,.2,-.3,.3,-.4c.3,-.3,1.1,-1.1,1.3,-1.2c-.1,-.2,-2,-2,-2.3,-2.4c-.1,-.1,-.2,-.2,-.3,-.3V327c-.3,0,-1.2,0,-2,.2c-2.3,.5,-4.2,1.9,-5.5,3.6c-.3,.4,-.6,.9,-.8,1.4c-.3,.6,-.5,1,-.7,1.7c0,.3,-.1,.6,-.2,.9c0,.2,0,.9,-.1,1Z" class="g5_32" />
<path fill-rule="evenodd" d="M686.8,334l2.4,-1.1c.2,.6,.4,1.3,.5,2c.1,.2,.1,.8,.1,.9v1c0,.1,-.1,.8,-.1,1c-.7,3.8,-3.4,6.7,-7.1,7.5c-.9,.2,-1.8,.2,-2,.3v1.2c-.2,-.1,-.5,-.4,-.7,-.6l-1.3,-1.3c-.2,-.2,-.6,-.6,-.6,-.7c.2,-.2,.9,-1,1.3,-1.3l1.3,-1.3v1.3c.5,0,1.6,-.2,2.1,-.4c1.7,-.6,3.1,-1.7,3.9,-3.5c.7,-1.5,.8,-3.4,.2,-5Z" class="g5_32" />
<path fill-rule="evenodd" d="M687.7,329.3c-.1,.2,-.5,.4,-.7,.5c-.7,.3,-1.5,.3,-2.1,0c-.2,-.1,-.6,-.3,-.8,-.5c-1,.5,-1.7,1.5,-2,2.6c0,.4,-.1,.7,.4,.7h6.9c.5,0,.4,-.3,.3,-.7c-.2,-1.1,-1,-2.1,-2,-2.6Zm-1.8,-3.9c1.2,0,2.1,.9,2.1,2.1c0,1.2,-.9,2.1,-2.1,2.1c-1.1,0,-2.1,-.9,-2.1,-2.1c0,-1.2,1,-2.1,2.1,-2.1Z" class="g2_32" />
<path fill-rule="evenodd" d="M676.3,340.4c-.2,.2,-.5,.4,-.8,.5c-.6,.3,-1.4,.3,-2,0c-.2,-.1,-.5,-.3,-.7,-.5c-1,.5,-1.7,1.5,-1.9,2.6c-.1,.4,-.2,.6,.3,.6h6.7c.4,0,.4,-.3,.3,-.6c-.2,-1.1,-1,-2.1,-1.9,-2.6Zm-1.8,-3.7c1.2,0,2.1,.9,2.1,2c0,1.1,-.9,2,-2.1,2c-1.1,0,-2,-.9,-2,-2c0,-1.1,.9,-2,2,-2Z" class="g2_32" />
<path fill-rule="evenodd" d="M683.7,388.2c1.1,-1.1,2.7,.5,1.6,1.5c-.7,.7,-1.7,.3,-1.9,-.5c-.1,-.4,0,-.7,.3,-1Zm-4.2,-7.3h.9c1.1,0,2.2,.3,3.3,.7c.5,.2,.9,.4,1.4,.7l.9,.6c.1,.1,.2,.2,.3,.3c.7,.6,1.5,1.4,1.9,2.2c.7,1.4,.9,2.1,.9,3.8c0,1.6,-.7,3.2,-1.7,4.5c-.1,.1,-.2,.2,-.3,.3l-.8,.7c-.2,.3,-.9,.7,-1.2,.9c-1.9,1.1,-4.1,1.6,-6.4,1.3c-.5,0,-.4,-.1,-.8,.1c-.9,.6,-2.2,1.3,-3.1,1.9c-.2,.2,-.4,.3,-.6,.4c0,-1.2,0,-2.3,0,-3.4c0,-.5,0,-.6,-.1,-.8c-.7,-.5,-1.3,-1,-1.8,-1.6c-.4,-.6,-.6,-.9,-.9,-1.6c-.5,-1,-.7,-2,-.7,-3.2c0,-.6,.2,-1.3,.3,-1.8c.5,-1.6,1.3,-2.6,2.5,-3.7l.6,-.5c.2,-.1,.4,-.3,.6,-.4c1.5,-.9,3.1,-1.3,4.8,-1.4Zm-.6,7.6c.4,-1,2.1,-.9,2.2,.4c0,1.2,-1.7,1.6,-2.2,.5c-.1,-.4,-.2,-.5,0,-.9Zm-4.4,-.3c1.1,-1.1,2.7,.5,1.6,1.5c-.2,.2,-.4,.4,-.7,.4c-.4,0,-.7,-.2,-.9,-.3c-.4,-.5,-.4,-1.2,0,-1.6Z" class="g5_32" />
<image preserveAspectRatio="none" x="163" y="198" width="326" height="676" xlink:href="img/3.png" />
<path d="M78.9,231.1h57.9v6.4H78.9Z" class="g9_32" />
<path d="M78.9,211.7h57.9v6.5H78.9Z" class="g9_32" />
<path d="M78.9,250.4h57.9v6.4H78.9Z" class="g9_32" />
<path d="M107.8,275c22.5,0,40.8,-18.2,40.8,-40.7c0,-22.5,-18.3,-40.7,-40.8,-40.7c-22.4,0,-40.7,18.2,-40.7,40.7c0,22.5,18.3,40.7,40.7,40.7Zm39.7,-50.1l43.1,59.9L131,267.8" class="g10_32" />
<path fill-rule="evenodd" d="M680.8,769.3c0,-.6,-.1,-.8,.2,-1.1c.4,-.4,4.3,-.5,5.1,-.5c.8,-.1,1.9,-.1,1.6,-1.2c-.2,-.8,-1.2,-.6,-2.1,-.5c-4.3,.3,-6.4,.4,-10.9,.1c-.9,0,-1.7,-.1,-2.6,-.1c-.5,-.1,-1.9,-.3,-1.7,.9c.1,.9,1.3,.7,2.1,.8c5.7,.3,4.9,-.2,4.7,3.4c-.1,1.8,-.2,3.4,-.6,5c-.2,.8,-.4,1.5,-.6,2.2c-.4,1.1,-.4,1.2,-.8,2c-.5,.9,.5,1.6,1.2,1.1c1.2,-.9,1.9,-4.9,2.2,-6.4c0,-.2,.1,-.9,.7,-.6c.2,.1,.2,.2,.3,.5l.6,2.9c.2,1.2,.9,3.5,1.8,3.7c.5,.2,.9,-.1,1,-.3c.3,-.6,0,-.8,-.2,-1.1c-.7,-1.3,-1.6,-5.3,-1.7,-6.8Z" class="g5_32" />
<path fill-rule="evenodd" d="M678.6,760.8c-1.3,.2,-2.3,1.3,-2.1,2.9c.5,3.2,5.6,2.5,5,-.9c-.2,-1.2,-1.4,-2.3,-2.9,-2Z" class="g5_32" />
<image preserveAspectRatio="none" x="908" y="722" width="910" height="564" xlink:href="img/4.png" />
<image x="908" y="-1" width="913" height="1290" xlink:href="shade/4.png" />
</svg>