<?xml version="1.0" encoding="UTF-8" standalone="no"?>
<!DOCTYPE svg PUBLIC "-//W3C//DTD SVG 1.1//EN"
"http://www.w3.org/Graphics/SVG/1.1/DTD/svg11.dtd">
<svg viewBox="0 0 909 1286" version="1.1" xmlns="http://www.w3.org/2000/svg" xmlns:xlink="http://www.w3.org/1999/xlink">
<defs>
<clipPath id="c0_2"><path d="M134.9,919.8C107,919.8,84.5,897.3,84.5,869.4C84.5,841.6,107,819,134.9,819c27.8,0,50.4,22.6,50.4,50.4c0,27.9,-22.6,50.4,-50.4,50.4Z" /></clipPath>
<clipPath id="c1_2"><path d="M599.3,919.8c-27.8,0,-50.4,-22.5,-50.4,-50.4c0,-27.8,22.6,-50.4,50.4,-50.4c27.9,0,50.5,22.6,50.5,50.4c0,27.9,-22.6,50.4,-50.5,50.4Z" /></clipPath>
<clipPath id="c2_2"><path d="M286.1,919.8c-27.8,0,-50.4,-22.5,-50.4,-50.4c0,-27.8,22.6,-50.4,50.4,-50.4c27.9,0,50.5,22.6,50.5,50.4c0,27.9,-22.6,50.4,-50.5,50.4Z" /></clipPath>
<clipPath id="c3_2"><path d="M768.8,919.8c-27.8,0,-50.4,-22.5,-50.4,-50.4C718.4,841.6,741,819,768.8,819c27.9,0,50.5,22.6,50.5,50.4c0,27.9,-22.6,50.4,-50.5,50.4Z" /></clipPath>
<clipPath id="c4_2"><path d="M438.1,919.8c-27.9,0,-50.5,-22.5,-50.5,-50.4c0,-27.8,22.6,-50.4,50.5,-50.4c27.8,0,50.4,22.6,50.4,50.4c0,27.9,-22.6,50.4,-50.4,50.4Z" /></clipPath>
<style type="text/css"><![CDATA[
.g0_2{
fill: #62D9D7;
}
.g1_2{
fill: #0ABBB5;
}
.g2_2{
fill: none;
stroke: #FEFEFE;
stroke-width: 2.1653194;
stroke-linecap: butt;
stroke-linejoin: miter;
stroke-miterlimit: 22;
}
.g3_2{
fill: #FFFFFF;
}
.g4_2{
fill: #FFFFFF;
stroke: #FEFEFE;
stroke-width: 0.33;
stroke-linecap: butt;
stroke-linejoin: miter;
stroke-miterlimit: 22;
}
.g5_2{
fill: none;
stroke: #FEFEFE;
stroke-width: 4.330639;
stroke-linecap: butt;
stroke-linejoin: miter;
stroke-miterlimit: 22;
}
.g6_2{
fill: #FEFEFE;
}
.g7_2{
fill: #FFBF00;
fill-opacity: 0.4;
}
]]></style>
</defs>
<path fill-rule="evenodd" d="M0,0H909.4V1286.2H0Z" class="g0_2" />
<path fill-rule="evenodd" d="M58.5,64.3H850.9V1222H58.5Z" class="g1_2" />
<path d="M281.1,363.2H823.3V757.9H281.1Z" class="g2_2" />
<path fill-rule="evenodd" d="M80.3,107.6v-5.9l5.1,-2.9l5.2,2.9v6l-5.1,2.9Z" class="g3_2" />
<path fill-rule="evenodd" d="M96.7,97.1V89.8l6.2,-3.5l6.1,3.6l-.1,7.1l-6,3.5Z" class="g3_2" />
<path fill-rule="evenodd" d="M86.5,98.1V93.4L90.6,91l4.1,2.4l-.1,4.7l-4,2.3Z" class="g3_2" />
<path fill-rule="evenodd" d="M90.5,114.8v-3.6l3.2,-1.8l3,1.8v3.6l-3,1.8Z" class="g3_2" />
<path fill-rule="evenodd" d="M97.8,116.6v-6l5.1,-2.9l5.1,2.9l-.1,5.9l-5,2.9Z" class="g3_2" />
<path fill-rule="evenodd" d="M102.9,106.4v-4.7L107,99.4l3.9,2.3v4.6l-3.9,2.3Z" class="g3_2" />
<path fill-rule="evenodd" d="M141.3,97.6h7.1V94.3H137v18.6h4.3v-7.5h6.5v-3.3h-6.5Z" class="g3_2" />
<path fill-rule="evenodd" d="M162.2,105.6h2.9v3.9c-2.1,.5,-4,.3,-5.7,-.8c-5.6,-4,-.3,-14.8,8.1,-10.2l1.1,-3.4c-7.1,-2.7,-16.1,0,-15.8,8.5c0,4.6,2,7.5,5.9,8.9c3.6,.9,7,.8,10.4,-.4v-9.8h-6.9Z" class="g3_2" />
<path fill-rule="evenodd" d="M126.5,94.3h4.3v12.6c-.6,3.7,-2.8,5.8,-6.5,6.3c-1.1,.2,-2.3,.1,-3.5,-.1c-3.2,-1.2,-5,-3.3,-5.2,-6.2V94.3h4.3v12.6c.4,2,1.5,3,3.3,3c1.7,.1,2.8,-.9,3.3,-3Z" class="g3_2" />
<path fill-rule="evenodd" d="M120.1,239.4h-8.8v15.2c2.2,0,4.5,0,6.7,0c1.8,0,1.7,.3,2.7,-.8c.9,-.9,1,-.6,1,-2.4V241.2c-.2,-.6,-1.2,-1.3,-1.6,-1.8Zm-8,14.3c.7,0,7.1,.1,7.6,-.1c.6,-.3,1.1,-1,1.1,-1.6V241.9c0,-.5,-.8,-1.2,-1,-1.4c-.6,-.4,-7.1,-.2,-7.7,-.1Z" class="g4_2" />
<path fill-rule="evenodd" d="M111.3,272.1h8.8c.4,-.7,.9,-.9,1.3,-1.4c.5,-.6,.3,-1.7,.3,-2.5c0,-3.1,0,-1.7,-1.6,-3.7c1.6,-1.9,1.6,-.7,1.6,-3.2c0,-3.2,.3,-2.3,-1.1,-3.8c-.7,-.7,-.7,-.5,-2,-.5h-7.3Zm.8,-.9c2,0,3.9,0,5.9,0c1.6,0,1.4,.2,2.3,-.6c.8,-.8,.5,-1.1,.5,-2.5c.1,-1.6,.2,-1.3,-.7,-2.2c-.7,-.7,-.5,-.9,-2,-.9c-1.9,0,-3.9,0,-5.9,0Zm0,-7.1c1.8,0,3.6,0,5.4,0c1.3,0,1.5,.2,2.2,-.5c1.4,-1.4,1.1,-.7,1.1,-4.1c0,-.7,-.9,-1.7,-1.6,-1.7h-7.1Z" class="g4_2" />
<path fill-rule="evenodd" d="M79.5,254.6h.7l.1,-13.5l6.5,6.5c1.2,-.7,5.1,-5.2,6.7,-6.5v13.4l.8,.1c.2,-.8,.1,-13.2,.1,-15.2h-.7c-.5,.8,-2.6,2.7,-3.4,3.5c-.6,.6,-1.1,1.1,-1.7,1.7c-.6,.6,-1,1.1,-1.6,1.6c-.4,-.2,-6.6,-6.3,-6.8,-6.8h-.7Z" class="g4_2" />
<path fill-rule="evenodd" d="M161.1,272.1H170v-8l-4.1,.1v.8H169c.1,.9,.2,3.9,.1,4.7c-.1,.5,-.7,1.1,-1.1,1.3c-.5,.4,-3.8,.2,-4.7,.2c-.8,0,-2.9,.3,-2.9,-1.8v-9.6c0,-2.1,2,-2,2.9,-2c.9,.1,4.2,-.1,4.7,.2c.5,.4,.7,.9,1.4,1.2l.6,-.4v-.2c-.5,-.4,-1.2,-1.5,-2,-1.6c-.3,-.1,-6.4,-.2,-6.9,.1c-.5,.4,-1.5,1.5,-1.6,2.1V270c.1,.8,1.2,1.4,1.6,2.1Z" class="g4_2" />
<path fill-rule="evenodd" d="M108.1,239.4H98v15.2h10c0,-1,.5,-.9,-1.7,-.9c-1.4,0,-6.7,.1,-7.4,-.1v-6.1c.8,-.3,5.5,-.1,6.7,-.1v-.8H98.9v-6.3h9.2Z" class="g4_2" />
<path fill-rule="evenodd" d="M136.8,272.1H144c.4,-.4,.7,-.7,1.1,-1.1c.6,-.6,.5,-.5,.5,-1.6V257h-.9v11.7c0,1.2,.2,1.1,-.5,1.8c-1,1,-1.3,.7,-3.9,.7c-2.5,0,-2.9,.4,-4,-.8c-.6,-.7,-.3,-3,-.3,-4.2c0,-3.1,0,-6.2,0,-9.2h-.8c0,2.8,0,5.6,0,8.4c0,7.8,0,3.9,1.6,6.7Z" class="g4_2" />
<path fill-rule="evenodd" d="M141.3,239.4h-.7L133,254.5l1.1,.1l6.8,-13.5c.2,.1,0,0,.2,.3c.1,.1,.2,.3,.3,.4l3,6.2c.6,1.2,1.2,2.4,1.8,3.5c.3,.6,.6,1.2,.9,1.8c.7,1.5,.4,1.3,1.6,1.3c-.7,-2.2,-6.8,-13.3,-7.4,-15.2Z" class="g4_2" />
<path fill-rule="evenodd" d="M94.2,272.1h1c.4,-1.1,1.2,-2.5,1.7,-3.5l4.9,-9.6q0,-.1,.1,-.1l.2,-.3l6.6,13.5h1.1c-1,-2.4,-2.6,-5.4,-3.8,-7.7l-3.5,-7.1c-.8,-1,-1.2,.4,-1.6,1.3Z" class="g4_2" />
<path fill-rule="evenodd" d="M147.8,272.1h.9V265h6.9v-.9h-6.9l.1,-6.3h9V257h-10Z" class="g4_2" />
<path fill-rule="evenodd" d="M79.5,272.1H91.3v-.9H80.2h.1V257h.2h-1Z" class="g4_2" />
<path fill-rule="evenodd" d="M130.3,239.4H125v.9h2.2v13.4H125v.8l5.2,.1l.1,-.9h-2.2V240.4l2.2,-.1Z" class="g4_2" />
<path fill-rule="evenodd" d="M124.3,272.1h1L132.8,257c-1,0,-1,-.1,-1.4,.8c-1.8,3.7,-6.1,11.7,-7.1,14.3Z" class="g4_2" />
<path fill-rule="evenodd" d="M98.1,344.2c-1,.4,-1.9,.5,-3,.1v12.2c.5,.3,.8,.3,1.6,.3c1,0,1.1,-.1,1.8,-.2c.4,-1.7,0,-7.7,.2,-8.5c0,-.4,1.2,-1.5,1.6,-1.7c1.3,-.7,2.7,0,2.8,1.8c.1,2.3,.1,4.5,.1,6.8c0,1.8,-.2,1.8,1.7,1.8c.4,0,1.2,0,1.5,-.2c.4,-.2,.3,-.8,.3,-1.4v-6.9c0,-.4,.3,-.7,.6,-1c1,-.9,2.3,-1.9,3.3,-.5c.6,.7,.6,1.6,.6,2.9c0,1.7,-.2,5.6,.1,6.9c1.1,.2,2.5,.4,3.5,-.1c0,-2,0,-4,0,-6c0,-2.6,.3,-5.7,-2.2,-7.1c-.5,-.2,-1.8,-.5,-2.5,-.4c-2.6,.2,-3.4,1.9,-4.1,2.1c-.3,-1.3,-2.3,-2.2,-3.9,-2.1c-2.3,.1,-3.3,1.6,-4,2.1Z" class="g3_2" />
<path fill-rule="evenodd" d="M130.5,346c1.3,0,2.9,1.8,2.9,2.1v3.7c0,.1,-1.1,2.1,-3.1,2.1c-3.1,0,-3.1,-7.9,.2,-7.9Zm2.9,-8.3v6.8c-.9,-.5,-1.6,-1.5,-3.6,-1.5c-6.2,0,-6.3,8.9,-4.2,12c1.4,2.2,4.5,2.6,6.6,1.3c.4,-.2,.6,-.4,.9,-.6c.3,-.3,.5,-.5,.8,-.7c0,1.8,-.3,1.8,2.1,1.8c.7,0,1,-.2,1,-1V338.2c0,-1.3,-3,-.9,-3.6,-.5Z" class="g3_2" />
<path fill-rule="evenodd" d="M151.8,354.5c-2.2,0,-2.9,-3.5,1.2,-3.5h1.4c0,2.1,.2,2,-1,2.9c-.4,.3,-.9,.6,-1.6,.6Zm-4.6,-9.3c0,2.9,1,1.5,2.6,1c1.6,-.6,4.6,-1,4.6,1.4v1.1c-1.9,0,-3.9,0,-5.4,.6c-1.2,.5,-2.4,1.7,-2.4,3.1v1c0,2.1,1.8,3.6,4,3.6c1,0,1.9,0,2.8,-.5c.6,-.3,1,-.6,1.5,-1c0,1.4,0,1.3,2.1,1.3c.4,0,.6,-.1,.8,-.2c.3,-1.1,.2,-6.8,.2,-8.4c0,-1.7,-.4,-3.3,-1.3,-4.1c-2.7,-2.2,-9.5,-.9,-9.5,1.1Z" class="g3_2" />
<path fill-rule="evenodd" d="M94.8,341.2c.7,-.3,1,-.4,1.9,-.4c.4,.1,.7,.1,1,.2c.6,.2,.4,.3,.7,.6c0,-2,0,-4,0,-6c0,-2.9,.2,-5.6,-2.3,-6.9c-1.3,-.8,-3.5,-.6,-4.8,.2c-.3,.2,-.6,.4,-.9,.7c-.3,.2,-.5,.5,-.8,.7c0,-1.9,.4,-1.8,-2,-1.8c-.7,0,-.7,.1,-1.1,.3V340c0,1,-.2,1.8,.6,2c.3,0,.6,0,.9,0c2.6,0,2.1,.3,2.1,-3.4c0,-1.2,0,-2.4,0,-3.6c0,-2,-.2,-1.6,.9,-2.7c1.7,-1.7,3.7,-1,3.8,1.6c.2,2.3,0,5,0,7.3Z" class="g3_2" />
<path fill-rule="evenodd" d="M160.6,347.1c0,4.5,6,3.7,6,5.9c0,1.9,-3.2,1.5,-4.7,.6c-1.6,-.9,-1.3,.3,-1.3,1.7c0,2.3,9.5,3,9.5,-2.3c0,-4.6,-4.4,-3.9,-5.8,-5.5c-.7,-.8,0,-1.9,1.1,-1.9c1,0,1.3,0,2.3,.4c.7,.2,.7,.4,1.5,.4c.2,-.7,.1,-1,.1,-2c0,-1.9,-8.7,-2.7,-8.7,2.7Z" class="g3_2" />
<path fill-rule="evenodd" d="M118.2,343.7v12.6c0,.6,1.6,.5,2.3,.5c.7,0,1.3,-.1,1.3,-.9c0,-1.9,.1,-11.3,-.2,-12.4c-.8,-.4,-1.7,-.3,-2.7,-.2c-.3,0,-.7,0,-.7,.4Z" class="g3_2" />
<path fill-rule="evenodd" d="M140.3,343.8v12.5c0,.9,3,.4,3.5,.3c.3,-1.2,.1,-10.6,.1,-12.6q0,-.3,-.1,-.5c-.3,-.2,-1.4,-.4,-1.9,-.3c-.5,0,-1.6,0,-1.6,.6Z" class="g3_2" />
<path fill-rule="evenodd" d="M79.5,329.2v12.1c0,.9,1.4,.7,2.6,.7c.4,0,1,-.1,1,-.5V329c0,-.7,-1.9,-.5,-2.7,-.5c-.5,0,-.9,.2,-.9,.7Z" class="g3_2" />
<path fill-rule="evenodd" d="M118.2,341.3c0,.5,1,.4,1.7,.4c.8,0,1,-.2,1.4,-.6l1.9,-2.3c.3,-.4,.7,-.8,.8,-1.3c-.8,-.4,-1.4,-.3,-2.4,-.3c-.7,0,-.9,.1,-1.3,.5c-.3,.4,-.5,.8,-.7,1.2c-.3,.3,-1.4,2.1,-1.4,2.4Z" class="g3_2" />
<path fill-rule="evenodd" d="M140,339.7c0,1.5,.7,1.9,2.1,1.9c2.2,0,2,-1.1,2,-2.5c0,-1.7,-3,-1.5,-3.6,-.9c-.3,.3,-.5,1,-.5,1.5Z" class="g3_2" />
<path fill-rule="evenodd" d="M79.3,325.4c.1,.8,.4,1.4,2,1.4c.6,0,1.3,-.1,1.6,-.3c.5,-.4,1.5,-3.5,-1.5,-3.5c-1,0,-2.1,.1,-2.1,1.5Z" class="g3_2" />
<path fill-rule="evenodd" d="M94.8,341.2c-.3,.5,-.4,.9,-.4,1.7c.1,.7,.2,1.2,.7,1.4c1.1,.4,2,.3,3,-.1c.6,-.6,.5,-1.8,.3,-2.6c-.3,-.3,-.1,-.4,-.7,-.6c-.3,-.1,-.6,-.1,-1,-.2c-.9,0,-1.2,.1,-1.9,.4Z" class="g3_2" />
<path fill-rule="evenodd" d="M112.4,166.8H116V186h-3.6Z" class="g3_2" />
<path fill-rule="evenodd" d="M143.8,166.8h3.6c3.7,0,8.6,-.6,9.2,5.2c.1,2.1,-1,3.7,-3.3,5c2.9,1.5,3.1,5.8,4.1,8.9h-3.7c-.7,-4.6,-2,-7.2,-3.9,-7.8h-2.4V186h-3.6Zm3.6,2.7v5.9h3c1.9,-.3,2.9,-1.4,2.9,-3.3c-.1,-1.5,-1,-2.4,-2.5,-2.6Z" class="g3_2" />
<path fill-rule="evenodd" d="M106.1,170.2l.8,-2.9C99.5,165,92.1,167.9,92,176.4c.2,8.8,7,11.7,14.7,8.8l-.7,-2.5c-5.8,1.9,-10,-.1,-10.4,-6.4c0,-6,5.2,-8.3,10.5,-6.1Z" class="g3_2" />
<path fill-rule="evenodd" d="M127.3,166.8h5l5.5,19.2h-3.3L133,180.6h-6.3l-1.6,5.4h-3.3Zm4.9,11.1l-2.4,-8.5l-2.4,8.5Z" class="g3_2" />
<path d="M310.4,699.8h62.7" class="g5_2" />
<g clip-path="url(#c0_2)">
<path fill-rule="evenodd" d="M115.5,848.8c0,6.4,.3,7.3,1.7,13.4c-3.4,2.3,-1.3,10.4,2.1,10.6c.3,3.1,2.1,7.6,4.1,9.9c1.2,1.4,1,-.6,1,5c0,2.4,-.1,5.1,-1.2,6.7c-5.5,7.3,-22.6,6.7,-28.3,18.9c-.7,1.5,-1.5,4.4,-1.5,6.5h82.9c0,-5.5,-3.1,-10.3,-6.6,-12.9c-.8,-.6,-1.6,-1.2,-2.4,-1.7c-1.5,-.9,-3.6,-2,-5.2,-2.6c-1.8,-.7,-3.8,-1.6,-5.6,-2.3c-1.9,-.7,-3.8,-1.5,-5.4,-2.5c-1.6,-.9,-3.4,-2.1,-4.4,-3.4c-1.7,-2.3,-1.2,-7.6,-1.2,-10.5c0,-.7,.3,-.5,.8,-1c1,-1,1.7,-2.5,2.3,-3.7c.7,-1.5,1.7,-4.4,1.7,-6.4c3.2,0,4.2,-5.6,3.9,-7.5c-.3,-3.2,-1.9,-2.1,-1.3,-4.1l1.2,-4.8c1.2,-6.8,1.6,-16.2,-5.2,-20c-3.1,-1.8,-3.4,-.2,-4.8,-2.2c-2.8,-3.6,-12.7,-3.2,-16.8,-1.9c-.7,.2,-1.3,.4,-1.8,.6c-.6,.2,-.9,.4,-1.6,.7c-1.1,.4,-2.1,1.2,-2.8,1.9c-3.9,3.5,-5.6,7.6,-5.6,13.3Z" class="g6_2" />
</g>
<path d="M134.9,819c27.8,0,50.4,22.6,50.4,50.4c0,27.9,-22.6,50.4,-50.4,50.4C107,919.8,84.5,897.3,84.5,869.4C84.5,841.6,107,819,134.9,819Z" class="g2_2" />
<g clip-path="url(#c1_2)">
<path fill-rule="evenodd" d="M574,867.8v.3c0,1.3,-.4,5.4,-.5,6.4c-.3,1.9,-.5,4.2,-1.1,6c-.1,.3,-.2,.6,-.3,.9c-.2,.5,-.6,1,-.9,1.5c-.2,.3,-.4,.4,-.6,.6c.5,.7,2.7,1.9,3.4,2.3c2.4,1.5,5.2,2.6,8,3.3c2.4,.6,4.7,1,7.2,1.2l2.5,.1c.6,.1,.3,.4,.4,1.1c0,.4,0,2.1,-.1,2.5c-.4,1.8,-2.4,3.6,-3.9,4.5l-3.7,1.9c-2.5,1.1,-5,2,-7.4,3c-.9,.3,-1.6,.6,-2.5,1l-1.2,.5c-1.2,.7,-2.4,1.3,-3.6,2.1c-.3,.2,-.5,.4,-.8,.6c-.3,.2,-.5,.4,-.8,.6l-1.6,1.6c-1.4,1.6,-2.3,3.3,-2.9,5.3l-.4,1.5c0,.2,0,.4,-.1,.6c-.1,.6,0,1.2,0,1.8c-.1,.2,-.2,.5,.1,.5h72.5c0,-1.2,-.1,-2.4,-.3,-3.4l-.6,-2c-.8,-2,-1.9,-3.7,-3.4,-5.2L630,907.8c-.6,-.5,-1.3,-1,-2,-1.4l-6.6,-3.1c-1.9,-.7,-6.8,-2.6,-8.1,-3.3l-1.1,-.6c-.2,-.1,-.4,-.2,-.6,-.3c-.2,-.1,-.3,-.2,-.5,-.3c-1.2,-.8,-2.4,-1.6,-3.3,-2.7c-.3,-.5,-1.1,-1.7,-1.1,-2.3v-3.4l3.2,-.1c1.7,0,4.5,-.6,6,-1c2.3,-.6,5.5,-1.6,7.5,-2.8l3.7,-2.4c.2,-.1,.3,-.2,.4,-.4c-.3,-.5,-.6,-.7,-1.1,-1.4c-1.2,-2.1,-1.6,-5.2,-2,-7.7C623.3,866.8,623,858.3,620.9,851l-1.4,-4.6c-.1,-.2,-.1,-.3,-.2,-.5c-.5,-1.3,-1.1,-2.5,-1.8,-3.7c-1.2,-2.2,-3,-4.4,-5,-6l-.3,-.2c-1.1,-.8,-2.9,-1.9,-4.3,-2.3c-.2,-.1,.1,0,-.1,-.1l-.4,-.1c-2.9,-.8,-4.7,-1.2,-7.9,-1.2c-1.3,0,-2.2,.4,-3.2,.8c-.2,.1,-.4,.2,-.6,.3q-.2,.1,-.3,.2c-.1,.1,-.3,.1,-.3,.2c-.3,.1,-.5,.2,-.6,.4l-1.6,1.3c-.5,.5,-.5,.6,-1.4,.6c-2.6,0,-5.4,.8,-7.6,2.2c-.4,.3,-.7,.5,-1.1,.8c-1,.7,-1.9,1.7,-2.6,2.7l-.2,.3c-.8,1.3,-1.6,2.4,-2.2,3.8c-.3,.9,-.7,1.9,-1,2.9c-.5,1.8,-1,3.6,-1.4,5.5q0,.3,-.1,.7c-.2,1.6,-.5,3.2,-.6,4.7l-.4,4.7c0,.4,-.1,1.2,-.1,1.7c0,.4,-.1,.6,-.1,.9Z" class="g6_2" />
</g>
<path d="M599.3,819c27.9,0,50.5,22.6,50.5,50.4c0,27.9,-22.6,50.4,-50.5,50.4c-27.8,0,-50.4,-22.5,-50.4,-50.4c0,-27.8,22.6,-50.4,50.4,-50.4Z" class="g2_2" />
<g clip-path="url(#c2_2)">
<path fill-rule="evenodd" d="M266.7,848.8c0,6.4,.3,7.3,1.7,13.4c-3.3,2.3,-1.3,10.4,2.2,10.6c.2,3.1,2.1,7.6,4.1,9.9c1.2,1.4,1,-.6,1,5c0,2.4,-.1,5.1,-1.3,6.7c-5.4,7.3,-22.5,6.7,-28.2,18.9c-.7,1.5,-1.5,4.4,-1.6,6.5h82.9c0,-5.5,-3,-10.3,-6.6,-12.9c-.7,-.6,-1.5,-1.2,-2.3,-1.7c-1.5,-.9,-3.6,-2,-5.3,-2.6c-1.8,-.7,-3.7,-1.6,-5.6,-2.3c-1.8,-.7,-3.7,-1.5,-5.4,-2.5c-1.5,-.9,-3.3,-2.1,-4.3,-3.4c-1.7,-2.3,-1.3,-7.6,-1.3,-10.5c0,-.7,.4,-.5,.9,-1c.9,-1,1.6,-2.5,2.2,-3.7c.8,-1.5,1.8,-4.4,1.8,-6.4c3.1,0,4.1,-5.6,3.9,-7.5c-.4,-3.2,-1.9,-2.1,-1.4,-4.1l1.2,-4.8c1.3,-6.8,1.6,-16.2,-5.1,-20c-3.2,-1.8,-3.4,-.2,-4.8,-2.2c-2.8,-3.6,-12.7,-3.2,-16.9,-1.9c-.6,.2,-1.3,.4,-1.8,.6c-.5,.2,-.9,.4,-1.6,.7c-1,.4,-2,1.2,-2.8,1.9c-3.9,3.5,-5.6,7.6,-5.6,13.3Z" class="g6_2" />
</g>
<path d="M286.1,819c27.9,0,50.5,22.6,50.5,50.4c0,27.9,-22.6,50.4,-50.5,50.4c-27.8,0,-50.4,-22.5,-50.4,-50.4c0,-27.8,22.6,-50.4,50.4,-50.4Z" class="g2_2" />
<g clip-path="url(#c3_2)">
<path fill-rule="evenodd" d="M749.4,848.8c0,6.4,.3,7.3,1.7,13.4c-3.3,2.3,-1.3,10.4,2.2,10.6c.2,3.1,2.1,7.6,4.1,9.9c1.2,1.4,1,-.6,1,5c0,2.4,-.1,5.1,-1.3,6.7c-5.4,7.3,-22.5,6.7,-28.2,18.9c-.7,1.5,-1.5,4.4,-1.6,6.5h83c0,-5.5,-3.1,-10.3,-6.7,-12.9c-.7,-.6,-1.5,-1.2,-2.3,-1.7c-1.5,-.9,-3.6,-2,-5.3,-2.6c-1.8,-.7,-3.7,-1.6,-5.6,-2.3c-1.8,-.7,-3.7,-1.5,-5.4,-2.5c-1.5,-.9,-3.3,-2.1,-4.3,-3.4c-1.7,-2.3,-1.3,-7.6,-1.3,-10.5c0,-.7,.4,-.5,.9,-1c.9,-1,1.6,-2.5,2.2,-3.7c.8,-1.5,1.8,-4.4,1.8,-6.4c3.2,0,4.1,-5.6,3.9,-7.5c-.4,-3.2,-1.9,-2.1,-1.4,-4.1l1.2,-4.8c1.3,-6.8,1.6,-16.2,-5.1,-20c-3.2,-1.8,-3.4,-.2,-4.8,-2.2c-2.8,-3.6,-12.7,-3.2,-16.9,-1.9c-.6,.2,-1.3,.4,-1.8,.6c-.5,.2,-.9,.4,-1.6,.7c-1,.4,-2,1.2,-2.8,1.9c-3.9,3.5,-5.6,7.6,-5.6,13.3Z" class="g6_2" />
</g>
<path d="M768.8,819c27.9,0,50.5,22.6,50.5,50.4c0,27.9,-22.6,50.4,-50.5,50.4c-27.8,0,-50.4,-22.5,-50.4,-50.4C718.4,841.6,741,819,768.8,819Z" class="g2_2" />
<g clip-path="url(#c4_2)">
<path fill-rule="evenodd" d="M418.7,848.8c0,6.4,.2,7.3,1.7,13.4c-3.4,2.3,-1.3,10.4,2.1,10.6c.2,3.1,2.1,7.6,4.1,9.9c1.2,1.4,1,-.6,1,5c0,2.4,-.1,5.1,-1.3,6.7c-5.4,7.3,-22.5,6.7,-28.2,18.9c-.7,1.5,-1.5,4.4,-1.6,6.5h83c0,-5.5,-3.1,-10.3,-6.7,-12.9c-.7,-.6,-1.5,-1.2,-2.3,-1.7c-1.5,-.9,-3.6,-2,-5.3,-2.6c-1.8,-.7,-3.7,-1.6,-5.5,-2.3c-1.9,-.7,-3.8,-1.5,-5.4,-2.5c-1.6,-.9,-3.4,-2.1,-4.4,-3.4c-1.7,-2.3,-1.3,-7.6,-1.3,-10.5c0,-.7,.4,-.5,.9,-1c.9,-1,1.6,-2.5,2.3,-3.7c.7,-1.5,1.7,-4.4,1.7,-6.4c3.2,0,4.1,-5.6,3.9,-7.5c-.3,-3.2,-1.9,-2.1,-1.3,-4.1l1.1,-4.8c1.3,-6.8,1.6,-16.2,-5.1,-20c-3.2,-1.8,-3.4,-.2,-4.8,-2.2c-2.8,-3.6,-12.7,-3.2,-16.9,-1.9c-.6,.2,-1.2,.4,-1.8,.6c-.5,.2,-.9,.4,-1.6,.7c-1,.4,-2,1.2,-2.8,1.9c-3.8,3.5,-5.5,7.6,-5.5,13.3Z" class="g6_2" />
</g>
<path d="M438.1,819c27.8,0,50.4,22.6,50.4,50.4c0,27.9,-22.6,50.4,-50.4,50.4c-27.9,0,-50.5,-22.5,-50.5,-50.4c0,-27.8,22.6,-50.4,50.5,-50.4Z" class="g2_2" />
<image preserveAspectRatio="none" x="909" y="0" width="910" height="1286" xlink:href="img/1.png" />
<path fill-rule="evenodd" d="M909.4,0h909.5V1286.2H909.4Z" class="g7_2" />
</svg>