<?xml version="1.0" encoding="UTF-8" standalone="no"?>
<!DOCTYPE svg PUBLIC "-//W3C//DTD SVG 1.1//EN"
"http://www.w3.org/Graphics/SVG/1.1/DTD/svg11.dtd">
<svg viewBox="0 0 909 1286" version="1.1" xmlns="http://www.w3.org/2000/svg" xmlns:xlink="http://www.w3.org/1999/xlink">
<defs>
<clipPath id="c0_36"><path d="M634.3,696.3c-6.7,0,-12.1,-5.4,-12.1,-12.1c0,-6.7,5.4,-12.2,12.1,-12.2c6.7,0,12.2,5.5,12.2,12.2c0,6.7,-5.5,12.1,-12.2,12.1Z" /></clipPath>
<clipPath id="c1_36"><path d="M634.3,729.4c-6.7,0,-12.1,-5.4,-12.1,-12.1c0,-6.7,5.4,-12.2,12.1,-12.2c6.7,0,12.2,5.5,12.2,12.2c0,6.7,-5.5,12.1,-12.2,12.1Z" /></clipPath>
<clipPath id="c2_36"><path d="M634.3,762.9c-6.7,0,-12.1,-5.4,-12.1,-12.1c0,-6.7,5.4,-12.2,12.1,-12.2c6.7,0,12.2,5.5,12.2,12.2c0,6.7,-5.5,12.1,-12.2,12.1Z" /></clipPath>
<clipPath id="c3_36"><path d="M634.3,796.3c-6.7,0,-12.1,-5.4,-12.1,-12.1c0,-6.7,5.4,-12.2,12.1,-12.2c6.7,0,12.2,5.5,12.2,12.2c0,6.7,-5.5,12.1,-12.2,12.1Z" /></clipPath>
<clipPath id="c4_36"><path d="M634.3,829.8c-6.7,0,-12.1,-5.4,-12.1,-12.1c0,-6.7,5.4,-12.2,12.1,-12.2c6.7,0,12.2,5.5,12.2,12.2c0,6.7,-5.5,12.1,-12.2,12.1Z" /></clipPath>
<clipPath id="c5_36"><path d="M498.1,262V163.8H719.5V262Z" /></clipPath>
<style type="text/css"><![CDATA[
.g0_36{
fill: #FFFFFF;
}
.g1_36{
fill: #62D9D7;
}
.g2_36{
fill: #CCCCCC;
fill-opacity: 0.3;
}
.g3_36{
fill: #6ADBD9;
}
.g4_36{
fill: #FFFFFF;
stroke: #FFFFFF;
stroke-width: 0.15277778;
stroke-linecap: butt;
stroke-linejoin: miter;
stroke-miterlimit: 22;
}
.g5_36{
fill: none;
stroke: #62D9D7;
stroke-width: 0.7634306;
stroke-linecap: butt;
stroke-linejoin: miter;
stroke-miterlimit: 22;
}
.g6_36{
fill: #FFFFFF;
stroke: #E6E6E6;
stroke-width: 0.33;
stroke-linecap: butt;
stroke-linejoin: miter;
stroke-miterlimit: 22;
}
.g7_36{
fill: #DA89F7;
}
.g8_36{
fill: none;
stroke: #DA89F7;
stroke-width: 1.0827361;
stroke-linecap: butt;
stroke-linejoin: miter;
stroke-miterlimit: 22;
}
.g9_36{
fill: #DA89F7;
stroke: #DA89F7;
stroke-width: 0.86609715;
stroke-linecap: butt;
stroke-linejoin: miter;
stroke-miterlimit: 22;
}
.g10_36{
fill: #E6E6E6;
}
.g11_36{
fill: #999999;
}
.g12_36{
fill: none;
stroke: #DA89F7;
stroke-width: 0.86609715;
stroke-linecap: butt;
stroke-linejoin: miter;
stroke-miterlimit: 22;
}
.g13_36{
fill: #B3B3B3;
}
.g14_36{
fill: none;
stroke: #B3B3B3;
stroke-width: 0.33;
stroke-linecap: butt;
stroke-linejoin: miter;
stroke-miterlimit: 22;
}
.g15_36{
fill: #FFFFFF;
stroke: #FFFFFF;
stroke-width: 0.33;
stroke-linecap: butt;
stroke-linejoin: miter;
stroke-miterlimit: 22;
}
.g16_36{
fill: none;
stroke: #FFFFFF;
stroke-width: 0.433125;
stroke-linecap: butt;
stroke-linejoin: miter;
stroke-miterlimit: 22;
}
.g17_36{
fill: none;
stroke: #FFFFFF;
stroke-width: 0.38148612;
stroke-linecap: butt;
stroke-linejoin: miter;
stroke-miterlimit: 22;
}
.g18_36{
fill: none;
stroke: #FFFFFF;
stroke-width: 1.0827361;
stroke-linecap: butt;
stroke-linejoin: miter;
stroke-miterlimit: 22;
}
.g19_36{
fill: #FFFFFF;
fill-opacity: 0.91999996;
}
.g20_36{
fill: none;
stroke: #6ADBD9;
stroke-width: 1.1455278;
stroke-linecap: butt;
stroke-linejoin: miter;
stroke-miterlimit: 22;
}
.g21_36{
fill: none;
stroke: #62D9D7;
stroke-width: 1.0827361;
stroke-linecap: butt;
stroke-linejoin: miter;
stroke-miterlimit: 22;
}
.g22_36{
fill: none;
stroke: #000000;
stroke-width: 2.1653194;
stroke-linecap: butt;
stroke-linejoin: miter;
stroke-miterlimit: 22;
}
.g23_36{
stroke: #000000;
stroke-width: 0.33;
stroke-linecap: butt;
stroke-linejoin: miter;
stroke-miterlimit: 22;
}
]]></style>
</defs>
<image x="0" y="0" width="911" height="1289" xlink:href="shade/1.png" />
<image preserveAspectRatio="none" x="455" y="732" width="457" height="554" xlink:href="img/1.png" />
<path fill-rule="evenodd" d="M63.7,140.6C21.2,127.3,32.7,27.1,105.9,72.3C123.5,83.1,115.1,94,155,86.2c44.2,-8.7,18.7,100.3,-49.7,67.8C78.1,141.1,73.9,149.5,37.1,161.6c-.1,0,-.8,.1,-.9,.1Z" class="g0_36" />
<image preserveAspectRatio="none" x="281" y="309" width="312" height="685" xlink:href="img/2.png" />
<path fill-rule="evenodd" d="M611.6,892.7H878.8V458.2H611.6Z" class="g0_36" />
<path fill-rule="evenodd" d="M726.6,877.6c.2,1.6,2.3,2.6,3.8,1.5c.6,-.5,.8,-1.1,.8,-2.2c0,-.6,.1,-2.7,0,-3.1c-.2,-2.2,-3.4,-2.7,-4.4,-.6c-.2,.4,-.2,.8,-.2,1.4c0,.5,0,2.6,0,3Z" class="g1_36" />
<path fill-rule="evenodd" d="M728.6,880.4c.1,.1,.1,.3,.1,.5c0,.4,0,1.5,0,1.7h-2.3v.6h5.1v-.6h-2.3v-2.2c1.2,-.1,2.1,-.8,2.5,-1.5c.6,-1,.5,-2.4,.5,-3.6h-.6c0,1.2,.2,2.4,-.3,3.3c-.4,.7,-1.2,1.3,-2.4,1.3c-1.1,0,-1.9,-.6,-2.3,-1.3c-.5,-.9,-.4,-2.2,-.4,-3.3h-.5c0,1.3,-.2,2.5,.4,3.6c.5,.7,1.3,1.4,2.5,1.5Z" class="g1_36" />
<path fill-rule="evenodd" d="M726.4,883.2v-.6h2.3c0,-.2,0,-1.3,0,-1.7c0,-.2,0,-.4,-.1,-.5v2.2h-2.2v.4c0,.2,0,.1,0,.2Z" class="g1_36" />
<path fill-rule="evenodd" d="M674.6,877.9c-.2,.2,-.7,.5,-.9,.6c-.8,.4,-1.9,.4,-2.7,0c-.3,-.1,-.7,-.4,-.9,-.6c-1.3,.6,-2.2,1.9,-2.5,3.2c-.1,.5,-.2,.9,.4,.9h8.7c.6,0,.5,-.4,.4,-.9c-.3,-1.3,-1.2,-2.6,-2.5,-3.2Zm-2.3,-5c1.5,0,2.7,1.2,2.7,2.7c0,1.4,-1.2,2.6,-2.7,2.6c-1.4,0,-2.6,-1.2,-2.6,-2.6c0,-1.5,1.2,-2.7,2.6,-2.7Z" class="g1_36" />
<path fill-rule="evenodd" d="M679.4,878.9c-.2,.1,-.5,.3,-.7,.4c-.6,.3,-1.3,.3,-1.9,.1c.4,.5,.6,1.1,.8,1.7c.1,.5,.2,.9,-.5,.9H681c.4,0,.4,-.3,.3,-.7c-.2,-1,-.9,-2,-1.9,-2.4Zm-1.7,-3.8c1.1,0,2,.9,2,2c0,1.1,-.9,2,-2,2c-1.1,0,-2,-.9,-2,-2c0,-1.1,.9,-2,2,-2Z" class="g1_36" />
<path fill-rule="evenodd" d="M611.6,486.7H878.8V835.4H611.6Z" class="g2_36" />
<path fill-rule="evenodd" d="M611.6,458.2H878.8V417.4H611.6Z" class="g3_36" />
<path d="M625.2,443.2h15.3v1.7H625.2Z" class="g0_36" />
<path d="M625.2,438.1h15.3v1.7H625.2Z" class="g0_36" />
<path d="M625.2,448.3h15.3V450H625.2Z" class="g0_36" />
<path fill-rule="evenodd" d="M763.1,446.3c-8.2,-2.5,-6,-21.9,8.1,-13.1c3.4,2,1.8,4.1,9.5,2.6c8.5,-1.6,3.6,19.4,-9.6,13.1c-5.2,-2.5,-6,-.9,-13.1,1.5c0,0,-.2,0,-.2,0Zm7.1,-2.1v1.1c0,.3,0,.6,.1,.8c0,.1,.1,.3,.3,.4c.1,.2,.4,.3,.7,.4c.3,.1,.6,.1,1,.1c.6,0,1.1,-.1,1.4,-.3c.3,-.1,.5,-.3,.6,-.6c.1,-.2,.1,-.5,.1,-.9v-1Zm-.9,-.9h6v1.9c0,.5,0,.8,-.1,1c0,.3,-.2,.6,-.4,.8c-.3,.3,-.6,.5,-1,.7c-.4,.1,-.9,.2,-1.5,.2c-.4,0,-.8,-.1,-1.2,-.2c-.3,-.1,-.6,-.2,-.9,-.3c-.2,-.2,-.4,-.4,-.5,-.5c-.2,-.2,-.3,-.4,-.3,-.7c-.1,-.3,-.1,-.5,-.1,-.9Zm4.4,-1.7h3.4v-4.3h-.8v3.5h-1.9v-3.5h-.7v3.5Zm-7,-1.1h4.1v1.1h-5.2v-6.5h5.2v1.1h-4.1v1.6h4.1v1h-4.1Z" class="g0_36" />
<path d="M704.8,450.3h-1v-9.6h1Zm3.4,0h-1v-9.6h1l5,7.8h.1v-7.8h1v9.6h-1.1l-5,-7.8Zm10.4,-8.6h-3v-1h7v1h-3Zm19.8,1.9h-1.1c0,-.7,-.3,-1.2,-.8,-1.6c-.4,-.3,-1,-.5,-1.6,-.5c-.4,0,-.7,0,-1,.2c-.4,.1,-.7,.3,-.9,.6c-.3,.2,-.4,.6,-.6,1c-.1,.4,-.2,.9,-.2,1.5v1.3c0,1.1,.2,1.9,.7,2.5c.4,.6,1.1,.9,2,.9c.7,0,1.3,-.2,1.8,-.6c.4,-.4,.7,-.9,.7,-1.6v-1h-2.6v-.9h3.6v1.9c0,.3,0,.6,-.1,.8c-.1,.3,-.2,.6,-.4,.9c-.2,.3,-.4,.5,-.6,.7c-.3,.2,-.6,.4,-1.1,.6c-.4,.1,-.8,.2,-1.3,.2c-1.2,0,-2.1,-.4,-2.8,-1.2c-.6,-.7,-.9,-1.8,-.9,-3.2v-1.3c0,-1.3,.3,-2.4,1,-3.1c.7,-.8,1.6,-1.2,2.7,-1.2c.5,0,1,.1,1.5,.3c.4,.1,.7,.4,1,.7c.3,.2,.5,.6,.7,.9c.1,.4,.2,.8,.3,1.2Zm3,1.8v4.9h-1v-9.6h3.3c.5,0,1,.1,1.4,.3c.4,.1,.7,.3,.9,.6c.3,.2,.4,.5,.6,.9c.1,.3,.1,.7,.1,1c0,.4,0,.7,-.1,1.1c-.1,.3,-.3,.5,-.4,.7c-.2,.2,-.4,.4,-.6,.5c-.2,.2,-.4,.3,-.7,.4l2,4.1h-1.2l-2.1,-4.9c.7,0,1.2,-.1,1.5,-.4c.4,-.4,.6,-.8,.6,-1.4c0,-.6,-.2,-1.1,-.6,-1.4c-.3,-.4,-.9,-.5,-1.5,-.5h-2.2Zm8.8,1l-.3,.9l-1,3h-1.1l3.4,-9.6h1.1l3.4,9.6h-1.1l-1.1,-3l-.2,-.9m0,0L751.7,442l-1.5,4.4m6.9,3.3c0,-.2,0,-.4,.2,-.6c.1,-.1,.3,-.2,.5,-.2c.2,0,.4,.1,.5,.2c.2,.2,.2,.4,.2,.6c0,.2,0,.3,-.2,.5c-.1,.1,-.3,.2,-.5,.2c-.2,0,-.4,-.1,-.5,-.2c-.2,-.2,-.2,-.3,-.2,-.5Z" class="g4_36" />
<path fill-rule="evenodd" d="M723.9,440.7h5.6v1h-4.6v7.6h4.6v1h-5.6c0,-3.2,0,-6.4,0,-9.6Z" class="g4_36" />
<path fill-rule="evenodd" d="M729.3,445.9h-3.2v-1h3.2Z" class="g4_36" />
<path fill-rule="evenodd" d="M737.4,446.3h-2.6v-.9h2.6Z" class="g4_36" />
<path fill-rule="evenodd" d="M719.5,450.3v-7.4h-.9v7.4Z" class="g4_36" />
<path d="M610.7,864.2H878M610.7,486.7H878" class="g5_36" />
<path d="M866.5,443l-2.1,-.4c-.1,-.4,-.3,-.8,-.5,-1.2l1.2,-1.7c.1,-.2,.1,-.4,0,-.5l-1.4,-1.4c-.1,-.1,-.3,-.1,-.5,0l-1.7,1.2c-.4,-.2,-.8,-.4,-1.2,-.5l-.4,-2.1c0,-.2,-.2,-.3,-.3,-.3h-2c-.2,0,-.3,.1,-.3,.3l-.4,2.1c-.4,.1,-.8,.3,-1.2,.5L854,437.8c-.2,-.1,-.4,-.1,-.5,0l-1.4,1.4c-.1,.1,-.1,.3,0,.5l1.2,1.7c-.2,.4,-.4,.8,-.5,1.2l-2.1,.4c-.2,0,-.3,.1,-.3,.3v2c0,.2,.1,.3,.3,.3l2.1,.4c.1,.4,.3,.8,.5,1.2l-1.2,1.7c-.1,.2,-.1,.4,0,.5l1.4,1.4c.1,.1,.3,.1,.5,0l1.7,-1.2c.4,.2,.8,.4,1.2,.5l.4,2.1c0,.2,.1,.3,.3,.3h2c.1,0,.3,-.1,.3,-.3l.4,-2.1c.4,-.1,.8,-.3,1.2,-.5l1.8,1.2c.1,.1,.3,.1,.4,0l1.4,-1.4c.1,-.1,.1,-.3,0,-.5l-1.2,-1.7c.2,-.4,.4,-.8,.5,-1.2l2.1,-.4c.2,0,.3,-.1,.3,-.3v-2c0,-.2,-.1,-.3,-.3,-.3Zm-7.9,3.8c-1.4,0,-2.5,-1.1,-2.5,-2.5c0,-1.4,1.1,-2.5,2.5,-2.5c1.4,0,2.5,1.1,2.5,2.5c0,1.4,-1.1,2.5,-2.5,2.5Z" class="g0_36" />
<path fill-rule="evenodd" d="M634.1,876.8c.7,-.7,1.7,.3,1.1,1c-.5,.5,-1.2,.2,-1.3,-.3c-.1,-.3,0,-.5,.2,-.7ZM631.3,872h.6c.7,0,1.5,.2,2.2,.5c.3,.1,.6,.2,.9,.4l.6,.4q.1,.1,.2,.2c.5,.4,1,.9,1.2,1.5c.5,.9,.6,1.3,.6,2.5c0,1,-.4,2.1,-1.1,2.9q-.1,.1,-.2,.2l-.5,.5c-.2,.2,-.6,.5,-.8,.6c-1.3,.7,-2.7,1,-4.2,.8c-.4,0,-.3,0,-.5,.1c-.6,.4,-1.5,.9,-2.1,1.3c-.1,0,-.3,.1,-.4,.2c0,-.8,0,-1.5,0,-2.2c0,-.3,.1,-.4,-.1,-.5c-.4,-.4,-.8,-.7,-1.1,-1.1c-.3,-.4,-.4,-.6,-.6,-1.1c-.4,-.6,-.5,-1.3,-.5,-2.1c0,-.4,.1,-.9,.2,-1.2c.4,-1,.9,-1.7,1.7,-2.4l.4,-.3c.1,-.1,.2,-.2,.4,-.3c.9,-.6,2,-.9,3.1,-.9Zm-.4,5c.3,-.7,1.4,-.6,1.4,.3c.1,.8,-1.1,1,-1.4,.3q-.1,-.3,0,-.6Zm-2.9,-.2c.7,-.7,1.8,.3,1.1,1c-.1,.1,-.3,.2,-.5,.2c-.2,.1,-.4,-.1,-.5,-.2c-.3,-.3,-.4,-.7,-.1,-1Z" class="g1_36" />
<path d="M640.1,877.4v.8c0,.6,.1,1.1,.4,1.4c.2,.3,.6,.5,1.1,.5c.4,0,.7,-.1,1,-.3c.2,-.3,.3,-.6,.3,-.9h.9c0,.2,0,.4,-.1,.6c-.1,.2,-.1,.4,-.3,.5c-.1,.2,-.2,.3,-.4,.5c-.2,.1,-.4,.2,-.6,.3c-.3,0,-.6,.1,-.9,.1c-.7,0,-1.3,-.2,-1.7,-.7c-.4,-.5,-.6,-1.1,-.6,-2v-.8c0,-.8,.2,-1.5,.6,-2c.4,-.5,1,-.7,1.7,-.7c.4,0,.7,.1,1,.2c.3,.1,.5,.2,.7,.4c.2,.2,.3,.4,.4,.7c.1,.2,.2,.5,.2,.7v.1h-.9c0,-.2,0,-.3,-.1,-.5c0,-.1,-.1,-.3,-.2,-.4c-.1,-.1,-.3,-.2,-.5,-.3c-.1,-.1,-.3,-.1,-.5,-.1c-.5,0,-.9,.2,-1.1,.5c-.3,.3,-.4,.8,-.4,1.4Zm4.7,3.4v-6.3h.9v2.3h.1c0,-.2,.2,-.3,.4,-.5c.3,-.1,.5,-.2,.9,-.2c.5,0,.9,.2,1.2,.5c.3,.2,.4,.7,.4,1.2v3h-.9V878c0,-.4,-.1,-.7,-.3,-.8c-.1,-.2,-.4,-.3,-.7,-.3c-.4,0,-.6,.1,-.8,.3c-.2,.2,-.3,.5,-.3,.8v2.8Zm7.7,-.6c-.3,.4,-.7,.6,-1.4,.6c-.4,0,-.8,-.1,-1,-.3c-.3,-.3,-.4,-.6,-.4,-1.1c0,-.4,.1,-.7,.4,-.9c.2,-.3,.6,-.4,1.2,-.4h1.1v-.4c0,-.3,0,-.5,-.2,-.7c-.1,-.1,-.4,-.2,-.7,-.2c-.2,0,-.4,.1,-.6,.2c-.1,.1,-.2,.3,-.2,.5h-.9c0,-.4,.2,-.7,.5,-1c.3,-.3,.7,-.4,1.3,-.4c.5,0,.9,.1,1.2,.4c.4,.3,.5,.6,.5,1.1v3.2h-.8v-.6Zm-1.1,-.1c.3,0,.6,0,.8,-.2c.1,-.2,.2,-.4,.2,-.7v-.5h-1c-.3,0,-.5,.1,-.6,.2c-.2,.1,-.3,.3,-.3,.5c0,.2,.1,.4,.3,.6c.2,.1,.4,.1,.6,.1Zm3.5,-3.9V875h.8v1.2h.9v.7h-.9v2.5c0,.3,.1,.5,.2,.6c.1,0,.3,.1,.5,.1c.1,0,.2,0,.3,0v.7c-.2,0,-.3,0,-.5,0c-.3,0,-.5,0,-.7,-.1c-.1,0,-.3,-.1,-.4,-.2c-.1,-.1,-.2,-.3,-.2,-.4c0,-.2,-.1,-.4,-.1,-.6v-2.6h-.6v-.7Z" class="g1_36" />
<path fill-rule="evenodd" d="M616.6,641.8H872.1V494.4H616.6Z" class="g6_36" />
<path fill-rule="evenodd" d="M838.8,873.3v8.6c0,.6,.6,1.3,1.2,1.3h6.1c.6,0,1.1,-.6,1.2,-1.2c0,-.2,0,-1.9,0,-2.3c-.2,.1,-.4,.3,-.5,.4q-.1,.1,-.2,.1c-.2,.3,-.2,.1,-.2,.5c0,.4,0,.7,0,1c0,.2,0,.3,-.1,.4c0,.1,-.1,.2,-.3,.2h-6c-.2,0,-.4,-.2,-.4,-.4v-8.5c0,-.2,.2,-.4,.4,-.4h6c.2,0,.3,.1,.3,.1q.1,.2,.1,.4v1.2c0,.2,.1,.2,.2,.3c.2,.1,.5,.5,.7,.6c0,-.5,0,-2,0,-2.3c-.1,-.6,-.6,-1.2,-1.2,-1.2H840c-.6,0,-1.2,.6,-1.2,1.2Z" class="g1_36" />
<path fill-rule="evenodd" d="M844.3,875.2v1.2h-2.6c-.2,0,-.4,.1,-.4,.4v1.7c0,.1,.1,.2,.1,.3c.1,0,.2,.1,.3,.1h2.6V880c0,.1,0,.2,.1,.3c0,0,0,.1,.1,.1c.2,.1,.3,0,.5,-.2l1.3,-1.2h.1l1.2,-1.1c.1,-.1,.3,-.2,.3,-.3q-.1,-.1,-.2,-.1L845,875.1q-.2,-.2,-.4,-.2c-.2,0,-.3,.1,-.3,.3Z" class="g1_36" />
<path fill-rule="evenodd" d="M795.4,877.4c.6,-.2,1.3,-.8,1.9,-1.1c.5,-.3,1.5,-1.3,2,-.7c.3,.3,.3,5.2,-.1,5.7c-.4,.3,-1.3,-.5,-2,-.9c-.5,-.3,-1.2,-.8,-1.8,-1.1c0,2.2,.3,3.1,-1.3,3.1c-1,0,-8.3,0,-8.7,-.1c-.6,-.2,-.6,-.8,-.6,-1.7v-4.4c0,-.7,0,-1.4,.5,-1.7c.6,-.3,7.5,-.2,8.7,-.2c1.9,.1,1.4,1.5,1.4,3.1Z" class="g1_36" />
<path fill-rule="evenodd" d="M616.6,666.4H872.1V641.8H616.6Z" class="g6_36" />
<path fill-rule="evenodd" d="M836,653.4c.4,0,.7,.2,1,.2v-3.4h10.2v7.1h-6.5l.3,1h7.3v-9.1H836Z" class="g7_36" />
<path fill-rule="evenodd" d="M835.3,655c2.1,.2,3.8,2,4,4.1h1c0,-.8,-.2,-1.4,-.5,-2c-.3,-.6,-.6,-1,-1.1,-1.5c-.1,-.1,-.2,-.2,-.3,-.3c-1,-.7,-1.8,-1.1,-3.1,-1.3Z" class="g7_36" />
<path fill-rule="evenodd" d="M835.3,656.8c1.1,.2,2,1.2,2.2,2.3h1c-.2,-1.7,-1.5,-3,-3.2,-3.3Z" class="g7_36" />
<path fill-rule="evenodd" d="M835.3,659.1h1.4c-.2,-.7,-.7,-1.3,-1.4,-1.5Z" class="g7_36" />
<path fill-rule="evenodd" d="M836,653.4v-4.2h12.3l-10.7,-.1c-.4,0,-1.2,0,-1.6,0c-.1,.2,0,3.3,0,4c0,0,0,.1,0,.1Z" class="g7_36" />
<path d="M854.5,654.9v3.4h3.4m-3.4,-5.7v-3.4h3.4m8,5.7v3.4h-3.4m3.4,-5.7v-3.4h-3.4" class="g8_36" />
<path fill-rule="evenodd" d="M635.3,654.2l-9.6,7V647Z" class="g9_36" />
<path fill-rule="evenodd" d="M645.8,657.6H810.6c1.9,0,3.5,-1.6,3.5,-3.5c0,-2,-1.6,-3.5,-3.5,-3.5H645.8c-1.9,0,-3.5,1.5,-3.5,3.5c0,1.9,1.6,3.5,3.5,3.5Z" class="g10_36" />
<path fill-rule="evenodd" d="M817.9,652v3.8c0,.3,.1,.4,.2,.5c.2,.1,.4,.1,.6,.1h2.8c.1,0,.1,.1,.2,.1l1.2,1.1c.1,.1,.2,.2,.3,.2l1.5,1.3c.1,.1,.3,.3,.4,.3c.2,.2,.4,.1,.6,0c.1,-.1,.2,-.3,.2,-.4V648.8c0,-.1,-.1,-.2,-.2,-.3c-.2,-.2,-.5,-.2,-.8,0q0,.1,0,.1l-.1,.1q-.1,0,-.1,0l-.3,.3l-.1,.1h-.1q0,.1,0,.1h-.1l-1.7,1.5l-.8,.7h-2.9c-.2,0,-.5,0,-.7,.2c0,.1,-.1,.2,-.1,.4Z" class="g7_36" />
<path fill-rule="evenodd" d="M828.1,650.3q0,.1,0,.2c.1,.1,.3,.4,.4,.6c.6,1,.9,2.1,.7,3.5c0,.6,-.2,1.3,-.5,1.8c-.1,.2,-.2,.4,-.3,.6c-.2,.3,-.4,.5,-.3,.8c.2,.3,.5,.4,.8,.2c.1,0,.1,-.1,.2,-.1c0,-.1,.1,-.2,.1,-.2l.2,-.4c.2,-.3,.3,-.5,.4,-.8l.2,-.6l.1,-.1v-.1c.1,-.4,.1,-.5,.2,-.9c0,-.3,0,-1,0,-1.3c0,-.1,0,-.2,0,-.2c0,-.2,-.1,-.8,-.2,-1.1c-.1,-.2,-.2,-.5,-.2,-.6c-.1,-.3,-.3,-.6,-.4,-.9L829,650c-.1,-.1,-.2,-.2,-.4,-.2c-.3,0,-.5,.2,-.5,.5Z" class="g7_36" />
<path fill-rule="evenodd" d="M826.6,651.7c0,.3,.1,.3,.2,.5c.3,.5,.4,.8,.4,1.3c.1,.3,.1,.6,0,.9c0,.3,0,.5,-.2,.8c0,.2,-.1,.4,-.2,.6c0,0,-.1,0,-.1,.1c-.3,.4,.2,.9,.6,.7c.2,0,.2,-.1,.3,-.2c.1,-.2,.2,-.3,.2,-.4c.3,-.7,.5,-1.3,.5,-2.1c0,-.1,0,-.2,0,-.3c0,-.1,-.1,-.6,-.1,-.8c-.1,0,-.1,-.1,-.1,-.2c-.1,-.2,-.2,-.5,-.3,-.7c0,-.1,-.2,-.5,-.3,-.5c-.2,-.2,-.5,-.2,-.7,0h-.1c0,0,-.1,.2,-.1,.3Z" class="g7_36" />
<path fill-rule="evenodd" d="M645.6,656.1H756.7c1.1,0,2,-.9,2,-2c0,-1.1,-.9,-2.1,-2,-2.1H645.6c-1.1,0,-2,1,-2,2.1c0,1.1,.9,2,2,2Z" class="g7_36" />
<path fill-rule="evenodd" d="M759,649.5c2.6,0,4.6,2,4.6,4.6c0,2.5,-2,4.6,-4.6,4.6c-2.5,0,-4.6,-2.1,-4.6,-4.6c0,-2.6,2.1,-4.6,4.6,-4.6Z" class="g7_36" />
<path fill-rule="evenodd" d="M757.7,564.3l-26.7,16V548Z" class="g9_36" />
<path d="M610.7,864.2H878.8" class="g5_36" />
<path fill-rule="evenodd" d="M627.7,841.4h13c.8,0,1.5,.6,1.5,1.4v9.8c0,.8,-.7,1.4,-1.5,1.4h-13c-.8,0,-1.5,-.6,-1.5,-1.4v-9.8c0,-.8,.7,-1.4,1.5,-1.4Zm.7,8.9v1.6H640v-3.7l-3.4,-3.4l-4.2,4.2L631,847.7Zm1.6,-6.8c.9,0,1.5,.7,1.5,1.6c0,.8,-.6,1.5,-1.5,1.5c-.9,0,-1.6,-.7,-1.6,-1.5c0,-.9,.7,-1.6,1.6,-1.6Zm-2.4,-1.1h13.2c.2,0,.3,.2,.3,.3v10c0,.1,-.1,.3,-.3,.3H627.6c-.1,0,-.3,-.2,-.3,-.3v-10c0,-.1,.2,-.3,.3,-.3Z" class="g7_36" />
<path d="M676.8,850.1c-.1,-.1,-.2,-.2,-.2,-.4c0,-.1,.1,-.2,.2,-.3c.1,-.1,.2,-.2,.3,-.2c.2,0,.3,.1,.4,.2c.1,.1,.2,.2,.2,.3c0,.2,-.1,.3,-.2,.4c-.1,.1,-.2,.1,-.4,.1c-.1,0,-.2,0,-.3,-.1Zm1.9,0c-.1,-.1,-.2,-.2,-.2,-.4c0,-.1,.1,-.2,.2,-.3c.1,-.1,.2,-.2,.3,-.2c.2,0,.3,.1,.4,.2c.1,.1,.2,.2,.2,.3c0,.2,-.1,.3,-.2,.4c-.1,.1,-.2,.1,-.4,.1c-.1,0,-.2,0,-.3,-.1Zm1.8,0c-.1,-.1,-.1,-.2,-.1,-.4c0,-.1,0,-.2,.1,-.3c.2,-.1,.3,-.2,.4,-.2c.2,0,.3,.1,.4,.2c.1,.1,.1,.2,.1,.3c0,.2,0,.3,-.1,.4c-.1,.1,-.2,.1,-.4,.1c-.1,0,-.2,0,-.4,-.1Zm3.4,.1c-.5,0,-.9,-.1,-1.2,-.5c-.3,-.3,-.5,-.7,-.5,-1.3V848c0,-.5,.2,-.9,.5,-1.3c.3,-.3,.7,-.4,1.2,-.4c.5,0,.9,.1,1.2,.4c.3,.4,.4,.8,.4,1.4v.3H683v.1c0,.3,.1,.6,.3,.8c.1,.2,.3,.3,.6,.3c.2,0,.4,-.1,.5,-.2c.1,-.1,.2,-.2,.3,-.4h.8c-.1,.4,-.2,.7,-.5,.9c-.3,.2,-.6,.3,-1.1,.3Zm-.9,-2.3h1.7v-.1c0,-.2,-.1,-.4,-.2,-.6c-.2,-.2,-.4,-.3,-.6,-.3c-.3,0,-.5,.1,-.6,.3c-.2,.2,-.3,.4,-.3,.6Zm3.2,-.5c0,-.2,.1,-.3,.2,-.5c0,-.1,.1,-.3,.3,-.4c.1,-.1,.3,-.1,.5,-.2c.1,0,.3,0,.5,0c.5,0,.8,.1,1.1,.3c.2,.2,.4,.5,.4,.8h-.8c0,-.1,-.1,-.3,-.2,-.4c-.1,-.1,-.3,-.1,-.5,-.1c-.2,0,-.3,0,-.5,.1c-.1,.1,-.1,.2,-.1,.4q0,.1,0,.2q.1,.1,.3,.1c.1,.1,.2,.1,.2,.1c.1,.1,.2,.1,.4,.1c.2,.1,.4,.1,.5,.1c.2,.1,.3,.1,.4,.2c.1,.1,.2,.2,.3,.3c.1,.2,.1,.3,.1,.5c0,.4,-.2,.7,-.4,.9c-.3,.2,-.7,.3,-1.2,.3c-.5,0,-.9,-.1,-1.1,-.3c-.3,-.2,-.4,-.5,-.4,-.8h.8c0,.2,.1,.3,.2,.4c.1,.1,.3,.1,.5,.1c.3,0,.4,0,.6,-.1c.1,-.1,.2,-.3,.2,-.4c0,-.1,-.1,-.2,-.1,-.2q-.1,-.1,-.2,-.2c-.1,0,-.2,0,-.3,-.1c-.1,0,-.2,0,-.3,0c0,0,-.1,0,-.1,-.1c-.2,0,-.4,0,-.5,-.1c-.1,0,-.3,-.1,-.4,-.2c-.1,-.1,-.2,-.2,-.3,-.3c0,-.1,-.1,-.3,-.1,-.5Zm3.7,1v-.3c0,-.6,.2,-1,.5,-1.3c.3,-.4,.7,-.5,1.2,-.5c.5,0,.8,.1,1.1,.3c.3,.3,.4,.6,.5,1h-.9c0,-.2,-.1,-.4,-.2,-.5c-.1,-.1,-.3,-.1,-.5,-.1c-.2,0,-.4,.1,-.6,.3c-.1,.2,-.2,.4,-.2,.8v.3c0,.3,.1,.6,.2,.8c.2,.2,.4,.3,.6,.3c.3,0,.4,0,.5,-.1c.2,-.1,.2,-.3,.3,-.4h.8c-.1,.4,-.2,.7,-.5,.9c-.3,.2,-.7,.3,-1.1,.3c-.5,0,-.9,-.1,-1.2,-.5c-.3,-.3,-.5,-.8,-.5,-1.3Zm4,1.8v-3.9h.9v.5c.1,-.1,.2,-.2,.4,-.4c.1,-.1,.3,-.1,.6,-.1q.1,0,.2,0v.7c0,0,-.1,0,-.3,0c-.6,0,-.9,.3,-.9,.9v2.3Zm4.3,0c-.5,0,-.9,-.1,-1.2,-.5c-.4,-.3,-.5,-.7,-.5,-1.3V848c0,-.5,.1,-.9,.5,-1.3c.3,-.3,.7,-.4,1.2,-.4c.5,0,.9,.1,1.2,.4c.3,.4,.4,.8,.4,1.4v.3h-2.5v.1c0,.3,.1,.6,.3,.8c.1,.2,.3,.3,.6,.3c.2,0,.4,-.1,.5,-.2c.1,-.1,.2,-.2,.3,-.4h.8c-.1,.4,-.2,.7,-.5,.9c-.3,.2,-.6,.3,-1.1,.3Zm-.9,-2.3H699v-.1c0,-.2,-.1,-.4,-.2,-.6c-.2,-.2,-.4,-.3,-.6,-.3c-.3,0,-.5,.1,-.6,.3c-.2,.2,-.3,.4,-.3,.6Zm4.2,2.3l-1.3,-3.9h.9l.8,3h.1l.9,-3h.9l-1.4,3.9Zm4.3,0c-.5,0,-.9,-.1,-1.3,-.5c-.3,-.3,-.4,-.7,-.4,-1.3V848c0,-.5,.1,-.9,.4,-1.3c.3,-.3,.8,-.4,1.3,-.4c.5,0,.9,.1,1.2,.4c.3,.4,.4,.8,.4,1.4v.3h-2.5v.1c0,.3,.1,.6,.3,.8c.1,.2,.3,.3,.6,.3c.2,0,.4,-.1,.5,-.2c.1,-.1,.2,-.2,.3,-.4h.8c-.1,.4,-.2,.7,-.5,.9c-.3,.2,-.6,.3,-1.1,.3Zm-.9,-2.3h1.7v-.1c0,-.2,-.1,-.4,-.2,-.6c-.2,-.2,-.4,-.3,-.6,-.3c-.3,0,-.5,.1,-.6,.3c-.2,.2,-.3,.4,-.3,.6Zm3.4,2.3v-3.9h.8v.5c.1,-.1,.2,-.2,.4,-.4c.1,-.1,.3,-.1,.6,-.1c.1,0,.2,0,.2,0v.7c0,0,-.1,0,-.3,0c-.6,0,-.9,.3,-.9,.9v2.3Z" class="g11_36" />
<path fill-rule="evenodd" d="M649.6,847.5c0,-.2,.1,-1.1,.1,-1.3c.3,-1.1,.8,-2.1,1.5,-2.9c.5,-.4,.7,-.6,1.3,-.9c.4,-.3,1,-.5,1.5,-.7c.4,-.1,1.2,-.2,1.6,-.1c.3,0,.4,0,1,.1c1,.2,2.1,.7,2.8,1.5c.9,.9,1.5,2,1.7,3.4c.3,1.7,-.3,3.5,-1.5,4.8c-.2,.1,-.3,.2,-.4,.3q-.1,.1,-.2,.2c-.6,.5,-1.4,.9,-2.2,1.1c-.4,.1,-1.2,.2,-1.6,.1q-.3,0,-1,-.1c-1,-.2,-2.1,-.7,-2.8,-1.5l-.5,-.6c-.7,-.8,-1.1,-1.7,-1.2,-2.7c-.1,-.4,0,-.5,-.1,-.7Zm-.9,-.4c0,1.5,.3,2.4,.9,3.6c.5,.8,1.2,1.6,1.9,2.1c.2,.1,.4,.2,.5,.3c1.2,.7,2.1,.9,3.6,.9c2.2,0,4.5,-1.4,5.6,-3.3c.6,-1.2,.9,-2.1,.9,-3.6c0,-1.1,-.4,-2.2,-.9,-3.1c-1.1,-1.9,-3.4,-3.3,-5.6,-3.3c-1.5,0,-2.4,.2,-3.6,.9c-1.9,1,-3.3,3.3,-3.3,5.5Z" class="g7_36" />
<path fill-rule="evenodd" d="M652,849.4c0,.1,.1,.3,.2,.4c.7,.9,1.9,1.6,3,1.6h.4c1.1,0,2,-.6,2.7,-1.3c.1,-.1,.5,-.5,.5,-.7c-.1,-.1,-.6,-.4,-.7,-.4c-.2,.1,-.7,1.2,-2.2,1.4c-.5,.1,-.9,.1,-1.4,-.1c-.6,-.1,-1.2,-.6,-1.5,-1c-.1,-.1,-.2,-.3,-.3,-.3c-.1,0,-.6,.3,-.7,.4Z" class="g7_36" />
<path fill-rule="evenodd" d="M652.7,846c0,.9,1.1,1.2,1.6,.7c.4,-.5,.2,-1.6,-.7,-1.6c-.5,0,-.9,.4,-.9,.9Z" class="g7_36" />
<path fill-rule="evenodd" d="M656.3,846c0,1.2,1.8,1.2,1.8,0c0,-.5,-.4,-.9,-1,-.9c-.4,0,-.8,.4,-.8,.9Z" class="g7_36" />
<path d="M610.7,835.4H878.8m-208,3.7v17.7" class="g12_36" />
<path fill-rule="evenodd" d="M634.3,672c6.7,0,12.2,5.5,12.2,12.2c0,6.7,-5.5,12.1,-12.2,12.1c-6.7,0,-12.1,-5.4,-12.1,-12.1c0,-6.7,5.4,-12.2,12.1,-12.2Z" class="g13_36" />
<g clip-path="url(#c0_36)">
<path fill-rule="evenodd" d="M637.8,684.8c-.3,.3,-1,.8,-1.5,1c-1.2,.6,-2.8,.6,-4,0c-.4,-.2,-1.1,-.7,-1.4,-1c-2,1,-3.4,2.9,-3.9,5c-.1,.8,-.2,1.3,.8,1.3H641c.9,0,.8,-.5,.6,-1.3c-.4,-2.1,-1.9,-4,-3.8,-5Zm-3.5,-7.5c2.3,0,4.1,1.8,4.1,4c0,2.3,-1.8,4.1,-4.1,4.1c-2.2,0,-4,-1.8,-4,-4.1c0,-2.2,1.8,-4,4,-4Z" class="g0_36" />
</g>
<path d="M634.3,672c6.7,0,12.2,5.5,12.2,12.2c0,6.7,-5.5,12.1,-12.2,12.1c-6.7,0,-12.1,-5.4,-12.1,-12.1c0,-6.7,5.4,-12.2,12.1,-12.2Z" class="g14_36" />
<path fill-rule="evenodd" d="M634.3,705.1c6.7,0,12.2,5.5,12.2,12.2c0,6.7,-5.5,12.1,-12.2,12.1c-6.7,0,-12.1,-5.4,-12.1,-12.1c0,-6.7,5.4,-12.2,12.1,-12.2Z" class="g13_36" />
<g clip-path="url(#c1_36)">
<path fill-rule="evenodd" d="M637.8,717.9c-.3,.3,-1,.8,-1.5,1c-1.2,.6,-2.8,.6,-4,0c-.4,-.2,-1.1,-.7,-1.4,-1c-2,1,-3.4,2.9,-3.9,5c-.1,.8,-.2,1.3,.8,1.3H641c.9,0,.8,-.5,.6,-1.3c-.4,-2.1,-1.9,-4,-3.8,-5Zm-3.5,-7.5c2.3,0,4.1,1.8,4.1,4c0,2.3,-1.8,4.1,-4.1,4.1c-2.2,0,-4,-1.8,-4,-4.1c0,-2.2,1.8,-4,4,-4Z" class="g0_36" />
</g>
<path d="M634.3,705.1c6.7,0,12.2,5.5,12.2,12.2c0,6.7,-5.5,12.1,-12.2,12.1c-6.7,0,-12.1,-5.4,-12.1,-12.1c0,-6.7,5.4,-12.2,12.1,-12.2Z" class="g14_36" />
<path d="M655.5,714.8v.9h-3.6v-5.9h1v5Zm1.1,-3.2c.3,-.4,.8,-.6,1.5,-.6c.6,0,1.1,.2,1.5,.6c.4,.4,.5,1,.5,1.6v.4c0,.6,-.1,1.2,-.5,1.6c-.4,.4,-.9,.6,-1.5,.6c-.7,0,-1.2,-.2,-1.5,-.6c-.4,-.4,-.6,-1,-.6,-1.6v-.4c0,-.6,.2,-1.2,.6,-1.6Zm1.5,.2c-.4,0,-.6,.2,-.8,.4c-.2,.3,-.3,.6,-.3,1v.4c0,.4,.1,.7,.3,1c.2,.2,.4,.4,.8,.4c.3,0,.6,-.2,.7,-.4c.2,-.3,.3,-.6,.3,-1v-.4c0,-.4,-.1,-.7,-.3,-1c-.1,-.2,-.4,-.4,-.7,-.4Zm3.1,3.9v-4.6h1v.6c.1,-.2,.2,-.3,.4,-.5c.2,-.1,.4,-.2,.7,-.2c.1,0,.2,0,.4,.1v.9c-.1,-.1,-.3,-.1,-.5,-.1c-.7,0,-1,.4,-1,1.1v2.7Zm3.3,0v-4.6h1v.6h.1c.1,-.2,.2,-.3,.4,-.5c.2,-.1,.4,-.2,.7,-.2c.1,0,.2,0,.3,.1v.9c-.1,-.1,-.2,-.1,-.4,-.1c-.7,0,-1,.4,-1,1.1v2.7Zm5.8,-.6c-.3,.5,-.7,.7,-1.3,.7c-.4,0,-.8,-.2,-1.1,-.4c-.3,-.3,-.4,-.6,-.4,-1c0,-.4,.1,-.8,.4,-1c.3,-.2,.7,-.4,1.2,-.4h1.2v-.4c0,-.2,-.1,-.4,-.2,-.6c-.2,-.1,-.4,-.2,-.6,-.2c-.3,0,-.5,.1,-.6,.2c-.2,.1,-.2,.3,-.3,.5h-.9c0,-.2,0,-.4,.1,-.6c.1,-.1,.2,-.3,.3,-.4c.2,-.2,.3,-.3,.6,-.4c.2,0,.5,-.1,.8,-.1c.3,0,.6,.1,.9,.2c.3,.1,.5,.3,.7,.5c.1,.2,.2,.5,.2,.9v3.1h-1v-.6Zm-1,-.1c.3,0,.5,-.1,.7,-.2c.2,-.2,.3,-.4,.3,-.6v-.5h-1c-.2,0,-.4,0,-.6,.2c-.1,.1,-.2,.2,-.2,.4c0,.2,.1,.4,.3,.5c.1,.1,.3,.2,.5,.2Zm7,-3.9c-1.1,3,-1.6,4.5,-1.6,4.5l-.1,.3c-.1,.3,-.2,.4,-.3,.6c-.1,.1,-.2,.3,-.3,.4c-.1,.2,-.3,.3,-.5,.3c-.2,.1,-.4,.2,-.7,.2c-.2,0,-.4,-.1,-.6,-.1v-.8c.1,.1,.2,.1,.4,.1c.2,0,.4,-.1,.6,-.2c.1,-.1,.2,-.3,.2,-.5l.1,-.2l-1.6,-4.6H673l1.1,3.6l1.1,-3.6Zm.7,4.6v-4.6h1v.7c.1,-.2,.3,-.4,.5,-.6c.2,-.1,.5,-.2,.9,-.2c.4,0,.8,.2,1.1,.5c.3,.3,.5,.7,.5,1.2v3h-1.1V713c0,-.4,0,-.7,-.2,-.8c-.2,-.2,-.4,-.3,-.7,-.3c-.3,0,-.6,.1,-.7,.3c-.2,.2,-.3,.5,-.3,.8v2.7Zm7,.1c-.7,0,-1.2,-.2,-1.5,-.6c-.4,-.4,-.6,-.9,-.6,-1.6v-.5c0,-.6,.2,-1.1,.6,-1.5c.3,-.4,.8,-.6,1.4,-.6c.6,0,1.1,.2,1.5,.6c.3,.4,.5,.9,.5,1.6v.4h-3v.1c0,.4,.1,.7,.3,.9c.2,.3,.5,.4,.8,.4c.2,0,.4,-.1,.6,-.2c.1,-.1,.2,-.2,.3,-.4h1c-.1,.4,-.3,.7,-.6,1c-.3,.2,-.8,.4,-1.3,.4Zm-1.1,-2.9h2c0,-.3,-.1,-.6,-.3,-.8c-.1,-.2,-.4,-.3,-.7,-.3c-.3,0,-.5,.1,-.7,.3c-.2,.2,-.3,.5,-.3,.8Zm9.5,1.9v.9h-3.7v-5.9h1.1v5Zm.8,.9v-4.6h1v4.6Zm.1,-5.3c-.1,-.1,-.2,-.3,-.2,-.4c0,-.2,.1,-.3,.2,-.4c.1,-.1,.2,-.2,.4,-.2c.2,0,.3,.1,.4,.2c.1,.1,.2,.2,.2,.4c0,.1,-.1,.3,-.2,.4c-.1,.1,-.2,.1,-.4,.1c-.2,0,-.3,0,-.4,-.1Zm2.1,5.3v-4.6h1.1v.6c.1,-.2,.2,-.3,.4,-.5c.2,-.1,.5,-.2,.8,-.2c.3,0,.6,.1,.8,.2c.3,.2,.4,.4,.5,.6c.1,-.2,.3,-.4,.5,-.5c.3,-.2,.6,-.3,.9,-.3c.5,0,.9,.2,1.2,.4c.2,.3,.4,.7,.4,1.2v3.1h-1.1v-2.9c0,-.3,0,-.5,-.2,-.7c-.1,-.1,-.4,-.2,-.6,-.2c-.3,0,-.5,.1,-.7,.3c-.1,.1,-.2,.4,-.2,.7v2.8h-1v-2.8c0,-.3,-.1,-.6,-.2,-.8c-.2,-.1,-.4,-.2,-.7,-.2c-.2,0,-.4,.1,-.6,.3c-.1,.1,-.2,.4,-.2,.7v2.8Zm10.3,-.6c-.3,.5,-.7,.7,-1.3,.7c-.5,0,-.8,-.2,-1.1,-.4c-.3,-.3,-.4,-.6,-.4,-1c0,-.4,.1,-.8,.4,-1c.3,-.2,.7,-.4,1.2,-.4h1.2v-.4c0,-.2,-.1,-.4,-.2,-.6c-.2,-.1,-.4,-.2,-.7,-.2c-.2,0,-.4,.1,-.5,.2c-.2,.1,-.3,.3,-.3,.5h-.9c0,-.2,0,-.4,.1,-.6c.1,-.1,.2,-.3,.3,-.4c.1,-.2,.3,-.3,.6,-.4c.2,0,.5,-.1,.8,-.1c.3,0,.6,.1,.9,.2c.3,.1,.5,.3,.6,.5c.2,.2,.3,.5,.3,.9v3.1h-1v-.6Zm-1,-.1c.3,0,.5,-.1,.7,-.2c.2,-.2,.3,-.4,.3,-.6v-.5h-1c-.3,0,-.4,0,-.6,.2c-.1,.1,-.2,.2,-.2,.4c0,.2,.1,.4,.2,.5c.2,.1,.4,.2,.6,.2Z" class="g7_36" />
<path fill-rule="evenodd" d="M634.3,738.6c6.7,0,12.2,5.5,12.2,12.2c0,6.7,-5.5,12.1,-12.2,12.1c-6.7,0,-12.1,-5.4,-12.1,-12.1c0,-6.7,5.4,-12.2,12.1,-12.2Z" class="g13_36" />
<g clip-path="url(#c2_36)">
<path fill-rule="evenodd" d="M637.8,751.4c-.3,.3,-1,.8,-1.5,1c-1.2,.6,-2.8,.6,-4,0c-.4,-.2,-1.1,-.7,-1.4,-1c-2,1,-3.4,2.9,-3.9,5c-.1,.8,-.2,1.3,.8,1.3H641c.9,0,.8,-.5,.6,-1.3c-.4,-2.1,-1.9,-4,-3.8,-5Zm-3.5,-7.5c2.3,0,4.1,1.8,4.1,4c0,2.3,-1.8,4.1,-4.1,4.1c-2.2,0,-4,-1.8,-4,-4.1c0,-2.2,1.8,-4,4,-4Z" class="g0_36" />
</g>
<path d="M634.3,738.6c6.7,0,12.2,5.5,12.2,12.2c0,6.7,-5.5,12.1,-12.2,12.1c-6.7,0,-12.1,-5.4,-12.1,-12.1c0,-6.7,5.4,-12.2,12.1,-12.2Z" class="g14_36" />
<path d="M656.3,745.3h-1c0,-.3,-.2,-.6,-.4,-.8c-.2,-.2,-.5,-.3,-.9,-.3c-.4,0,-.7,.2,-1,.5c-.3,.3,-.4,.7,-.4,1.3v.8c0,.6,.1,1,.4,1.3c.2,.4,.5,.5,1,.5c.4,0,.7,-.1,1,-.3c.2,-.2,.3,-.5,.3,-.8v-.4H654v-.9h2.3v1.2c0,.2,0,.4,0,.6c-.1,.2,-.2,.4,-.3,.6c-.1,.1,-.2,.3,-.4,.4c-.2,.2,-.4,.3,-.7,.4c-.3,.1,-.6,.1,-.9,.1c-.8,0,-1.4,-.2,-1.8,-.7c-.4,-.5,-.7,-1.2,-.7,-2V746c0,-.8,.3,-1.4,.7,-1.9c.5,-.5,1.1,-.7,1.8,-.7c.4,0,.7,0,1,.1c.3,.1,.5,.3,.7,.5c.2,.1,.4,.4,.5,.6c.1,.2,.1,.5,.1,.7Zm1.1,4.1v-6.2h1v6.2Zm4.1,.1c-.6,0,-1.1,-.2,-1.5,-.6c-.4,-.4,-.5,-.9,-.5,-1.6v-.5c0,-.6,.1,-1.1,.5,-1.5c.4,-.4,.9,-.6,1.5,-.6c.6,0,1.1,.2,1.4,.6c.4,.4,.5,.9,.5,1.6v.4h-2.9v.1c0,.4,.1,.7,.3,.9c.1,.3,.4,.4,.7,.4c.2,0,.4,-.1,.6,-.2c.2,-.1,.3,-.2,.3,-.4h1c-.1,.4,-.3,.7,-.6,1c-.3,.2,-.8,.4,-1.3,.4Zm-1,-2.9h1.9c0,-.3,0,-.6,-.2,-.8c-.2,-.2,-.4,-.3,-.7,-.3c-.3,0,-.6,.1,-.8,.3c-.1,.2,-.2,.5,-.2,.8Zm7.8,-1.8c-1.1,3,-1.6,4.5,-1.6,4.5l-.1,.3c-.1,.3,-.2,.4,-.3,.6c-.1,.1,-.2,.3,-.3,.4c-.1,.2,-.3,.3,-.5,.4c-.2,0,-.4,.1,-.7,.1c-.2,0,-.4,-.1,-.6,-.1v-.8c.1,.1,.2,.1,.4,.1c.2,0,.4,-.1,.6,-.2c.1,-.1,.2,-.3,.2,-.5l.1,-.2l-1.6,-4.6H665l1.1,3.6l1.1,-3.6Zm2.1,-.1c.3,0,.6,.1,.8,.2c.3,.2,.4,.3,.5,.6h.1v-2.3h1v6.2h-1v-.7c-.2,.2,-.3,.4,-.6,.6c-.2,.1,-.5,.2,-.8,.2c-.5,0,-1,-.2,-1.3,-.6c-.3,-.4,-.5,-.9,-.5,-1.6v-.4c0,-.7,.2,-1.2,.5,-1.6c.3,-.4,.8,-.6,1.3,-.6Zm.3,.9c-.3,0,-.5,.1,-.7,.3c-.2,.3,-.3,.6,-.3,1v.4c0,.4,.1,.8,.3,1c.2,.2,.4,.3,.7,.3c.4,0,.6,-.1,.8,-.3c.2,-.3,.3,-.6,.3,-1v-.4c0,-.4,-.1,-.7,-.3,-1c-.2,-.2,-.5,-.3,-.8,-.3Zm3.1,.6c0,-.3,.1,-.5,.2,-.7c.1,-.2,.2,-.3,.4,-.4c.2,-.1,.4,-.2,.6,-.3c.2,0,.4,-.1,.7,-.1c.5,0,.9,.2,1.2,.4c.3,.3,.5,.6,.5,1h-.9c-.1,-.2,-.1,-.3,-.3,-.4c-.1,-.2,-.3,-.2,-.6,-.2c-.2,0,-.4,0,-.5,.1c-.2,.1,-.3,.3,-.3,.5c0,.1,.1,.2,.1,.2c.1,.1,.2,.2,.3,.2c.1,.1,.2,.1,.3,.1c.1,0,.2,.1,.4,.1q.1,0,.1,0c.2,.1,.4,.1,.6,.2c.2,0,.3,.1,.5,.2c.1,.1,.2,.2,.3,.4c.1,.1,.1,.3,.1,.5c0,.5,-.2,.8,-.5,1.1c-.3,.3,-.8,.4,-1.4,.4c-.6,0,-1,-.1,-1.3,-.4c-.4,-.2,-.5,-.6,-.5,-1h1c0,.2,.1,.4,.2,.5c.2,.1,.4,.1,.7,.1c.2,0,.4,0,.6,-.1c.1,-.2,.2,-.3,.2,-.5c0,-.1,0,-.2,-.1,-.2c0,-.1,-.1,-.2,-.2,-.2c-.1,-.1,-.2,-.1,-.3,-.1c-.1,0,-.3,-.1,-.4,-.1q-.1,0,-.1,0c-.3,-.1,-.5,-.1,-.6,-.2c-.2,-.1,-.4,-.1,-.5,-.2c-.1,-.1,-.3,-.3,-.3,-.4c-.1,-.2,-.2,-.3,-.2,-.5Zm5,-.9c.4,-.4,.9,-.6,1.5,-.6c.7,0,1.2,.2,1.6,.6c.3,.4,.5,1,.5,1.6v.4c0,.6,-.2,1.2,-.5,1.6c-.4,.4,-.9,.6,-1.6,.6c-.6,0,-1.1,-.2,-1.5,-.6c-.3,-.4,-.5,-1,-.5,-1.6v-.4c0,-.6,.2,-1.2,.5,-1.6Zm1.5,.2c-.3,0,-.6,.2,-.7,.4c-.2,.3,-.3,.6,-.3,1v.4c0,.4,.1,.7,.3,1c.1,.2,.4,.4,.7,.4c.4,0,.6,-.2,.8,-.4c.2,-.3,.3,-.6,.3,-1v-.4c0,-.4,-.1,-.7,-.3,-1c-.2,-.2,-.4,-.4,-.8,-.4Zm3.1,3.9v-4.6h1v.7h.1c.1,-.2,.2,-.4,.4,-.5c.3,-.2,.5,-.3,.9,-.3c.5,0,.9,.2,1.2,.5c.3,.3,.4,.7,.4,1.2v3h-1v-2.7c0,-.4,-.1,-.6,-.3,-.8c-.2,-.2,-.4,-.3,-.7,-.3c-.3,0,-.5,.1,-.7,.3c-.2,.2,-.3,.5,-.3,.8v2.7Zm8,0h-1v-5.9h1Zm1.1,-3.2c0,-.3,0,-.5,.1,-.7c.1,-.2,.3,-.3,.5,-.4c.1,-.1,.3,-.2,.5,-.3c.2,0,.5,-.1,.7,-.1c.5,0,1,.2,1.3,.4c.3,.3,.4,.6,.4,1h-.9c0,-.2,-.1,-.3,-.2,-.4c-.1,-.2,-.3,-.2,-.6,-.2c-.3,0,-.5,0,-.6,.1c-.1,.1,-.2,.3,-.2,.5c0,.1,0,.2,.1,.2c0,.1,.1,.2,.3,.2c.1,.1,.2,.1,.3,.1c.1,0,.2,.1,.4,.1h.1c.2,.1,.4,.1,.6,.2c.1,0,.3,.1,.4,.2c.2,.1,.3,.2,.4,.4c0,.1,.1,.3,.1,.5c0,.5,-.2,.8,-.6,1.1c-.3,.3,-.8,.4,-1.4,.4c-.5,0,-1,-.1,-1.3,-.4c-.3,-.2,-.5,-.6,-.5,-1h1c0,.2,.1,.4,.3,.5c.1,.1,.3,.1,.6,.1c.3,0,.5,0,.6,-.1c.2,-.2,.3,-.3,.3,-.5c0,-.1,-.1,-.2,-.1,-.2c-.1,-.1,-.1,-.2,-.2,-.2c-.2,-.1,-.3,-.1,-.4,-.1c-.1,0,-.2,-.1,-.4,-.1c0,0,-.1,0,-.1,0c-.2,-.1,-.4,-.1,-.6,-.2c-.1,-.1,-.3,-.1,-.4,-.2c-.2,-.1,-.3,-.3,-.4,-.4c-.1,-.2,-.1,-.3,-.1,-.5Zm6.5,3.3c-.7,0,-1.2,-.2,-1.5,-.6c-.4,-.4,-.6,-.9,-.6,-1.6v-.5c0,-.6,.2,-1.1,.6,-1.5c.3,-.4,.8,-.6,1.4,-.6c.6,0,1.1,.2,1.5,.6c.3,.4,.5,.9,.5,1.6v.4h-3v.1c0,.4,.1,.7,.3,.9c.2,.3,.5,.4,.8,.4c.2,0,.4,-.1,.6,-.2c.1,-.1,.2,-.2,.3,-.4h1c-.1,.4,-.3,.7,-.6,1c-.4,.2,-.8,.4,-1.3,.4Zm-1.1,-2.9h2c0,-.3,-.1,-.6,-.3,-.8c-.1,-.2,-.4,-.3,-.7,-.3c-.3,0,-.5,.1,-.7,.3c-.2,.2,-.3,.5,-.3,.8Zm3.8,.7v-.4c0,-.7,.2,-1.2,.6,-1.6c.3,-.4,.8,-.6,1.4,-.6c.6,0,1,.2,1.4,.5c.3,.3,.5,.6,.5,1.1h-1c0,-.2,-.1,-.4,-.3,-.5c-.1,-.2,-.3,-.2,-.5,-.2c-.3,0,-.6,.1,-.8,.3c-.2,.3,-.2,.6,-.2,1v.4c0,.4,0,.7,.2,1c.2,.2,.5,.3,.8,.3c.2,0,.4,0,.6,-.1c.1,-.2,.2,-.3,.2,-.5h1c-.1,.5,-.2,.8,-.6,1.1c-.3,.3,-.7,.4,-1.3,.4c-.6,0,-1.1,-.2,-1.4,-.6c-.4,-.4,-.6,-1,-.6,-1.6Zm5.9,.5v1.6h-1.1v-6.2h1.1v3.5l1.6,-1.9h1.2l-1.7,2l1.8,2.6h-1.2l-1.4,-2Zm5.3,1.7c-.7,0,-1.2,-.2,-1.5,-.6c-.4,-.4,-.6,-.9,-.6,-1.6v-.5c0,-.6,.2,-1.1,.6,-1.5c.3,-.4,.8,-.6,1.4,-.6c.6,0,1.1,.2,1.5,.6c.3,.4,.5,.9,.5,1.6v.4h-3v.1c0,.4,.1,.7,.3,.9c.2,.3,.5,.4,.8,.4c.2,0,.4,-.1,.6,-.2c.1,-.1,.2,-.2,.3,-.4h1c-.1,.4,-.3,.7,-.6,1c-.4,.2,-.8,.4,-1.3,.4Zm-1.1,-2.9h2c0,-.3,-.1,-.6,-.3,-.8c-.2,-.2,-.4,-.3,-.7,-.3c-.3,0,-.5,.1,-.7,.3c-.2,.2,-.3,.5,-.3,.8Z" class="g7_36" />
<path fill-rule="evenodd" d="M634.3,772c6.7,0,12.2,5.5,12.2,12.2c0,6.7,-5.5,12.1,-12.2,12.1c-6.7,0,-12.1,-5.4,-12.1,-12.1c0,-6.7,5.4,-12.2,12.1,-12.2Z" class="g13_36" />
<g clip-path="url(#c3_36)">
<path fill-rule="evenodd" d="M637.8,784.8c-.3,.3,-1,.8,-1.5,1c-1.2,.6,-2.8,.6,-4,0c-.4,-.2,-1.1,-.7,-1.4,-1c-2,1,-3.4,2.9,-3.9,5c-.1,.8,-.2,1.3,.8,1.3H641c.9,0,.8,-.5,.6,-1.3c-.4,-2.1,-1.9,-4,-3.8,-5Zm-3.5,-7.5c2.3,0,4.1,1.8,4.1,4c0,2.3,-1.8,4.1,-4.1,4.1c-2.2,0,-4,-1.8,-4,-4.1c0,-2.2,1.8,-4,4,-4Z" class="g0_36" />
</g>
<path d="M654.5,782.6h-1.2l-2,-5.9h1.2l1.4,4.7l1.5,-4.7h1.1Zm4.9,-.6c-.3,.5,-.7,.7,-1.3,.7c-.5,0,-.8,-.2,-1.1,-.4c-.3,-.3,-.4,-.6,-.4,-1c0,-.4,.1,-.8,.4,-1c.3,-.2,.7,-.4,1.2,-.4h1.2v-.4c0,-.2,-.1,-.4,-.3,-.6c-.1,-.1,-.3,-.2,-.6,-.2c-.2,0,-.4,.1,-.6,.2c-.1,.1,-.2,.3,-.2,.5h-1c.1,-.2,.1,-.4,.2,-.6c0,-.2,.1,-.3,.3,-.4c.1,-.2,.3,-.3,.6,-.4c.2,0,.5,-.1,.8,-.1c.3,0,.6,.1,.9,.2c.3,.1,.5,.3,.6,.5c.2,.2,.3,.5,.3,.9v3.1h-1V782Zm-1,-.1c.3,0,.5,-.1,.7,-.2c.2,-.2,.3,-.4,.3,-.6v-.5h-1c-.3,0,-.5,0,-.6,.2c-.1,.1,-.2,.2,-.2,.4c0,.2,.1,.4,.2,.5c.2,.1,.4,.2,.6,.2Zm3.1,.7V778h1v.7h.1c.1,-.2,.2,-.4,.5,-.6c.2,-.1,.5,-.2,.8,-.2c.5,0,.9,.2,1.2,.5c.3,.3,.4,.7,.4,1.2v3h-1v-2.7c0,-.4,-.1,-.7,-.3,-.8c-.2,-.2,-.4,-.3,-.7,-.3c-.3,0,-.5,.1,-.7,.3c-.2,.2,-.2,.5,-.2,.8v2.7Zm7,.1c-.6,0,-1.1,-.2,-1.5,-.6c-.3,-.4,-.5,-.9,-.5,-1.6V780c0,-.6,.2,-1.1,.5,-1.5c.4,-.4,.9,-.6,1.5,-.6c.6,0,1.1,.2,1.4,.6c.4,.4,.6,.9,.6,1.6v.4h-3v.1c0,.4,.1,.7,.3,.9c.2,.3,.4,.4,.7,.4c.3,0,.5,-.1,.6,-.2c.2,-.1,.3,-.3,.3,-.4h1c-.1,.4,-.3,.7,-.6,1c-.3,.2,-.7,.4,-1.3,.4Zm-1,-2.9h2c0,-.3,-.1,-.6,-.3,-.8c-.2,-.2,-.4,-.3,-.7,-.3c-.3,0,-.6,.1,-.7,.3c-.2,.2,-.3,.5,-.3,.8Zm3.8,-.5c0,-.2,0,-.4,.1,-.6c.1,-.2,.3,-.3,.4,-.4c.2,-.2,.4,-.2,.6,-.3c.2,-.1,.4,-.1,.7,-.1c.5,0,1,.1,1.3,.4c.3,.3,.4,.6,.4,1h-.9c0,-.2,-.1,-.3,-.2,-.4c-.2,-.2,-.4,-.2,-.6,-.2c-.3,0,-.5,0,-.6,.1c-.2,.1,-.2,.3,-.2,.4q0,.2,.1,.3c0,.1,.1,.2,.2,.2c.2,.1,.3,.1,.4,.1c0,0,.2,.1,.4,.1c.3,0,.5,.1,.6,.2c.2,0,.4,.1,.5,.2c.2,.1,.3,.2,.3,.4c.1,.1,.1,.3,.1,.5c0,.5,-.1,.8,-.5,1.1c-.3,.2,-.8,.4,-1.4,.4c-.5,0,-1,-.1,-1.3,-.4c-.3,-.2,-.5,-.6,-.5,-1h1c0,.2,.1,.4,.3,.5c.1,.1,.3,.1,.6,.1c.3,0,.5,0,.6,-.1c.2,-.2,.2,-.3,.2,-.5c0,-.1,0,-.2,0,-.2c-.1,-.1,-.2,-.2,-.3,-.2c-.1,-.1,-.2,-.1,-.3,-.1c-.1,-.1,-.2,-.1,-.4,-.1c0,0,-.1,0,-.1,0c-.2,-.1,-.4,-.1,-.6,-.2c-.2,-.1,-.3,-.1,-.5,-.2c-.1,-.1,-.2,-.3,-.3,-.4c-.1,-.2,-.1,-.4,-.1,-.6Zm4.4,0c0,-.2,.1,-.4,.2,-.6c.1,-.2,.2,-.3,.4,-.4c.1,-.2,.3,-.2,.5,-.3c.3,-.1,.5,-.1,.7,-.1c.6,0,1,.1,1.3,.4c.3,.3,.5,.6,.5,1h-1c0,-.2,-.1,-.3,-.2,-.4c-.1,-.2,-.3,-.2,-.6,-.2c-.2,0,-.4,0,-.6,.1c-.1,.1,-.2,.3,-.2,.4q0,.2,.1,.3c.1,.1,.1,.2,.3,.2c.1,.1,.2,.1,.3,.1c.1,0,.2,.1,.4,.1c0,0,.1,0,.1,0c.2,0,.4,.1,.6,.2c.1,0,.3,.1,.4,.2c.2,.1,.3,.2,.4,.4c.1,.1,.1,.3,.1,.5c0,.5,-.2,.8,-.5,1.1c-.4,.2,-.8,.4,-1.4,.4c-.6,0,-1,-.1,-1.4,-.4c-.3,-.2,-.5,-.6,-.5,-1h1c.1,.2,.2,.4,.3,.5c.2,.1,.4,.1,.6,.1c.3,0,.5,0,.7,-.1c.1,-.2,.2,-.3,.2,-.5c0,-.1,0,-.2,-.1,-.2c0,-.1,-.1,-.2,-.2,-.2c-.1,-.1,-.2,-.1,-.3,-.1c-.1,-.1,-.3,-.1,-.4,-.1q-.1,0,-.2,0c-.2,-.1,-.4,-.1,-.5,-.2c-.2,-.1,-.4,-.1,-.5,-.2c-.2,-.1,-.3,-.3,-.4,-.4c0,-.2,-.1,-.4,-.1,-.6Zm7.2,2.7c-.3,.5,-.7,.7,-1.3,.7c-.5,0,-.8,-.2,-1.1,-.4c-.3,-.3,-.4,-.6,-.4,-1c0,-.4,.1,-.8,.4,-1c.3,-.2,.7,-.4,1.2,-.4h1.2v-.4c0,-.2,-.1,-.4,-.2,-.6c-.2,-.1,-.4,-.2,-.6,-.2c-.3,0,-.5,.1,-.6,.2c-.2,.1,-.3,.3,-.3,.5h-.9c0,-.2,0,-.4,.1,-.6c.1,-.2,.2,-.3,.3,-.4c.1,-.2,.3,-.3,.6,-.4c.2,0,.5,-.1,.8,-.1c.3,0,.6,.1,.9,.2c.3,.1,.5,.3,.6,.5c.2,.2,.3,.5,.3,.9v3.1h-1V782Zm-1,-.1c.3,0,.5,-.1,.7,-.2c.2,-.2,.3,-.4,.3,-.6v-.5h-1c-.3,0,-.4,0,-.6,.2c-.1,.1,-.2,.2,-.2,.4c0,.2,.1,.4,.2,.5c.2,.1,.4,.2,.6,.2Zm9.7,.7h-1V780h-2.7v2.6h-1v-5.9h1v2.4h2.7v-2.4h1Zm1.3,0V778h1v4.6Zm.1,-5.3c-.1,-.1,-.2,-.3,-.2,-.4c0,-.2,.1,-.3,.2,-.4c.1,-.1,.2,-.2,.4,-.2c.2,0,.3,.1,.4,.2c.2,.1,.2,.2,.2,.4c0,.1,0,.3,-.2,.4c-.1,.1,-.2,.1,-.4,.1c-.2,0,-.3,0,-.4,-.1Zm2.5,.7v-1.1h1V778h.9v.8h-.9v2.4c0,.2,0,.4,.1,.5c.1,.1,.3,.1,.6,.1c.1,0,.2,0,.2,0v.8c-.1,0,-.3,0,-.5,0c-.3,0,-.6,0,-.9,-.1c-.2,-.1,-.3,-.3,-.4,-.4c-.1,-.2,-.1,-.5,-.1,-.8v-2.5h-.7V778Zm3.2,.5c.4,-.4,.9,-.6,1.5,-.6c.7,0,1.2,.2,1.5,.6c.4,.4,.6,1,.6,1.6v.4c0,.6,-.2,1.2,-.5,1.6c-.4,.4,-.9,.6,-1.6,.6c-.6,0,-1.1,-.2,-1.5,-.6c-.4,-.4,-.5,-1,-.5,-1.6v-.4c0,-.6,.1,-1.2,.5,-1.6Zm1.5,.2c-.3,0,-.6,.2,-.7,.4c-.2,.3,-.3,.6,-.3,1v.4c0,.4,.1,.7,.3,1c.1,.2,.4,.4,.7,.4c.4,0,.6,-.2,.8,-.4c.2,-.3,.3,-.6,.3,-1v-.4c0,-.4,-.1,-.7,-.3,-1c-.2,-.2,-.4,-.4,-.8,-.4Zm3.1,3.9V778h1v.6h.1c0,-.2,.2,-.3,.4,-.5c.2,-.1,.4,-.2,.8,-.2c.3,0,.6,.1,.8,.2c.2,.2,.4,.4,.5,.6c.1,-.2,.3,-.4,.5,-.5c.2,-.2,.5,-.3,.9,-.3c.5,0,.8,.2,1.1,.4c.3,.3,.4,.7,.4,1.2v3.1h-1v-2.9c0,-.3,-.1,-.5,-.2,-.7c-.2,-.1,-.4,-.2,-.7,-.2c-.2,0,-.5,.1,-.6,.3c-.2,.1,-.2,.4,-.2,.7v2.8h-1v-2.8c0,-.3,-.1,-.6,-.3,-.8c-.1,-.1,-.3,-.2,-.6,-.2c-.3,0,-.5,.1,-.6,.2c-.2,.2,-.3,.5,-.3,.8v2.8Zm7.7,0V778h1.1v4.6Zm.1,-5.3c-.1,-.1,-.2,-.3,-.2,-.4c0,-.2,.1,-.3,.2,-.4c.1,-.1,.3,-.2,.4,-.2c.2,0,.4,.1,.5,.2c.1,.1,.1,.2,.1,.4c0,.1,0,.3,-.1,.4c-.1,.1,-.3,.1,-.5,.1c-.1,0,-.3,0,-.4,-.1Z" class="g7_36" />
<path fill-rule="evenodd" d="M634.3,805.5c6.7,0,12.2,5.5,12.2,12.2c0,6.7,-5.5,12.1,-12.2,12.1c-6.7,0,-12.1,-5.4,-12.1,-12.1c0,-6.7,5.4,-12.2,12.1,-12.2Z" class="g13_36" />
<g clip-path="url(#c4_36)">
<path fill-rule="evenodd" d="M637.8,818.3c-.3,.3,-1,.8,-1.5,1c-1.2,.6,-2.8,.6,-4,0c-.4,-.2,-1.1,-.7,-1.4,-1c-2,1,-3.4,2.9,-3.9,5c-.1,.8,-.2,1.3,.8,1.3H641c.9,0,.8,-.5,.6,-1.3c-.4,-2.1,-1.9,-4,-3.8,-5Zm-3.5,-7.5c2.3,0,4.1,1.8,4.1,4c0,2.3,-1.8,4.1,-4.1,4.1c-2.2,0,-4,-1.8,-4,-4.1c0,-2.2,1.8,-4,4,-4Z" class="g0_36" />
</g>
<path d="M656.4,812h-1c-.1,-.3,-.2,-.6,-.4,-.8c-.3,-.2,-.6,-.3,-.9,-.3c-.4,0,-.8,.2,-1,.5c-.3,.3,-.4,.7,-.4,1.3v.8c0,.6,.1,1,.3,1.3c.3,.4,.6,.5,1.1,.5c.4,0,.7,-.1,.9,-.3c.3,-.2,.4,-.5,.4,-.8v-.5h-1.3v-.8h2.3v1.2c0,.2,0,.4,-.1,.6c0,.2,-.1,.3,-.2,.5c-.1,.2,-.3,.4,-.4,.5c-.2,.2,-.4,.3,-.7,.4c-.3,.1,-.6,.1,-.9,.1c-.8,0,-1.4,-.2,-1.9,-.7c-.4,-.5,-.6,-1.2,-.6,-2v-.8c0,-.8,.2,-1.5,.7,-1.9c.4,-.5,1,-.8,1.8,-.8c.4,0,.7,.1,1,.2c.3,.1,.5,.3,.7,.4c.2,.2,.3,.4,.4,.7c.1,.2,.2,.5,.2,.7Zm1.1,4.1v-6.3h1v6.3Zm4.1,.1c-.7,0,-1.2,-.2,-1.5,-.6c-.4,-.4,-.6,-.9,-.6,-1.6v-.5c0,-.6,.2,-1.1,.6,-1.5c.3,-.4,.8,-.6,1.4,-.6c.6,0,1.1,.2,1.5,.6c.3,.4,.5,.9,.5,1.6v.4h-3v.1c0,.4,.1,.7,.3,.9c.2,.3,.5,.4,.8,.4c.2,0,.4,-.1,.6,-.2c.1,-.1,.2,-.3,.3,-.5h1c-.1,.4,-.3,.8,-.6,1.1c-.3,.2,-.8,.4,-1.3,.4Zm-1.1,-2.9h2c0,-.3,-.1,-.6,-.3,-.8c-.1,-.2,-.4,-.3,-.7,-.3c-.3,0,-.5,.1,-.7,.3c-.2,.2,-.3,.5,-.3,.8Zm7.8,-1.8c-1,3,-1.5,4.5,-1.5,4.5l-.1,.3c-.1,.2,-.2,.4,-.3,.6c-.1,.1,-.2,.3,-.3,.4c-.2,.2,-.3,.3,-.5,.3c-.2,.1,-.5,.1,-.7,.1c-.3,0,-.4,0,-.6,0v-.8c.1,.1,.2,.1,.3,.1c.3,0,.5,-.1,.6,-.2c.2,-.1,.3,-.3,.3,-.5l.1,-.2l-1.7,-4.6h1.2l1,3.6h.1l1,-3.6Zm2.2,-.1c.3,0,.6,.1,.8,.2c.2,.2,.4,.3,.5,.5v-2.3h1.1v6.3h-1v-.7h-.1c-.1,.2,-.3,.4,-.5,.5c-.2,.2,-.5,.3,-.8,.3c-.6,0,-1,-.2,-1.3,-.6c-.3,-.4,-.5,-.9,-.5,-1.6v-.4c0,-.7,.2,-1.2,.5,-1.6c.3,-.4,.7,-.6,1.3,-.6Zm.3,.9c-.3,0,-.6,.1,-.8,.3c-.1,.2,-.2,.6,-.2,1v.4c0,.4,.1,.7,.2,1c.2,.2,.5,.3,.8,.3c.3,0,.6,-.1,.8,-.3c.2,-.3,.3,-.6,.3,-1v-.4c0,-.4,-.1,-.7,-.3,-1c-.2,-.2,-.5,-.3,-.8,-.3Zm3.1,.5c0,-.2,.1,-.4,.2,-.6c.1,-.2,.2,-.3,.4,-.5c.1,-.1,.3,-.1,.5,-.2c.3,-.1,.5,-.1,.7,-.1c.6,0,1,.1,1.3,.4c.3,.2,.4,.6,.4,1h-.9c0,-.2,-.1,-.3,-.2,-.5c-.1,-.1,-.3,-.2,-.6,-.2c-.2,0,-.4,.1,-.6,.2c-.1,.1,-.2,.3,-.2,.4c0,.1,0,.2,.1,.3c0,.1,.1,.1,.3,.2c.1,0,.2,.1,.3,.1c.1,0,.2,0,.4,.1c0,0,.1,0,.1,0c.2,0,.4,.1,.6,.1c.1,.1,.3,.2,.4,.3c.2,.1,.3,.2,.4,.3c0,.2,.1,.4,.1,.6c0,.5,-.2,.8,-.5,1.1c-.4,.2,-.8,.4,-1.4,.4c-.6,0,-1,-.2,-1.4,-.4c-.3,-.2,-.5,-.6,-.5,-1h1c.1,.2,.1,.3,.3,.5c.2,.1,.4,.1,.6,.1c.3,0,.5,0,.7,-.1c.1,-.2,.2,-.3,.2,-.5c0,-.1,0,-.2,-.1,-.2c0,-.1,-.1,-.2,-.2,-.2c-.1,-.1,-.2,-.1,-.3,-.1c-.1,-.1,-.3,-.1,-.4,-.1q-.1,0,-.2,0c-.2,-.1,-.4,-.1,-.6,-.2c-.1,-.1,-.3,-.1,-.4,-.2c-.2,-.1,-.3,-.3,-.4,-.4c0,-.2,-.1,-.4,-.1,-.6Zm5,-.8c.4,-.4,.9,-.6,1.5,-.6c.7,0,1.2,.2,1.5,.6c.4,.4,.6,.9,.6,1.6v.4c0,.6,-.2,1.2,-.6,1.6c-.3,.4,-.8,.6,-1.5,.6c-.6,0,-1.1,-.2,-1.5,-.6c-.4,-.4,-.6,-1,-.6,-1.6v-.4c0,-.6,.2,-1.2,.6,-1.6Zm1.5,.2c-.3,0,-.6,.1,-.8,.4c-.1,.2,-.2,.6,-.2,1v.4c0,.4,.1,.7,.2,1c.2,.2,.5,.4,.8,.4c.4,0,.6,-.2,.8,-.4c.2,-.3,.2,-.6,.2,-1v-.4c0,-.4,0,-.8,-.2,-1c-.2,-.3,-.4,-.4,-.8,-.4Zm3.1,3.9v-4.6h1v.6c.1,-.1,.3,-.3,.5,-.5c.2,-.1,.5,-.2,.9,-.2c.5,0,.8,.2,1.1,.5c.3,.3,.5,.7,.5,1.2v3h-1v-2.8c0,-.3,-.1,-.6,-.3,-.7c-.2,-.2,-.4,-.3,-.7,-.3c-.3,0,-.6,.1,-.7,.3c-.2,.2,-.3,.5,-.3,.8v2.7Zm8,0h-1.1v-5.9h1.1Zm1.1,-3.3c0,-.2,0,-.4,.1,-.6c.1,-.2,.3,-.3,.4,-.5c.2,-.1,.4,-.1,.6,-.2c.2,-.1,.4,-.1,.7,-.1c.5,0,.9,.1,1.2,.4c.3,.2,.5,.6,.5,1h-.9c0,-.2,-.1,-.3,-.2,-.5c-.2,-.1,-.4,-.2,-.6,-.2c-.3,0,-.5,.1,-.6,.2c-.2,.1,-.2,.3,-.2,.4c0,.1,0,.2,0,.3c.1,.1,.2,.1,.3,.2c.2,0,.3,.1,.3,.1c.1,0,.3,0,.4,.1q.1,0,.1,0c.3,0,.5,.1,.6,.1c.2,.1,.3,.2,.5,.3c.1,.1,.2,.2,.3,.3c.1,.2,.1,.4,.1,.6c0,.5,-.1,.8,-.5,1.1c-.3,.2,-.8,.4,-1.4,.4c-.5,0,-1,-.2,-1.3,-.4c-.4,-.2,-.5,-.6,-.5,-1h1c0,.2,.1,.3,.3,.5c.1,.1,.3,.1,.6,.1c.3,0,.5,0,.6,-.1c.2,-.2,.2,-.3,.2,-.5c0,-.1,0,-.2,0,-.2c-.1,-.1,-.2,-.2,-.3,-.2c-.1,-.1,-.2,-.1,-.3,-.1c-.1,-.1,-.2,-.1,-.4,-.1c0,0,-.1,0,-.1,0c-.2,-.1,-.4,-.1,-.6,-.2c-.2,-.1,-.3,-.1,-.5,-.2c-.1,-.1,-.2,-.3,-.3,-.4c-.1,-.2,-.1,-.4,-.1,-.6Zm6.4,3.4c-.6,0,-1.1,-.2,-1.5,-.6c-.3,-.4,-.5,-.9,-.5,-1.6v-.5c0,-.6,.2,-1.1,.5,-1.5c.4,-.4,.9,-.6,1.5,-.6c.6,0,1.1,.2,1.4,.6c.4,.4,.6,.9,.6,1.6v.4h-3v.1c0,.4,.1,.7,.3,.9c.2,.3,.4,.4,.7,.4c.3,0,.5,-.1,.6,-.2c.2,-.1,.3,-.3,.4,-.5h.9c0,.4,-.2,.8,-.6,1.1c-.3,.2,-.7,.4,-1.3,.4Zm-1,-2.9h2c0,-.3,-.1,-.6,-.3,-.8c-.2,-.2,-.4,-.3,-.7,-.3c-.3,0,-.5,.1,-.7,.3c-.2,.2,-.3,.5,-.3,.8Zm3.8,.7v-.4c0,-.7,.2,-1.2,.5,-1.6c.4,-.4,.9,-.6,1.5,-.6c.5,0,1,.2,1.3,.5c.4,.3,.5,.6,.6,1.1h-1c0,-.2,-.1,-.4,-.3,-.5c-.2,-.2,-.3,-.3,-.5,-.3c-.4,0,-.6,.2,-.8,.4c-.2,.2,-.3,.6,-.3,1v.4c0,.4,.1,.7,.3,1c.2,.2,.4,.3,.8,.3c.2,0,.4,0,.5,-.2c.2,-.1,.3,-.2,.3,-.4h1c-.1,.4,-.3,.8,-.6,1.1c-.3,.2,-.8,.4,-1.3,.4c-.6,0,-1.1,-.2,-1.5,-.6c-.3,-.4,-.5,-1,-.5,-1.6Zm5.8,.5v1.6h-1v-6.3h1v3.6h.1l1.6,-1.9h1.2l-1.7,2l1.8,2.6h-1.2l-1.4,-2Zm5.3,1.7c-.6,0,-1.1,-.2,-1.5,-.6c-.3,-.4,-.5,-.9,-.5,-1.6v-.5c0,-.6,.2,-1.1,.5,-1.5c.4,-.4,.9,-.6,1.5,-.6c.6,0,1.1,.2,1.4,.6c.4,.4,.6,.9,.6,1.6v.4h-3v.1c0,.4,.1,.7,.3,.9c.2,.3,.4,.4,.7,.4c.3,0,.5,-.1,.6,-.2c.2,-.1,.3,-.3,.4,-.5h.9c0,.4,-.2,.8,-.6,1.1c-.3,.2,-.7,.4,-1.3,.4Zm-1,-2.9h2c0,-.3,-.1,-.6,-.3,-.8c-.2,-.2,-.4,-.3,-.7,-.3c-.3,0,-.5,.1,-.7,.3c-.2,.2,-.3,.5,-.3,.8Z" class="g7_36" />
<path fill-rule="evenodd" d="M862.2,838.8c6.1,0,11,4.9,11,11c0,6.1,-4.9,11.1,-11,11.1c-6.1,0,-11.1,-5,-11.1,-11.1c0,-6.1,5,-11,11.1,-11Z" class="g7_36" />
<path fill-rule="evenodd" d="M858.9,853.9c-.2,0,-.2,-.2,-.3,-.7c-.1,-.2,-.2,-.4,-.2,-.7c-.1,-.2,-.2,-.4,-.2,-.6q-.4,-1.2,.8,-1.9l5.9,-3.6c.1,0,.2,0,.2,.1l-4.5,4.2c-.1,.1,-.2,.1,-.2,.2l-.5,.4c-.4,.4,-.6,.5,-.7,1.2l-.2,1.1c0,.1,0,.3,-.1,.3Zm-5.4,-4.5c0,.5,.3,.5,.8,.7c.9,.3,1.8,.7,2.7,1c.2,.1,.1,0,.3,.4c.4,1.2,.7,2.4,1.1,3.6c.1,.4,.2,.9,.8,.4l1.7,-1.4c.4,-.3,.6,-.2,1,.1c1,.7,2,1.4,2.9,2.1c.2,.1,.6,.5,.9,.1c.1,-.2,2.6,-12.3,2.6,-12.3c0,-.2,-.1,-.2,-.2,-.3c-.2,-.2,-.4,-.1,-.7,0c-4.5,1.8,-9.1,3.5,-13.6,5.3c-.1,.1,-.3,.2,-.3,.3Z" class="g0_36" />
<image x="301" y="458" width="269" height="436" xlink:href="shade/2.png" />
<path fill-rule="evenodd" d="M302.1,458.2H569.3V417.4H302.1Z" class="g1_36" />
<path d="M316.5,443.2h15.4v1.7H316.5Z" class="g0_36" />
<path d="M316.5,438.1h15.4v1.7H316.5Z" class="g0_36" />
<path d="M316.5,448.3h15.4V450H316.5Z" class="g0_36" />
<path fill-rule="evenodd" d="M454.5,446.3c-8.2,-2.5,-6,-21.9,8.1,-13.1c3.4,2,1.8,4.1,9.5,2.6c8.5,-1.6,3.6,19.4,-9.6,13.1c-5.3,-2.5,-6.1,-.9,-13.2,1.5c0,0,-.1,0,-.1,0Zm7,-2.1v1.1c0,.3,.1,.6,.1,.8c.1,.1,.2,.3,.3,.4c.2,.2,.4,.3,.7,.4c.3,.1,.7,.1,1.1,.1c.6,0,1,-.1,1.4,-.3c.3,-.1,.5,-.3,.6,-.6c.1,-.2,.1,-.5,.1,-.9v-1Zm-.9,-.9h6.1v1.9c0,.5,0,.8,-.1,1c-.1,.3,-.2,.6,-.4,.8c-.3,.3,-.6,.5,-1.1,.7c-.4,.1,-.9,.2,-1.4,.2c-.5,0,-.9,-.1,-1.2,-.2c-.4,-.1,-.7,-.2,-.9,-.3c-.2,-.2,-.4,-.4,-.6,-.5c-.1,-.2,-.2,-.4,-.3,-.7c0,-.3,-.1,-.5,-.1,-.9Zm4.4,-1.7h3.4v-4.3h-.7v3.5h-1.9v-3.5H465v3.5Zm-6.9,-1.1h4.1v1.1H457v-6.5h5.2v1.1h-4.1v1.6h4.1v1h-4.1Z" class="g0_36" />
<path d="M396.2,450.3h-1.1v-9.6h1.1Zm3.4,0h-1v-9.6h1l5,7.8v-7.8h1v9.6h-1l-5,-7.8Zm10.3,-8.6H407v-1h6.9v1H411Zm19.8,1.9h-1c-.1,-.7,-.4,-1.2,-.8,-1.6c-.4,-.3,-1,-.5,-1.6,-.5c-.4,0,-.8,0,-1.1,.2c-.3,.1,-.6,.3,-.8,.6c-.3,.2,-.5,.6,-.6,1c-.2,.4,-.2,.9,-.2,1.5v1.3c0,1.1,.2,1.9,.7,2.5c.4,.6,1.1,.9,1.9,.9c.8,0,1.4,-.2,1.8,-.6c.5,-.4,.7,-.9,.7,-1.6v-1h-2.5v-.9h3.6v1.9c0,.3,-.1,.6,-.2,.8c0,.3,-.2,.6,-.3,.9c-.2,.3,-.4,.5,-.7,.7c-.2,.2,-.6,.4,-1,.6c-.4,.1,-.9,.2,-1.4,.2c-1.2,0,-2.1,-.4,-2.7,-1.2c-.6,-.7,-1,-1.8,-1,-3.2v-1.3c0,-1.3,.4,-2.4,1.1,-3.1c.6,-.8,1.5,-1.2,2.7,-1.2c.5,0,1,.1,1.4,.3c.4,.1,.8,.4,1.1,.7c.3,.2,.5,.6,.6,.9c.2,.4,.3,.8,.3,1.2Zm3.1,1.8v4.9h-1v-9.6h3.3c.5,0,.9,.1,1.3,.3c.4,.1,.7,.3,1,.6c.2,.2,.4,.5,.5,.9c.1,.3,.2,.7,.2,1c0,.4,-.1,.7,-.2,1.1c-.1,.3,-.2,.5,-.4,.7c-.1,.2,-.3,.4,-.5,.5c-.2,.2,-.5,.3,-.7,.4l2,4.1h-1.2L435,445.4c.7,0,1.1,-.1,1.5,-.4c.4,-.4,.5,-.8,.5,-1.4c0,-.6,-.2,-1.1,-.5,-1.4c-.4,-.4,-.9,-.5,-1.5,-.5h-2.2Zm8.8,1l-.3,.9l-1.1,3h-1l3.4,-9.6h1l3.4,9.6h-1.1l-1,-3l-.3,-.9m0,0L443.1,442l-1.5,4.4m6.8,3.3c0,-.2,.1,-.4,.2,-.6c.2,-.1,.4,-.2,.6,-.2c.2,0,.3,.1,.5,.2c.1,.2,.2,.4,.2,.6c0,.2,-.1,.3,-.2,.5c-.2,.1,-.3,.2,-.5,.2c-.2,0,-.4,-.1,-.6,-.2c-.1,-.2,-.2,-.3,-.2,-.5Z" class="g4_36" />
<path fill-rule="evenodd" d="M415.3,440.7h5.6v1h-4.7v7.6h4.7v1h-5.6c0,-3.2,0,-6.4,0,-9.6Z" class="g4_36" />
<path fill-rule="evenodd" d="M420.7,445.9h-3.2v-1h3.2Z" class="g4_36" />
<path fill-rule="evenodd" d="M428.7,446.3h-2.5v-.9h2.5Z" class="g4_36" />
<path fill-rule="evenodd" d="M410.9,450.3v-7.4h-1v7.4Z" class="g4_36" />
<path fill-rule="evenodd" d="M320.6,471.5c0,.3,.1,.4,.3,.6c1.7,1.7,3.5,3.5,5.2,5.2c.2,.2,.6,.6,1,.7h.1c.1,0,.2,-.1,.4,-.2c.3,-.3,.2,-.7,-.1,-1c-.5,-.5,-5.2,-5.2,-5.3,-5.3c.1,-.1,4.5,-4.5,5,-4.9c.3,-.4,.6,-.5,.6,-.9c0,-.3,-.3,-.6,-.7,-.6c-.4,0,-.8,.4,-1,.6c-1.6,1.6,-3.2,3.2,-4.8,4.8c-.2,.2,-.7,.6,-.7,1Z" class="g15_36" />
<path d="M557.9,443l-2.1,-.4c-.2,-.4,-.3,-.8,-.5,-1.2l1.2,-1.7c.1,-.2,.1,-.4,-.1,-.5l-1.3,-1.4c-.2,-.1,-.4,-.1,-.5,0l-1.7,1.2c-.4,-.2,-.8,-.4,-1.2,-.5l-.4,-2.1c0,-.2,-.2,-.3,-.4,-.3H549c-.2,0,-.3,.1,-.4,.3l-.3,2.1c-.4,.1,-.9,.3,-1.2,.5l-1.8,-1.2c-.1,-.1,-.3,-.1,-.4,0l-1.4,1.4c-.1,.1,-.1,.3,0,.5l1.2,1.7c-.2,.4,-.4,.8,-.5,1.2l-2.1,.4c-.2,0,-.3,.1,-.3,.3v2c0,.2,.1,.3,.3,.3l2.1,.4c.1,.4,.2,.8,.5,1.2l-1.3,1.7c-.1,.2,0,.4,.1,.5l1.4,1.4c.1,.1,.3,.1,.4,0l1.8,-1.2c.3,.2,.8,.4,1.2,.5l.3,2.1c.1,.2,.2,.3,.4,.3h1.9c.2,0,.4,-.1,.4,-.3l.4,-2.1c.4,-.1,.8,-.3,1.2,-.5l1.7,1.2c.2,.1,.4,.1,.5,0l1.4,-1.4c.1,-.1,.1,-.3,0,-.5l-1.2,-1.7c.2,-.4,.3,-.8,.5,-1.2l2.1,-.4c.1,0,.3,-.1,.3,-.3v-2c0,-.2,-.2,-.3,-.3,-.3Zm-7.9,3.8c-1.4,0,-2.5,-1.1,-2.5,-2.5c0,-1.4,1.1,-2.5,2.5,-2.5c1.3,0,2.5,1.1,2.5,2.5c0,1.4,-1.2,2.5,-2.5,2.5Z" class="g0_36" />
<path fill-rule="evenodd" d="M399.9,598.4h71.6c6.3,0,11.5,5.2,11.5,11.5c0,6.4,-5.2,11.6,-11.5,11.6H399.9c-6.3,0,-11.5,-5.2,-11.5,-11.6c0,-6.3,5.2,-11.5,11.5,-11.5Z" class="g3_36" />
<path fill-rule="evenodd" d="M399.9,684.9h71.6c6.3,0,11.5,5.2,11.5,11.5c0,6.3,-5.2,11.5,-11.5,11.5H399.9c-6.3,0,-11.5,-5.2,-11.5,-11.5c0,-6.3,5.2,-11.5,11.5,-11.5Z" class="g3_36" />
<path d="M360.3,722.1H527.6c1.7,0,3,1.3,3,2.9v17.4c0,1.6,-1.3,3,-3,3H360.3c-1.6,0,-3,-1.4,-3,-3V725c0,-1.6,1.4,-2.9,3,-2.9Z" class="g16_36" />
<path d="M364.2,732.7h5.1c.5,0,.9,.4,.9,.9v3.2c0,.5,-.4,.9,-.9,.9h-5.1c-.5,0,-.9,-.4,-.9,-.9v-3.2c0,-.5,.4,-.9,.9,-.9Zm.5,-.4c.1,-3.7,4.2,-3.3,4.1,0" class="g17_36" />
<path fill-rule="evenodd" d="M518.1,744.5c.1,-.1,.7,-.4,.9,-.5c1.5,-.7,3,-1.5,4.5,-2.3c.6,-.2,1.2,-.6,1.8,-.8V725H510.7v6.1H512v-4.9l10.9,.1c-.1,0,-4.5,2.2,-4.9,2.4v10.9h-6l-.1,-3.6h-1.2v4.8H518Z" class="g0_36" />
<path fill-rule="evenodd" d="M513.2,732.3h-6.1v2.5h6.1v2.4c.5,-.6,1.2,-1.3,1.8,-1.8c.5,-.6,1.3,-1.3,1.8,-1.9c-.1,-.1,-.7,-.7,-.9,-.9l-1.4,-1.3c-.1,-.2,-.2,-.3,-.4,-.5c-.2,-.1,-.8,-.8,-.9,-.9Z" class="g0_36" />
<path fill-rule="evenodd" d="M443.2,569.5c-.7,.5,-2,1.5,-2.8,1.9c-2.3,1.1,-5.4,1.1,-7.7,0c-.9,-.4,-2.1,-1.3,-2.8,-1.9c-3.7,1.8,-6.4,5.5,-7.3,9.6c-.3,1.4,-.5,2.4,1.4,2.4h25.3c1.7,0,1.5,-1,1.2,-2.5c-.9,-4,-3.7,-7.7,-7.3,-9.5ZM436.6,555c4.3,0,7.8,3.5,7.8,7.8c0,4.2,-3.5,7.7,-7.8,7.7c-4.3,0,-7.8,-3.5,-7.8,-7.7c0,-4.3,3.5,-7.8,7.8,-7.8Z" class="g15_36" />
<path d="M413.1,581.5H460c1.6,0,2.8,-1.3,2.8,-2.8V551.5c0,-1.5,-1.2,-2.7,-2.8,-2.7H413.1c-1.5,0,-2.8,1.2,-2.8,2.7v27.2c0,1.5,1.3,2.8,2.8,2.8Z" class="g18_36" />
<path d="M360.3,632.5H527.6c1.7,0,3,1.3,3,3v17.3c0,1.6,-1.3,3,-3,3H360.3c-1.6,0,-3,-1.4,-3,-3V635.5c0,-1.7,1.4,-3,3,-3Z" class="g16_36" />
<path d="M364.2,643.1h5.1c.5,0,.9,.4,.9,.9v3.2c0,.5,-.4,.9,-.9,.9h-5.1c-.5,0,-.9,-.4,-.9,-.9V644c0,-.5,.4,-.9,.9,-.9Zm.5,-.4c.1,-3.7,4.2,-3.3,4.1,0" class="g17_36" />
<path fill-rule="evenodd" d="M525.4,638.9c-1,-2,-3.4,-2.5,-5.3,-1.5c-.5,.4,-3.2,3,-3.3,3.4c1.3,-.2,1.6,-.3,2.8,.2c.7,-.4,1.4,-1.9,2.5,-1.9c1.4,0,1.8,1.6,1.1,2.5c-.4,.4,-.8,.8,-1.2,1.1c-.3,.4,-.7,.8,-1.1,1.2c-.7,.7,-1.4,1.8,-2.9,.8c-.2,.2,-1.4,1.3,-1.5,1.5c.5,.7,1.7,1.3,3,1.1c1.4,-.2,2.1,-.9,2.7,-1.5c1.8,-1.9,4.7,-3.9,3.2,-6.9Z" class="g0_36" />
<path fill-rule="evenodd" d="M512.1,650.5c1.2,1.2,3.3,1.4,4.7,.5c.4,-.2,3,-2.8,3.3,-3.2c-2,.1,-1.4,.2,-2.9,-.2c-.6,.4,-1.4,1.8,-2.5,1.8c-1.2,-.1,-2,-1.5,-.9,-2.6c.7,-.7,1.5,-1.4,2.2,-2.2c.7,-.6,1.5,-1.8,2.9,-.8c.4,-.3,1.1,-1.2,1.5,-1.5c-.4,-.7,-2,-1.2,-3,-1.1c-1.4,.2,-2.1,.9,-2.7,1.5c-.6,.6,-2.7,2.6,-3,3.2c-.9,1.5,-.8,3.4,.4,4.6Z" class="g0_36" />
<image x="497" y="163" width="224" height="100" xlink:href="shade/3.png" />
<g clip-path="url(#c5_36)">
<path fill-rule="evenodd" d="M488.9,593H682.1V69.6H488.9Z" class="g19_36" />
<path d="M488.9,185.9H664.1M488.9,244.1H664.1" class="g20_36" />
<path fill-rule="evenodd" d="M674.2,75.4c2.3,0,4.1,1.8,4.1,4.1V193.2c0,2.3,-1.8,4.1,-4.1,4.1c-2.3,0,-4.1,-1.8,-4.1,-4.1V79.5c0,-2.3,1.8,-4.1,4.1,-4.1Z" class="g1_36" />
</g>
<path fill-rule="evenodd" d="M653.4,215.9c-.3,.3,-.9,.7,-1.3,.9c-1.1,.5,-2.5,.5,-3.6,0c-.4,-.2,-1,-.6,-1.4,-.9c-1.7,.9,-3,2.6,-3.4,4.5c-.2,.7,-.3,1.2,.6,1.2h12c.8,0,.7,-.5,.6,-1.2c-.4,-1.9,-1.7,-3.7,-3.5,-4.5ZM650.3,209c2,0,3.7,1.7,3.7,3.7c0,2,-1.7,3.7,-3.7,3.7c-2.1,0,-3.7,-1.7,-3.7,-3.7c0,-2,1.6,-3.7,3.7,-3.7Z" class="g3_36" />
<path d="M639.2,221.6h22.2c.7,0,1.3,-.6,1.3,-1.3V207.4c0,-.7,-.6,-1.3,-1.3,-1.3H639.2c-.8,0,-1.3,.6,-1.3,1.3v12.9c0,.7,.5,1.3,1.3,1.3Z" class="g21_36" />
<path d="M498.1,163.8H719.5V262H498.1ZM608.8,262v32.3H430.2V339M608.8,294.3H752.7V417.4" class="g22_36" />
<path d="M730.9,170.9h25.8v2.9H730.9Z" class="g23_36" />
<path d="M730.9,162.3h25.8v2.9H730.9Z" class="g23_36" />
<path d="M730.9,179.5h25.8v2.9H730.9Z" class="g23_36" />
<image x="909" y="0" width="911" height="1289" xlink:href="shade/4.png" />
<image preserveAspectRatio="none" x="908" y="680" width="910" height="606" xlink:href="img/3.png" />
</svg>