<?xml version="1.0" encoding="UTF-8" standalone="no"?>
<!DOCTYPE svg PUBLIC "-//W3C//DTD SVG 1.1//EN"
"http://www.w3.org/Graphics/SVG/1.1/DTD/svg11.dtd">
<svg viewBox="0 0 909 1286" version="1.1" xmlns="http://www.w3.org/2000/svg" xmlns:xlink="http://www.w3.org/1999/xlink">
<defs>
<clipPath id="c0_41"><path d="M197.3,567.2c-6.7,0,-12,-5.3,-12,-12c0,-6.6,5.3,-12,12,-12c6.6,0,12,5.4,12,12c0,6.7,-5.4,12,-12,12Z" /></clipPath>
<clipPath id="c1_41"><path d="M197.3,600c-6.7,0,-12,-5.3,-12,-12c0,-6.6,5.3,-11.9,12,-11.9c6.6,0,12,5.3,12,11.9c0,6.7,-5.4,12,-12,12Z" /></clipPath>
<clipPath id="c2_41"><path d="M197.3,633.2c-6.7,0,-12,-5.4,-12,-12c0,-6.7,5.3,-12,12,-12c6.6,0,12,5.3,12,12c0,6.6,-5.4,12,-12,12Z" /></clipPath>
<clipPath id="c3_41"><path d="M197.3,665.8c-6.7,0,-12,-5.3,-12,-12c0,-6.6,5.3,-12,12,-12c6.6,0,12,5.4,12,12c0,6.7,-5.4,12,-12,12Z" /></clipPath>
<clipPath id="c4_41"><path d="M197.3,699.1c-6.7,0,-12,-5.4,-12,-12c0,-6.6,5.3,-12,12,-12c6.6,0,12,5.4,12,12c0,6.6,-5.4,12,-12,12Z" /></clipPath>
<clipPath id="c5_41"><path d="M197.3,402.4c-6.7,0,-12,-5.4,-12,-12c0,-6.6,5.3,-12,12,-12c6.6,0,12,5.4,12,12c0,6.6,-5.4,12,-12,12Z" /></clipPath>
<clipPath id="c6_41"><path d="M197.3,435.2c-6.7,0,-12,-5.3,-12,-12c0,-6.6,5.3,-12,12,-12c6.6,0,12,5.4,12,12c0,6.7,-5.4,12,-12,12Z" /></clipPath>
<clipPath id="c7_41"><path d="M197.3,468.3c-6.7,0,-12,-5.3,-12,-12c0,-6.6,5.3,-12,12,-12c6.6,0,12,5.4,12,12c0,6.7,-5.4,12,-12,12Z" /></clipPath>
<clipPath id="c8_41"><path d="M197.3,501c-6.7,0,-12,-5.4,-12,-12c0,-6.6,5.3,-12,12,-12c6.6,0,12,5.4,12,12c0,6.6,-5.4,12,-12,12Z" /></clipPath>
<clipPath id="c9_41"><path d="M197.3,534.3c-6.7,0,-12,-5.4,-12,-12c0,-6.6,5.3,-12,12,-12c6.6,0,12,5.4,12,12c0,6.6,-5.4,12,-12,12Z" /></clipPath>
<clipPath id="c10_41"><path d="M513.4,449.5c-6.7,0,-12,-5.4,-12,-12c0,-6.6,5.3,-12,12,-12c6.6,0,11.9,5.4,11.9,12c0,6.6,-5.3,12,-11.9,12Z" /></clipPath>
<clipPath id="c11_41"><path d="M513.4,584.9c-6.7,0,-12,-5.4,-12,-12c0,-6.6,5.3,-12,12,-12c6.6,0,11.9,5.4,11.9,12c0,6.6,-5.3,12,-11.9,12Z" /></clipPath>
<clipPath id="c12_41"><path d="M513.4,676c-6.7,0,-12,-5.4,-12,-12c0,-6.6,5.3,-12,12,-12c6.6,0,11.9,5.4,11.9,12c0,6.6,-5.3,12,-11.9,12Z" /></clipPath>
<clipPath id="c13_41"><path d="M616.8,235.5V155.8H796.5v79.7Z" /></clipPath>
<style type="text/css"><![CDATA[
.g0_41{
fill: #FFFFFF;
}
.g1_41{
fill: #FFFFFF;
stroke: #CCCCCC;
stroke-width: 0.33;
stroke-linecap: butt;
stroke-linejoin: miter;
stroke-miterlimit: 22;
}
.g2_41{
fill: #E6E6E6;
fill-opacity: 0.3;
}
.g3_41{
fill: #DA89F7;
}
.g4_41{
fill: #FFFFFF;
stroke: #FFFFFF;
stroke-width: 0.15277778;
stroke-linecap: butt;
stroke-linejoin: miter;
stroke-miterlimit: 22;
}
.g5_41{
fill: none;
stroke: #62D9D7;
stroke-width: 0.7634306;
stroke-linecap: butt;
stroke-linejoin: miter;
stroke-miterlimit: 22;
}
.g6_41{
fill: #62D9D7;
stroke: #62D9D7;
stroke-width: 0.33;
stroke-linecap: butt;
stroke-linejoin: miter;
stroke-miterlimit: 22;
}
.g7_41{
fill: #999999;
}
.g8_41{
fill: none;
stroke: #DA89F7;
stroke-width: 0.86609715;
stroke-linecap: butt;
stroke-linejoin: miter;
stroke-miterlimit: 22;
}
.g9_41{
fill: #E6E6E6;
}
.g10_41{
fill: #6ADBD9;
}
.g11_41{
fill: none;
stroke: #E6E6E6;
stroke-width: 0.433125;
stroke-linecap: butt;
stroke-linejoin: miter;
stroke-miterlimit: 22;
}
.g12_41{
fill: #FFFFFF;
stroke: #E6E6E6;
stroke-width: 0.33;
stroke-linecap: butt;
stroke-linejoin: miter;
stroke-miterlimit: 22;
}
.g13_41{
fill: #62D9D7;
}
.g14_41{
fill: none;
stroke: #999999;
stroke-width: 0.33;
stroke-linecap: butt;
stroke-linejoin: miter;
stroke-miterlimit: 22;
}
.g15_41{
fill: #FFFFFF;
fill-opacity: 0.91999996;
}
.g16_41{
fill: none;
stroke: #6ADBD9;
stroke-width: 1.1455278;
stroke-linecap: butt;
stroke-linejoin: miter;
stroke-miterlimit: 22;
}
.g17_41{
fill: none;
stroke: #000000;
stroke-width: 2.1653194;
stroke-linecap: butt;
stroke-linejoin: miter;
stroke-miterlimit: 22;
}
.g18_41{
stroke: #000000;
stroke-width: 0.33;
stroke-linecap: butt;
stroke-linejoin: miter;
stroke-miterlimit: 22;
}
]]></style>
</defs>
<image x="-1" y="-1" width="911" height="1290" xlink:href="shade/1.png" />
<image preserveAspectRatio="none" x="0" y="782" width="908" height="504" xlink:href="img/1.png" />
<path fill-rule="evenodd" d="M63.7,140.6C21.2,127.3,32.7,27.1,105.9,72.3C123.5,83.1,115.1,94,155,86.2c44.2,-8.7,18.7,100.3,-49.7,67.8C78.1,141.1,73.9,149.5,37.1,161.6c-.1,0,-.8,.1,-.9,.1Z" class="g0_41" />
<image preserveAspectRatio="none" x="165" y="237" width="281" height="584" xlink:href="img/2.png" />
<path fill-rule="evenodd" d="M174,761.1H437.8v-429H174Z" class="g1_41" />
<path fill-rule="evenodd" d="M174,360.2H437.8V704.6H174Z" class="g2_41" />
<path fill-rule="evenodd" d="M174,332.1H437.8V291.8H174Z" class="g3_41" />
<path d="M188.2,317.3h15.1V319H188.2Z" class="g0_41" />
<path d="M188.2,312.3h15.1v1.6H188.2Z" class="g0_41" />
<path d="M188.2,322.3h15.1V324H188.2Z" class="g0_41" />
<path fill-rule="evenodd" d="M324.4,320.3c-8.1,-2.5,-5.9,-21.6,8,-13c3.4,2.1,1.8,4.2,9.4,2.7c8.4,-1.7,3.6,19.1,-9.5,12.9c-5.1,-2.5,-6,-.8,-13,1.4c0,.1,-.1,.1,-.1,.1Zm7,-2.1v1.1c0,.3,0,.6,.1,.8c0,.2,.1,.3,.3,.4c.1,.2,.4,.3,.7,.4c.3,.1,.6,.1,1,.1c.6,0,1.1,-.1,1.4,-.2c.3,-.2,.5,-.4,.6,-.7c.1,-.1,.1,-.4,.1,-.8v-1.1Zm-.9,-.8h6v1.9c0,.4,0,.7,-.1,.9c-.1,.3,-.2,.6,-.4,.8c-.3,.3,-.6,.5,-1,.7c-.5,.1,-.9,.2,-1.5,.2c-.4,0,-.8,-.1,-1.2,-.2c-.3,-.1,-.6,-.2,-.9,-.3c-.2,-.2,-.4,-.3,-.5,-.5c-.1,-.2,-.2,-.4,-.3,-.7c-.1,-.2,-.1,-.5,-.1,-.8Zm4.4,-1.7h3.3v-4.2h-.7v3.4h-1.9v-3.4h-.7v3.4ZM328,314.6h4v1.1h-5.1v-6.5H332v1.1h-4v1.6h4v1h-4Z" class="g0_41" />
<path d="M266.8,324.2h-1v-9.4h1Zm3.4,0h-1v-9.4h1l5,7.7v-7.7h1v9.4h-1l-5,-7.6Zm10.3,-8.4h-3v-1h6.9v1h-2.9Zm19.5,1.8h-1c-.1,-.6,-.4,-1.1,-.8,-1.5c-.5,-.4,-1,-.5,-1.6,-.5c-.4,0,-.8,0,-1.1,.2c-.3,.1,-.6,.3,-.8,.5c-.3,.3,-.5,.6,-.6,1.1c-.1,.4,-.2,.9,-.2,1.4v1.4c0,1,.2,1.8,.7,2.4c.4,.6,1.1,.9,1.9,.9c.8,0,1.4,-.2,1.8,-.6c.5,-.4,.7,-.9,.7,-1.6v-1h-2.5v-.9H300v1.9c0,.3,0,.6,-.1,.8c-.1,.3,-.2,.6,-.4,.9c-.1,.3,-.4,.5,-.6,.7c-.3,.2,-.6,.4,-1,.5c-.4,.2,-.9,.2,-1.4,.2c-1.1,0,-2.1,-.3,-2.7,-1.1c-.6,-.7,-.9,-1.8,-.9,-3.1v-1.4c0,-1.3,.3,-2.3,1,-3.1c.7,-.7,1.6,-1.1,2.7,-1.1c.5,0,1,.1,1.4,.3c.4,.1,.8,.4,1,.6c.3,.3,.5,.6,.7,1c.2,.4,.3,.7,.3,1.1Zm3,1.9v4.7h-1v-9.4h3.3c.5,0,.9,.1,1.3,.3c.4,.1,.7,.3,.9,.6c.3,.2,.5,.5,.6,.8c.1,.4,.2,.7,.2,1.1c0,.4,-.1,.7,-.2,1c-.1,.3,-.2,.6,-.4,.8c-.2,.2,-.4,.3,-.6,.5c-.2,.1,-.4,.2,-.6,.3l1.9,4h-1.2l-2,-4.7c.7,0,1.1,-.2,1.5,-.5c.3,-.3,.5,-.8,.5,-1.3c0,-.6,-.2,-1.1,-.5,-1.4c-.4,-.4,-.9,-.5,-1.5,-.5H303Zm8.7,1l-.3,.8l-1,2.9h-1.1l3.4,-9.4h1l3.4,9.4H316l-1,-2.9l-.3,-.8m0,0l-1.5,-4.4l-1.5,4.4m6.8,3.1c0,-.2,0,-.3,.2,-.5c.1,-.1,.3,-.2,.5,-.2c.2,0,.3,.1,.5,.2c.1,.2,.2,.3,.2,.5c0,.2,-.1,.4,-.2,.6c-.2,.1,-.3,.2,-.5,.2c-.2,0,-.4,-.1,-.5,-.2c-.2,-.2,-.2,-.4,-.2,-.6Z" class="g4_41" />
<path fill-rule="evenodd" d="M285.7,314.8h5.6v1h-4.6v7.5h4.6v.9h-5.6c0,-3.1,0,-6.2,0,-9.4Z" class="g4_41" />
<path fill-rule="evenodd" d="M291,319.9h-3.1V319H291Z" class="g4_41" />
<path fill-rule="evenodd" d="M299,320.3h-2.5v-.9H299Z" class="g4_41" />
<path fill-rule="evenodd" d="M281.4,324.2V317h-.9v7.2Z" class="g4_41" />
<path d="M174,733H437.8" class="g5_41" />
<path d="M293.7,345.7v1.1c0,.9,.2,1.6,.6,2c.4,.5,1,.7,1.6,.7c.7,0,1.1,-.2,1.5,-.5c.3,-.3,.5,-.7,.5,-1.2h.9c0,.2,-.1,.5,-.1,.7c-.1,.2,-.2,.4,-.4,.7c-.1,.2,-.3,.4,-.5,.5c-.2,.2,-.5,.3,-.8,.4c-.4,.1,-.7,.2,-1.1,.2c-.9,0,-1.7,-.3,-2.2,-.9c-.5,-.6,-.8,-1.5,-.8,-2.6v-1.1c0,-1.1,.3,-2,.8,-2.6c.5,-.7,1.3,-1,2.2,-1c.5,0,.9,.1,1.3,.3c.3,.1,.6,.3,.9,.6c.2,.2,.3,.5,.5,.8c.1,.3,.1,.6,.1,.9h-.8c0,-.2,0,-.4,-.1,-.6c-.1,-.2,-.2,-.4,-.4,-.6c-.2,-.2,-.4,-.3,-.6,-.4c-.3,-.1,-.6,-.2,-.9,-.2c-.6,0,-1.2,.2,-1.6,.7c-.4,.5,-.6,1.2,-.6,2.1Zm12.4,4.4h-.8v-3.7h-4.1v3.7h-.9v-7.8h.9v3.4h4.1v-3.4h.8Zm2.1,0h-.9l2.8,-7.8h.8l2.8,7.8h-.9l-.8,-2.4h-3Zm2.3,-6.7l-1.3,3.6h2.6Zm6,6.7h-.9v-7h-2.4v-.8h5.7v.8h-2.4Z" class="g6_41" />
<path fill-rule="evenodd" d="M192.3,345.2c0,.3,0,.4,.2,.6c1.8,1.7,3.5,3.4,5.2,5.1c.2,.3,.5,.7,.9,.7h.2c.1,0,.2,0,.3,-.1c.3,-.3,.3,-.7,0,-1c-.6,-.5,-5.2,-5.1,-5.3,-5.3c.1,-.1,4.5,-4.4,4.9,-4.8c.4,-.4,.6,-.5,.6,-1c0,-.3,-.3,-.6,-.7,-.6c-.3,0,-.7,.5,-.9,.7c-1.6,1.6,-3.2,3.2,-4.8,4.8c-.1,.2,-.6,.6,-.6,.9Z" class="g6_41" />
<path d="M174,360.2H437.8" class="g5_41" />
<path d="M426.5,317l-2.1,-.3c-.1,-.4,-.3,-.8,-.5,-1.2l1.2,-1.7c.1,-.2,.1,-.4,0,-.5L423.7,312c-.1,-.2,-.3,-.2,-.4,-.1l-1.7,1.2c-.4,-.2,-.8,-.3,-1.2,-.5l-.4,-2c0,-.2,-.2,-.3,-.3,-.3h-2c-.1,0,-.3,.1,-.3,.3l-.4,2c-.4,.1,-.8,.3,-1.2,.5l-1.7,-1.2c-.1,-.1,-.3,-.1,-.4,0l-1.4,1.4c-.1,.1,-.1,.3,0,.5l1.2,1.7c-.2,.4,-.4,.8,-.5,1.2l-2.1,.3c-.1,.1,-.3,.2,-.3,.4v1.9c0,.2,.1,.3,.3,.4l2.1,.3c.1,.4,.3,.9,.5,1.2l-1.2,1.7c-.1,.2,-.1,.4,0,.5l1.4,1.4c.1,.1,.3,.1,.4,0l1.7,-1.2c.4,.2,.8,.4,1.2,.5l.4,2.1c0,.1,.2,.3,.3,.3h2c.1,0,.3,-.2,.3,-.3l.4,-2.1c.4,-.1,.8,-.3,1.2,-.5l1.7,1.2c.2,.1,.3,.1,.5,0l1.3,-1.4c.2,-.1,.2,-.3,.1,-.5l-1.3,-1.7c.2,-.4,.4,-.8,.5,-1.2l2.1,-.3c.2,-.1,.3,-.2,.3,-.4v-1.9c0,-.2,-.1,-.3,-.3,-.4Zm-7.8,3.8c-1.3,0,-2.4,-1.1,-2.4,-2.4c0,-1.4,1.1,-2.5,2.4,-2.5c1.4,0,2.5,1.1,2.5,2.5c0,1.3,-1.1,2.4,-2.5,2.4Z" class="g0_41" />
<path fill-rule="evenodd" d="M427.1,365.1c1.8,0,3.4,1.5,3.4,3.3v93.2c0,1.9,-1.6,3.4,-3.4,3.4c-1.9,0,-3.4,-1.5,-3.4,-3.4V368.4c0,-1.8,1.5,-3.3,3.4,-3.3Z" class="g3_41" />
<path d="M174,733H437.8" class="g5_41" />
<path fill-rule="evenodd" d="M190.7,710.4h12.9c.8,0,1.4,.7,1.4,1.4v9.7c0,.8,-.6,1.4,-1.4,1.4H190.7c-.8,0,-1.4,-.6,-1.4,-1.4v-9.7c0,-.7,.6,-1.4,1.4,-1.4Zm.7,8.9v1.5h11.5v-3.6l-3.4,-3.4l-4.2,4.2L194,716.7Zm1.6,-6.8c.8,0,1.5,.7,1.5,1.6c0,.8,-.7,1.5,-1.5,1.5c-.9,0,-1.6,-.7,-1.6,-1.5c0,-.9,.7,-1.6,1.6,-1.6Zm-2.4,-1h13c.2,0,.3,.1,.3,.3v9.8c0,.1,-.1,.3,-.3,.3h-13c-.1,0,-.3,-.2,-.3,-.3v-9.8c0,-.2,.2,-.3,.3,-.3Z" class="g3_41" />
<path d="M239.2,719c-.1,-.1,-.2,-.2,-.2,-.3c0,-.2,.1,-.3,.2,-.4c.1,-.1,.2,-.1,.3,-.1c.2,0,.3,0,.4,.1c.1,.1,.2,.2,.2,.4c0,.1,-.1,.2,-.2,.3c-.1,.1,-.2,.2,-.4,.2c-.1,0,-.2,-.1,-.3,-.2Zm1.8,0c-.1,-.1,-.1,-.2,-.1,-.3c0,-.2,0,-.3,.1,-.4c.1,-.1,.3,-.1,.4,-.1c.1,0,.3,0,.4,.1c.1,.1,.1,.2,.1,.4c0,.1,0,.2,-.1,.3c-.1,.1,-.3,.2,-.4,.2c-.1,0,-.3,-.1,-.4,-.2Zm1.9,0c-.1,-.1,-.2,-.2,-.2,-.3c0,-.2,.1,-.3,.2,-.4c.1,-.1,.2,-.1,.4,-.1c.1,0,.2,0,.3,.1c.1,.1,.2,.2,.2,.4c0,.1,-.1,.2,-.2,.3c-.1,.1,-.2,.2,-.3,.2c-.2,0,-.3,-.1,-.4,-.2Zm3.3,.2c-.5,0,-.9,-.2,-1.2,-.5c-.3,-.3,-.5,-.8,-.5,-1.3V717c0,-.5,.2,-1,.5,-1.3c.3,-.3,.7,-.4,1.2,-.4c.5,0,.9,.1,1.2,.4c.3,.4,.4,.8,.4,1.3v.4h-2.4v.1c0,.3,0,.6,.2,.7c.1,.2,.4,.3,.6,.3c.2,0,.4,0,.5,-.1c.1,-.1,.2,-.2,.3,-.4h.8c-.1,.3,-.2,.6,-.5,.8c-.3,.3,-.6,.4,-1.1,.4Zm-.8,-2.4H247c0,-.2,-.1,-.5,-.2,-.6c-.2,-.2,-.4,-.3,-.6,-.3c-.3,0,-.5,.1,-.6,.3c-.2,.1,-.2,.4,-.2,.6Zm3.1,-.4c0,-.2,0,-.3,.1,-.5c.1,-.2,.2,-.3,.4,-.4c.1,-.1,.3,-.1,.4,-.2c.2,0,.4,0,.6,0c.4,0,.8,.1,1,.3c.3,.2,.4,.5,.4,.8h-.7c-.1,-.1,-.1,-.3,-.2,-.4c-.1,-.1,-.3,-.1,-.5,-.1c-.2,0,-.4,0,-.5,.1c-.1,.1,-.2,.2,-.2,.3c0,.1,0,.2,.1,.3c0,0,.1,.1,.2,.1c.1,.1,.2,.1,.3,.1c0,0,.2,.1,.3,.1c0,0,.1,0,.1,0c.2,0,.3,.1,.5,.1c.1,.1,.2,.1,.4,.2c.1,.1,.2,.2,.2,.3c.1,.1,.1,.3,.1,.5c0,.3,-.1,.6,-.4,.9c-.3,.2,-.7,.3,-1.2,.3c-.4,0,-.8,-.1,-1.1,-.3c-.2,-.2,-.4,-.5,-.4,-.8h.9c0,.1,0,.2,.2,.3c.1,.1,.3,.2,.5,.2c.2,0,.4,-.1,.5,-.2c.1,-.1,.2,-.2,.2,-.3c0,-.1,0,-.2,-.1,-.3c0,0,-.1,-.1,-.2,-.1c0,0,-.1,-.1,-.2,-.1c-.1,0,-.2,0,-.4,-.1c-.2,0,-.4,-.1,-.5,-.1c-.2,-.1,-.3,-.1,-.4,-.2c-.1,-.1,-.2,-.2,-.3,-.3c-.1,-.2,-.1,-.3,-.1,-.5Zm3.7,1V717c0,-.5,.1,-.9,.4,-1.3c.3,-.3,.7,-.4,1.2,-.4c.5,0,.8,.1,1.1,.3c.3,.3,.4,.6,.4,.9h-.8c0,-.1,-.1,-.3,-.2,-.4c-.1,-.1,-.3,-.2,-.5,-.2c-.2,0,-.4,.1,-.6,.3c-.1,.2,-.2,.5,-.2,.8v.4c0,.3,.1,.6,.2,.8c.2,.2,.4,.3,.7,.3c.2,0,.3,-.1,.4,-.2c.2,-.1,.2,-.2,.3,-.4h.8c-.1,.4,-.2,.7,-.5,1c-.3,.2,-.7,.3,-1.1,.3c-.5,0,-.9,-.2,-1.2,-.5c-.3,-.3,-.4,-.8,-.4,-1.3Zm3.9,1.7v-3.8h.9v.5c.1,-.1,.2,-.3,.3,-.4c.2,-.1,.4,-.1,.6,-.1c.1,0,.2,0,.3,0v.7c-.1,0,-.2,0,-.4,0c-.5,0,-.8,.3,-.8,.9v2.2Zm4.2,.1c-.5,0,-.9,-.2,-1.2,-.5c-.3,-.3,-.5,-.8,-.5,-1.3V717c0,-.5,.2,-1,.5,-1.3c.3,-.3,.7,-.4,1.2,-.4c.5,0,.9,.1,1.2,.4c.3,.4,.4,.8,.4,1.3v.4h-2.4v.1c0,.3,.1,.6,.2,.7c.2,.2,.4,.3,.6,.3c.2,0,.4,0,.5,-.1c.2,-.1,.2,-.2,.3,-.4h.8c-.1,.3,-.2,.6,-.5,.8c-.3,.3,-.6,.4,-1.1,.4Zm-.8,-2.4h1.6c0,-.2,-.1,-.5,-.2,-.6c-.2,-.2,-.4,-.3,-.6,-.3c-.3,0,-.4,.1,-.6,.3c-.2,.1,-.2,.4,-.2,.6Zm4,2.3l-1.2,-3.8h.9l.8,2.9l1,-2.9h.8l-1.3,3.8Zm4.3,.1c-.5,0,-.9,-.2,-1.2,-.5c-.3,-.3,-.5,-.8,-.5,-1.3V717c0,-.5,.2,-1,.5,-1.3c.3,-.3,.7,-.4,1.2,-.4c.5,0,.9,.1,1.2,.4c.3,.4,.4,.8,.4,1.3v.4H267v.1c0,.3,0,.6,.2,.7c.2,.2,.4,.3,.6,.3c.2,0,.4,0,.5,-.1c.2,-.1,.2,-.2,.3,-.4h.8c-.1,.3,-.2,.6,-.5,.8c-.3,.3,-.6,.4,-1.1,.4Zm-.8,-2.4h1.6c0,-.2,-.1,-.5,-.2,-.6c-.2,-.2,-.4,-.3,-.6,-.3c-.3,0,-.5,.1,-.6,.3c-.2,.1,-.2,.4,-.2,.6Zm3.2,2.3v-3.8h.9v.5c.1,-.1,.2,-.3,.3,-.4c.2,-.1,.4,-.1,.6,-.1c.1,0,.2,0,.3,0v.7c-.1,0,-.2,0,-.3,0c-.6,0,-.9,.3,-.9,.9v2.2Z" class="g7_41" />
<path fill-rule="evenodd" d="M212.3,716.5c0,-.2,.1,-1.1,.2,-1.3c.2,-1.1,.7,-2.1,1.5,-2.8c.4,-.4,.7,-.7,1.1,-1c.5,-.2,1.1,-.5,1.6,-.6c.4,-.1,1.1,-.2,1.6,-.2c.2,.1,.3,0,.9,.1c1.1,.3,2.1,.8,2.8,1.5c.9,1,1.5,2,1.7,3.4c.2,1.7,-.3,3.5,-1.5,4.7c-.2,.1,-.3,.3,-.4,.4c-.1,0,-.1,.1,-.2,.1c-.6,.5,-1.4,.9,-2.2,1.1c-.4,.1,-1.1,.2,-1.5,.1c-.3,0,-.4,.1,-1,-.1c-1.1,-.2,-2.1,-.7,-2.8,-1.5l-.5,-.5c-.6,-.9,-1.1,-1.7,-1.2,-2.8c0,-.3,0,-.4,-.1,-.6Zm-.8,-.4c0,1.5,.2,2.4,.8,3.6c.5,.7,1.2,1.5,2,2c.1,.2,.3,.2,.4,.3c1.2,.7,2.1,.9,3.6,.9c2.2,0,4.4,-1.4,5.5,-3.2c.6,-1.2,.9,-2.1,.9,-3.6c0,-1.1,-.4,-2.2,-.9,-3.1c-1.1,-1.9,-3.3,-3.3,-5.5,-3.3c-1.5,0,-2.4,.3,-3.6,.9c-1.8,1.1,-3.2,3.3,-3.2,5.5Z" class="g3_41" />
<path fill-rule="evenodd" d="M214.7,718.3c0,.2,.1,.3,.2,.4c.7,.9,1.9,1.6,3,1.6h.4c1,0,1.9,-.5,2.6,-1.2c.1,-.1,.5,-.6,.5,-.8c-.1,0,-.5,-.3,-.7,-.4c-.1,.1,-.6,1.2,-2.2,1.5c-.5,.1,-.8,0,-1.3,-.1c-.6,-.2,-1.2,-.6,-1.6,-1.1c0,0,-.1,-.2,-.2,-.3c-.1,.1,-.6,.4,-.7,.4Z" class="g3_41" />
<path fill-rule="evenodd" d="M215.4,715c0,.9,1,1.1,1.5,.6c.5,-.4,.3,-1.5,-.7,-1.5c-.4,0,-.8,.4,-.8,.9Z" class="g3_41" />
<path fill-rule="evenodd" d="M218.9,715c0,1.2,1.8,1.2,1.8,0c0,-.5,-.4,-.9,-.9,-.9c-.5,0,-.9,.4,-.9,.9Z" class="g3_41" />
<path d="M174,704.5H438.7m-205.5,3.7v17.5" class="g8_41" />
<path fill-rule="evenodd" d="M197.3,543.2c6.6,0,12,5.4,12,12c0,6.7,-5.4,12,-12,12c-6.7,0,-12,-5.3,-12,-12c0,-6.6,5.3,-12,12,-12Z" class="g9_41" />
<g clip-path="url(#c0_41)">
<path fill-rule="evenodd" d="M200.7,555.9c-.4,.3,-1,.7,-1.5,.9c-1.2,.6,-2.7,.6,-3.9,0c-.5,-.2,-1.1,-.6,-1.5,-.9c-1.9,.9,-3.3,2.8,-3.7,4.9c-.2,.8,-.3,1.2,.7,1.2h13c.9,.1,.8,-.5,.7,-1.2c-.5,-2.1,-1.9,-4,-3.8,-4.9Zm-3.4,-7.5c2.2,0,4,1.8,4,4c0,2.2,-1.8,4,-4,4c-2.3,0,-4.1,-1.8,-4.1,-4c0,-2.2,1.8,-4,4.1,-4Z" class="g10_41" />
</g>
<path fill-rule="evenodd" d="M424.2,707.5c6,0,10.9,4.8,10.9,10.9c0,6,-4.9,10.9,-10.9,10.9c-6,0,-10.9,-4.9,-10.9,-10.9c0,-6.1,4.9,-10.9,10.9,-10.9Z" class="g3_41" />
<path fill-rule="evenodd" d="M420.9,722.4c-.2,0,-.2,-.3,-.3,-.7c-.1,-.2,-.1,-.4,-.2,-.6c0,-.3,-.1,-.5,-.2,-.7c-.3,-1.2,-.3,-1.1,.8,-1.8l5.9,-3.6c.1,-.1,.2,0,.2,.1l-4.5,4.2c-.1,0,-.1,.1,-.2,.1l-.4,.4c-.4,.4,-.7,.5,-.8,1.2l-.1,1.1c0,.1,0,.3,-.2,.3ZM415.6,718c0,.4,.3,.4,.9,.6c.8,.4,1.7,.7,2.5,1c.3,.1,.2,.1,.3,.4c.4,1.2,.8,2.4,1.1,3.5c.2,.4,.3,.9,.9,.5l1.7,-1.4c.4,-.3,.6,-.2,1,.1c.9,.7,1.8,1.3,2.8,2c.2,.2,.6,.5,.8,.2c.2,-.2,2.6,-12.1,2.6,-12.2q0,-.2,-.1,-.3c-.2,-.2,-.5,0,-.7,.1c-4.5,1.7,-9,3.4,-13.5,5.2c-.1,0,-.3,.1,-.3,.3Z" class="g0_41" />
<path fill-rule="evenodd" d="M197.3,576.1c6.6,0,12,5.3,12,11.9c0,6.7,-5.4,12,-12,12c-6.7,0,-12,-5.3,-12,-12c0,-6.6,5.3,-11.9,12,-11.9Z" class="g9_41" />
<g clip-path="url(#c1_41)">
<path fill-rule="evenodd" d="M200.7,588.7c-.4,.3,-1,.8,-1.5,1c-1.2,.5,-2.7,.5,-3.9,-.1c-.5,-.2,-1.1,-.6,-1.5,-.9c-1.9,.9,-3.3,2.8,-3.7,4.9c-.2,.8,-.3,1.3,.7,1.3h13c.9,0,.8,-.6,.7,-1.3c-.5,-2.1,-1.9,-4,-3.8,-4.9Zm-3.4,-7.5c2.2,0,4,1.8,4,4c0,2.2,-1.8,4,-4,4c-2.3,0,-4.1,-1.8,-4.1,-4c0,-2.2,1.8,-4,4.1,-4Z" class="g10_41" />
</g>
<path fill-rule="evenodd" d="M197.3,609.2c6.6,0,12,5.3,12,12c0,6.6,-5.4,12,-12,12c-6.7,0,-12,-5.4,-12,-12c0,-6.7,5.3,-12,12,-12Z" class="g9_41" />
<g clip-path="url(#c2_41)">
<path fill-rule="evenodd" d="M200.7,621.8c-.4,.3,-1,.8,-1.5,1c-1.2,.5,-2.7,.5,-3.9,0c-.5,-.2,-1.1,-.7,-1.5,-1c-1.9,.9,-3.3,2.9,-3.7,4.9c-.2,.8,-.3,1.3,.7,1.3h13c.9,0,.8,-.5,.7,-1.3c-.5,-2.1,-1.9,-4,-3.8,-4.9Zm-3.4,-7.5c2.2,0,4,1.8,4,4c0,2.2,-1.8,4,-4,4c-2.3,0,-4.1,-1.8,-4.1,-4c0,-2.2,1.8,-4,4.1,-4Z" class="g10_41" />
</g>
<path fill-rule="evenodd" d="M197.3,641.8c6.6,0,12,5.4,12,12c0,6.7,-5.4,12,-12,12c-6.7,0,-12,-5.3,-12,-12c0,-6.6,5.3,-12,12,-12Z" class="g9_41" />
<g clip-path="url(#c3_41)">
<path fill-rule="evenodd" d="M200.7,654.5c-.4,.3,-1,.7,-1.5,.9c-1.2,.6,-2.7,.6,-3.9,0c-.5,-.2,-1.1,-.6,-1.5,-.9c-1.9,.9,-3.3,2.8,-3.7,4.9c-.2,.8,-.3,1.3,.7,1.3h13c.9,0,.8,-.6,.7,-1.3c-.5,-2.1,-1.9,-4,-3.8,-4.9ZM197.3,647c2.2,0,4,1.8,4,4c0,2.2,-1.8,4,-4,4c-2.3,0,-4.1,-1.8,-4.1,-4c0,-2.2,1.8,-4,4.1,-4Z" class="g10_41" />
</g>
<path fill-rule="evenodd" d="M197.3,675.1c6.6,0,12,5.4,12,12c0,6.6,-5.4,12,-12,12c-6.7,0,-12,-5.4,-12,-12c0,-6.6,5.3,-12,12,-12Z" class="g9_41" />
<g clip-path="url(#c4_41)">
<path fill-rule="evenodd" d="M200.7,687.7c-.4,.3,-1,.8,-1.5,1c-1.2,.6,-2.7,.6,-3.9,0c-.5,-.2,-1.1,-.7,-1.5,-1c-1.9,1,-3.3,2.9,-3.7,5c-.2,.7,-.3,1.2,.7,1.2h13c.9,0,.8,-.5,.7,-1.2c-.5,-2.1,-1.9,-4,-3.8,-5Zm-3.4,-7.4c2.2,0,4,1.8,4,4c0,2.2,-1.8,4,-4,4c-2.3,0,-4.1,-1.8,-4.1,-4c0,-2.2,1.8,-4,4.1,-4Z" class="g10_41" />
</g>
<path fill-rule="evenodd" d="M197.3,378.4c6.6,0,12,5.4,12,12c0,6.6,-5.4,12,-12,12c-6.7,0,-12,-5.4,-12,-12c0,-6.6,5.3,-12,12,-12Z" class="g9_41" />
<g clip-path="url(#c5_41)">
<path fill-rule="evenodd" d="M200.7,391c-.4,.3,-1,.8,-1.5,1c-1.2,.6,-2.7,.6,-3.9,0c-.5,-.2,-1.1,-.7,-1.5,-1c-1.9,1,-3.3,2.9,-3.7,5c-.2,.8,-.3,1.2,.7,1.2h13c.9,0,.8,-.5,.7,-1.2c-.5,-2.1,-1.9,-4,-3.8,-5Zm-3.4,-7.4c2.2,0,4,1.8,4,4c0,2.2,-1.8,4,-4,4c-2.3,0,-4.1,-1.8,-4.1,-4c0,-2.2,1.8,-4,4.1,-4Z" class="g10_41" />
</g>
<path fill-rule="evenodd" d="M197.3,411.2c6.6,0,12,5.4,12,12c0,6.7,-5.4,12,-12,12c-6.7,0,-12,-5.3,-12,-12c0,-6.6,5.3,-12,12,-12Z" class="g9_41" />
<g clip-path="url(#c6_41)">
<path fill-rule="evenodd" d="M200.7,423.9c-.4,.3,-1,.7,-1.5,.9c-1.2,.6,-2.7,.6,-3.9,0c-.5,-.2,-1.1,-.6,-1.5,-.9c-1.9,.9,-3.3,2.8,-3.7,4.9c-.2,.8,-.3,1.2,.7,1.2h13c.9,0,.8,-.5,.7,-1.2c-.5,-2.1,-1.9,-4,-3.8,-4.9Zm-3.4,-7.5c2.2,0,4,1.8,4,4c0,2.2,-1.8,4,-4,4c-2.3,0,-4.1,-1.8,-4.1,-4c0,-2.2,1.8,-4,4.1,-4Z" class="g10_41" />
</g>
<path fill-rule="evenodd" d="M197.3,444.3c6.6,0,12,5.4,12,12c0,6.7,-5.4,12,-12,12c-6.7,0,-12,-5.3,-12,-12c0,-6.6,5.3,-12,12,-12Z" class="g9_41" />
<g clip-path="url(#c7_41)">
<path fill-rule="evenodd" d="M200.7,457c-.4,.3,-1,.7,-1.5,1c-1.2,.5,-2.7,.5,-3.9,-.1c-.5,-.2,-1.1,-.6,-1.5,-.9c-1.9,.9,-3.3,2.8,-3.7,4.9c-.2,.8,-.3,1.3,.7,1.3h13c.9,0,.8,-.6,.7,-1.3c-.5,-2.1,-1.9,-4,-3.8,-4.9Zm-3.4,-7.5c2.2,0,4,1.8,4,4c0,2.2,-1.8,4,-4,4c-2.3,0,-4.1,-1.8,-4.1,-4c0,-2.2,1.8,-4,4.1,-4Z" class="g10_41" />
</g>
<path fill-rule="evenodd" d="M197.3,477c6.6,0,12,5.4,12,12c0,6.6,-5.4,12,-12,12c-6.7,0,-12,-5.4,-12,-12c0,-6.6,5.3,-12,12,-12Z" class="g9_41" />
<g clip-path="url(#c8_41)">
<path fill-rule="evenodd" d="M200.7,489.6c-.4,.3,-1,.8,-1.5,1c-1.2,.6,-2.7,.6,-3.9,0c-.5,-.2,-1.1,-.7,-1.5,-1c-1.9,1,-3.3,2.9,-3.7,5c-.2,.8,-.3,1.2,.7,1.2h13c.9,0,.8,-.5,.7,-1.2c-.5,-2.1,-1.9,-4,-3.8,-5Zm-3.4,-7.4c2.2,0,4,1.8,4,4c0,2.2,-1.8,4,-4,4c-2.3,0,-4.1,-1.8,-4.1,-4c0,-2.2,1.8,-4,4.1,-4Z" class="g10_41" />
</g>
<path fill-rule="evenodd" d="M197.3,510.3c6.6,0,12,5.4,12,12c0,6.6,-5.4,12,-12,12c-6.7,0,-12,-5.4,-12,-12c0,-6.6,5.3,-12,12,-12Z" class="g9_41" />
<g clip-path="url(#c9_41)">
<path fill-rule="evenodd" d="M200.7,522.9c-.4,.3,-1,.8,-1.5,1c-1.2,.6,-2.7,.6,-3.9,0c-.5,-.2,-1.1,-.7,-1.5,-1c-1.9,1,-3.3,2.9,-3.7,5c-.2,.7,-.3,1.2,.7,1.2h13c.9,0,.8,-.5,.7,-1.3c-.5,-2,-1.9,-3.9,-3.8,-4.9Zm-3.4,-7.4c2.2,0,4,1.8,4,4c0,2.2,-1.8,3.9,-4,3.9c-2.3,0,-4.1,-1.7,-4.1,-3.9c0,-2.2,1.8,-4,4.1,-4Z" class="g10_41" />
</g>
<path fill-rule="evenodd" d="M205.2,746.9c-.3,.3,-.8,.7,-1.2,.8c-1,.5,-2.3,.5,-3.3,0c-.4,-.1,-1,-.5,-1.3,-.8c-1.6,.8,-2.7,2.4,-3.1,4.2c-.2,.6,-.2,1,.6,1h8.9c-.8,-.5,-1.3,-1.5,-1.3,-2.6c0,-.9,.4,-1.8,1.1,-2.4c-.1,0,-.2,-.1,-.4,-.2Zm-2.9,-6.3c1.9,0,3.4,1.6,3.4,3.4c0,1.9,-1.5,3.4,-3.4,3.4c-1.8,0,-3.4,-1.5,-3.4,-3.4c0,-1.8,1.6,-3.4,3.4,-3.4Z" class="g3_41" />
<path fill-rule="evenodd" d="M207.8,752.4c-1.5,0,-2.8,-1.2,-2.8,-2.8c0,-1.6,1.3,-2.8,2.8,-2.8c1.6,0,2.8,1.2,2.8,2.8c0,.6,-.2,1.2,-.5,1.6l1.4,1.4c.2,.2,.2,.5,0,.7c-.2,.2,-.5,.2,-.7,0l-1.4,-1.4c-.4,.3,-1,.5,-1.6,.5Zm0,-.9c-1,0,-1.9,-.9,-1.9,-1.9c0,-1,.9,-1.9,1.9,-1.9c1.1,0,1.9,.9,1.9,1.9c0,1,-.8,1.9,-1.9,1.9Z" class="g3_41" />
<path d="M198.2,738.4H413.6c2.2,0,3.9,.9,3.9,2v12c0,1.1,-1.7,2,-3.9,2H198.2c-2.2,0,-3.9,-.9,-3.9,-2v-12c0,-1.1,1.7,-2,3.9,-2Z" class="g11_41" />
<path fill-rule="evenodd" d="M480.5,761.1H744.4v-429H480.5Z" class="g12_41" />
<path fill-rule="evenodd" d="M480.5,360.2H744.4V704.6H480.5Z" class="g2_41" />
<path fill-rule="evenodd" d="M480.5,332.1H744.4V291.8H480.5Z" class="g3_41" />
<path d="M494.7,317.3h15.2V319H494.7Z" class="g0_41" />
<path d="M494.7,312.3h15.2v1.6H494.7Z" class="g0_41" />
<path d="M494.7,322.3h15.2V324H494.7Z" class="g0_41" />
<path fill-rule="evenodd" d="M630.9,320.3c-8.1,-2.5,-5.9,-21.6,8.1,-13c3.3,2.1,1.7,4.2,9.3,2.7c8.4,-1.7,3.6,19.1,-9.5,12.9c-5.1,-2.5,-5.9,-.8,-12.9,1.4c-.1,.1,-.2,.1,-.2,.1Zm7,-2.1v1.1c0,.3,0,.6,.1,.8c.1,.2,.2,.3,.3,.4c.2,.2,.4,.3,.7,.4c.3,.1,.6,.1,1.1,.1c.5,0,1,-.1,1.3,-.2c.3,-.2,.5,-.4,.6,-.7c.1,-.1,.1,-.4,.1,-.8v-1.1Zm-.9,-.8h6v1.9c0,.4,0,.7,-.1,.9c-.1,.3,-.2,.6,-.4,.8c-.3,.3,-.6,.5,-1,.7c-.4,.1,-.9,.2,-1.5,.2c-.4,0,-.8,-.1,-1.2,-.2c-.3,-.1,-.6,-.2,-.8,-.3c-.3,-.2,-.4,-.3,-.6,-.5c-.1,-.2,-.2,-.4,-.3,-.7c0,-.2,-.1,-.5,-.1,-.8Zm4.4,-1.7h3.3v-4.2H644v3.4h-1.9v-3.4h-.7v3.4Zm-6.9,-1.1h4v1.1h-5.1v-6.5h5.1v1.1h-4v1.6h4v1h-4Z" class="g0_41" />
<path d="M573.4,324.2h-1.1v-9.4h1.1Zm3.3,0h-1v-9.4h1l5,7.7v-7.7h1v9.4h-1l-5,-7.6ZM587,315.8h-2.9v-1h6.8v1H588Zm19.5,1.8h-1c-.1,-.6,-.4,-1.1,-.8,-1.5c-.4,-.4,-1,-.5,-1.6,-.5c-.4,0,-.7,0,-1.1,.2c-.3,.1,-.6,.3,-.8,.5c-.2,.3,-.4,.6,-.6,1.1c-.1,.4,-.2,.9,-.2,1.4v1.4c0,1,.2,1.8,.7,2.4c.4,.6,1.1,.9,2,.9c.7,0,1.3,-.2,1.7,-.6c.5,-.4,.7,-.9,.7,-1.6v-1H603v-.9h3.5v1.9c0,.3,0,.6,-.1,.8c0,.3,-.2,.6,-.3,.9c-.2,.3,-.4,.5,-.7,.7c-.3,.2,-.6,.4,-1,.5c-.4,.2,-.8,.2,-1.3,.2c-1.2,0,-2.1,-.3,-2.8,-1.1c-.6,-.7,-.9,-1.8,-.9,-3.1v-1.4c0,-1.3,.3,-2.3,1,-3.1c.7,-.7,1.6,-1.1,2.7,-1.1c.5,0,1,.1,1.4,.3c.4,.1,.8,.4,1.1,.6c.2,.3,.5,.6,.6,1c.2,.4,.3,.7,.3,1.1Zm3,1.9v4.7h-1v-9.4h3.3c.5,0,.9,.1,1.3,.3c.4,.1,.7,.3,1,.6c.2,.2,.4,.5,.5,.8c.1,.4,.2,.7,.2,1.1c0,.4,-.1,.7,-.2,1c-.1,.3,-.2,.6,-.4,.8c-.2,.2,-.4,.3,-.6,.5c-.2,.1,-.4,.2,-.6,.3l1.9,4h-1.1l-2.1,-4.7c.7,0,1.1,-.2,1.5,-.5c.3,-.3,.5,-.8,.5,-1.3c0,-.6,-.2,-1.1,-.5,-1.4c-.4,-.4,-.9,-.5,-1.5,-.5h-2.2Zm8.7,1l-.3,.8l-1,2.9h-1.1l3.4,-9.4h1l3.4,9.4h-1.1l-1,-2.9l-.3,-.8m0,0l-1.5,-4.4l-1.5,4.4m6.8,3.1c0,-.2,0,-.3,.2,-.5c.1,-.1,.3,-.2,.5,-.2c.2,0,.4,.1,.5,.2c.1,.2,.2,.3,.2,.5c0,.2,-.1,.4,-.2,.6c-.1,.1,-.3,.2,-.5,.2c-.2,0,-.4,-.1,-.5,-.2c-.2,-.2,-.2,-.4,-.2,-.6Z" class="g4_41" />
<path fill-rule="evenodd" d="M592.2,314.8h5.6v1h-4.6v7.5h4.6v.9h-5.6c0,-3.1,0,-6.2,0,-9.4Z" class="g4_41" />
<path fill-rule="evenodd" d="M597.5,319.9h-3.1V319h3.1Z" class="g4_41" />
<path fill-rule="evenodd" d="M605.5,320.3H603v-.9h2.5Z" class="g4_41" />
<path fill-rule="evenodd" d="M587.9,324.2V317H587v7.2Z" class="g4_41" />
<path d="M480.5,733H744.4" class="g5_41" />
<path d="M600.3,345.7v1.1c0,.9,.2,1.6,.5,2c.4,.5,1,.7,1.7,.7c.6,0,1.1,-.2,1.4,-.5c.4,-.3,.5,-.7,.5,-1.2h.9c0,.2,-.1,.5,-.1,.7c-.1,.2,-.2,.4,-.4,.7c-.1,.2,-.3,.4,-.5,.5c-.2,.2,-.5,.3,-.8,.4c-.3,.1,-.7,.2,-1.1,.2c-.9,0,-1.6,-.3,-2.2,-.9c-.5,-.6,-.8,-1.5,-.8,-2.6v-1.1c0,-1.1,.3,-2,.8,-2.6c.6,-.7,1.3,-1,2.2,-1c.5,0,.9,.1,1.3,.3c.3,.1,.6,.3,.9,.6c.2,.2,.4,.5,.5,.8c.1,.3,.2,.6,.2,.9h-.9c0,-.2,0,-.4,-.1,-.6c-.1,-.2,-.2,-.4,-.4,-.6c-.1,-.2,-.4,-.3,-.6,-.4c-.3,-.1,-.6,-.2,-.9,-.2c-.6,0,-1.2,.2,-1.5,.7c-.4,.5,-.6,1.2,-.6,2.1Zm12.4,4.4h-.9v-3.7h-4.1v3.7h-.9v-7.8h.9v3.4h4.1v-3.4h.9Zm2,0h-.9l2.8,-7.8h.9l2.8,7.8h-1l-.8,-2.4h-3Zm2.3,-6.7l-1.2,3.6h2.5Zm6,6.7h-.9v-7h-2.4v-.8h5.7v.8H623Z" class="g6_41" />
<path fill-rule="evenodd" d="M498.8,345.2c0,.3,.1,.4,.3,.6c1.7,1.7,3.4,3.4,5.1,5.1c.2,.3,.5,.7,.9,.7h.2c.1,0,.2,0,.3,-.1c.3,-.3,.3,-.7,0,-1c-.5,-.5,-5.2,-5.1,-5.2,-5.3c0,-.1,4.4,-4.4,4.8,-4.8c.4,-.4,.6,-.5,.6,-1c0,-.3,-.2,-.6,-.7,-.6c-.3,0,-.7,.5,-.9,.7c-1.6,1.6,-3.2,3.2,-4.7,4.8c-.2,.2,-.7,.6,-.7,.9Z" class="g6_41" />
<path d="M480.5,360.2H744.4" class="g5_41" />
<path d="M733,317l-2,-.3c-.2,-.4,-.3,-.8,-.5,-1.2l1.2,-1.7c.1,-.2,0,-.4,-.1,-.5L730.3,312c-.2,-.2,-.4,-.2,-.5,-.1l-1.7,1.2c-.4,-.2,-.8,-.3,-1.2,-.5l-.4,-2c0,-.2,-.1,-.3,-.3,-.3h-1.9c-.2,0,-.4,.1,-.4,.3l-.3,2c-.5,.1,-.9,.3,-1.2,.5l-1.7,-1.2c-.2,-.1,-.4,-.1,-.5,0l-1.4,1.4c-.1,.1,-.1,.3,0,.5l1.2,1.7c-.2,.4,-.4,.8,-.5,1.2l-2.1,.3c-.1,.1,-.3,.2,-.3,.4v1.9c0,.2,.2,.3,.3,.4l2.1,.3c.1,.4,.3,.9,.5,1.2l-1.2,1.7c-.1,.2,-.1,.4,0,.5l1.4,1.4c.1,.1,.3,.1,.4,0l1.8,-1.2c.3,.2,.7,.4,1.2,.5l.3,2.1c0,.1,.2,.3,.4,.3h1.9c.2,0,.3,-.2,.3,-.3l.4,-2.1c.4,-.1,.8,-.3,1.2,-.5l1.7,1.2c.2,.1,.4,.1,.5,0l1.3,-1.4c.2,-.1,.2,-.3,.1,-.5l-1.2,-1.7c.2,-.4,.3,-.8,.5,-1.2l2,-.3c.2,-.1,.3,-.2,.3,-.4v-1.9c0,-.2,-.1,-.3,-.3,-.4Zm-7.8,3.8c-1.3,0,-2.4,-1.1,-2.4,-2.4c0,-1.4,1.1,-2.5,2.4,-2.5c1.4,0,2.5,1.1,2.5,2.5c0,1.3,-1.1,2.4,-2.5,2.4Z" class="g0_41" />
<path fill-rule="evenodd" d="M733.6,365.1c1.9,0,3.4,1.5,3.4,3.3v93.2c0,1.9,-1.5,3.4,-3.4,3.4c-1.9,0,-3.4,-1.5,-3.4,-3.4V368.4c0,-1.8,1.5,-3.3,3.4,-3.3Z" class="g3_41" />
<image preserveAspectRatio="none" x="696" y="380" width="24" height="25" xlink:href="img/3.png" />
<path d="M532.9,384.9c.4,0,.7,.1,.9,.2c.3,.1,.5,.2,.6,.4c.2,.1,.3,.3,.4,.5c.1,.3,.1,.5,.1,.7c0,.3,0,.5,-.1,.7c0,.2,-.1,.3,-.2,.5c-.1,.1,-.3,.2,-.4,.3c-.1,.1,-.2,.1,-.3,.2l1.1,2.4h-1.1l-1.1,-2.2h-1.1v2.2h-1.1v-5.9Zm-1.2,2.8h1.1c.3,0,.6,0,.8,-.2c.2,-.2,.3,-.4,.3,-.7c0,-.4,-.1,-.6,-.3,-.8c-.2,-.2,-.5,-.2,-.8,-.2h-1.1Zm6.8,2.5c-.3,.4,-.7,.7,-1.3,.7c-.5,0,-.8,-.2,-1.1,-.4c-.3,-.3,-.4,-.6,-.4,-1c0,-.4,.1,-.8,.4,-1c.3,-.2,.7,-.3,1.2,-.4h1.1v-.4c0,-.2,0,-.4,-.2,-.5c-.1,-.2,-.3,-.2,-.6,-.2c-.2,0,-.4,0,-.5,.1c-.2,.1,-.3,.3,-.3,.5h-.9c0,-.2,0,-.4,.1,-.5c.1,-.2,.2,-.4,.3,-.5c.2,-.1,.3,-.2,.6,-.3c.2,-.1,.5,-.1,.8,-.1c.3,0,.6,0,.9,.1c.2,.1,.5,.3,.6,.5c.2,.3,.3,.6,.3,.9v3.1h-1v-.6Zm-1,-.1c.3,0,.5,-.1,.7,-.2c.2,-.2,.2,-.4,.2,-.6v-.5h-.9c-.3,0,-.5,.1,-.6,.2c-.1,.1,-.2,.2,-.2,.4c0,.2,.1,.4,.2,.5c.2,.1,.4,.2,.6,.2Zm6.8,-3.9c-1,3,-1.5,4.5,-1.5,4.5l-.1,.3c-.1,.2,-.2,.4,-.3,.6c0,.1,-.1,.3,-.3,.4c-.1,.1,-.3,.2,-.5,.3c-.2,.1,-.4,.1,-.7,.1c-.2,0,-.4,0,-.6,0v-.8c.1,0,.3,0,.4,0c.3,0,.5,0,.6,-.1c.1,-.1,.2,-.3,.3,-.5v-.2L540,386.2h1.1l1.1,3.6l1.1,-3.6Zm.7,4.6v-6.2h1v6.2Zm2.2,0v-6.2h1v6.2Zm4.8,-.6c-.3,.4,-.7,.7,-1.3,.7c-.4,0,-.8,-.2,-1.1,-.4c-.2,-.3,-.4,-.6,-.4,-1c0,-.4,.2,-.8,.4,-1c.3,-.2,.7,-.3,1.2,-.4H552v-.4c0,-.2,-.1,-.4,-.3,-.5c-.1,-.2,-.3,-.2,-.5,-.2c-.3,0,-.5,0,-.6,.1c-.2,.1,-.3,.3,-.3,.5h-.9c0,-.2,0,-.4,.1,-.5c.1,-.2,.2,-.4,.3,-.5c.2,-.1,.3,-.2,.6,-.3c.2,-.1,.5,-.1,.8,-.1c.3,0,.6,0,.9,.1c.3,.1,.5,.3,.6,.5c.2,.3,.3,.6,.3,.9v3.1h-1v-.6Zm-1,-.1c.3,0,.5,-.1,.7,-.2c.2,-.2,.3,-.4,.3,-.6v-.5h-1c-.2,0,-.4,.1,-.6,.2c-.1,.1,-.2,.2,-.2,.4c0,.2,.1,.4,.3,.5c.1,.1,.3,.2,.5,.2Zm9.6,.7h-1.1v-2.6h-2.6v2.6h-1v-5.9h1v2.4h2.6v-2.4h1.1Zm3.7,-.6c-.2,.4,-.6,.7,-1.2,.7c-.5,0,-.8,-.2,-1.1,-.4c-.3,-.3,-.4,-.6,-.4,-1c0,-.4,.1,-.8,.4,-1c.3,-.2,.7,-.3,1.2,-.4h1.1v-.4c0,-.2,0,-.4,-.2,-.5c-.1,-.2,-.3,-.2,-.6,-.2c-.2,0,-.4,0,-.6,.1c-.1,.1,-.2,.3,-.2,.5h-1c.1,-.2,.1,-.4,.2,-.5c0,-.2,.1,-.4,.3,-.5c.1,-.1,.3,-.2,.5,-.3c.3,-.1,.5,-.1,.8,-.1c.4,0,.7,0,1,.1c.2,.1,.4,.3,.6,.5c.2,.3,.2,.6,.2,.9v3.1h-.9v-.6Zm-.9,-.1c.3,0,.5,-.1,.7,-.2c.1,-.2,.2,-.4,.2,-.6v-.5h-.9c-.3,0,-.5,.1,-.6,.2c-.1,.1,-.2,.2,-.2,.4c0,.2,.1,.4,.2,.5c.2,.1,.4,.2,.6,.2Zm3.1,.7v-4.6h1v.6c.1,-.1,.2,-.3,.4,-.4c.2,-.2,.4,-.2,.7,-.2c.1,0,.2,0,.3,0v.9c0,0,-.2,0,-.4,0c-.7,0,-1,.3,-1,1v2.7Zm3.3,0v-4.6h1v4.6Zm.1,-5.3c-.1,-.1,-.2,-.2,-.2,-.4c0,-.1,.1,-.3,.2,-.4c.1,-.1,.3,-.1,.4,-.1c.2,0,.3,0,.5,.1c.1,.1,.1,.3,.1,.4c0,.2,0,.3,-.1,.4c-.2,.1,-.3,.2,-.5,.2c-.1,0,-.3,-.1,-.4,-.2Zm4,5.4c-.6,0,-1.1,-.2,-1.5,-.6c-.3,-.4,-.5,-.9,-.5,-1.6v-.4c0,-.7,.2,-1.2,.5,-1.6c.4,-.3,.9,-.5,1.5,-.5c.6,0,1,.2,1.4,.5c.4,.4,.5,1,.5,1.6v.4h-2.9v.2c0,.3,.1,.6,.3,.8c.1,.3,.4,.4,.7,.4c.2,0,.4,-.1,.6,-.2c.2,-.1,.3,-.2,.3,-.4h1c-.1,.4,-.3,.7,-.6,1c-.3,.2,-.8,.4,-1.3,.4Zm-1,-2.8h1.9V388c0,-.3,-.1,-.5,-.2,-.7c-.2,-.3,-.4,-.4,-.7,-.4c-.3,0,-.6,.1,-.7,.4c-.2,.2,-.3,.4,-.3,.7Zm3.9,2.7v-6.2h1.1v6.2Zm5.6,-4.6c.3,0,.5,0,.8,.2c.2,.1,.4,.3,.5,.5v-2.3h1v6.2h-1v-.7c-.1,.2,-.3,.4,-.5,.5c-.2,.2,-.5,.2,-.8,.2c-.6,0,-1,-.1,-1.3,-.5c-.3,-.4,-.5,-.9,-.5,-1.6v-.4c0,-.6,.2,-1.2,.5,-1.5c.3,-.4,.7,-.6,1.3,-.6Zm.3,.8c-.3,0,-.6,.1,-.8,.3c-.1,.3,-.2,.6,-.2,1v.4c0,.4,.1,.8,.2,1c.2,.2,.5,.3,.8,.3c.3,0,.6,-.1,.7,-.3c.2,-.3,.3,-.6,.3,-1v-.4c0,-.4,-.1,-.7,-.3,-.9c-.2,-.3,-.4,-.4,-.7,-.4Zm5.1,3.9c-.7,0,-1.1,-.2,-1.5,-.6c-.4,-.4,-.6,-.9,-.6,-1.6v-.4c0,-.7,.2,-1.2,.6,-1.6c.3,-.3,.8,-.5,1.4,-.5c.6,0,1.1,.2,1.5,.5c.3,.4,.5,1,.5,1.6v.4h-3v.2c0,.3,.1,.6,.3,.8c.2,.3,.5,.4,.8,.4c.2,0,.4,-.1,.6,-.2c.1,-.1,.2,-.2,.3,-.4h.9c0,.4,-.2,.7,-.5,1c-.4,.2,-.8,.4,-1.3,.4Zm-1.1,-2.8h2V388c0,-.3,-.1,-.5,-.3,-.7c-.2,-.3,-.4,-.4,-.7,-.4c-.3,0,-.5,.1,-.7,.4c-.2,.2,-.3,.4,-.3,.7Zm5.4,1h1c0,.3,.1,.5,.4,.7c.2,.2,.5,.3,.9,.3c.3,0,.6,-.1,.8,-.3c.2,-.1,.3,-.3,.3,-.6c0,-.2,0,-.4,-.2,-.5c-.1,-.2,-.4,-.3,-.7,-.3l-.9,-.3c-.2,0,-.4,-.1,-.6,-.1c-.1,-.1,-.3,-.2,-.4,-.4c-.2,-.1,-.3,-.2,-.4,-.4c0,-.2,-.1,-.4,-.1,-.7c0,-.3,.1,-.6,.3,-.9c.2,-.3,.5,-.5,.8,-.6c.3,-.1,.7,-.2,1.1,-.2c.4,0,.7,.1,1,.2c.4,.1,.6,.3,.8,.6c.2,.3,.3,.6,.3,.9h-1c0,-.2,-.1,-.4,-.3,-.6c-.2,-.2,-.5,-.3,-.8,-.3c-.4,0,-.6,.1,-.8,.3c-.2,.1,-.3,.3,-.3,.6c0,.3,.2,.6,.8,.7l.9,.3c.3,0,.5,.1,.6,.2c.2,0,.4,.1,.5,.3c.2,.1,.3,.2,.4,.4c0,.2,.1,.4,.1,.7c0,.6,-.2,1,-.6,1.3c-.5,.3,-1,.5,-1.7,.5c-.3,0,-.6,0,-.9,-.1c-.2,-.1,-.4,-.2,-.6,-.3c-.2,-.1,-.3,-.2,-.4,-.4c-.1,-.1,-.2,-.3,-.3,-.5c0,-.1,0,-.3,0,-.5Zm5.8,-2.3c.3,-.4,.8,-.6,1.5,-.6c.6,0,1.1,.2,1.5,.6c.3,.4,.5,.9,.5,1.5v.4c0,.6,-.2,1.2,-.5,1.6c-.4,.4,-.9,.6,-1.5,.6c-.7,0,-1.2,-.2,-1.5,-.6c-.4,-.4,-.6,-1,-.6,-1.6v-.4c0,-.6,.2,-1.1,.6,-1.5Zm1.5,.2c-.4,0,-.6,.1,-.8,.3c-.2,.3,-.2,.6,-.2,1v.4c0,.4,0,.7,.2,1c.2,.2,.4,.4,.8,.4c.3,0,.6,-.2,.7,-.4c.2,-.3,.3,-.6,.3,-1v-.4c0,-.4,-.1,-.7,-.3,-1c-.1,-.2,-.4,-.3,-.7,-.3Zm6.9,-.8v4.6h-1v-.7h-.1c0,.2,-.2,.4,-.4,.5c-.2,.2,-.5,.3,-.9,.3c-.4,0,-.8,-.2,-1.1,-.5c-.3,-.2,-.4,-.6,-.4,-1.1v-3.1h1V389c0,.3,.1,.6,.2,.8c.2,.1,.4,.2,.7,.2c.3,0,.5,-.1,.7,-.3c.2,-.2,.3,-.4,.3,-.7v-2.8Zm1,4.6v-.6l2.2,-3.1h-2.2v-.9h3.5v.7l-2.2,3v.1h2.2v.8Zm6.9,-.6c-.2,.4,-.6,.7,-1.2,.7c-.5,0,-.8,-.2,-1.1,-.4c-.3,-.3,-.4,-.6,-.4,-1c0,-.4,.1,-.8,.4,-1c.3,-.2,.7,-.3,1.2,-.4h1.1v-.4c0,-.2,-.1,-.4,-.2,-.5c-.1,-.2,-.3,-.2,-.6,-.2c-.2,0,-.4,0,-.6,.1c-.1,.1,-.2,.3,-.2,.5h-1c0,-.2,.1,-.4,.2,-.5c0,-.2,.1,-.4,.3,-.5c.1,-.1,.3,-.2,.5,-.3c.3,-.1,.5,-.1,.8,-.1c.4,0,.7,0,.9,.1c.3,.1,.5,.3,.7,.5c.1,.3,.2,.6,.2,.9v3.1h-.9v-.6Zm-.9,-.1c.2,0,.5,-.1,.6,-.2c.2,-.2,.3,-.4,.3,-.6v-.5h-.9c-.3,0,-.5,.1,-.6,.2c-.1,.1,-.2,.2,-.2,.4c0,.2,.1,.4,.2,.5c.2,.1,.4,.2,.6,.2Z" class="g13_41" />
<path d="M513.4,425.5c6.6,0,11.9,5.4,11.9,12c0,6.6,-5.3,12,-11.9,12c-6.7,0,-12,-5.4,-12,-12c0,-6.6,5.3,-12,12,-12Z" class="g14_41" />
<g clip-path="url(#c10_41)">
<path d="M501.4,425.5l23.9,24m0,-24l-23.9,24" class="g14_41" />
</g>
<path d="M513.4,425.5c6.6,0,11.9,5.4,11.9,12c0,6.6,-5.3,12,-11.9,12c-6.7,0,-12,-5.4,-12,-12c0,-6.6,5.3,-12,12,-12Z" class="g14_41" />
<g clip-path="url(#c10_41)">
<path d="M501.4,425.5l23.9,24m0,-24l-23.9,24" class="g14_41" />
</g>
<image preserveAspectRatio="none" x="696" y="497" width="24" height="25" xlink:href="img/4.png" />
<path d="M532.9,501.9c.4,0,.7,0,.9,.1c.3,.1,.5,.3,.6,.4c.2,.2,.3,.4,.4,.6c.1,.2,.1,.5,.1,.7c0,.2,0,.4,-.1,.6c0,.2,-.1,.4,-.2,.5c-.1,.2,-.3,.3,-.4,.4c-.1,0,-.2,.1,-.3,.2l1.1,2.3h-1.1l-1.1,-2.2h-1.1v2.2h-1.1v-5.8Zm-1.2,2.8h1.1c.3,0,.6,-.1,.8,-.2c.2,-.2,.3,-.4,.3,-.8c0,-.3,-.1,-.5,-.3,-.7c-.2,-.2,-.5,-.3,-.8,-.3h-1.1Zm6.8,2.5c-.3,.4,-.7,.6,-1.3,.6c-.5,0,-.8,-.1,-1.1,-.4c-.3,-.2,-.4,-.5,-.4,-1c0,-.4,.1,-.7,.4,-.9c.3,-.3,.7,-.4,1.2,-.4h1.1v-.4c0,-.3,0,-.5,-.2,-.6c-.1,-.1,-.3,-.2,-.6,-.2c-.2,0,-.4,.1,-.5,.2c-.2,.1,-.3,.3,-.3,.5h-.9c0,-.2,0,-.4,.1,-.6c.1,-.2,.2,-.3,.3,-.4c.2,-.2,.3,-.3,.6,-.4c.2,0,.5,-.1,.8,-.1c.3,0,.6,.1,.9,.2c.2,.1,.5,.3,.6,.5c.2,.2,.3,.5,.3,.9v3h-1v-.5Zm-1,-.1c.3,0,.5,-.1,.7,-.3c.2,-.1,.2,-.3,.2,-.5v-.5h-.9c-.3,0,-.5,0,-.6,.1c-.1,.1,-.2,.3,-.2,.5c0,.2,.1,.4,.2,.5c.2,.1,.4,.2,.6,.2Zm6.8,-3.9c-1,3,-1.5,4.4,-1.5,4.5l-.1,.3c-.1,.2,-.2,.4,-.3,.5c0,.2,-.1,.3,-.3,.5c-.1,.1,-.3,.2,-.5,.3c-.2,0,-.4,.1,-.7,.1c-.2,0,-.4,0,-.6,-.1v-.7c.1,0,.3,0,.4,0c.3,0,.5,0,.6,-.1c.1,-.2,.2,-.3,.3,-.5v-.2L540,503.2h1.1l1.1,3.6l1.1,-3.6Zm.7,4.5v-6.1h1v6.1Zm2.2,0v-6.1h1v6.1Zm4.8,-.5c-.3,.4,-.7,.6,-1.3,.6c-.4,0,-.8,-.1,-1.1,-.4c-.2,-.2,-.4,-.5,-.4,-1c0,-.4,.2,-.7,.4,-.9c.3,-.3,.7,-.4,1.2,-.4H552v-.4c0,-.3,-.1,-.5,-.3,-.6c-.1,-.1,-.3,-.2,-.5,-.2c-.3,0,-.5,.1,-.6,.2c-.2,.1,-.3,.3,-.3,.5h-.9c0,-.2,0,-.4,.1,-.6c.1,-.2,.2,-.3,.3,-.4c.2,-.2,.3,-.3,.6,-.4c.2,0,.5,-.1,.8,-.1c.3,0,.6,.1,.9,.2c.3,.1,.5,.3,.6,.5c.2,.2,.3,.5,.3,.9v3h-1v-.5Zm-1,-.1c.3,0,.5,-.1,.7,-.3c.2,-.1,.3,-.3,.3,-.5v-.5h-1c-.2,0,-.4,0,-.6,.1c-.1,.1,-.2,.3,-.2,.5c0,.2,.1,.4,.3,.5c.1,.1,.3,.2,.5,.2Zm9.6,.6h-1.1v-2.5h-2.6v2.5h-1v-5.8h1v2.4h2.6v-2.4h1.1Zm3.7,-.5c-.2,.4,-.6,.6,-1.2,.6c-.5,0,-.8,-.1,-1.1,-.4c-.3,-.2,-.4,-.5,-.4,-1c0,-.4,.1,-.7,.4,-.9c.3,-.3,.7,-.4,1.2,-.4h1.1v-.4c0,-.3,0,-.5,-.2,-.6c-.1,-.1,-.3,-.2,-.6,-.2c-.2,0,-.4,.1,-.6,.2c-.1,.1,-.2,.3,-.2,.5h-1c.1,-.2,.1,-.4,.2,-.6c0,-.2,.1,-.3,.3,-.4c.1,-.2,.3,-.3,.5,-.4c.3,0,.5,-.1,.8,-.1c.4,0,.7,.1,1,.2c.2,.1,.4,.3,.6,.5c.2,.2,.2,.5,.2,.9v3h-.9v-.5Zm-.9,-.1c.3,0,.5,-.1,.7,-.3c.1,-.1,.2,-.3,.2,-.5v-.5h-.9c-.3,0,-.5,0,-.6,.1c-.1,.1,-.2,.3,-.2,.5c0,.2,.1,.4,.2,.5c.2,.1,.4,.2,.6,.2Zm3.1,.6v-4.5h1v.6c.1,-.2,.2,-.3,.4,-.5c.2,-.1,.4,-.2,.7,-.2c.1,0,.2,0,.3,.1v.9c0,-.1,-.2,-.1,-.4,-.1c-.7,0,-1,.4,-1,1.1v2.6Zm3.3,0v-4.5h1v4.5Zm.1,-5.2c-.1,-.1,-.2,-.3,-.2,-.4c0,-.2,.1,-.3,.2,-.4c.1,-.1,.3,-.2,.4,-.2c.2,0,.3,.1,.5,.2c.1,.1,.1,.2,.1,.4c0,.1,0,.3,-.1,.4c-.2,.1,-.3,.1,-.5,.1c-.1,0,-.3,0,-.4,-.1Zm4,5.3c-.6,0,-1.1,-.2,-1.5,-.5c-.3,-.4,-.5,-1,-.5,-1.6v-.5c0,-.6,.2,-1.1,.5,-1.5c.4,-.4,.9,-.6,1.5,-.6c.6,0,1,.2,1.4,.6c.4,.4,.5,.9,.5,1.6v.4h-2.9v.1c0,.4,.1,.7,.3,.9c.1,.2,.4,.3,.7,.3c.2,0,.4,0,.6,-.1c.2,-.1,.3,-.3,.3,-.5h1c-.1,.4,-.3,.8,-.6,1c-.3,.3,-.8,.4,-1.3,.4Zm-1,-2.8h1.9c0,-.3,-.1,-.6,-.2,-.8c-.2,-.2,-.4,-.3,-.7,-.3c-.3,0,-.6,.1,-.7,.3c-.2,.2,-.3,.5,-.3,.8Zm3.9,2.7v-6.1h1.1v6.1Zm5.6,-4.6c.3,0,.5,.1,.8,.2c.2,.2,.4,.3,.5,.6v-2.3h1v6.1h-1v-.6c-.1,.2,-.3,.4,-.5,.5c-.2,.1,-.5,.2,-.8,.2c-.6,0,-1,-.2,-1.3,-.6c-.3,-.3,-.5,-.9,-.5,-1.5v-.4c0,-.7,.2,-1.2,.5,-1.6c.3,-.4,.7,-.6,1.3,-.6Zm.3,.9c-.3,0,-.6,.1,-.8,.3c-.1,.2,-.2,.6,-.2,1v.3c0,.5,.1,.8,.2,1c.2,.3,.5,.4,.8,.4c.3,0,.6,-.1,.7,-.4c.2,-.2,.3,-.5,.3,-1v-.3c0,-.4,-.1,-.7,-.3,-1c-.2,-.2,-.4,-.3,-.7,-.3Zm5.1,3.8c-.7,0,-1.1,-.2,-1.5,-.5c-.4,-.4,-.6,-1,-.6,-1.6v-.5c0,-.6,.2,-1.1,.6,-1.5c.3,-.4,.8,-.6,1.4,-.6c.6,0,1.1,.2,1.5,.6c.3,.4,.5,.9,.5,1.6v.4h-3v.1c0,.4,.1,.7,.3,.9c.2,.2,.5,.3,.8,.3c.2,0,.4,0,.6,-.1c.1,-.1,.2,-.3,.3,-.5h.9c0,.4,-.2,.8,-.5,1c-.4,.3,-.8,.4,-1.3,.4ZM586.7,505h2c0,-.3,-.1,-.6,-.3,-.8c-.2,-.2,-.4,-.3,-.7,-.3c-.3,0,-.5,.1,-.7,.3c-.2,.2,-.3,.5,-.3,.8Zm5.4,1.1h1c0,.3,.1,.5,.4,.7c.2,.1,.5,.2,.9,.2c.3,0,.6,-.1,.8,-.2c.2,-.2,.3,-.4,.3,-.7c0,-.2,0,-.3,-.2,-.5c-.1,-.1,-.4,-.2,-.7,-.3l-.9,-.2c-.2,0,-.4,-.1,-.6,-.2c-.1,-.1,-.3,-.2,-.4,-.3c-.2,-.1,-.3,-.3,-.4,-.5c0,-.1,-.1,-.4,-.1,-.6c0,-.4,.1,-.7,.3,-.9c.2,-.3,.5,-.5,.8,-.6c.3,-.2,.7,-.2,1.1,-.2c.4,0,.7,0,1,.2c.4,.1,.6,.3,.8,.6c.2,.2,.3,.5,.3,.9h-1c0,-.3,-.1,-.5,-.3,-.7c-.2,-.1,-.5,-.2,-.8,-.2c-.4,0,-.6,.1,-.8,.2c-.2,.2,-.3,.4,-.3,.6c0,.4,.2,.7,.8,.8l.9,.2c.3,.1,.5,.1,.6,.2c.2,.1,.4,.2,.5,.3c.2,.2,.3,.3,.4,.5c0,.2,.1,.4,.1,.7c0,.5,-.2,1,-.6,1.3c-.5,.3,-1,.5,-1.7,.5c-.3,0,-.6,-.1,-.9,-.1c-.2,-.1,-.4,-.2,-.6,-.3c-.2,-.1,-.3,-.3,-.4,-.4c-.1,-.2,-.2,-.3,-.3,-.5c0,-.2,0,-.3,0,-.5Zm5.8,-2.4c.3,-.4,.8,-.6,1.5,-.6c.6,0,1.1,.2,1.5,.6c.3,.4,.5,.9,.5,1.6v.3c0,.7,-.2,1.2,-.5,1.6c-.4,.4,-.9,.6,-1.5,.6c-.7,0,-1.2,-.2,-1.5,-.6c-.4,-.4,-.6,-.9,-.6,-1.6v-.3c0,-.6,.2,-1.2,.6,-1.6Zm1.5,.2c-.4,0,-.6,.2,-.8,.4c-.2,.2,-.2,.6,-.2,1v.3c0,.5,0,.8,.2,1c.2,.3,.4,.4,.8,.4c.3,0,.6,-.1,.7,-.4c.2,-.2,.3,-.5,.3,-1v-.3c0,-.4,-.1,-.8,-.3,-1c-.1,-.2,-.4,-.4,-.7,-.4Zm6.9,-.7v4.5h-1v-.6h-.1c0,.2,-.2,.4,-.4,.5c-.2,.1,-.5,.2,-.9,.2c-.4,0,-.8,-.1,-1.1,-.4c-.3,-.3,-.4,-.7,-.4,-1.2v-3h1v2.7c0,.4,.1,.7,.2,.8c.2,.2,.4,.3,.7,.3c.3,0,.5,-.1,.7,-.3c.2,-.2,.3,-.4,.3,-.8v-2.7Zm1,4.5v-.6l2.2,-3V504h-2.2v-.8h3.5v.7l-2.2,3h2.2v.8Zm6.9,-.5c-.2,.4,-.6,.6,-1.2,.6c-.5,0,-.8,-.1,-1.1,-.4c-.3,-.2,-.4,-.5,-.4,-1c0,-.4,.1,-.7,.4,-.9c.3,-.3,.7,-.4,1.2,-.4h1.1v-.4c0,-.3,-.1,-.5,-.2,-.6c-.1,-.1,-.3,-.2,-.6,-.2c-.2,0,-.4,.1,-.6,.2c-.1,.1,-.2,.3,-.2,.5h-1c0,-.2,.1,-.4,.2,-.6c0,-.2,.1,-.3,.3,-.4c.1,-.2,.3,-.3,.5,-.4c.3,0,.5,-.1,.8,-.1c.4,0,.7,.1,.9,.2c.3,.1,.5,.3,.7,.5c.1,.2,.2,.5,.2,.9v3h-.9v-.5Zm-.9,-.1c.2,0,.5,-.1,.6,-.3c.2,-.1,.3,-.3,.3,-.5v-.5h-.9c-.3,0,-.5,0,-.6,.1c-.1,.1,-.2,.3,-.2,.5c0,.2,.1,.4,.2,.5c.2,.1,.4,.2,.6,.2Z" class="g13_41" />
<path fill-rule="evenodd" d="M497.2,710.5H510c.8,0,1.4,.6,1.4,1.4v9.6c0,.8,-.6,1.5,-1.4,1.5H497.2c-.8,0,-1.5,-.7,-1.5,-1.5v-9.6c0,-.8,.7,-1.4,1.5,-1.4Zm.7,8.8v1.6h11.4v-3.6l-3.4,-3.4l-4.1,4.1l-1.3,-1.2Zm1.5,-6.7c.9,0,1.6,.7,1.6,1.5c0,.9,-.7,1.6,-1.6,1.6c-.8,0,-1.5,-.7,-1.5,-1.6c0,-.8,.7,-1.5,1.5,-1.5Zm-2.3,-1.1h13c.1,0,.3,.2,.3,.3v9.8c0,.2,-.2,.3,-.3,.3h-13c-.2,0,-.3,-.1,-.3,-.3v-9.8c0,-.1,.1,-.3,.3,-.3Z" class="g3_41" />
<path d="M545.5,719.1c-.1,-.1,-.2,-.2,-.2,-.4c0,-.1,.1,-.2,.2,-.3c.1,-.1,.2,-.2,.3,-.2c.2,0,.3,.1,.4,.2c.1,.1,.2,.2,.2,.3c0,.2,-.1,.3,-.2,.4c-.1,.1,-.2,.1,-.4,.1c-.1,0,-.2,0,-.3,-.1Zm1.8,0c-.1,-.1,-.1,-.2,-.1,-.4c0,-.1,0,-.2,.1,-.3c.1,-.1,.3,-.2,.4,-.2c.1,0,.3,.1,.4,.2c.1,.1,.1,.2,.1,.3c0,.2,0,.3,-.1,.4c-.1,.1,-.3,.1,-.4,.1c-.1,0,-.3,0,-.4,-.1Zm1.9,0c-.1,-.1,-.2,-.2,-.2,-.4c0,-.1,.1,-.2,.2,-.3c.1,-.1,.2,-.2,.4,-.2c.1,0,.2,.1,.3,.2c.1,.1,.2,.2,.2,.3c0,.2,-.1,.3,-.2,.4c-.1,.1,-.2,.1,-.3,.1c-.2,0,-.3,0,-.4,-.1Zm3.3,.1c-.5,0,-.9,-.1,-1.2,-.5c-.3,-.3,-.5,-.7,-.5,-1.3v-.3c0,-.6,.2,-1,.5,-1.3c.3,-.3,.7,-.5,1.2,-.5c.5,0,.9,.2,1.2,.5c.3,.3,.4,.7,.4,1.3v.4h-2.4c0,.4,0,.6,.2,.8c.1,.2,.3,.3,.6,.3c.2,0,.4,-.1,.5,-.2c.1,-.1,.2,-.2,.3,-.4h.8c-.1,.4,-.3,.7,-.5,.9c-.3,.2,-.6,.3,-1.1,.3Zm-.8,-2.3h1.6c0,-.3,-.1,-.5,-.2,-.7c-.2,-.2,-.4,-.2,-.6,-.2c-.3,0,-.5,0,-.6,.2c-.2,.2,-.2,.4,-.2,.7Zm3.1,-.4c0,-.2,0,-.4,.1,-.5c.1,-.2,.2,-.3,.3,-.4c.2,-.1,.3,-.2,.5,-.2c.2,-.1,.4,-.1,.6,-.1c.4,0,.8,.1,1,.3c.3,.2,.4,.5,.4,.9h-.8c0,-.2,0,-.3,-.2,-.4c-.1,-.1,-.2,-.2,-.5,-.2c-.1,0,-.3,.1,-.4,.1c-.1,.1,-.2,.2,-.2,.4c0,.1,0,.2,.1,.2c0,.1,.1,.1,.2,.2c.1,0,.2,0,.3,.1c0,0,.1,0,.3,0h.1c.2,.1,.3,.1,.5,.2c.1,0,.2,.1,.3,.2c.2,0,.2,.1,.3,.3c.1,.1,.1,.2,.1,.4c0,.4,-.1,.7,-.4,.9c-.3,.2,-.7,.3,-1.2,.3c-.4,0,-.8,-.1,-1.1,-.3c-.3,-.2,-.4,-.5,-.4,-.8h.8c.1,.2,.1,.3,.3,.4c.1,.1,.3,.1,.5,.1c.2,0,.4,0,.5,-.1c.1,-.1,.2,-.2,.2,-.4q0,-.1,-.1,-.2c0,-.1,-.1,-.1,-.2,-.2c-.1,0,-.2,0,-.2,0c-.1,-.1,-.2,-.1,-.4,-.1H556c-.2,-.1,-.3,-.1,-.5,-.2c-.1,0,-.2,-.1,-.3,-.2c-.2,0,-.3,-.2,-.3,-.3c-.1,-.1,-.1,-.3,-.1,-.4Zm3.6,.9v-.3c0,-.6,.2,-1,.5,-1.3c.3,-.3,.7,-.5,1.2,-.5c.4,0,.8,.1,1.1,.4c.2,.2,.4,.5,.4,.9h-.8c0,-.2,-.1,-.3,-.2,-.4c-.2,-.1,-.3,-.2,-.5,-.2c-.2,0,-.5,.1,-.6,.3c-.2,.2,-.2,.5,-.2,.8v.3c0,.4,0,.6,.2,.8c.2,.2,.4,.3,.6,.3c.2,0,.4,0,.5,-.1c.1,-.1,.2,-.3,.2,-.4h.8c0,.4,-.2,.7,-.5,.9c-.2,.2,-.6,.3,-1,.3c-.5,0,-.9,-.1,-1.2,-.5c-.3,-.3,-.5,-.7,-.5,-1.3Zm4,1.8v-3.8h.8v.5h.1c0,-.2,.1,-.3,.3,-.4c.1,-.1,.3,-.2,.6,-.2c.1,0,.2,0,.2,0v.8c0,0,-.1,0,-.3,0c-.6,0,-.9,.2,-.9,.8v2.3Zm4.2,0c-.5,0,-1,-.1,-1.3,-.5c-.3,-.3,-.4,-.7,-.4,-1.3v-.3c0,-.6,.1,-1,.4,-1.3c.3,-.3,.7,-.5,1.2,-.5c.5,0,.9,.2,1.2,.5c.3,.3,.5,.7,.5,1.3v.4h-2.5c0,.4,.1,.6,.3,.8c.1,.2,.3,.3,.6,.3c.2,0,.3,-.1,.5,-.2c.1,-.1,.2,-.2,.2,-.4h.8c0,.4,-.2,.7,-.5,.9c-.2,.2,-.6,.3,-1,.3Zm-.9,-2.3h1.6c0,-.3,0,-.5,-.2,-.7c-.1,-.2,-.3,-.2,-.6,-.2c-.2,0,-.4,0,-.6,.2c-.1,.2,-.2,.4,-.2,.7Zm4.1,2.3l-1.3,-3.8h.9l.8,2.9h.1l.9,-2.9h.9l-1.4,3.8Zm4.2,0c-.5,0,-.9,-.1,-1.2,-.5c-.3,-.3,-.4,-.7,-.4,-1.3v-.3c0,-.6,.1,-1,.4,-1.3c.3,-.3,.7,-.5,1.2,-.5c.5,0,.9,.2,1.2,.5c.3,.3,.4,.7,.4,1.3v.4h-2.4c0,.4,.1,.6,.2,.8c.2,.2,.4,.3,.7,.3c.1,0,.3,-.1,.4,-.2c.2,-.1,.3,-.2,.3,-.4h.8c-.1,.4,-.2,.7,-.5,.9c-.2,.2,-.6,.3,-1.1,.3Zm-.8,-2.3h1.6c0,-.3,-.1,-.5,-.2,-.7c-.2,-.2,-.3,-.2,-.6,-.2c-.2,0,-.4,0,-.6,.2c-.1,.2,-.2,.4,-.2,.7Zm3.3,2.3v-3.8h.8v.5c.1,-.2,.2,-.3,.4,-.4c.1,-.1,.3,-.2,.5,-.2c.1,0,.2,0,.3,0v.8c0,0,-.2,0,-.3,0c-.6,0,-.9,.2,-.9,.8v2.3Z" class="g7_41" />
<path fill-rule="evenodd" d="M518.7,716.5c0,-.2,.1,-1,.2,-1.3c.2,-1,.7,-2,1.4,-2.8c.5,-.4,.7,-.6,1.2,-.9c.5,-.3,1.1,-.5,1.6,-.6c.4,-.1,1.1,-.2,1.5,-.2c.3,0,.4,0,1,.1c1.1,.2,2,.8,2.8,1.5c.9,.9,1.5,2,1.7,3.3c.2,1.7,-.3,3.5,-1.6,4.7c-.1,.2,-.2,.3,-.3,.4c-.1,0,-.2,.1,-.2,.2c-.6,.4,-1.4,.8,-2.2,1c-.4,.1,-1.1,.2,-1.6,.2c-.3,-.1,-.3,0,-.9,-.1c-1.1,-.2,-2.1,-.8,-2.8,-1.5l-.5,-.6c-.6,-.8,-1.1,-1.7,-1.2,-2.7c0,-.3,0,-.4,-.1,-.7Zm-.8,-.3c0,1.5,.2,2.3,.8,3.5c.5,.8,1.2,1.6,1.9,2.1c.2,.1,.3,.2,.5,.3c1.2,.6,2.1,.9,3.6,.9c2.1,0,4.4,-1.4,5.4,-3.3c.7,-1.2,.9,-2,.9,-3.5c0,-1.2,-.4,-2.3,-.9,-3.1c-1,-1.9,-3.3,-3.3,-5.4,-3.3c-1.5,0,-2.4,.3,-3.6,.9c-1.8,1,-3.2,3.3,-3.2,5.5Z" class="g3_41" />
<path fill-rule="evenodd" d="M521.1,718.4c0,.1,.1,.3,.2,.4c.7,.9,1.8,1.5,3,1.5h.4c1,0,1.9,-.5,2.6,-1.2c.1,-.1,.5,-.5,.5,-.7c-.1,0,-.6,-.4,-.7,-.4c-.2,.1,-.7,1.2,-2.2,1.4c-.5,.1,-.8,.1,-1.3,-.1c-.6,-.1,-1.2,-.6,-1.6,-1c0,-.1,-.1,-.3,-.2,-.3c-.1,0,-.6,.4,-.7,.4Z" class="g3_41" />
<path fill-rule="evenodd" d="M521.8,715c0,1,1,1.2,1.5,.7c.5,-.5,.3,-1.5,-.7,-1.5c-.4,0,-.8,.4,-.8,.8Z" class="g3_41" />
<path fill-rule="evenodd" d="M525.3,715c0,1.3,1.8,1.3,1.8,0c0,-.4,-.4,-.8,-1,-.8c-.4,0,-.8,.4,-.8,.8Z" class="g3_41" />
<path d="M480.5,704.6H744.4m-204.8,3.7v17.4" class="g8_41" />
<path fill-rule="evenodd" d="M511.7,746.9c-.3,.3,-.8,.7,-1.2,.8c-1,.5,-2.3,.5,-3.3,0c-.4,-.1,-.9,-.5,-1.2,-.8c-1.6,.8,-2.8,2.4,-3.2,4.2c-.2,.6,-.2,1,.6,1h9c-.9,-.5,-1.4,-1.5,-1.4,-2.6c0,-.9,.4,-1.8,1.1,-2.4c-.1,0,-.2,-.1,-.4,-.2Zm-2.8,-6.3c1.8,0,3.3,1.6,3.3,3.4c0,1.9,-1.5,3.4,-3.3,3.4c-1.9,0,-3.4,-1.5,-3.4,-3.4c0,-1.8,1.5,-3.4,3.4,-3.4Z" class="g3_41" />
<path fill-rule="evenodd" d="M514.3,752.4c-1.5,0,-2.8,-1.2,-2.8,-2.8c0,-1.6,1.3,-2.8,2.8,-2.8c1.6,0,2.9,1.2,2.9,2.8c0,.6,-.2,1.2,-.6,1.6l1.4,1.4c.2,.2,.2,.5,0,.7c-.1,.2,-.4,.2,-.6,0L516,751.9c-.5,.3,-1.1,.5,-1.7,.5Zm0,-.9c-1,0,-1.8,-.9,-1.8,-1.9c0,-1,.8,-1.9,1.8,-1.9c1.1,0,1.9,.9,1.9,1.9c0,1,-.8,1.9,-1.9,1.9Z" class="g3_41" />
<path d="M504.7,738.4H720.2c2.1,0,3.8,.9,3.8,2v12c0,1.1,-1.7,2,-3.8,2H504.7c-2.1,0,-3.9,-.9,-3.9,-2v-12c0,-1.1,1.8,-2,3.9,-2Z" class="g11_41" />
<path fill-rule="evenodd" d="M513.4,425.5c6.6,0,11.9,5.4,11.9,12c0,6.6,-5.3,12,-11.9,12c-6.7,0,-12,-5.4,-12,-12c0,-6.6,5.3,-12,12,-12Z" class="g9_41" />
<g clip-path="url(#c10_41)">
<path fill-rule="evenodd" d="M516.8,438.1c-.4,.3,-1,.8,-1.5,1c-1.2,.6,-2.7,.5,-3.9,0c-.5,-.2,-1.1,-.7,-1.5,-1c-1.9,1,-3.3,2.9,-3.8,5c-.1,.7,-.2,1.2,.7,1.2h13.1c.9,0,.8,-.5,.6,-1.3c-.4,-2,-1.8,-4,-3.7,-4.9Zm-3.4,-7.4c2.2,0,4,1.7,4,3.9c0,2.2,-1.8,4,-4,4c-2.3,0,-4.1,-1.8,-4.1,-4c0,-2.2,1.8,-3.9,4.1,-3.9Z" class="g10_41" />
</g>
<path d="M513.4,560.9c6.6,0,11.9,5.4,11.9,12c0,6.6,-5.3,12,-11.9,12c-6.7,0,-12,-5.4,-12,-12c0,-6.6,5.3,-12,12,-12Z" class="g14_41" />
<g clip-path="url(#c11_41)">
<path d="M501.4,560.9l23.9,24m0,-24l-23.9,24" class="g14_41" />
</g>
<path d="M513.4,560.9c6.6,0,11.9,5.4,11.9,12c0,6.6,-5.3,12,-11.9,12c-6.7,0,-12,-5.4,-12,-12c0,-6.6,5.3,-12,12,-12Z" class="g14_41" />
<g clip-path="url(#c11_41)">
<path d="M501.4,560.9l23.9,24m0,-24l-23.9,24" class="g14_41" />
</g>
<path fill-rule="evenodd" d="M513.4,560.9c6.6,0,11.9,5.4,11.9,12c0,6.6,-5.3,12,-11.9,12c-6.7,0,-12,-5.4,-12,-12c0,-6.6,5.3,-12,12,-12Z" class="g9_41" />
<g clip-path="url(#c11_41)">
<path fill-rule="evenodd" d="M516.8,573.5c-.4,.3,-1,.8,-1.5,1c-1.2,.6,-2.7,.6,-3.9,0c-.5,-.2,-1.1,-.7,-1.5,-1c-1.9,1,-3.3,2.9,-3.8,5c-.1,.8,-.2,1.2,.7,1.2h13.1c.9,0,.8,-.5,.6,-1.2c-.4,-2.1,-1.8,-4,-3.7,-5Zm-3.4,-7.4c2.2,0,4,1.8,4,4c0,2.2,-1.8,4,-4,4c-2.3,0,-4.1,-1.8,-4.1,-4c0,-2.2,1.8,-4,4.1,-4Z" class="g10_41" />
</g>
<image preserveAspectRatio="none" x="696" y="615" width="24" height="25" xlink:href="img/5.png" />
<path d="M532.9,619.9c.4,0,.7,0,.9,.1c.3,.1,.5,.2,.6,.4c.2,.2,.3,.4,.4,.6c.1,.2,.1,.4,.1,.7c0,.2,0,.4,-.1,.6c0,.2,-.1,.4,-.2,.5c-.1,.1,-.3,.2,-.4,.3c-.1,.1,-.2,.2,-.3,.2l1.1,2.4h-1.1l-1.1,-2.2h-1.1v2.2h-1.1v-5.8Zm-1.2,2.8h1.1c.3,0,.6,-.1,.8,-.3c.2,-.1,.3,-.4,.3,-.7c0,-.3,-.1,-.6,-.3,-.7c-.2,-.2,-.5,-.3,-.8,-.3h-1.1Zm6.8,2.5c-.3,.4,-.7,.6,-1.3,.6c-.5,0,-.8,-.1,-1.1,-.4c-.3,-.2,-.4,-.6,-.4,-1c0,-.4,.1,-.7,.4,-1c.3,-.2,.7,-.3,1.2,-.3h1.1v-.4c0,-.3,0,-.5,-.2,-.6c-.1,-.1,-.3,-.2,-.6,-.2c-.2,0,-.4,0,-.5,.2c-.2,.1,-.3,.2,-.3,.4h-.9c0,-.2,0,-.3,.1,-.5c.1,-.2,.2,-.3,.3,-.5c.2,-.1,.3,-.2,.6,-.3c.2,-.1,.5,-.1,.8,-.1c.3,0,.6,.1,.9,.2c.2,.1,.5,.3,.6,.5c.2,.2,.3,.5,.3,.8v3.1h-1v-.5Zm-1,-.2c.3,0,.5,0,.7,-.2c.2,-.1,.2,-.3,.2,-.6v-.5h-.9c-.3,0,-.5,.1,-.6,.2c-.1,.1,-.2,.3,-.2,.5c0,.2,.1,.3,.2,.5c.2,.1,.4,.1,.6,.1Zm6.8,-3.8c-1,2.9,-1.5,4.4,-1.5,4.4l-.1,.4c-.1,.2,-.2,.4,-.3,.5c0,.2,-.1,.3,-.3,.4c-.1,.2,-.3,.3,-.5,.4c-.2,0,-.4,.1,-.7,.1c-.2,0,-.4,-.1,-.6,-.1v-.7c.1,0,.3,0,.4,0c.3,0,.5,-.1,.6,-.2c.1,-.1,.2,-.2,.3,-.5v-.1L540,621.2h1.1l1.1,3.6l1.1,-3.6Zm.7,4.5v-6.1h1v6.1Zm2.2,0v-6.1h1v6.1Zm4.8,-.5c-.3,.4,-.7,.6,-1.3,.6c-.4,0,-.8,-.1,-1.1,-.4c-.2,-.2,-.4,-.6,-.4,-1c0,-.4,.2,-.7,.4,-1c.3,-.2,.7,-.3,1.2,-.3H552v-.4c0,-.3,-.1,-.5,-.3,-.6c-.1,-.1,-.3,-.2,-.5,-.2c-.3,0,-.5,0,-.6,.2c-.2,.1,-.3,.2,-.3,.4h-.9c0,-.2,0,-.3,.1,-.5c.1,-.2,.2,-.3,.3,-.5c.2,-.1,.3,-.2,.6,-.3c.2,-.1,.5,-.1,.8,-.1c.3,0,.6,.1,.9,.2c.3,.1,.5,.3,.6,.5c.2,.2,.3,.5,.3,.8v3.1h-1v-.5Zm-1,-.2c.3,0,.5,0,.7,-.2c.2,-.1,.3,-.3,.3,-.6v-.5h-1c-.2,0,-.4,.1,-.6,.2c-.1,.1,-.2,.3,-.2,.5c0,.2,.1,.3,.3,.5c.1,.1,.3,.1,.5,.1Zm9.6,.7h-1.1v-2.5h-2.6v2.5h-1v-5.8h1v2.4h2.6v-2.4h1.1Zm3.7,-.5c-.2,.4,-.6,.6,-1.2,.6c-.5,0,-.8,-.1,-1.1,-.4c-.3,-.2,-.4,-.6,-.4,-1c0,-.4,.1,-.7,.4,-1c.3,-.2,.7,-.3,1.2,-.3h1.1v-.4c0,-.3,0,-.5,-.2,-.6c-.1,-.1,-.3,-.2,-.6,-.2c-.2,0,-.4,0,-.6,.2c-.1,.1,-.2,.2,-.2,.4h-1c.1,-.2,.1,-.3,.2,-.5c0,-.2,.1,-.3,.3,-.5c.1,-.1,.3,-.2,.5,-.3c.3,-.1,.5,-.1,.8,-.1c.4,0,.7,.1,1,.2c.2,.1,.4,.3,.6,.5c.2,.2,.2,.5,.2,.8v3.1h-.9v-.5Zm-.9,-.2c.3,0,.5,0,.7,-.2c.1,-.1,.2,-.3,.2,-.6v-.5h-.9c-.3,0,-.5,.1,-.6,.2c-.1,.1,-.2,.3,-.2,.5c0,.2,.1,.3,.2,.5c.2,.1,.4,.1,.6,.1Zm3.1,.7v-4.5h1v.6c.1,-.2,.2,-.3,.4,-.5c.2,-.1,.4,-.2,.7,-.2c.1,0,.2,0,.3,0v.9c0,0,-.2,0,-.4,0c-.7,0,-1,.4,-1,1.1v2.6Zm3.3,0v-4.5h1v4.5Zm.1,-5.2c-.1,-.1,-.2,-.3,-.2,-.4c0,-.2,.1,-.3,.2,-.4c.1,-.1,.3,-.2,.4,-.2c.2,0,.3,.1,.5,.2c.1,.1,.1,.2,.1,.4c0,.1,0,.3,-.1,.4c-.2,.1,-.3,.1,-.5,.1c-.1,0,-.3,0,-.4,-.1Zm4,5.3c-.6,0,-1.1,-.2,-1.5,-.6c-.3,-.4,-.5,-.9,-.5,-1.6v-.4c0,-.6,.2,-1.2,.5,-1.5c.4,-.4,.9,-.6,1.5,-.6c.6,0,1,.2,1.4,.6c.4,.4,.5,.9,.5,1.5v.5h-2.9v.1c0,.4,.1,.7,.3,.9c.1,.2,.4,.3,.7,.3c.2,0,.4,0,.6,-.1c.2,-.2,.3,-.3,.3,-.5h1c-.1,.4,-.3,.7,-.6,1c-.3,.3,-.8,.4,-1.3,.4Zm-1,-2.8h1.9c0,-.3,-.1,-.6,-.2,-.8c-.2,-.2,-.4,-.3,-.7,-.3c-.3,0,-.6,.1,-.7,.3c-.2,.2,-.3,.5,-.3,.8Zm3.9,2.7v-6.1h1.1v6.1Zm5.6,-4.6c.3,0,.5,.1,.8,.2c.2,.1,.4,.3,.5,.5v-2.2h1v6.1h-1V625c-.1,.3,-.3,.5,-.5,.6c-.2,.1,-.5,.2,-.8,.2c-.6,0,-1,-.2,-1.3,-.6c-.3,-.4,-.5,-.9,-.5,-1.6v-.4c0,-.6,.2,-1.1,.5,-1.5c.3,-.4,.7,-.6,1.3,-.6Zm.3,.8c-.3,0,-.6,.2,-.8,.4c-.1,.2,-.2,.5,-.2,1v.3c0,.5,.1,.8,.2,1c.2,.2,.5,.4,.8,.4c.3,0,.6,-.2,.7,-.4c.2,-.2,.3,-.6,.3,-1v-.3c0,-.4,-.1,-.8,-.3,-1c-.2,-.2,-.4,-.4,-.7,-.4Zm5.1,3.9c-.7,0,-1.1,-.2,-1.5,-.6c-.4,-.4,-.6,-.9,-.6,-1.6v-.4c0,-.6,.2,-1.2,.6,-1.5c.3,-.4,.8,-.6,1.4,-.6c.6,0,1.1,.2,1.5,.6c.3,.4,.5,.9,.5,1.5v.5h-3v.1c0,.4,.1,.7,.3,.9c.2,.2,.5,.3,.8,.3c.2,0,.4,0,.6,-.1c.1,-.2,.2,-.3,.3,-.5h.9c0,.4,-.2,.7,-.5,1c-.4,.3,-.8,.4,-1.3,.4ZM586.7,623h2c0,-.3,-.1,-.6,-.3,-.8c-.2,-.2,-.4,-.3,-.7,-.3c-.3,0,-.5,.1,-.7,.3c-.2,.2,-.3,.5,-.3,.8Zm5.4,1.1h1c0,.2,.1,.5,.4,.6c.2,.2,.5,.3,.9,.3c.3,0,.6,-.1,.8,-.2c.2,-.2,.3,-.4,.3,-.7c0,-.2,0,-.4,-.2,-.5c-.1,-.1,-.4,-.2,-.7,-.3l-.9,-.2c-.2,-.1,-.4,-.1,-.6,-.2c-.1,-.1,-.3,-.2,-.4,-.3c-.2,-.1,-.3,-.3,-.4,-.5c0,-.2,-.1,-.4,-.1,-.6c0,-.4,.1,-.7,.3,-1c.2,-.2,.5,-.4,.8,-.6c.3,-.1,.7,-.2,1.1,-.2c.4,0,.7,.1,1,.2c.4,.2,.6,.4,.8,.6c.2,.3,.3,.6,.3,1h-1c0,-.3,-.1,-.5,-.3,-.7c-.2,-.1,-.5,-.2,-.8,-.2c-.4,0,-.6,0,-.8,.2c-.2,.1,-.3,.3,-.3,.6c0,.4,.2,.6,.8,.8l.9,.2c.3,0,.5,.1,.6,.2c.2,.1,.4,.2,.5,.3c.2,.1,.3,.3,.4,.5c0,.2,.1,.4,.1,.6c0,.6,-.2,1,-.6,1.4c-.5,.3,-1,.4,-1.7,.4c-.3,0,-.6,0,-.9,-.1c-.2,0,-.4,-.1,-.6,-.2c-.2,-.2,-.3,-.3,-.4,-.5c-.1,-.1,-.2,-.3,-.3,-.4c0,-.2,0,-.3,0,-.5Zm5.8,-2.4c.3,-.4,.8,-.6,1.5,-.6c.6,0,1.1,.2,1.5,.6c.3,.4,.5,.9,.5,1.6v.3c0,.7,-.2,1.2,-.5,1.6c-.4,.4,-.9,.6,-1.5,.6c-.7,0,-1.2,-.2,-1.5,-.6c-.4,-.4,-.6,-.9,-.6,-1.6v-.3c0,-.7,.2,-1.2,.6,-1.6Zm1.5,.2c-.4,0,-.6,.1,-.8,.4c-.2,.2,-.2,.6,-.2,1v.3c0,.4,0,.8,.2,1c.2,.3,.4,.4,.8,.4c.3,0,.6,-.1,.7,-.4c.2,-.2,.3,-.6,.3,-1v-.3c0,-.4,-.1,-.8,-.3,-1c-.1,-.3,-.4,-.4,-.7,-.4Zm6.9,-.7v4.5h-1v-.6h-.1c0,.2,-.2,.3,-.4,.5c-.2,.1,-.5,.2,-.9,.2c-.4,0,-.8,-.1,-1.1,-.4c-.3,-.3,-.4,-.7,-.4,-1.2v-3h1v2.7c0,.4,.1,.6,.2,.8c.2,.1,.4,.2,.7,.2c.3,0,.5,-.1,.7,-.2c.2,-.2,.3,-.5,.3,-.8v-2.7Zm1,4.5v-.6l2.2,-3.1h-2.2v-.8h3.5v.7l-2.2,3h2.2v.8Zm6.9,-.5c-.2,.4,-.6,.6,-1.2,.6c-.5,0,-.8,-.1,-1.1,-.4c-.3,-.2,-.4,-.6,-.4,-1c0,-.4,.1,-.7,.4,-1c.3,-.2,.7,-.3,1.2,-.3h1.1v-.4c0,-.3,-.1,-.5,-.2,-.6c-.1,-.1,-.3,-.2,-.6,-.2c-.2,0,-.4,0,-.6,.2c-.1,.1,-.2,.2,-.2,.4h-1c0,-.2,.1,-.3,.2,-.5c0,-.2,.1,-.3,.3,-.5c.1,-.1,.3,-.2,.5,-.3c.3,-.1,.5,-.1,.8,-.1c.4,0,.7,.1,.9,.2c.3,.1,.5,.3,.7,.5c.1,.2,.2,.5,.2,.8v3.1h-.9v-.5Zm-.9,-.2c.2,0,.5,0,.6,-.2c.2,-.1,.3,-.3,.3,-.6v-.5h-.9c-.3,0,-.5,.1,-.6,.2c-.1,.1,-.2,.3,-.2,.5c0,.2,.1,.3,.2,.5c.2,.1,.4,.1,.6,.1Z" class="g13_41" />
<path d="M513.4,652c6.6,0,11.9,5.4,11.9,12c0,6.6,-5.3,12,-11.9,12c-6.7,0,-12,-5.4,-12,-12c0,-6.6,5.3,-12,12,-12Z" class="g14_41" />
<g clip-path="url(#c12_41)">
<path d="M501.4,652l23.9,24m0,-24l-23.9,24" class="g14_41" />
</g>
<path d="M513.4,652c6.6,0,11.9,5.4,11.9,12c0,6.6,-5.3,12,-11.9,12c-6.7,0,-12,-5.4,-12,-12c0,-6.6,5.3,-12,12,-12Z" class="g14_41" />
<g clip-path="url(#c12_41)">
<path d="M501.4,652l23.9,24m0,-24l-23.9,24" class="g14_41" />
</g>
<path fill-rule="evenodd" d="M513.4,652c6.6,0,11.9,5.4,11.9,12c0,6.6,-5.3,12,-11.9,12c-6.7,0,-12,-5.4,-12,-12c0,-6.6,5.3,-12,12,-12Z" class="g9_41" />
<g clip-path="url(#c12_41)">
<path fill-rule="evenodd" d="M516.8,664.6c-.4,.3,-1,.8,-1.5,1c-1.2,.6,-2.7,.6,-3.9,0c-.5,-.2,-1.1,-.7,-1.5,-1c-1.9,1,-3.3,2.9,-3.8,5c-.1,.8,-.2,1.2,.7,1.2h13.1c.9,0,.8,-.5,.6,-1.2c-.4,-2.1,-1.8,-4,-3.7,-5Zm-3.4,-7.4c2.2,0,4,1.8,4,4c0,2.2,-1.8,4,-4,4c-2.3,0,-4.1,-1.8,-4.1,-4c0,-2.2,1.8,-4,4.1,-4Z" class="g10_41" />
</g>
<path d="M536.2,669.5c.6,-1.2,1.2,-1.7,2.3,-1.7c1.3,0,2.3,1,2.3,2.3c0,2.3,-2.3,4.6,-4.6,6.9c-2.3,-2.3,-4.6,-4.6,-4.6,-6.9c0,-1.3,1,-2.3,2.3,-2.3c1.2,0,1.7,.5,2.3,1.7Z" class="g3_41" />
<path d="M547.5,669.5c.6,-1.2,1.2,-1.7,2.3,-1.7c1.3,0,2.3,1,2.3,2.3c0,2.3,-2.3,4.6,-4.6,6.9c-2.3,-2.3,-4.6,-4.6,-4.6,-6.9c0,-1.3,1,-2.3,2.3,-2.3c1.2,0,1.7,.5,2.3,1.7Z" class="g3_41" />
<path d="M559.6,669.5c.6,-1.2,1.2,-1.7,2.3,-1.7c1.3,0,2.3,1,2.3,2.3c0,2.3,-2.3,4.6,-4.6,6.9c-2.3,-2.3,-4.6,-4.6,-4.6,-6.9c0,-1.3,1.1,-2.3,2.3,-2.3c1.2,0,1.8,.5,2.3,1.7Z" class="g3_41" />
<image x="616" y="155" width="181" height="81" xlink:href="shade/2.png" />
<g clip-path="url(#c13_41)">
<path fill-rule="evenodd" d="M609.4,311.6H766.2V-113.1H609.4Z" class="g15_41" />
<path d="M609.4,170H751.6M609.4,217.2H751.6" class="g16_41" />
<path fill-rule="evenodd" d="M745.9,145.4l2,-.9c.2,.5,.4,1.1,.5,1.7c0,.2,0,.7,.1,.8v.8c-.1,.1,-.1,.7,-.1,.9c-.6,3.2,-3,5.7,-6.1,6.4c-.8,.2,-1.5,.2,-1.8,.2v1.1c-.1,-.1,-.4,-.4,-.5,-.5l-1.2,-1.2c-.1,-.1,-.4,-.4,-.5,-.5c.2,-.2,.8,-.9,1.1,-1.1l1.1,-1.1l.1,1.1c.4,0,1.4,-.2,1.8,-.3c1.5,-.6,2.6,-1.6,3.3,-3.1c.6,-1.3,.7,-2.9,.2,-4.3Z" class="g13_41" />
</g>
<path fill-rule="evenodd" d="M743.2,191.8c.9,-.9,2.3,.5,1.4,1.4c-.6,.6,-1.5,.2,-1.6,-.5c-.1,-.3,0,-.6,.2,-.9Zm-3.5,-6.2h.7c.9,0,1.9,.2,2.8,.6c.5,.2,.8,.4,1.2,.6l.8,.5c.1,.1,.2,.2,.3,.2c.6,.6,1.2,1.3,1.6,2c.6,1.2,.8,1.8,.8,3.2c0,1.4,-.7,2.8,-1.6,3.9c0,.1,-.1,.1,-.2,.2l-.6,.7c-.3,.2,-.8,.5,-1.1,.7c-1.6,1,-3.5,1.3,-5.5,1.1c-.4,0,-.3,-.1,-.6,.1c-.8,.5,-2,1.1,-2.7,1.6c-.2,.2,-.4,.3,-.5,.4c0,-1,0,-2,0,-3c0,-.4,0,-.5,-.1,-.6c-.6,-.4,-1.1,-.9,-1.5,-1.4c-.4,-.5,-.5,-.7,-.8,-1.4c-.5,-.8,-.6,-1.7,-.6,-2.7c0,-.5,.1,-1.2,.3,-1.6c.4,-1.3,1,-2.2,2.1,-3.2l.5,-.3c.2,-.2,.3,-.3,.5,-.4c1.3,-.7,2.7,-1.1,4.2,-1.2Zm-.6,6.5c.3,-.9,1.8,-.7,1.9,.4c0,1,-1.5,1.3,-1.9,.4c-.1,-.3,-.2,-.4,0,-.8Zm-3.8,-.3c1,-.9,2.3,.5,1.4,1.4c-.1,.1,-.3,.3,-.6,.3c-.3,0,-.6,-.2,-.7,-.3c-.4,-.4,-.4,-1,-.1,-1.4Z" class="g13_41" />
<path d="M616.8,155.8H796.5v79.7H616.8Zm0,25.2H321.2V299.3M698.8,235.5v69.3" class="g17_41" />
<path d="M804.6,163.7h25.8v2.9H804.6Z" class="g18_41" />
<path d="M804.6,155.1h25.8V158H804.6Z" class="g18_41" />
<path d="M804.6,172.3h25.8v2.9H804.6Z" class="g18_41" />
</svg>