<?xml version="1.0" encoding="UTF-8" standalone="no"?>
<!DOCTYPE svg PUBLIC "-//W3C//DTD SVG 1.1//EN"
"http://www.w3.org/Graphics/SVG/1.1/DTD/svg11.dtd">
<svg viewBox="0 0 909 1286" version="1.1" xmlns="http://www.w3.org/2000/svg" xmlns:xlink="http://www.w3.org/1999/xlink">
<defs>
<style type="text/css"><![CDATA[
.g0_26{
fill: #FFFFFF;
}
.g1_26{
fill: #FFFFFF;
stroke: #FFFFFF;
stroke-width: 0.15277778;
stroke-linecap: butt;
stroke-linejoin: miter;
stroke-miterlimit: 22;
}
]]></style>
</defs>
<image preserveAspectRatio="none" x="0" y="0" width="909" height="1286" xlink:href="img/1.png" />
<path fill-rule="evenodd" d="M556.8,406.7c-44.5,-13.8,-32.5,-118.4,44,-71.3c18.3,11.3,9.6,22.7,51.2,14.5c46.2,-9,19.6,104.8,-51.9,70.8c-28.3,-13.5,-32.8,-4.6,-71.1,8c-.2,0,-.8,0,-1,.1Zm38.1,-11.5V401c0,1.8,.2,3.2,.6,4.3c.3,1,.9,1.8,1.6,2.4c.9,.9,2.2,1.6,3.8,2c1.6,.5,3.6,.8,5.9,.8c3.1,0,5.6,-.5,7.3,-1.4c1.7,-1,2.9,-2.1,3.4,-3.5c.5,-.9,.7,-2.5,.7,-4.7v-5.7Zm-4.8,-4.6H623v10.2c0,2.3,-.2,4.1,-.5,5.3c-.4,1.7,-1.2,3.2,-2.4,4.4c-1.4,1.5,-3.3,2.7,-5.6,3.5c-2.3,.8,-4.9,1.1,-7.8,1.1c-2.5,0,-4.7,-.2,-6.6,-.7c-1.9,-.6,-3.5,-1.2,-4.8,-2.1c-1.3,-.8,-2.3,-1.7,-3,-2.7c-.7,-.9,-1.3,-2.1,-1.6,-3.5c-.4,-1.4,-.6,-3,-.6,-4.8ZM614,381.1h18.3V358h-4v19H618.1V358H614v19Zm-37.7,-5.7h22.2v5.8h-28V345.9h28v5.8H576.3v8.7h22.2v5.8H576.3Z" class="g0_26" />
<path d="M241,428.1h-5.6V376.5H241Zm18.4,0H254V376.5h5.6l27.1,41.9h.2V376.5h5.4v51.6h-5.6L259.5,386.2h-.1Zm56.3,-46.5h-16v-5.1h37.5v5.1h-16Zm107,10.2h-5.5c-.4,-3.6,-1.9,-6.4,-4.3,-8.4c-2.5,-1.9,-5.4,-2.9,-8.9,-2.9c-2.1,0,-4,.4,-5.7,1.1c-1.7,.7,-3.2,1.7,-4.6,3.2c-1.3,1.4,-2.4,3.2,-3.1,5.6c-.8,2.3,-1.2,5,-1.2,8v7.4c0,5.8,1.3,10.2,3.7,13.4c2.5,3.3,6.1,4.9,10.8,4.9c3.9,0,7.2,-1.1,9.7,-3.3c2.6,-2.3,3.9,-5.1,3.9,-8.6v-5.5h-14v-5.1h19.4v10.6c0,1.5,-.2,2.9,-.6,4.4c-.4,1.5,-1,3,-2,4.5c-1,1.6,-2.1,2.9,-3.5,4.1c-1.5,1.1,-3.3,2.1,-5.5,2.8c-2.2,.8,-4.7,1.2,-7.4,1.2c-6.5,0,-11.5,-2.1,-14.9,-6.2c-3.5,-4.2,-5.2,-9.9,-5.2,-17.2v-7.4c0,-7.2,1.9,-12.8,5.5,-16.9c3.7,-4.1,8.6,-6.1,14.8,-6.1c2.9,0,5.5,.4,7.8,1.3c2.3,.9,4.2,2.1,5.7,3.7c1.5,1.5,2.7,3.3,3.6,5.2c.9,2,1.4,4,1.5,6.2ZM439.4,402l-.1,5.2l.1,20.9h-5.6V376.5h18.1c2.7,0,5.1,.4,7.2,1.2c2.1,.9,3.8,2,5.1,3.4c1.3,1.4,2.3,3,2.9,4.8c.7,1.8,1,3.7,1,5.7c0,2,-.3,3.9,-.8,5.6c-.6,1.6,-1.3,3,-2.3,4.1c-.9,1.2,-2,2.1,-3.1,2.9c-1.1,.7,-2.3,1.3,-3.6,1.7L469,428.1h-6.5L451.3,402c3.7,0,6.2,-.9,8.1,-2.6c2,-1.8,2.9,-4.2,2.9,-7.4c0,-3.3,-1,-5.9,-3,-7.7c-2,-1.8,-4.7,-2.7,-8.1,-2.7H439.4Zm47.4,5.4l-1.6,4.6l-5.5,16.1H474l18.5,-51.6H498l18.5,51.6h-6L505,412l-1.6,-4.6m0,0l-8.2,-23.9h-.1l-8.3,23.9M524,424.8c0,-1.1,.4,-2,1.2,-2.8c.8,-.8,1.7,-1.2,2.8,-1.2c1.1,0,2,.4,2.8,1.2c.8,.8,1.2,1.7,1.2,2.8c0,1.1,-.4,2,-1.2,2.8c-.8,.8,-1.7,1.2,-2.8,1.2c-1.1,0,-2,-.4,-2.8,-1.2c-.8,-.8,-1.2,-1.7,-1.2,-2.8Z" class="g1_26" />
<path fill-rule="evenodd" d="M344.6,376.5H375v5.1H349.7v41.3H375v5.2H344.6c0,-17.2,0,-34.4,0,-51.6Z" class="g1_26" />
<path fill-rule="evenodd" d="M373.6,404.3H356.4v-5.1h17.2Z" class="g1_26" />
<path fill-rule="evenodd" d="M417.5,406.7h-14v-5.1h14Z" class="g1_26" />
<path fill-rule="evenodd" d="M320.8,428.1V388.4h-5.1v39.7Z" class="g1_26" />
<path fill-rule="evenodd" d="M556.8,406.7c-44.5,-13.8,-32.5,-118.4,44,-71.3c18.3,11.3,9.6,22.7,51.2,14.5c46.2,-9,19.6,104.8,-51.9,70.8c-28.3,-13.5,-32.8,-4.6,-71.1,8c-.2,0,-.8,0,-1,.1Zm38.1,-11.5V401c0,1.8,.2,3.2,.6,4.3c.3,1,.9,1.8,1.6,2.4c.9,.9,2.2,1.6,3.8,2c1.6,.5,3.6,.8,5.9,.8c3.1,0,5.6,-.5,7.3,-1.4c1.7,-1,2.9,-2.1,3.4,-3.5c.5,-.9,.7,-2.5,.7,-4.7v-5.7Zm-4.8,-4.6H623v10.2c0,2.3,-.2,4.1,-.5,5.3c-.4,1.7,-1.2,3.2,-2.4,4.4c-1.4,1.5,-3.3,2.7,-5.6,3.5c-2.3,.8,-4.9,1.1,-7.8,1.1c-2.5,0,-4.7,-.2,-6.6,-.7c-1.9,-.6,-3.5,-1.2,-4.8,-2.1c-1.3,-.8,-2.3,-1.7,-3,-2.7c-.7,-.9,-1.3,-2.1,-1.6,-3.5c-.4,-1.4,-.6,-3,-.6,-4.8ZM614,381.1h18.3V358h-4v19H618.1V358H614v19Zm-37.7,-5.7h22.2v5.8h-28V345.9h28v5.8H576.3v8.7h22.2v5.8H576.3Z" class="g0_26" />
<path d="M241,428.1h-5.6V376.5H241Zm18.4,0H254V376.5h5.6l27.1,41.9h.2V376.5h5.4v51.6h-5.6L259.5,386.2h-.1Zm56.3,-46.5h-16v-5.1h37.5v5.1h-16Zm107,10.2h-5.5c-.4,-3.6,-1.9,-6.4,-4.3,-8.4c-2.5,-1.9,-5.4,-2.9,-8.9,-2.9c-2.1,0,-4,.4,-5.7,1.1c-1.7,.7,-3.2,1.7,-4.6,3.2c-1.3,1.4,-2.4,3.2,-3.1,5.6c-.8,2.3,-1.2,5,-1.2,8v7.4c0,5.8,1.3,10.2,3.7,13.4c2.5,3.3,6.1,4.9,10.8,4.9c3.9,0,7.2,-1.1,9.7,-3.3c2.6,-2.3,3.9,-5.1,3.9,-8.6v-5.5h-14v-5.1h19.4v10.6c0,1.5,-.2,2.9,-.6,4.4c-.4,1.5,-1,3,-2,4.5c-1,1.6,-2.1,2.9,-3.5,4.1c-1.5,1.1,-3.3,2.1,-5.5,2.8c-2.2,.8,-4.7,1.2,-7.4,1.2c-6.5,0,-11.5,-2.1,-14.9,-6.2c-3.5,-4.2,-5.2,-9.9,-5.2,-17.2v-7.4c0,-7.2,1.9,-12.8,5.5,-16.9c3.7,-4.1,8.6,-6.1,14.8,-6.1c2.9,0,5.5,.4,7.8,1.3c2.3,.9,4.2,2.1,5.7,3.7c1.5,1.5,2.7,3.3,3.6,5.2c.9,2,1.4,4,1.5,6.2ZM439.4,402l-.1,5.2l.1,20.9h-5.6V376.5h18.1c2.7,0,5.1,.4,7.2,1.2c2.1,.9,3.8,2,5.1,3.4c1.3,1.4,2.3,3,2.9,4.8c.7,1.8,1,3.7,1,5.7c0,2,-.3,3.9,-.8,5.6c-.6,1.6,-1.3,3,-2.3,4.1c-.9,1.2,-2,2.1,-3.1,2.9c-1.1,.7,-2.3,1.3,-3.6,1.7L469,428.1h-6.5L451.3,402c3.7,0,6.2,-.9,8.1,-2.6c2,-1.8,2.9,-4.2,2.9,-7.4c0,-3.3,-1,-5.9,-3,-7.7c-2,-1.8,-4.7,-2.7,-8.1,-2.7H439.4Zm47.4,5.4l-1.6,4.6l-5.5,16.1H474l18.5,-51.6H498l18.5,51.6h-6L505,412l-1.6,-4.6m0,0l-8.2,-23.9h-.1l-8.3,23.9M524,424.8c0,-1.1,.4,-2,1.2,-2.8c.8,-.8,1.7,-1.2,2.8,-1.2c1.1,0,2,.4,2.8,1.2c.8,.8,1.2,1.7,1.2,2.8c0,1.1,-.4,2,-1.2,2.8c-.8,.8,-1.7,1.2,-2.8,1.2c-1.1,0,-2,-.4,-2.8,-1.2c-.8,-.8,-1.2,-1.7,-1.2,-2.8Z" class="g1_26" />
<path fill-rule="evenodd" d="M344.6,376.5H375v5.1H349.7v41.3H375v5.2H344.6c0,-17.2,0,-34.4,0,-51.6Z" class="g1_26" />
<path fill-rule="evenodd" d="M373.6,404.3H356.4v-5.1h17.2Z" class="g1_26" />
<path fill-rule="evenodd" d="M417.5,406.7h-14v-5.1h14Z" class="g1_26" />
<path fill-rule="evenodd" d="M320.8,428.1V388.4h-5.1v39.7Z" class="g1_26" />
</svg>