<?xml version="1.0" encoding="UTF-8" standalone="no"?>
<!DOCTYPE svg PUBLIC "-//W3C//DTD SVG 1.1//EN"
"http://www.w3.org/Graphics/SVG/1.1/DTD/svg11.dtd">
<svg viewBox="0 0 909 1286" version="1.1" xmlns="http://www.w3.org/2000/svg" xmlns:xlink="http://www.w3.org/1999/xlink">
<defs>
<clipPath id="c0_39"><path d="M448.8,268.6V181.2H645.7v87.4Z" /></clipPath>
<clipPath id="c1_39"><path d="M510.9,502.9c-9.1,0,-16.4,-7.3,-16.4,-16.4c0,-9,7.3,-16.3,16.4,-16.3c9,0,16.3,7.3,16.3,16.3c0,9.1,-7.3,16.4,-16.3,16.4Z" /></clipPath>
<clipPath id="c2_39"><path d="M510.9,554.8c-9.1,0,-16.4,-7.3,-16.4,-16.3c0,-9,7.3,-16.4,16.4,-16.4c9,0,16.3,7.4,16.3,16.4c0,9,-7.3,16.3,-16.3,16.3Z" /></clipPath>
<style type="text/css"><![CDATA[
.g0_39{
fill: #FFFFFF;
}
.g1_39{
fill: #FFFFFF;
stroke: #E6E6E6;
stroke-width: 0.33;
stroke-linecap: butt;
stroke-linejoin: miter;
stroke-miterlimit: 22;
}
.g2_39{
fill: #E6E6E6;
fill-opacity: 0.3;
}
.g3_39{
fill: #6ADBD9;
}
.g4_39{
fill: none;
stroke: #62D9D7;
stroke-width: 0.7634306;
stroke-linecap: butt;
stroke-linejoin: miter;
stroke-miterlimit: 22;
}
.g5_39{
fill: #FFFFFF;
stroke: #FFFFFF;
stroke-width: 0.15277778;
stroke-linecap: butt;
stroke-linejoin: miter;
stroke-miterlimit: 22;
}
.g6_39{
fill: #DA89F7;
}
.g7_39{
fill: #999999;
}
.g8_39{
fill: #62D9D7;
}
.g9_39{
fill: none;
stroke: #DA89F7;
stroke-width: 0.86609715;
stroke-linecap: butt;
stroke-linejoin: miter;
stroke-miterlimit: 22;
}
.g10_39{
fill: #62D9D7;
stroke: #62D9D7;
stroke-width: 0.33;
stroke-linecap: butt;
stroke-linejoin: miter;
stroke-miterlimit: 22;
}
.g11_39{
fill: #FFFFFF;
stroke: #62D9D7;
stroke-width: 0.7634306;
stroke-linecap: butt;
stroke-linejoin: miter;
stroke-miterlimit: 22;
}
.g12_39{
fill: #DA89F7;
stroke: #DA89F7;
stroke-width: 0.33;
stroke-linecap: butt;
stroke-linejoin: miter;
stroke-miterlimit: 22;
}
.g13_39{
fill: #DA89F7;
stroke: #DA89F7;
stroke-width: 0.38072225;
stroke-linecap: butt;
stroke-linejoin: miter;
stroke-miterlimit: 22;
}
.g14_39{
fill: none;
stroke: #DA89F7;
stroke-width: 1.0827361;
stroke-linecap: butt;
stroke-linejoin: miter;
stroke-miterlimit: 22;
}
.g15_39{
fill: #FFFFFF;
fill-opacity: 0.91999996;
}
.g16_39{
fill: none;
stroke: #6ADBD9;
stroke-width: 1.1455278;
stroke-linecap: butt;
stroke-linejoin: miter;
stroke-miterlimit: 22;
}
.g17_39{
fill: none;
stroke: #000000;
stroke-width: 2.1653194;
stroke-linecap: butt;
stroke-linejoin: miter;
stroke-miterlimit: 22;
}
.g18_39{
}
.g19_39{
fill: #CCCCCC;
fill-opacity: 0.3;
stroke: #E6E6E6;
stroke-width: 0.33;
stroke-linecap: butt;
stroke-linejoin: miter;
stroke-miterlimit: 22;
stroke-opacity: 0.3;
}
.g20_39{
fill: #B3B3B3;
}
.g21_39{
fill: none;
stroke: #B3B3B3;
stroke-width: 0.33;
stroke-linecap: butt;
stroke-linejoin: miter;
stroke-miterlimit: 22;
}
.g22_39{
fill: none;
stroke: #E6E6E6;
stroke-width: 0.86609715;
stroke-linecap: butt;
stroke-linejoin: miter;
stroke-miterlimit: 22;
}
.g23_39{
stroke: #000000;
stroke-width: 0.33;
stroke-linecap: butt;
stroke-linejoin: miter;
stroke-miterlimit: 22;
}
]]></style>
</defs>
<image preserveAspectRatio="none" x="-454" y="597" width="516" height="689" xlink:href="img/1.png" />
<image preserveAspectRatio="none" x="0" y="748" width="908" height="538" xlink:href="img/2.png" />
<image x="0" y="0" width="910" height="1289" xlink:href="shade/1.png" />
<path fill-rule="evenodd" d="M63.7,140.6C21.2,127.3,32.7,27.1,105.9,72.3C123.5,83.1,115.1,94,155,86.2c44.2,-8.7,18.7,100.3,-49.7,67.8C78.1,141.1,73.9,149.5,37.1,161.6c-.1,0,-.8,.1,-.9,.1Z" class="g0_39" />
<image preserveAspectRatio="none" x="103" y="217" width="328" height="720" xlink:href="img/3.png" />
<path fill-rule="evenodd" d="M125.2,829.4H405.4V373.9H125.2Z" class="g1_39" />
<path fill-rule="evenodd" d="M125.2,403.7H405.4V799.5H125.2Z" class="g2_39" />
<path fill-rule="evenodd" d="M125.2,373.9H405.4V331.1H125.2Z" class="g3_39" />
<path d="M125.2,403.7H405.4" class="g4_39" />
<path fill-rule="evenodd" d="M285,361.4c-8.6,-2.7,-6.3,-22.9,8.5,-13.8c3.5,2.2,1.8,4.4,9.9,2.8c8.9,-1.7,3.8,20.3,-10,13.7c-5.5,-2.6,-6.4,-.9,-13.8,1.6c-.1,0,-.2,0,-.2,0Zm7.3,-2.2v1.1c0,.4,.1,.6,.2,.8c0,.2,.1,.4,.3,.5c.1,.2,.4,.3,.7,.4c.3,.1,.7,.1,1.1,.1c.7,0,1.1,-.1,1.5,-.2c.3,-.2,.5,-.4,.6,-.7c.1,-.2,.1,-.5,.1,-.9v-1.1Zm-.9,-.9h6.4v2c0,.4,-.1,.8,-.1,1c-.1,.3,-.3,.6,-.5,.8c-.3,.3,-.6,.6,-1.1,.7c-.4,.2,-.9,.2,-1.5,.2c-.5,0,-.9,0,-1.3,-.1c-.3,-.1,-.6,-.2,-.9,-.4c-.2,-.2,-.4,-.3,-.6,-.5c-.1,-.2,-.2,-.4,-.3,-.7c0,-.3,-.1,-.6,-.1,-.9Zm4.6,-1.8h3.6V352h-.8v3.7h-2V352H296v3.7Zm-7.3,-1.1H293v1.1h-5.4v-6.9H293v1.2h-4.3v1.6H293v1.2h-4.3Z" class="g0_39" />
<path d="M223.8,365.5h-1.1v-9.9h1.1Zm3.6,0h-1.1v-9.9h1.1l5.3,8.1v-8.1h1.1v9.9h-1.1l-5.3,-8.1Zm10.9,-8.9h-3.1v-1h7.2v1h-3Zm20.7,1.9h-1.1c0,-.7,-.3,-1.2,-.8,-1.6c-.5,-.4,-1,-.6,-1.7,-.6c-.4,0,-.8,.1,-1.1,.2c-.3,.2,-.6,.4,-.9,.7c-.3,.2,-.5,.6,-.6,1c-.2,.5,-.2,1,-.2,1.6v1.4c0,1.1,.2,2,.7,2.6c.5,.7,1.1,1,2.1,1c.7,0,1.4,-.2,1.8,-.7c.5,-.4,.8,-1,.8,-1.6v-1.1h-2.7v-1H259v2.1c0,.3,0,.5,-.1,.8c0,.3,-.2,.6,-.4,.9c-.1,.3,-.4,.6,-.6,.8c-.3,.2,-.7,.4,-1.1,.5c-.4,.2,-.9,.3,-1.4,.3c-1.3,0,-2.3,-.4,-2.9,-1.2c-.7,-.8,-1,-1.9,-1,-3.4v-1.4c0,-1.4,.3,-2.5,1,-3.3c.8,-.8,1.7,-1.2,2.9,-1.2c.6,0,1.1,.1,1.5,.3c.5,.2,.8,.4,1.1,.7c.3,.3,.5,.6,.7,1c.2,.4,.3,.8,.3,1.2Zm3.2,2v5h-1.1v-9.9h3.6c.5,0,.9,0,1.4,.2c.4,.2,.7,.4,.9,.6c.3,.3,.5,.6,.6,1c.1,.3,.2,.7,.2,1.1c0,.4,-.1,.7,-.2,1.1c-.1,.3,-.2,.6,-.4,.8c-.2,.2,-.4,.4,-.6,.5c-.2,.2,-.5,.3,-.7,.4l2.1,4.2h-1.3l-2.2,-5c.8,0,1.2,-.2,1.6,-.5c.4,-.3,.6,-.8,.6,-1.4c0,-.7,-.2,-1.2,-.6,-1.5c-.4,-.4,-.9,-.5,-1.6,-.5h-2.3Zm9.2,1l-.3,.9l-1.1,3.1h-1.1l3.6,-9.9h1.1l3.6,9.9H276l-1.1,-3.1l-.3,-.9m0,0L273,356.9l-1.6,4.6m7.2,3.4c0,-.2,.1,-.4,.2,-.5c.2,-.2,.4,-.3,.6,-.3c.2,0,.4,.1,.5,.3c.2,.1,.3,.3,.3,.5c0,.2,-.1,.4,-.3,.6c-.1,.1,-.3,.2,-.5,.2c-.2,0,-.4,-.1,-.6,-.2c-.1,-.2,-.2,-.4,-.2,-.6Z" class="g5_39" />
<path fill-rule="evenodd" d="M243.9,355.6h5.9v1h-4.9v8h4.9v.9h-5.9c0,-3.3,0,-6.6,0,-9.9Z" class="g5_39" />
<path fill-rule="evenodd" d="M249.5,360.9h-3.3v-1h3.3Z" class="g5_39" />
<path fill-rule="evenodd" d="M258,361.4h-2.7v-1H258Z" class="g5_39" />
<path fill-rule="evenodd" d="M239.3,365.5v-7.6h-1v7.6Z" class="g5_39" />
<path d="M393.4,357.9l-2.3,-.4c-.1,-.4,-.3,-.8,-.5,-1.2l1.3,-1.9c.1,-.1,.1,-.3,0,-.4l-1.5,-1.5c-.1,-.1,-.3,-.1,-.5,0l-1.8,1.3c-.4,-.3,-.8,-.4,-1.3,-.6l-.3,-2.2c-.1,-.1,-.2,-.3,-.4,-.3H384c-.1,0,-.3,.2,-.3,.3l-.4,2.2c-.4,.1,-.9,.3,-1.3,.5l-1.8,-1.2c-.1,-.1,-.3,-.1,-.5,0l-1.4,1.5c-.1,.1,-.2,.3,-.1,.4l1.3,1.8c-.2,.5,-.4,.9,-.5,1.3l-2.2,.4c-.2,0,-.3,.2,-.3,.4v2c0,.2,.1,.4,.3,.4l2.2,.4c.1,.4,.3,.9,.5,1.3l-1.3,1.8c-.1,.1,-.1,.3,.1,.4l1.4,1.5c.1,.1,.3,.1,.5,0l1.8,-1.2c.4,.2,.9,.4,1.3,.5l.4,2.2c0,.2,.2,.3,.3,.3h2.1c.2,0,.3,-.1,.4,-.3l.3,-2.2c.5,-.1,.9,-.3,1.3,-.5l1.9,1.2c.1,.1,.3,.1,.4,0l1.5,-1.5c.1,-.1,.1,-.3,0,-.4l-1.3,-1.9c.2,-.4,.4,-.8,.5,-1.2l2.3,-.4c.1,0,.3,-.2,.3,-.4v-2c0,-.2,-.2,-.4,-.3,-.4Zm-8.3,4c-1.5,0,-2.6,-1.1,-2.6,-2.6c0,-1.4,1.1,-2.6,2.6,-2.6c1.4,0,2.6,1.2,2.6,2.6c0,1.5,-1.2,2.6,-2.6,2.6Z" class="g0_39" />
<path fill-rule="evenodd" d="M394,408.9c1.9,0,3.6,1.6,3.6,3.6v98.9c0,2,-1.7,3.6,-3.6,3.6c-2,0,-3.6,-1.6,-3.6,-3.6V412.5c0,-2,1.6,-3.6,3.6,-3.6Z" class="g6_39" />
<path fill-rule="evenodd" d="M144.2,524H386.4V450.2H144.2Z" class="g1_39" />
<path fill-rule="evenodd" d="M144.2,445.9H386.4V426.1H144.2Z" class="g1_39" />
<path d="M154.7,438.7h-.9v-4.4h-1.5v-.8h3.9v.8h-1.5Zm2.7,-4.5h-.6l.7,-1.1h.9Zm-.7,4.5v-4h.9v4Zm2.3,-4v-1h.9v1h.7v.7h-.7v2.1c0,.2,0,.3,.1,.4c.1,.1,.2,.1,.5,.1q.1,0,.2,0v.7c-.2,0,-.3,0,-.5,0c-.3,0,-.5,0,-.7,-.1c-.2,-.1,-.3,-.2,-.4,-.4c-.1,-.2,-.1,-.4,-.1,-.7v-2.1h-.6v-.7Zm5.9,0v4H164v-.6c-.1,.2,-.2,.3,-.4,.5c-.2,.1,-.5,.1,-.8,.1c-.4,0,-.7,-.1,-1,-.3c-.2,-.3,-.4,-.6,-.4,-1.1v-2.6h.9v2.4c0,.3,.1,.5,.3,.7c.1,.1,.3,.2,.6,.2c.2,0,.4,-.1,.6,-.3c.1,-.1,.2,-.3,.2,-.6v-2.4Zm1.1,4v-5.5h.9v5.5Zm2.3,-3.6c.3,-.3,.7,-.5,1.3,-.5c.6,0,1,.2,1.3,.5c.3,.4,.5,.8,.5,1.4v.3c0,.6,-.1,1.1,-.5,1.4c-.3,.4,-.7,.5,-1.3,.5c-.6,0,-1,-.1,-1.3,-.5c-.3,-.3,-.5,-.8,-.5,-1.4v-.3c0,-.6,.2,-1,.5,-1.4Zm1.3,.2c-.3,0,-.5,.1,-.7,.3c-.1,.2,-.2,.5,-.2,.9v.3c0,.4,.1,.7,.2,.9c.2,.2,.4,.3,.7,.3c.3,0,.5,-.1,.7,-.3c.1,-.2,.2,-.5,.2,-.9v-.3c0,-.4,-.1,-.7,-.2,-.9c-.2,-.2,-.4,-.3,-.7,-.3Z" class="g7_39" />
<path fill-rule="evenodd" d="M144.2,567.3H386.4V528.9H144.2Z" class="g1_39" />
<path d="M154.7,462.6h-.9v-4.4h-1.5v-.8h3.9v.8h-1.5Zm3.1,.1c-.6,0,-1,-.2,-1.3,-.5c-.3,-.4,-.5,-.8,-.5,-1.4v-.4c0,-.6,.2,-1,.5,-1.4c.3,-.3,.7,-.5,1.2,-.5c.6,0,1,.2,1.3,.5c.3,.4,.5,.8,.5,1.4v.4h-2.6v.1c0,.3,.1,.6,.2,.8c.2,.2,.4,.3,.7,.3c.2,0,.4,-.1,.5,-.2c.2,-.1,.3,-.2,.3,-.4h.8c0,.4,-.2,.7,-.5,.9c-.3,.3,-.6,.4,-1.1,.4Zm-.9,-2.5h1.7c0,-.3,-.1,-.5,-.2,-.7c-.2,-.2,-.4,-.3,-.6,-.3c-.3,0,-.5,.1,-.7,.3c-.1,.2,-.2,.4,-.2,.7Zm5.7,2.4l-.8,-1.4h-.1l-.8,1.4h-1l1.3,-2l-1.3,-2h1l.9,1.4l.9,-1.4h1l-1.4,2l1.4,2Zm2.1,-4v-1h.9v1h.8v.7h-.8v2.1c0,.2,0,.3,.1,.4c.1,.1,.3,.1,.5,.1c.1,0,.2,0,.2,0v.7c-.1,0,-.3,0,-.4,0c-.3,0,-.6,0,-.8,-.1c-.2,-.1,-.3,-.2,-.4,-.4c-.1,-.1,-.1,-.3,-.1,-.6v-2.2h-.6v-.7Zm2.8,.5c.4,-.4,.8,-.6,1.4,-.6c.5,0,1,.2,1.3,.6c.3,.3,.5,.8,.5,1.3v.3c0,.6,-.2,1.1,-.5,1.5c-.3,.3,-.8,.5,-1.3,.5c-.6,0,-1,-.2,-1.4,-.5c-.3,-.4,-.4,-.9,-.4,-1.5v-.3c0,-.5,.1,-1,.4,-1.3Zm1.4,.1c-.3,0,-.5,.1,-.7,.4c-.2,.2,-.2,.5,-.2,.8v.4c0,.3,0,.6,.2,.8c.2,.3,.4,.4,.7,.4c.3,0,.5,-.1,.6,-.4c.2,-.2,.3,-.5,.3,-.8v-.4c0,-.3,-.1,-.6,-.3,-.8c-.1,-.3,-.3,-.4,-.6,-.4Z" class="g7_39" />
<path d="M200.8,517v.8h-3.2v-5.2h.9V517Zm.7,.8v-4.1h.9v4.1Zm.1,-4.7c-.1,-.1,-.2,-.2,-.2,-.4c0,-.1,.1,-.2,.2,-.3c.1,-.1,.2,-.1,.3,-.1c.2,0,.3,0,.4,.1c.1,.1,.1,.2,.1,.3c0,.2,0,.3,-.1,.4c-.1,.1,-.2,.1,-.4,.1c-.1,0,-.2,0,-.3,-.1Zm1.9,4.7v-4.1h.8v.6h.1c.1,-.2,.2,-.3,.4,-.4c.2,-.2,.4,-.2,.7,-.2c.5,0,.8,.1,1.1,.4c.2,.2,.3,.6,.3,1.1v2.6H206v-2.4c0,-.3,0,-.6,-.2,-.7c-.1,-.2,-.3,-.3,-.6,-.3c-.3,0,-.5,.1,-.6,.3c-.2,.2,-.2,.4,-.2,.7v2.4Zm5.3,-1.4v1.4h-.9v-5.5h.9v3.1h.1l1.4,-1.7h1l-1.5,1.8l1.6,2.3h-1L209.1,516Z" class="g8_39" />
<path fill-rule="evenodd" d="M190.8,514.2c.9,0,1.9,-.2,2.3,.6c.3,.7,0,1.6,-1.1,1.6h-2.9c-1.1,0,-1.1,-.9,-1.4,-1.3c-.4,-.5,-1.6,-.3,-1.6,.4c0,.8,.3,1.2,.7,1.7c.2,.2,.7,.6,1,.7c.3,.1,.7,.3,1.1,.3h3.4c1.4,0,2.7,-1.4,2.7,-2.7c0,-.8,-.1,-1.3,-.5,-1.9c-.5,-.7,-1.1,-1,-1.9,-1.2c-.3,0,-2.7,0,-3.1,0c.4,.4,.7,.5,1.1,1.2c.1,.2,.1,.4,.2,.6Z" class="g6_39" />
<path fill-rule="evenodd" d="M181.7,515.2c0,.7,.1,1.2,.5,1.7c.4,.6,1.1,1.1,1.8,1.2c.5,.1,2.5,.1,3,.1v-.1c-.5,-.3,-.8,-.6,-1.1,-1.1c-.1,-.2,-.1,-.4,-.2,-.6c-.4,0,-1.1,0,-1.4,0c-.7,-.2,-1.1,-1.1,-.6,-1.8c.1,-.1,.3,-.2,.4,-.3c.2,-.1,.4,-.1,.6,-.1h2.7c.5,0,.9,.3,1.1,.7c0,.1,.1,.2,.1,.3c0,.1,.1,.2,.2,.3c.4,.5,1.6,.2,1.6,-.4c0,-.6,-.3,-1.1,-.6,-1.6c-.4,-.6,-1.4,-1.1,-2.1,-1.1h-3.3c-1,0,-2,.7,-2.4,1.6c-.2,.3,-.3,.7,-.3,1.2Z" class="g6_39" />
<path d="M234.4,517.1h-.9V512h.9Zm1.1,0v-4h.9v.6h.1c0,-.2,.2,-.3,.3,-.5c.2,-.1,.4,-.1,.7,-.1c.3,0,.6,0,.7,.1c.2,.2,.4,.3,.4,.5h.1c.1,-.2,.2,-.3,.4,-.4c.2,-.2,.5,-.2,.8,-.2c.4,0,.7,.1,1,.3c.2,.3,.3,.6,.3,1v2.7h-.9v-2.5c0,-.2,0,-.4,-.2,-.6c-.1,-.1,-.3,-.2,-.5,-.2c-.3,0,-.4,.1,-.6,.3c-.1,.1,-.2,.3,-.2,.6v2.4h-.9v-2.4c0,-.3,0,-.5,-.2,-.7c-.1,-.1,-.3,-.2,-.5,-.2c-.2,0,-.4,.1,-.6,.2c-.1,.2,-.2,.4,-.2,.7v2.4Zm9,-.4c-.2,.3,-.6,.5,-1.1,.5c-.4,0,-.8,-.1,-1,-.3c-.2,-.2,-.4,-.5,-.4,-.9c0,-.4,.2,-.7,.4,-.9c.3,-.2,.6,-.3,1.1,-.3h1v-.4c0,-.2,-.1,-.4,-.2,-.5c-.1,-.1,-.3,-.2,-.5,-.2c-.3,0,-.4,.1,-.6,.2c-.1,.1,-.2,.3,-.2,.4h-.8c0,-.2,0,-.3,.1,-.5c.1,-.1,.2,-.2,.3,-.4c.1,-.1,.3,-.2,.5,-.2c.2,-.1,.4,-.1,.7,-.1c.3,0,.6,0,.8,.1c.2,.1,.4,.2,.5,.5c.2,.2,.3,.4,.3,.7v2.7h-.9v-.4Zm-.9,-.2c.3,0,.5,0,.6,-.2c.2,-.1,.3,-.3,.3,-.5v-.4h-.9c-.2,0,-.4,0,-.5,.1c-.1,.1,-.2,.3,-.2,.4c0,.2,.1,.4,.2,.5c.2,.1,.3,.1,.5,.1ZM248,518c.3,0,.5,-.1,.7,-.3c.2,-.1,.2,-.4,.2,-.6v-.6c-.1,.1,-.2,.3,-.4,.4c-.2,.1,-.5,.2,-.7,.2c-.5,0,-.9,-.2,-1.2,-.5c-.2,-.3,-.4,-.8,-.4,-1.4v-.3c0,-.6,.2,-1,.4,-1.3c.3,-.4,.7,-.5,1.2,-.5c.2,0,.5,0,.7,.1c.2,.2,.3,.3,.4,.5h.1v-.6h.8v4c0,.3,0,.5,-.1,.7c-.1,.2,-.3,.4,-.4,.5c-.2,.1,-.4,.2,-.6,.3c-.2,0,-.4,0,-.7,0c-.5,0,-.9,-.1,-1.2,-.3c-.3,-.2,-.5,-.5,-.5,-.9h.9c0,.2,.1,.3,.3,.4c.1,.1,.3,.2,.5,.2Zm0,-4.2c-.2,0,-.5,.1,-.6,.3c-.2,.2,-.3,.5,-.3,.9v.2c0,.4,.1,.7,.3,.9c.1,.2,.4,.3,.6,.3c.3,0,.5,-.1,.7,-.3c.2,-.2,.2,-.5,.2,-.9V515c0,-.4,0,-.7,-.2,-.9c-.2,-.2,-.4,-.3,-.7,-.3Zm4.5,3.4c-.5,0,-1,-.2,-1.3,-.5c-.3,-.3,-.5,-.8,-.5,-1.4v-.4c0,-.6,.2,-1,.5,-1.3c.3,-.4,.7,-.5,1.3,-.5c.5,0,.9,.1,1.2,.5c.4,.3,.5,.8,.5,1.3v.4h-2.6v.1c0,.4,.1,.6,.3,.8c.1,.2,.3,.3,.6,.3c.2,0,.4,0,.5,-.1c.2,-.1,.3,-.3,.3,-.4h.9c-.1,.3,-.3,.6,-.5,.9c-.3,.2,-.7,.3,-1.2,.3Zm-.9,-2.5h1.7c0,-.3,0,-.5,-.2,-.7c-.2,-.2,-.4,-.3,-.6,-.3c-.3,0,-.5,.1,-.7,.3c-.1,.2,-.2,.4,-.2,.7Zm3.5,2.4v-4h.9v.6c.1,-.2,.2,-.3,.4,-.5c.2,-.1,.4,-.1,.6,-.1c.3,0,.6,0,.8,.1c.2,.2,.3,.3,.4,.5c.1,-.2,.2,-.3,.5,-.4c.2,-.2,.4,-.2,.7,-.2c.5,0,.8,.1,1,.3c.3,.3,.4,.6,.4,1v2.7h-.9v-2.5c0,-.2,-.1,-.4,-.2,-.6c-.2,-.1,-.3,-.2,-.6,-.2c-.2,0,-.4,.1,-.5,.3c-.2,.1,-.2,.3,-.2,.6v2.4h-.9v-2.4c0,-.3,-.1,-.5,-.2,-.7c-.2,-.1,-.3,-.2,-.6,-.2c-.2,0,-.4,.1,-.5,.2c-.2,.2,-.2,.4,-.2,.7v2.4Z" class="g8_39" />
<path fill-rule="evenodd" d="M219.2,510.4h10.2c.6,0,1.1,.5,1.1,1.1v7.7c0,.6,-.5,1.1,-1.1,1.1H219.2c-.7,0,-1.2,-.5,-1.2,-1.1v-7.7c0,-.6,.5,-1.1,1.2,-1.1Zm.5,7v1.3h9.1v-2.9l-2.7,-2.7l-3.3,3.3l-1,-1Zm1.3,-5.3c.6,0,1.2,.5,1.2,1.2c0,.7,-.6,1.2,-1.2,1.2c-.7,0,-1.3,-.5,-1.3,-1.2c0,-.7,.6,-1.2,1.3,-1.2Zm-1.9,-.9h10.3c.2,0,.3,.1,.3,.3v7.8c0,.1,-.1,.2,-.3,.2H219.1c-.1,0,-.2,-.1,-.2,-.2v-7.8c0,-.2,.1,-.3,.2,-.3Z" class="g6_39" />
<path fill-rule="evenodd" d="M168.2,519.7H173l.1,-.3c-.3,-.1,-1.1,0,-1.2,-.6c0,-.3,.3,-1.1,.4,-1.4c.2,-.9,.5,-1.8,.7,-2.7c.3,-.9,.5,-1.8,.8,-2.7c.1,-.4,.2,-.9,.5,-1.2c.3,-.6,.8,-.5,1.2,-.6l.1,-.3h-4.8v.3c.2,0,.5,.1,.7,.1c.2,.1,.4,.2,.4,.5c0,.4,-.2,1.1,-.3,1.4c-.3,.9,-.5,1.9,-.8,2.7c-.1,.5,-.3,1,-.4,1.4c-.1,.5,-.2,.9,-.4,1.4c-.1,.4,-.2,.9,-.5,1.2c-.2,.4,-.6,.5,-1.2,.5Z" class="g6_39" />
<path fill-rule="evenodd" d="M275.6,513.8h-.3v-1.1c0,0,0,-.1,0,-.1c0,0,0,-.1,0,-.1l-2,-2.2c0,0,0,-.1,0,-.1h-4.9c-.2,0,-.4,.2,-.4,.4v3.2h-.3c-.3,0,-.5,.3,-.5,.6v3c0,.3,.2,.5,.5,.5h.3v2c0,.3,.2,.4,.4,.4h6.5c.3,0,.4,-.1,.4,-.4v-2h.3c.3,0,.6,-.2,.6,-.5v-3c0,-.3,-.3,-.6,-.6,-.6Zm-.7,6h-6.5v-1.9h6.5v1.9Zm-4.7,-2.9c.1,0,.2,0,.3,-.1v-.6H270v-.5h1.1v1.6c-.2,0,-.6,.1,-.9,.1c-.6,0,-1,-.1,-1.3,-.4c-.2,-.2,-.4,-.6,-.4,-1c0,-1,.7,-1.6,1.7,-1.6c.4,0,.7,.1,.8,.1l-.1,.6c-.2,-.1,-.4,-.1,-.7,-.1c-.5,0,-1,.3,-1,.9c0,.6,.4,1,1,1Zm1.5,.5v-3h.6v3Zm3,-1.7v.5h-1.1v1.2h-.7v-3h1.8v.6h-1.1v.7h1.1Zm.2,-1.9h-6.5v-3.2H273v2c0,.1,.1,.2,.2,.2h1.7v1Z" class="g6_39" />
<path d="M184.6,544.6h8.5c1,0,1.8,-.9,1.8,-1.9v-8.5c0,-1,-.8,-1.9,-1.8,-1.9h-8.5c-1.1,0,-1.9,.9,-1.9,1.9v8.5c0,1,.8,1.9,1.9,1.9Zm56.5,0h8.5c1,0,1.9,-.9,1.9,-1.9v-8.5c0,-1,-.9,-1.9,-1.9,-1.9h-8.5c-1.1,0,-1.9,.9,-1.9,1.9v8.5c0,1,.8,1.9,1.9,1.9Z" class="g9_39" />
<path d="M140.4,358.2h16V360h-16Z" class="g0_39" />
<path d="M140.4,352.8h16v1.8h-16Z" class="g0_39" />
<path d="M140.4,363.5h16v1.8h-16Z" class="g0_39" />
<path fill-rule="evenodd" d="M144.6,387.8c0,.3,.1,.4,.3,.6c1.9,1.9,3.7,3.7,5.5,5.5c.2,.2,.6,.7,1,.7h.2c.1,0,.2,-.1,.3,-.2c.3,-.3,.3,-.7,0,-1c-.6,-.6,-5.5,-5.4,-5.6,-5.6c.1,-.1,4.7,-4.7,5.2,-5.1c.4,-.4,.6,-.6,.6,-1c0,-.3,-.3,-.6,-.7,-.6c-.4,0,-.8,.5,-1,.7c-1.7,1.6,-3.3,3.3,-5,5c-.2,.2,-.8,.6,-.8,1Z" class="g10_39" />
<path fill-rule="evenodd" d="M156,519c-.4,0,-.6,0,-1,-.2c-.1,0,0,0,-.1,-.1c0,-.1,0,-.2,0,-.3c0,-.5,0,-1,0,-1.5v-2.1q0,-.1,0,-.1c.1,0,.5,0,.6,0c0,0,.1,0,.1,0h.5c.1,0,.3,0,.3,0c.7,.1,1.2,.3,1.6,.9c.2,.4,.3,.9,.3,1.3c0,.7,-.2,1.2,-.7,1.6c-.1,.1,-.4,.2,-.7,.3c-.2,.1,-.6,.2,-.9,.2Zm-1.2,-8.2v-.2c.1,0,.2,0,.2,0c.7,-.1,1.4,-.1,2,.2c.1,0,.1,.1,.2,.1l.2,.2l.2,.2c.2,.3,.2,.6,.2,1c0,.5,-.2,1.1,-.6,1.3c-.5,.4,-1.1,.4,-1.7,.4c-.2,0,-.5,0,-.6,0l-.1,-2.8c0,-.1,0,-.3,0,-.4Zm-3.4,-.8c0,.2,0,.3,0,.5l1,.1c.1,0,.2,.1,.3,.1c.1,.1,0,.4,.1,.6c0,.1,0,.3,0,.5c0,.1,0,.2,0,.2v1.2c0,0,0,.1,0,.1c0,.2,0,.3,0,.5c0,.1,0,1.4,0,1.6c0,.1,0,.3,0,.5v2.3c0,.1,0,.2,0,.3c-.1,.1,-.1,.3,-.2,.3c-.2,.1,-.4,.1,-.5,.2c-.2,0,-.5,0,-.7,.1q0,.1,0,.2v.4q.1,0,.2,0c.1,0,.2,0,.2,0c.2,0,.4,0,.6,0c.1,0,.2,-.1,.2,-.1c.3,0,.5,0,.7,0q.1,0,.1,0h.6c.2,-.1,.8,0,1,0c.6,0,1.8,0,2.4,-.1c0,0,.1,0,.1,0q.1,0,.2,0q.1,0,.2,-.1c.3,0,.6,-.1,.9,-.2c.3,-.2,.4,-.3,.6,-.4c.2,-.1,.3,-.2,.4,-.4l.1,-.1v-.1c.4,-.4,.5,-1,.5,-1.6c0,-.4,-.1,-.6,-.2,-.9c-.1,-.2,-.3,-.5,-.5,-.7c-.1,-.1,-.2,-.2,-.3,-.3c-.3,-.2,-.6,-.3,-.9,-.4c-.1,0,-.2,-.1,-.4,-.1c.1,0,.3,-.1,.3,-.1q.2,-.1,.4,-.2c.2,-.1,.3,-.2,.5,-.4h.1c0,0,0,-.1,0,-.1h.1c.1,-.1,.1,-.3,.2,-.4c.2,-.4,.2,-1,.1,-1.4c0,-.1,-.1,-.2,-.1,-.3c-.1,-.2,-.2,-.4,-.3,-.5c-.1,0,-.1,-.1,-.1,-.1l-.1,-.1c-.1,-.1,-.2,-.1,-.3,-.2c-.1,0,-.1,-.1,-.2,-.1c-.5,-.3,-1.1,-.4,-1.6,-.4c-.1,0,-.3,0,-.4,0c-.4,0,-.9,-.1,-1.3,0c-.2,0,-.5,0,-.7,0c-.2,0,-.4,0,-.6,0c-.2,0,-.5,0,-.7,0c-.1,0,-.2,0,-.3,0c-.1,.1,-.9,.1,-1,.1Z" class="g6_39" />
<path fill-rule="evenodd" d="M144.6,416.1l2.1,-.3c0,-.8,.2,-1.6,.5,-2.2c.6,-1.5,1.7,-2.4,3.1,-2.9c.4,-.1,1.3,-.3,1.7,-.3v1.1l.8,-.8c.1,-.1,.1,-.2,.2,-.3c.3,-.2,.9,-.9,1.1,-1c-.1,-.1,-1.6,-1.6,-1.8,-1.9c-.1,0,-.2,-.2,-.3,-.2v1c-.2,.1,-1,0,-1.6,.2c-1.8,.4,-3.4,1.5,-4.4,2.9c-.2,.3,-.5,.7,-.7,1.1c-.2,.4,-.3,.8,-.5,1.3c0,.3,-.1,.5,-.1,.8c-.1,.1,-.1,.7,-.1,.7Z" class="g8_39" />
<path fill-rule="evenodd" d="M156.9,413.9l2,-.9c.2,.5,.3,1.1,.4,1.6c0,.2,0,.7,.1,.8v.7c0,.1,-.1,.7,-.1,.9c-.6,3,-2.8,5.3,-5.7,6c-.7,.1,-1.4,.1,-1.6,.2v1c-.2,-.1,-.4,-.4,-.6,-.5l-1,-1.1c-.1,-.1,-.5,-.4,-.5,-.5c.2,-.2,.7,-.8,1,-1.1l1.1,-1v1c.4,.1,1.3,-.1,1.7,-.3c1.4,-.5,2.4,-1.4,3.1,-2.8c.6,-1.2,.6,-2.7,.1,-4Z" class="g8_39" />
<path fill-rule="evenodd" d="M157.7,410.2c-.1,.1,-.4,.3,-.6,.4c-.5,.2,-1.2,.2,-1.7,0c-.2,-.1,-.4,-.3,-.6,-.4c-.8,.4,-1.4,1.2,-1.6,2.1c0,.3,-.1,.5,.3,.5H159c.4,0,.4,-.2,.3,-.6c-.2,-.8,-.8,-1.6,-1.6,-2ZM156.3,407c.9,0,1.6,.8,1.6,1.7c0,.9,-.7,1.7,-1.6,1.7c-1,0,-1.7,-.8,-1.7,-1.7c0,-.9,.7,-1.7,1.7,-1.7Z" class="g3_39" />
<path fill-rule="evenodd" d="M148.5,419.1c-.1,.1,-.4,.3,-.6,.4c-.4,.2,-1.1,.2,-1.6,0c-.2,-.1,-.4,-.3,-.6,-.4c-.7,.4,-1.3,1.1,-1.5,2c-.1,.3,-.1,.5,.3,.5h5.3c.4,0,.3,-.2,.3,-.5c-.2,-.9,-.8,-1.6,-1.6,-2ZM147.1,416c.9,0,1.7,.8,1.7,1.7c0,.9,-.8,1.6,-1.7,1.6c-.9,0,-1.6,-.7,-1.6,-1.6c0,-.9,.7,-1.7,1.6,-1.7Z" class="g3_39" />
<path d="M156,560.4v.7h-3.3V556H156v.7h-2.3v1.5h2.2v.7h-2.2v1.5Zm3.2,.7l-.8,-1.4h-.1l-.8,1.4h-1l1.3,-2l-1.3,-2h1l.9,1.4l.9,-1.4h1l-1.4,2l1.4,2Zm3.8,.1c-.3,0,-.5,-.1,-.7,-.2c-.2,-.1,-.3,-.2,-.4,-.4h-.1v1.9h-.9v-5.4h.9v.6h.1c.1,-.2,.2,-.3,.4,-.5c.2,-.1,.5,-.1,.7,-.1c.5,0,.8,.1,1.1,.5c.3,.3,.4,.8,.4,1.4v.3c0,.6,-.1,1.1,-.4,1.4c-.3,.3,-.6,.5,-1.1,.5Zm-.2,-.7c.2,0,.4,-.1,.6,-.3c.2,-.3,.2,-.6,.2,-.9V559c0,-.4,0,-.7,-.2,-.9c-.2,-.2,-.4,-.3,-.6,-.3c-.3,0,-.6,.1,-.7,.3c-.2,.2,-.3,.5,-.3,.9v.3c0,.3,.1,.6,.3,.8c.2,.3,.4,.4,.7,.4Zm2.7,.6v-4h.9v4Zm0,-4.6c-.1,-.1,-.1,-.2,-.1,-.4c0,-.1,0,-.2,.1,-.3c.1,-.1,.3,-.1,.4,-.1c.2,0,.3,0,.4,.1c.1,.1,.1,.2,.1,.3c0,.2,0,.3,-.1,.4c-.1,.1,-.2,.1,-.4,.1c-.1,0,-.3,0,-.4,-.1Zm1.9,4.6v-4h.9v.6h.1c0,-.2,.1,-.3,.3,-.4c.2,-.2,.4,-.2,.6,-.2c.1,0,.2,0,.3,0v.8c-.1,0,-.2,0,-.4,0c-.6,0,-.8,.3,-.8,.9v2.3Zm5.1,-.5c-.2,.4,-.6,.6,-1.1,.6c-.4,0,-.8,-.1,-1,-.3c-.2,-.3,-.4,-.5,-.4,-.9c0,-.4,.2,-.7,.4,-.9c.3,-.2,.6,-.3,1.1,-.3h1v-.4c0,-.2,-.1,-.3,-.2,-.5c-.2,-.1,-.3,-.1,-.6,-.1c-.2,0,-.3,0,-.5,.1c-.1,.1,-.2,.3,-.2,.4h-.8c0,-.1,0,-.3,.1,-.5c.1,-.1,.2,-.2,.3,-.4c.1,-.1,.3,-.2,.5,-.2c.2,-.1,.4,-.1,.7,-.1c.3,0,.5,0,.8,.1c.2,.1,.4,.3,.5,.5c.2,.2,.2,.4,.2,.7v2.7h-.8v-.5Zm-.9,-.1c.3,0,.5,0,.6,-.2c.2,-.1,.3,-.3,.3,-.5v-.4h-.9c-.2,0,-.4,0,-.5,.1c-.1,.1,-.2,.3,-.2,.4c0,.2,.1,.4,.2,.5c.2,.1,.3,.1,.5,.1Zm5.9,.7c-.6,0,-1,-.2,-1.3,-.5c-.3,-.3,-.5,-.8,-.5,-1.4v-.4c0,-.6,.2,-1,.5,-1.3c.3,-.4,.7,-.5,1.3,-.5c.5,0,.9,.1,1.2,.5c.3,.3,.5,.8,.5,1.3v.4h-2.6v.1c0,.4,.1,.6,.2,.8c.2,.2,.4,.3,.7,.3c.2,0,.4,0,.5,-.1c.2,-.1,.3,-.3,.3,-.4h.8c0,.3,-.2,.6,-.5,.8c-.3,.3,-.6,.4,-1.1,.4Zm-.9,-2.5h1.7c0,-.3,-.1,-.5,-.2,-.7c-.2,-.2,-.4,-.3,-.6,-.3c-.3,0,-.5,.1,-.7,.3c-.1,.2,-.2,.4,-.2,.7Zm3.4,2.4v-4h.9v.6h.1c0,-.2,.2,-.3,.3,-.4c.2,-.2,.4,-.2,.7,-.2c.3,0,.6,0,.7,.1c.2,.2,.4,.3,.4,.5h.1c.1,-.1,.2,-.3,.4,-.4c.2,-.2,.5,-.2,.8,-.2c.4,0,.7,.1,1,.3c.2,.3,.3,.6,.3,1v2.7h-.9v-2.5c0,-.2,0,-.4,-.2,-.6c-.1,-.1,-.3,-.2,-.5,-.2c-.3,0,-.4,.1,-.6,.3c-.1,.1,-.2,.3,-.2,.6v2.4h-.9v-2.4c0,-.3,0,-.5,-.2,-.7c-.1,-.1,-.3,-.2,-.5,-.2c-.2,0,-.4,.1,-.5,.2c-.2,.2,-.3,.4,-.3,.7v2.4Zm57.3,-.5c-.2,.4,-.6,.6,-1.1,.6c-.4,0,-.7,-.1,-.9,-.3c-.3,-.3,-.4,-.5,-.4,-.9c0,-.4,.1,-.7,.4,-.9c.2,-.2,.6,-.3,1,-.3h1v-.4c0,-.2,0,-.3,-.2,-.5c-.1,-.1,-.3,-.1,-.5,-.1c-.2,0,-.4,0,-.5,.1c-.1,.1,-.2,.3,-.2,.4h-.8c0,-.1,0,-.3,.1,-.5c0,-.1,.1,-.2,.2,-.4c.2,-.1,.3,-.2,.5,-.2c.2,-.1,.5,-.1,.7,-.1c.3,0,.6,0,.8,.1c.3,.1,.5,.3,.6,.5c.1,.2,.2,.4,.2,.7v2.7h-.8v-.5Zm-.8,-.1c.2,0,.4,0,.6,-.2c.1,-.1,.2,-.3,.2,-.5v-.4h-.8c-.2,0,-.4,0,-.5,.1c-.1,.1,-.2,.3,-.2,.4c0,.2,.1,.4,.2,.5c.1,.1,.3,.1,.5,.1Zm.5,-3.9h-.6l-.9,-1h.8Zm2.1,1.7c0,-.2,0,-.4,.1,-.6c.1,-.1,.2,-.2,.3,-.3c.2,-.1,.4,-.2,.5,-.3c.2,0,.4,0,.6,0c.5,0,.9,.1,1.1,.3c.3,.2,.4,.5,.4,.9h-.8c0,-.2,0,-.3,-.2,-.4c-.1,-.1,-.2,-.2,-.5,-.2c-.2,0,-.4,.1,-.5,.1c-.1,.1,-.2,.3,-.2,.4c0,.1,0,.2,.1,.3c0,0,.1,.1,.2,.1q.2,.1,.3,.1c.1,0,.2,.1,.4,.1c.2,0,.4,.1,.6,.1c.1,.1,.2,.1,.4,.2c.1,.1,.2,.2,.3,.3c0,.2,0,.3,0,.5c0,.4,-.1,.7,-.4,1c-.3,.2,-.7,.3,-1.2,.3c-.5,0,-.9,-.1,-1.2,-.3c-.3,-.2,-.4,-.5,-.4,-.9h.9c0,.2,.1,.3,.2,.4c.1,.1,.3,.2,.5,.2c.3,0,.5,-.1,.6,-.2c.1,-.1,.2,-.2,.2,-.4q0,-.1,-.1,-.2c0,-.1,-.1,-.1,-.2,-.2c-.1,0,-.2,0,-.3,-.1c-.1,0,-.2,0,-.3,0q-.1,0,-.1,0c-.2,-.1,-.4,-.1,-.5,-.2c-.2,0,-.3,-.1,-.4,-.2c-.2,-.1,-.3,-.2,-.3,-.3c-.1,-.2,-.1,-.3,-.1,-.5Zm28.4,2.8v-5.4h.9v2c.1,-.2,.3,-.3,.5,-.4c.2,-.2,.4,-.2,.7,-.2c.4,0,.8,.1,1,.4c.3,.2,.4,.6,.4,1.1v2.5h-.9v-2.4c0,-.3,-.1,-.5,-.2,-.6c-.2,-.2,-.4,-.3,-.6,-.3c-.3,0,-.5,.1,-.7,.3c-.1,.2,-.2,.4,-.2,.7v2.3Zm4.8,-3.5c.3,-.4,.8,-.5,1.3,-.5c.6,0,1,.1,1.3,.5c.4,.3,.5,.8,.5,1.4v.3c0,.6,-.1,1,-.5,1.4c-.3,.3,-.7,.5,-1.3,.5c-.5,0,-1,-.2,-1.3,-.5c-.3,-.4,-.5,-.8,-.5,-1.4V559c0,-.6,.2,-1.1,.5,-1.4Zm1.3,.2c-.3,0,-.5,.1,-.6,.3c-.2,.2,-.3,.5,-.3,.9v.3c0,.3,.1,.6,.3,.9c.1,.2,.3,.3,.6,.3c.3,0,.5,-.1,.7,-.3c.1,-.3,.2,-.6,.2,-.9V559c0,-.4,-.1,-.7,-.2,-.9c-.2,-.2,-.4,-.3,-.7,-.3Zm2.7,3.3v-4h.9v.6c.1,-.2,.2,-.3,.4,-.4c.1,-.2,.3,-.2,.6,-.2c.1,0,.2,0,.3,0v.8c-.1,0,-.2,0,-.4,0c-.6,0,-.9,.3,-.9,.9v2.3Zm5,-.5c-.2,.4,-.6,.6,-1.1,.6c-.4,0,-.7,-.1,-.9,-.3c-.3,-.3,-.4,-.5,-.4,-.9c0,-.4,.1,-.7,.4,-.9c.2,-.2,.6,-.3,1,-.3h1v-.4c0,-.2,0,-.3,-.2,-.5c-.1,-.1,-.3,-.1,-.5,-.1c-.2,0,-.4,0,-.5,.1c-.1,.1,-.2,.3,-.2,.4H279c0,-.1,.1,-.3,.1,-.5c.1,-.1,.2,-.2,.3,-.4c.2,-.1,.3,-.2,.5,-.2c.2,-.1,.5,-.1,.7,-.1c.3,0,.6,0,.8,.1c.3,.1,.4,.3,.6,.5c.1,.2,.2,.4,.2,.7v2.7h-.9v-.5Zm-.8,-.1c.2,0,.4,0,.6,-.2c.1,-.1,.2,-.3,.2,-.5v-.4h-.8c-.2,0,-.4,0,-.5,.1c-.2,.1,-.2,.3,-.2,.4c0,.2,.1,.4,.2,.5c.1,.1,.3,.1,.5,.1Zm2.6,-2.2c0,-.2,0,-.4,.1,-.6c.1,-.1,.2,-.2,.3,-.3c.2,-.1,.3,-.2,.5,-.3c.2,0,.4,0,.6,0c.5,0,.9,.1,1.1,.3c.3,.2,.4,.5,.4,.9h-.8c0,-.2,-.1,-.3,-.2,-.4c-.1,-.1,-.3,-.2,-.5,-.2c-.2,0,-.4,.1,-.5,.1c-.1,.1,-.2,.3,-.2,.4c0,.1,0,.2,.1,.3c0,0,.1,.1,.2,.1c.1,.1,.2,.1,.3,.1c.1,0,.2,.1,.4,.1c.2,0,.4,.1,.6,.1c.1,.1,.2,.1,.4,.2c.1,.1,.2,.2,.2,.3c.1,.2,.1,.3,.1,.5c0,.4,-.1,.7,-.4,1c-.3,.2,-.7,.3,-1.2,.3c-.5,0,-.9,-.1,-1.2,-.3c-.3,-.2,-.4,-.5,-.4,-.9h.9c0,.2,0,.3,.2,.4c.1,.1,.3,.2,.5,.2c.3,0,.5,-.1,.6,-.2c.1,-.1,.2,-.2,.2,-.4c0,-.1,-.1,-.1,-.1,-.2c0,-.1,-.1,-.1,-.2,-.2c-.1,0,-.2,0,-.3,-.1c-.1,0,-.2,0,-.3,0q-.1,0,-.1,0c-.2,-.1,-.4,-.1,-.5,-.2c-.2,0,-.3,-.1,-.4,-.2c-.2,-.1,-.3,-.2,-.3,-.3c-.1,-.2,-.1,-.3,-.1,-.5Zm4,2.8c-.1,-.2,-.1,-.3,-.1,-.4c0,-.2,0,-.3,.1,-.4c.1,-.1,.3,-.2,.4,-.2c.2,0,.3,.1,.4,.2c.1,.1,.2,.2,.2,.4c0,.1,-.1,.2,-.2,.4c-.1,.1,-.2,.1,-.4,.1c-.1,0,-.3,0,-.4,-.1Z" class="g6_39" />
<path d="M191.1,562.2h-3.5v-.7h3.5Zm3.2,0h-3.4v-.7h3.4Zm3.2,0h-3.4v-.7h3.4Zm.7,.1h-.8l1.8,-6.6h.8Zm5.1,-.1h-3.4v-.7h3.4Zm3.2,0h-3.4v-.7h3.4Zm3.2,0h-3.4v-.7h3.4Zm.7,.1h-.8l1.8,-6.6h.8Zm5.2,-.1h-3.5v-.7h3.5Zm3.2,0h-3.4v-.7h3.4Zm3.2,0h-3.4v-.7H222Zm3.2,0h-3.4v-.7h3.4Zm3.2,0H225v-.7h3.4Zm3.2,0h-3.4v-.7h3.4Zm15.8,0H244v-.7h3.4Zm3.2,0h-3.4v-.7h3.4Zm3.2,0h-3.4v-.7h3.4Zm.6,-1.1c-.1,-.2,-.2,-.3,-.2,-.4c0,-.2,.1,-.3,.2,-.4c.1,-.1,.2,-.2,.4,-.2c.1,0,.2,.1,.3,.2c.2,.1,.2,.2,.2,.4c0,.1,0,.2,-.2,.4c-.1,.1,-.2,.1,-.3,.1c-.2,0,-.3,0,-.4,-.1Zm0,-2.6c-.1,-.2,-.2,-.3,-.2,-.4c0,-.2,.1,-.3,.2,-.4c.1,-.1,.2,-.2,.4,-.2c.1,0,.2,.1,.3,.2c.2,.1,.2,.2,.2,.4c0,.1,0,.2,-.2,.4c-.1,.1,-.2,.1,-.3,.1c-.2,0,-.3,0,-.4,-.1Zm4.7,3.7h-3.4v-.7h3.4Zm3.2,0h-3.4v-.7h3.4Zm3.3,0h-3.5v-.7h3.5Z" class="g7_39" />
<path fill-rule="evenodd" d="M137.5,817.2c.1,-.1,1.9,-2,2.1,-2.2c.4,-.3,.7,-.7,1.1,-1l5.3,-5.4c0,0,-2.2,-2.3,-2.3,-2.3l-3.2,3.2c-1,1.1,-2.2,2.2,-3.2,3.2l-2.1,2.1c0,.1,1,1.1,1.1,1.2c.2,.2,1.1,1.1,1.2,1.2Z" class="g3_39" />
<path fill-rule="evenodd" d="M148,806.7v-.1c-.1,0,-.2,-.2,-.3,-.2c-.2,-.3,-1.9,-2,-2,-2.1l-1.3,1.3c0,.1,.4,.5,.5,.6c.2,.2,1.7,1.7,1.8,1.8Z" class="g3_39" />
<path fill-rule="evenodd" d="M133.4,818.6v.1l1.7,-.5c.1,0,1.6,-.3,1.7,-.4l-.4,-.4c-.4,-.3,-.3,-.3,-.5,-.2c-.2,0,-1.1,.3,-1.3,.3l.5,-1.4c-.1,-.1,-.5,-.5,-.6,-.5c0,.1,-.2,.6,-.2,.7l-.6,1.6c0,.1,-.2,.6,-.3,.7Z" class="g3_39" />
<path fill-rule="evenodd" d="M250.5,813.9c0,.5,.3,.8,.7,.8h.8v4.8c0,.4,.4,.7,.8,.7h2.4v-3.8c0,-.5,.3,-.9,.8,-.9h1.5c.5,0,.8,.4,.8,.9v3.8h2.4c.4,0,.7,-.3,.7,-.7v-4.8h.9c.3,0,.7,-.3,.7,-.7v-.1c0,-.1,-.1,-.2,-.1,-.4c-.2,-.2,-1.4,-1.3,-1.4,-1.4c-.1,-.1,-.1,-.4,-.1,-.5c0,-.6,0,-1.3,0,-1.9c0,-.4,.1,-.6,-.1,-.9c-.3,-.4,-.8,-.3,-1.5,-.3c-.3,0,-.5,.2,-.6,.3c-.2,.3,-.1,.5,-.1,.9c-.2,-.1,-.4,-.4,-.6,-.5c-.1,-.2,-.3,-.4,-.5,-.6c-.2,-.2,-.3,-.3,-.5,-.5c-.3,-.3,-.4,-.4,-.8,-.4c-.4,0,-.7,.4,-.9,.6l-2.4,2.3c-.5,.6,-1,1.1,-1.5,1.6c-.3,.3,-.5,.5,-.8,.8c-.2,.2,-.6,.5,-.6,.9Z" class="g8_39" />
<path fill-rule="evenodd" d="M362.8,803.5h29.9c.3,0,.5,.2,.5,.4v16.7c0,.2,-.2,.4,-.5,.4H362.8c-.3,0,-.6,-.2,-.6,-.4V803.9c0,-.2,.3,-.4,.6,-.4Z" class="g11_39" />
<path fill-rule="evenodd" d="M385.5,817c.2,0,.2,-.1,.4,-.2c.9,-1,1.9,-1.9,2.9,-2.9c.1,-.1,.4,-.3,.4,-.6c0,-.1,0,-.2,-.1,-.2c-.2,-.2,-.4,-.2,-.5,0c-.4,.3,-3,2.9,-3.1,3c0,-.1,-2.5,-2.6,-2.8,-2.8c-.2,-.2,-.2,-.4,-.5,-.4c-.1,0,-.3,.2,-.3,.4c0,.2,.3,.5,.4,.6c.9,.9,1.8,1.8,2.7,2.7c.1,.1,.3,.4,.5,.4Z" class="g12_39" />
<path fill-rule="evenodd" d="M368.3,809.9h7.8c.8,0,1.4,.7,1.4,1.4v4.9c0,.8,-.6,1.5,-1.4,1.5h-7.8c-.8,0,-1.4,-.7,-1.4,-1.5v-4.9c0,-.7,.6,-1.4,1.4,-1.4Z" class="g13_39" />
<path d="M369,809.4c.1,-5.8,6.4,-5.2,6.4,0" class="g14_39" />
<path fill-rule="evenodd" d="M203.9,815c0,-.1,.3,-1.5,.3,-1.7h2.6l-.4,1.7Zm-5,.9c0,.3,0,.5,.2,.8c.2,.1,.4,.2,.6,.2c.5,.1,1.2,0,1.8,0c-.1,.3,-.3,1.6,-.4,1.9c-.1,.4,-.1,.7,.1,1c.2,.4,.5,.3,.7,.4c.4,0,.7,-.1,.9,-.5c.2,-.2,.2,-.6,.3,-.9c0,-.2,.3,-1.8,.4,-1.9H206c0,.3,-.1,.7,-.1,1c-.1,.3,-.2,.6,-.2,.9c-.1,.5,-.1,.9,.3,1.2c.2,.1,.3,.1,.4,.2c.3,0,.5,0,.7,-.2c.4,-.2,.5,-.7,.6,-1.2c0,0,.3,-1.8,.4,-1.9c0,0,1.9,0,2.1,0c.4,0,.7,0,1,-.1c.8,-.6,.5,-1.8,-.6,-1.8c-.7,0,-1.5,0,-2.1,0l.3,-1.7c.2,0,1.7,0,2,0c.4,0,.6,0,.8,-.2c.3,-.2,.3,-.4,.4,-.6v-.3c-.1,-.2,-.1,-.3,-.3,-.6c-.2,-.1,-.4,-.2,-.7,-.2c-.6,0,-1.2,0,-1.8,0c.1,-.7,.7,-2.6,.4,-3.2c-.4,-.7,-1.4,-.7,-1.7,0c-.2,.4,-.6,2.6,-.7,3.2h-2.6c0,-.3,.4,-1.8,.4,-2.2c.1,-.3,.2,-.7,0,-1c-.3,-.5,-1,-.7,-1.4,-.3c-.4,.3,-.4,.8,-.6,1.4c0,.3,-.1,.7,-.2,1l-.2,1c0,.1,0,0,0,.1c-.1,0,-1.8,0,-2.1,0c-.3,0,-.6,0,-.8,.2c-.8,.5,-.5,1.7,.4,1.8c.3,0,1.7,0,2.1,0l-.3,1.6c-.7,0,-1.3,0,-2,0c-.3,0,-.5,.1,-.7,.2c-.3,.2,-.3,.5,-.3,.7Z" class="g8_39" />
<path d="M125.2,799.5H405.4" class="g4_39" />
<path fill-rule="evenodd" d="M302.8,812.2c0,.3,.1,.3,.6,.5l2.1,.6c-.2,.5,-.3,.5,-.5,1.1c-.1,.4,-.2,1.1,-.2,1.5c-.3,.2,-.5,.4,-.5,.8c0,.3,0,.4,.1,.6c0,.1,.2,.3,.3,.3l-.1,.9c-.1,.8,-.2,1.7,-.3,2.4c-.1,.2,.1,.4,.2,.4h1.6c.3,0,.2,-.5,.1,-.7c0,-.1,0,-.3,0,-.4c-.1,-.4,-.4,-2.5,-.4,-2.6c.3,-.2,.5,-.5,.5,-.9c0,-.4,-.2,-.6,-.5,-.8c0,-.2,0,-.5,.1,-1c.1,-.4,.3,-.9,.6,-1.2c0,0,.1,0,.1,0c0,0,.8,.2,.9,.2c.7,.3,1.4,.5,2.1,.7c.1,0,.2,.1,.3,.1c.3,.1,1.6,.6,1.9,.6c.1,0,.2,-.1,.3,-.1l3.1,-1c.2,-.1,.3,-.1,.5,-.2l2.3,-.7c.2,0,.4,-.1,.6,-.2l2,-.6c.1,0,.1,-.1,.1,-.2v-.1c0,-.1,0,-.2,-.1,-.2l-3.7,-1.1c-.7,-.3,-1.5,-.5,-2.3,-.8l-2.2,-.7c-.7,-.2,-.6,-.2,-1.2,0l-2.3,.7c-.2,.1,-.4,.2,-.6,.2l-5.1,1.6c-.2,.1,-.4,.1,-.4,.3Z" class="g8_39" />
<path fill-rule="evenodd" d="M306.8,817.4c0,.4,.4,.7,.7,.9c.2,.2,.5,.3,.8,.4c.1,.1,.2,.1,.3,.1c1.8,.6,4.6,.6,6.5,0c.2,-.1,.5,-.2,.8,-.4c.3,-.2,.7,-.4,.8,-.9c.1,-.1,0,-.3,0,-.5c0,-.1,0,-.2,0,-.3l-.1,-1.9c-.1,0,-.2,0,-.3,.1l-3.3,1c-.2,.1,-.4,.1,-.6,.2c-.6,.2,-.7,.2,-1.3,0l-1.2,-.4c-.2,0,-.4,-.1,-.6,-.2l-2.4,-.7Z" class="g8_39" />
<image x="448" y="180" width="199" height="89" xlink:href="shade/2.png" />
<g clip-path="url(#c0_39)">
<path fill-rule="evenodd" d="M440.7,407.3H612.5V-58.1H440.7Z" class="g15_39" />
<path d="M440.7,200.4H596.5M440.7,252.1H596.5" class="g16_39" />
</g>
<path fill-rule="evenodd" d="M575.8,227.8l2.4,-.3c0,-1,.2,-2,.6,-2.7c.8,-1.7,2,-2.8,3.7,-3.4c.4,-.1,1.4,-.3,2,-.3v1.2l.9,-.9c.1,-.1,.2,-.2,.3,-.3c.3,-.3,1,-1.1,1.2,-1.2c0,-.1,-1.8,-1.9,-2.1,-2.2c-.1,-.1,-.2,-.2,-.3,-.3l-.1,1.2c-.2,.1,-1,.1,-1.9,.2c-2,.5,-3.9,1.8,-5.1,3.4c-.2,.4,-.6,.9,-.8,1.3c-.2,.5,-.4,1,-.5,1.6c-.1,.3,-.2,.6,-.2,.9c-.1,.1,-.1,.8,-.1,.9Z" class="g8_39" />
<path fill-rule="evenodd" d="M590.3,225.2l2.2,-1.1c.3,.6,.4,1.3,.5,1.9c.1,.2,.1,.8,.1,.9v.9c0,.1,-.1,.8,-.1,1c-.6,3.5,-3.2,6.3,-6.7,7c-.8,.2,-1.6,.2,-1.9,.2v1.2c-.2,-.1,-.4,-.4,-.6,-.6l-1.2,-1.2c-.2,-.1,-.6,-.5,-.6,-.6c.2,-.2,.9,-1,1.2,-1.3l1.2,-1.2v1.2c.5,.1,1.6,-.1,2,-.3c1.7,-.6,2.9,-1.6,3.7,-3.3c.7,-1.5,.7,-3.2,.2,-4.7Z" class="g8_39" />
<path fill-rule="evenodd" d="M591.2,220.8c-.2,.2,-.5,.4,-.8,.5c-.5,.3,-1.3,.3,-1.9,0c-.2,-.1,-.5,-.3,-.7,-.5c-1,.5,-1.6,1.4,-1.9,2.5c-.1,.3,-.1,.6,.4,.6h6.4c.5,0,.4,-.3,.3,-.7c-.2,-1,-.9,-1.9,-1.8,-2.4Zm-1.7,-3.7c1.1,0,2,.9,2,2c0,1.1,-.9,2,-2,2c-1.1,0,-2,-.9,-2,-2c0,-1.1,.9,-2,2,-2Z" class="g3_39" />
<path fill-rule="evenodd" d="M580.4,231.2c-.2,.2,-.5,.4,-.7,.5c-.6,.3,-1.3,.3,-1.9,0c-.2,-.1,-.5,-.3,-.7,-.5c-.9,.5,-1.5,1.4,-1.8,2.4c-.1,.4,-.1,.6,.4,.6h6.2c.4,0,.4,-.2,.3,-.6c-.2,-1,-.9,-1.9,-1.8,-2.4Zm-1.6,-3.5c1,0,1.9,.8,1.9,1.9c0,1,-.9,1.9,-1.9,1.9c-1.1,0,-2,-.9,-2,-1.9c0,-1.1,.9,-1.9,2,-1.9Z" class="g3_39" />
<path d="M448.8,181.2H645.7v87.4H448.8ZM71.8,952.8h82.3v30.5H71.8Z" class="g17_39" />
<path fill-rule="evenodd" d="M83.9,973.8c.2,-.1,2.6,-2.6,2.8,-2.8c.5,-.5,1,-1,1.4,-1.4l7,-7.1c0,-.1,-2.9,-3,-3,-3l-4.3,4.2c-1.3,1.4,-2.8,2.8,-4.2,4.2l-2.8,2.8c.1,.1,1.3,1.4,1.5,1.6c.2,.2,1.5,1.4,1.6,1.5Z" class="g18_39" />
<path fill-rule="evenodd" d="M97.8,959.9v0c-.2,-.1,-.3,-.3,-.4,-.4c-.3,-.3,-2.6,-2.6,-2.7,-2.6L93,958.6c0,.1,.6,.6,.7,.7c.2,.3,2.2,2.3,2.4,2.3Z" class="g18_39" />
<path fill-rule="evenodd" d="M78.6,975.7v0l2.2,-.5c.1,-.1,2,-.5,2.1,-.6l-.5,-.5c-.4,-.4,-.3,-.4,-.6,-.3c-.3,.1,-1.5,.4,-1.7,.4l.6,-1.8c-.1,-.2,-.6,-.7,-.7,-.7c-.1,.1,-.3,.8,-.4,1l-.7,2c-.1,.2,-.2,.8,-.3,1Z" class="g18_39" />
<path d="M138.3,952.8V829.4" class="g17_39" />
<path fill-rule="evenodd" d="M484.9,373.9H765.1V331.1H484.9Z" class="g3_39" />
<path fill-rule="evenodd" d="M484.9,829.4H765.1V373.9H484.9Z" class="g1_39" />
<path fill-rule="evenodd" d="M484.9,403.7H765.1V799.5H484.9Z" class="g19_39" />
<path fill-rule="evenodd" d="M642.9,361.4c-8.6,-2.7,-6.3,-22.9,8.5,-13.8c3.6,2.2,1.9,4.4,10,2.8c8.9,-1.7,3.7,20.3,-10.1,13.7c-5.5,-2.6,-6.3,-.9,-13.8,1.6c0,0,-.1,0,-.2,0Zm7.4,-2.2v1.1c0,.4,0,.6,.1,.8c.1,.2,.2,.4,.3,.5c.2,.2,.4,.3,.8,.4c.3,.1,.7,.1,1.1,.1c.6,0,1.1,-.1,1.4,-.2c.3,-.2,.6,-.4,.7,-.7c.1,-.2,.1,-.5,.1,-.9v-1.1Zm-.9,-.9h6.3v2c0,.4,0,.8,-.1,1c0,.3,-.2,.6,-.4,.8c-.3,.3,-.7,.6,-1.1,.7c-.4,.2,-.9,.2,-1.5,.2c-.5,0,-.9,0,-1.3,-.1c-.4,-.1,-.7,-.2,-.9,-.4c-.3,-.2,-.5,-.3,-.6,-.5c-.1,-.2,-.2,-.4,-.3,-.7c-.1,-.3,-.1,-.6,-.1,-.9Zm4.6,-1.8h3.5V352h-.7v3.7h-2V352H654v3.7Zm-7.3,-1.1H651v1.1h-5.4v-6.9H651v1.2h-4.3v1.6H651v1.2h-4.3Z" class="g0_39" />
<path d="M581.8,365.5h-1.1v-9.9h1.1Zm3.5,0h-1v-9.9h1.1l5.2,8.1h.1v-8.1h1v9.9h-1.1l-5.2,-8.1h-.1Zm10.9,-8.9h-3.1v-1h7.3v1h-3.1Zm20.8,1.9h-1.1c-.1,-.7,-.4,-1.2,-.8,-1.6c-.5,-.4,-1.1,-.6,-1.8,-.6c-.4,0,-.7,.1,-1.1,.2c-.3,.2,-.6,.4,-.9,.7c-.2,.2,-.4,.6,-.6,1c-.1,.5,-.2,1,-.2,1.6v1.4c0,1.1,.3,2,.7,2.6c.5,.7,1.2,1,2.1,1c.8,0,1.4,-.2,1.9,-.7c.5,-.4,.7,-1,.7,-1.6v-1.1h-2.7v-1H617v2.1c0,.3,0,.5,-.1,.8c-.1,.3,-.2,.6,-.4,.9c-.2,.3,-.4,.6,-.7,.8c-.3,.2,-.6,.4,-1,.5c-.5,.2,-1,.3,-1.5,.3c-1.2,0,-2.2,-.4,-2.9,-1.2c-.6,-.8,-1,-1.9,-1,-3.4v-1.4c0,-1.4,.4,-2.5,1.1,-3.3c.7,-.8,1.7,-1.2,2.9,-1.2c.5,0,1,.1,1.5,.3c.4,.2,.8,.4,1.1,.7c.3,.3,.5,.6,.7,1c.1,.4,.2,.8,.3,1.2Zm3.2,2v5h-1.1v-9.9h3.5c.5,0,1,0,1.4,.2c.4,.2,.7,.4,1,.6c.2,.3,.4,.6,.6,1c.1,.3,.1,.7,.1,1.1c0,.4,0,.7,-.1,1.1c-.1,.3,-.3,.6,-.5,.8c-.1,.2,-.3,.4,-.5,.5c-.3,.2,-.5,.3,-.7,.4l2,4.2h-1.2l-2.2,-5c.7,0,1.2,-.2,1.6,-.5c.3,-.3,.5,-.8,.5,-1.4c0,-.7,-.2,-1.2,-.5,-1.5c-.4,-.4,-1,-.5,-1.6,-.5h-2.3Zm9.2,1l-.3,.9l-1.1,3.1h-1.1l3.6,-9.9h1l3.6,9.9H634l-1.1,-3.1l-.3,-.9m0,0L631,356.9l-1.6,4.6m7.2,3.4c0,-.2,.1,-.4,.2,-.5c.2,-.2,.3,-.3,.5,-.3c.3,0,.4,.1,.6,.3c.1,.1,.2,.3,.2,.5c0,.2,-.1,.4,-.2,.6c-.2,.1,-.3,.2,-.6,.2c-.2,0,-.3,-.1,-.5,-.2c-.1,-.2,-.2,-.4,-.2,-.6Z" class="g5_39" />
<path fill-rule="evenodd" d="M601.8,355.6h5.9v1h-4.9v8h4.9v.9h-5.9c0,-3.3,0,-6.6,0,-9.9Z" class="g5_39" />
<path fill-rule="evenodd" d="M607.5,360.9h-3.4v-1h3.4Z" class="g5_39" />
<path fill-rule="evenodd" d="M615.9,361.4h-2.7v-1h2.7Z" class="g5_39" />
<path fill-rule="evenodd" d="M597.2,365.5v-7.6h-1v7.6Z" class="g5_39" />
<path d="M751.3,357.9l-2.2,-.4c-.1,-.4,-.3,-.8,-.5,-1.2l1.3,-1.9c.1,-.1,0,-.3,-.1,-.4l-1.4,-1.5c-.2,-.1,-.4,-.1,-.5,0l-1.8,1.3c-.4,-.3,-.9,-.4,-1.3,-.6l-.4,-2.2c0,-.1,-.2,-.3,-.4,-.3h-2c-.2,0,-.3,.2,-.4,.3l-.3,2.2c-.5,.1,-.9,.3,-1.3,.5l-1.8,-1.2c-.2,-.1,-.4,-.1,-.5,0l-1.5,1.4c-.1,.2,-.1,.4,0,.5l1.3,1.8c-.3,.5,-.4,.9,-.6,1.3l-2.1,.4c-.2,0,-.4,.2,-.4,.4v2c0,.2,.2,.4,.4,.4l2.1,.4c.2,.4,.3,.9,.6,1.3l-1.3,1.8c-.1,.1,-.1,.3,0,.4l1.5,1.5c.1,.1,.3,.1,.5,0l1.8,-1.2c.4,.2,.8,.4,1.3,.5l.3,2.2c.1,.2,.2,.3,.4,.3h2c.2,0,.4,-.1,.4,-.3l.4,-2.2c.4,-.1,.9,-.3,1.3,-.5l1.8,1.2c.2,.1,.4,.1,.5,0l1.4,-1.5c.2,-.1,.2,-.3,.1,-.4l-1.3,-1.9c.2,-.4,.4,-.8,.5,-1.2l2.2,-.4c.2,0,.3,-.2,.3,-.4v-2c0,-.2,-.1,-.4,-.3,-.4Zm-8.3,4c-1.4,0,-2.6,-1.1,-2.6,-2.6c0,-1.4,1.2,-2.6,2.6,-2.6c1.5,0,2.6,1.2,2.6,2.6c0,1.5,-1.1,2.6,-2.6,2.6Z" class="g0_39" />
<path d="M498.3,358.2h16.1V360H498.3Z" class="g0_39" />
<path d="M498.3,352.8h16.1v1.8H498.3Z" class="g0_39" />
<path d="M498.3,363.5h16.1v1.8H498.3Z" class="g0_39" />
<path d="M484.9,403.7H765.1" class="g4_39" />
<path fill-rule="evenodd" d="M504.3,387.8c0,.3,.1,.4,.3,.6c1.8,1.9,3.7,3.7,5.5,5.5c.2,.2,.6,.7,1,.7h.1c.1,0,.3,-.1,.4,-.2c.3,-.3,.2,-.7,0,-1c-.6,-.6,-5.5,-5.4,-5.6,-5.6c.1,-.1,4.7,-4.7,5.2,-5.1c.4,-.4,.6,-.6,.6,-1c0,-.3,-.3,-.6,-.7,-.6c-.4,0,-.8,.5,-1,.7c-1.7,1.6,-3.4,3.3,-5.1,5c-.2,.2,-.7,.6,-.7,1Z" class="g10_39" />
<path fill-rule="evenodd" d="M497.2,817.2c.1,-.1,1.9,-2,2.1,-2.2c.4,-.3,.7,-.7,1.1,-1l5.3,-5.4c0,0,-2.3,-2.3,-2.3,-2.3l-3.3,3.2c-1,1.1,-2.1,2.2,-3.1,3.2l-2.2,2.1c.1,.1,1,1.1,1.2,1.2c.1,.2,1.1,1.1,1.2,1.2Z" class="g3_39" />
<path fill-rule="evenodd" d="M507.7,806.7v-.1c-.1,0,-.2,-.2,-.3,-.2c-.2,-.3,-2,-2,-2.1,-2.1l-1.3,1.3c.1,.1,.5,.5,.6,.6c.2,.2,1.7,1.7,1.8,1.8Z" class="g3_39" />
<path fill-rule="evenodd" d="M493.1,818.6v.1l1.7,-.5c.1,0,1.5,-.3,1.6,-.4l-.4,-.4c-.3,-.3,-.2,-.3,-.4,-.2c-.3,0,-1.2,.3,-1.3,.3l.5,-1.4c-.1,-.1,-.5,-.5,-.6,-.5c-.1,.1,-.2,.6,-.3,.7l-.5,1.6c-.1,.1,-.2,.6,-.3,.7Z" class="g3_39" />
<path fill-rule="evenodd" d="M610.1,813.9c0,.5,.4,.8,.8,.8h.8v4.8c0,.4,.4,.7,.7,.7h2.4v-3.8c0,-.5,.4,-.9,.9,-.9h1.4c.6,0,.9,.4,.9,.9v3.8h2.4c.3,0,.7,-.3,.7,-.7v-4.8h.8c.4,0,.7,-.3,.8,-.7v-.1c0,-.1,-.1,-.2,-.1,-.4c-.2,-.2,-1.4,-1.3,-1.5,-1.4c0,-.1,0,-.4,0,-.5c0,-.6,0,-1.3,0,-1.9c0,-.4,0,-.6,-.1,-.9c-.3,-.4,-.9,-.3,-1.5,-.3c-.3,0,-.5,.2,-.6,.3c-.2,.3,-.2,.5,-.2,.9c-.1,-.1,-.4,-.4,-.5,-.5c-.2,-.2,-.3,-.4,-.5,-.6c-.2,-.2,-.4,-.3,-.6,-.5c-.2,-.3,-.4,-.4,-.7,-.4c-.4,0,-.8,.4,-1,.6l-2.3,2.3c-.5,.6,-1,1.1,-1.6,1.6c-.2,.3,-.5,.5,-.7,.8c-.2,.2,-.7,.5,-.7,.9Z" class="g8_39" />
<path fill-rule="evenodd" d="M563.6,815c0,-.1,.2,-1.5,.3,-1.7h2.6l-.4,1.7Zm-5.1,.9c0,.3,.1,.5,.3,.8c.1,.1,.4,.2,.6,.2c.5,.1,1.2,0,1.7,0c0,.3,-.3,1.6,-.3,1.9c-.1,.4,-.2,.7,.1,1c.2,.4,.4,.3,.6,.4c.4,0,.8,-.1,1,-.5c.1,-.2,.2,-.6,.3,-.9c0,-.2,.3,-1.8,.3,-1.9h2.6c0,.3,-.1,.7,-.2,1c0,.3,-.1,.6,-.2,.9c-.1,.5,-.1,.9,.4,1.2c.1,.1,.2,.1,.4,.2c.2,0,.5,0,.7,-.2c.4,-.2,.4,-.7,.5,-1.2c0,0,.4,-1.8,.4,-1.9c.1,0,2,0,2.2,0c.4,0,.7,0,.9,-.1c.9,-.6,.5,-1.8,-.5,-1.8c-.7,0,-1.5,0,-2.2,0l.4,-1.7c.2,0,1.7,0,2,0c.4,0,.5,0,.8,-.2c.3,-.2,.3,-.4,.4,-.6v-.3c-.2,-.2,-.1,-.3,-.4,-.6c-.1,-.1,-.4,-.2,-.6,-.2c-.6,0,-1.2,0,-1.8,0c.1,-.7,.7,-2.6,.4,-3.2c-.4,-.7,-1.4,-.7,-1.8,0c-.1,.4,-.5,2.6,-.6,3.2h-2.6c0,-.3,.3,-1.8,.4,-2.2c.1,-.3,.2,-.7,0,-1c-.3,-.5,-1,-.7,-1.5,-.3c-.4,.3,-.4,.8,-.5,1.4c-.1,.3,-.1,.7,-.2,1l-.2,1c0,.1,0,0,0,.1c-.1,0,-1.8,0,-2.1,0c-.4,0,-.6,0,-.9,.2c-.8,.5,-.4,1.7,.5,1.8c.3,0,1.7,0,2.1,0l-.4,1.6c-.6,0,-1.3,0,-1.9,0c-.3,0,-.5,.1,-.7,.2c-.3,.2,-.3,.5,-.4,.7Z" class="g8_39" />
<path d="M484.9,799.5H765.1" class="g4_39" />
<path fill-rule="evenodd" d="M722.8,803.5h30c.3,0,.5,.2,.5,.4v16.7c0,.2,-.2,.4,-.5,.4h-30c-.2,0,-.5,-.2,-.5,-.4V803.9c0,-.2,.3,-.4,.5,-.4Z" class="g11_39" />
<path fill-rule="evenodd" d="M745.6,817c.2,0,.2,-.1,.3,-.2c1,-1,2,-1.9,3,-2.9c.1,-.1,.4,-.3,.4,-.6c0,-.1,-.1,-.2,-.1,-.2c-.2,-.2,-.4,-.2,-.6,0c-.3,.3,-2.9,2.9,-3,3c0,-.1,-2.5,-2.6,-2.8,-2.8c-.2,-.2,-.3,-.4,-.5,-.4c-.2,0,-.3,.2,-.3,.4c0,.2,.2,.5,.3,.6c1,.9,1.9,1.8,2.8,2.7c.1,.1,.3,.4,.5,.4Z" class="g12_39" />
<path fill-rule="evenodd" d="M728.4,809.9h7.8c.7,0,1.4,.7,1.4,1.4v4.9c0,.8,-.7,1.5,-1.4,1.5h-7.8c-.8,0,-1.5,-.7,-1.5,-1.5v-4.9c0,-.7,.7,-1.4,1.5,-1.4Z" class="g13_39" />
<path d="M729.1,809.4c.1,-5.8,6.4,-5.2,6.3,0" class="g14_39" />
<path fill-rule="evenodd" d="M491.3,507.6H758.7V465.5H491.3Z" class="g0_39" />
<path fill-rule="evenodd" d="M510.9,470.2c9,0,16.3,7.3,16.3,16.3c0,9.1,-7.3,16.4,-16.3,16.4c-9.1,0,-16.4,-7.3,-16.4,-16.4c0,-9,7.3,-16.3,16.4,-16.3Z" class="g20_39" />
<g clip-path="url(#c1_39)">
<path fill-rule="evenodd" d="M515.5,487.4c-.4,.4,-1.4,1.1,-1.9,1.3c-1.7,.8,-3.8,.8,-5.5,0c-.6,-.3,-1.4,-.9,-1.9,-1.3c-2.6,1.3,-4.5,3.9,-5.2,6.8c-.2,1,-.3,1.6,1,1.6h17.8c1.2,0,1.1,-.7,.9,-1.7c-.7,-2.8,-2.6,-5.4,-5.2,-6.7Zm-4.6,-10.2c3,0,5.4,2.5,5.4,5.5c0,3,-2.4,5.4,-5.4,5.4c-3.1,0,-5.5,-2.4,-5.5,-5.4c0,-3,2.4,-5.5,5.5,-5.5Z" class="g0_39" />
</g>
<path d="M510.9,470.2c9,0,16.3,7.3,16.3,16.3c0,9.1,-7.3,16.4,-16.3,16.4c-9.1,0,-16.4,-7.3,-16.4,-16.4c0,-9,7.3,-16.3,16.4,-16.3Z" class="g21_39" />
<path fill-rule="evenodd" d="M704.7,487.3h35.5v.4H704.7Z" class="g6_39" />
<path fill-rule="evenodd" d="M636.2,472.9c0,.2,.1,.2,.4,.3l1.3,.4c-.1,.2,-.2,.3,-.3,.7c-.1,.2,-.1,.6,-.1,.8c-.2,.2,-.4,.3,-.4,.6c0,.1,.1,.2,.1,.3c.1,0,.2,.1,.2,.2l-.1,.5c0,.5,-.1,1,-.1,1.5c-.1,.1,0,.2,.1,.2h.9c.2,0,.2,-.3,.1,-.4c0,-.1,0,-.2,0,-.3c0,-.2,-.2,-1.4,-.2,-1.5c.2,-.2,.3,-.3,.3,-.6c0,-.2,-.1,-.4,-.3,-.5c0,-.1,0,-.3,.1,-.6c0,-.2,.1,-.5,.3,-.7c0,0,.1,0,.1,0c0,0,.5,.1,.5,.2c.4,.1,.9,.2,1.3,.4c0,0,.1,0,.1,0c.3,.1,1.1,.4,1.2,.4c.1,0,.1,-.1,.2,-.1l1.9,-.6c.1,0,.2,-.1,.3,-.1l1.4,-.4c.1,-.1,.2,-.1,.3,-.1l1.2,-.4c.1,0,.1,-.1,.1,-.1v-.1q0,-.1,-.1,-.1l-2.2,-.7c-.4,-.2,-.9,-.3,-1.4,-.4l-1.3,-.5q-.4,-.1,-.8,0l-1.3,.5c-.2,0,-.3,0,-.4,.1l-3.1,.9c-.1,.1,-.3,.1,-.3,.2Z" class="g6_39" />
<path fill-rule="evenodd" d="M638.7,476c0,.3,.2,.5,.4,.6c.1,.1,.3,.2,.5,.2q.1,.1,.2,.1c1.1,.4,2.7,.4,3.9,0c.2,-.1,.3,-.2,.5,-.2c.2,-.2,.4,-.3,.5,-.6c0,-.1,0,-.2,0,-.3q0,-.1,0,-.2l-.1,-1.1c0,0,-.1,0,-.1,0l-2,.6c-.2,.1,-.3,.1,-.4,.2q-.4,.1,-.8,0l-.7,-.3c-.2,0,-.3,0,-.4,-.1l-1.5,-.4Z" class="g6_39" />
<path fill-rule="evenodd" d="M637.9,489.4h7.6v-1.2c0,-.2,-.2,-.4,-.5,-.4h-6.5c-.3,0,-.6,.2,-.6,.5Zm-.2,-6.3c-.1,.1,-.1,.3,0,.4h7.9c.1,-.1,.2,-.2,.1,-.4l-4,-2.2Zm5.8,.8h1.3v3.5h-1.3Zm-5,0h1.4v3.5h-1.4Zm2.5,0h1.4v3.5H641Z" class="g6_39" />
<path fill-rule="evenodd" d="M639.4,500.5c0,0,.1,.1,.1,.1c0,0,0,.1,.1,.1h.1c-.1,.1,-.2,0,-.2,0c0,0,-.1,-.1,-.1,-.2Zm3,-2.4q-.1,0,-.1,0q0,-.1,.1,-.1v.1Zm.3,.1h-.1c-.1,0,-.1,-.1,-.1,-.1c0,0,-.1,0,-.1,-.1c.1,0,0,0,.1,0c0,.1,0,0,0,.1c0,0,.1,0,.1,0c.1,0,0,0,.1,.1Zm-3.1,-3.6c0,.1,-.1,0,-.1,-.1c0,0,-.1,0,-.1,-.1q.1,0,.1,0q0,.1,.1,.1c0,.1,0,0,0,.1Zm.2,-.4v-.1h3.8c0,.3,0,.6,0,.8c0,.3,0,.4,-.1,.7c-.2,.5,-.6,.9,-1.1,1.3c-.1,0,-.3,.2,-.4,.3c-.1,.1,-.2,.5,0,.6c0,.1,.3,.3,.4,.3q.1,0,.1,.1l.1,.1l.3,.3c.3,.2,.7,.9,.7,1.3c0,0,0,1,0,1.1c-.1,0,-2.6,0,-2.9,0c-.3,0,-.7,0,-.9,0l-.1,-.4c0,.1,-.1,0,-.1,0c0,-.1,.1,-.2,.1,-.1c0,-.1,0,-.6,.1,-.7c0,-.2,.2,-.6,.3,-.8c.2,-.2,.4,-.5,.7,-.7c0,0,.1,0,.1,-.1c.2,-.2,.5,-.3,.6,-.5c.1,-.4,-.2,-.6,-.4,-.7c-.5,-.4,-1,-.9,-1.3,-1.5c-.1,-.3,0,-.6,0,-1q-.1,0,-.2,0c-.1,-.1,0,-.2,.2,-.1v-.1q-.1,0,-.1,0q0,-.1,.1,-.1Zm-.5,.4c.2,-.1,.3,.2,.1,.1v.1h-.1c0,.4,.1,.6,.2,.9c.1,.3,.2,.5,.4,.7c.2,.3,.6,.6,.9,.8c0,.1,.2,.2,.3,.3q0,.1,-.1,.1c-.4,.3,-.9,.7,-1.2,1.1c-.1,.2,-.3,.5,-.4,.8c-.1,.4,-.1,.8,-.1,1.2c.1,-.1,.2,0,.2,.1c0,.1,-.1,.1,-.2,0v.1q.1,0,.1,0h-.1q0,.1,-.1,.1c0,.1,-.1,.1,-.1,.1c0,.1,0,0,0,.1q.1,0,0,0c-.1,.2,-.1,.5,.3,.5c.8,0,1.7,0,2.5,0c.6,0,1.1,0,1.7,0c.3,0,.6,.1,.7,-.1c0,-.1,0,-.3,0,-.4c-.1,-.2,-.2,-.2,-.3,-.2c0,-1.3,.2,-1.5,-.6,-2.5c-.1,-.1,-.5,-.5,-.6,-.5c-.1,0,.1,0,-.1,.1v.1v-.1q-.1,0,-.1,-.1c-.1,-.1,.1,-.1,.1,-.1c0,-.1,-.2,-.2,-.2,-.2q-.2,-.1,-.2,-.2c0,-.1,.1,-.1,.2,-.2c.6,-.5,1.3,-1,1.5,-1.9c0,-.3,0,-1,0,-1.3q.2,0,.3,-.2c0,-.1,0,-.3,-.1,-.3c-.1,-.2,-.4,-.2,-.7,-.2h-3.6c-.3,0,-.7,0,-.8,.1c0,.1,-.1,.3,0,.4c0,.2,.1,.2,.2,.2Z" class="g6_39" />
<path fill-rule="evenodd" d="M642,498.6c.1,.1,0,.2,-.1,.1c0,.1,-.1,.2,-.2,.2c0,-.1,-.1,-.2,.1,-.2q-.1,-.1,-.1,-.2c.1,.1,0,.1,.1,.1c.1,0,.1,-.1,.2,-.1v.2q0,-.1,0,-.1Zm.3,-.1h-.1c0,0,0,.1,-.1,.1v.1l-.1,-.1c0,0,0,-.1,0,-.1c0,-.1,.1,-.1,.2,-.1v-.1c-.1,0,-.3,-.1,-.5,-.2c-.1,0,-.3,.1,-.4,.2c-.5,.3,-.9,.8,-1.1,1.4c0,.2,-.2,.9,-.1,1.1c.1,0,1.4,0,1.6,0c.2,0,1.5,0,1.6,0c0,-.1,0,-.3,0,-.4c0,-.3,-.1,-.7,-.3,-1c-.1,-.3,-.4,-.7,-.6,-.9Z" class="g6_39" />
<path fill-rule="evenodd" d="M641.8,497c.3,-.1,.4,-.2,.7,-.4c.2,-.2,.7,-.8,.6,-1c-.1,0,-1.9,0,-2.1,0c-.9,0,-.8,0,-.7,.3c.1,.1,.2,.2,.2,.3c.1,0,.1,.1,.2,.1c0,.1,.1,.1,.1,.2l.2,.2c0,0,.1,0,.1,0c.1,.1,.2,.2,.3,.2q.3,.2,.4,.1Z" class="g6_39" />
<path fill-rule="evenodd" d="M639.7,500.5v.1l.1,.4c.2,0,.6,0,.9,0c.3,0,2.8,0,2.9,0c0,-.1,0,-1.1,0,-1.1V501h-3.8v-1.2c-.1,.1,-.1,.6,-.1,.7Z" class="g6_39" />
<path fill-rule="evenodd" d="M641.8,498.8c0,0,-.1,0,-.1,-.1c0,0,.2,0,.1,.1Zm.1,-.1q0,-.1,0,-.1c0,0,0,.1,0,.1Zm.1,-.1v.1v-.2c-.1,0,-.1,.1,-.2,.1c-.1,0,0,0,-.1,-.1q0,.1,.1,.2c-.2,0,-.1,.1,-.1,.2c.1,0,.2,-.1,.2,-.2c.1,.1,.2,0,.1,-.1Z" class="g6_39" />
<path fill-rule="evenodd" d="M642.1,498.5c0,-.1,.1,0,0,0c0,.1,-.1,.1,0,0Zm-.1,.1q.1,.1,.1,.1q0,-.1,0,-.1c.1,0,.1,-.1,.1,-.1q.1,0,.1,0c0,-.1,-.1,-.1,-.1,-.2v.1c-.1,0,-.2,0,-.2,.1c0,0,0,.1,0,.1Z" class="g6_39" />
<path fill-rule="evenodd" d="M642.8,498c-.2,.1,-.2,-.1,-.1,-.1c.1,.1,0,.1,.1,.1Zm0,0c0,-.1,-.1,-.1,-.1,-.1c0,0,-.2,0,-.1,.1q0,.1,.1,.1q0,.1,0,.1q0,-.1,0,-.1c.2,-.1,0,-.1,.1,-.1Z" class="g6_39" />
<path fill-rule="evenodd" d="M639.4,494.7q0,-.1,0,-.1h.1c0,.1,-.1,.1,-.1,.1Zm-.1,-.1v.2h.1v-.1c.2,.1,.1,-.2,-.1,-.1Z" class="g6_39" />
<path fill-rule="evenodd" d="M639.7,494.4c0,.1,-.1,.1,-.1,0c0,0,.1,0,.1,0Zm.1,.1v-.1c-.2,-.1,-.3,0,-.2,.1q.1,0,.2,0Z" class="g6_39" />
<path fill-rule="evenodd" d="M639.5,500.7q0,.1,-.1,.1c-.1,-.1,0,-.1,.1,-.1Zm-.2,0v.1c.1,.1,.2,.1,.2,0c0,-.1,-.1,-.2,-.2,-.1Z" class="g6_39" />
<path fill-rule="evenodd" d="M639.6,500.5q.1,0,.1,.1h-.1Zm.1,.1v-.1c0,-.1,-.1,0,-.1,.1c0,0,.1,.1,.1,0Z" class="g6_39" />
<path fill-rule="evenodd" d="M642.6,498.2h.1c-.1,-.1,0,-.1,-.1,-.1c0,0,-.1,0,-.1,0c0,-.1,0,0,0,-.1c-.1,0,0,0,-.1,0c0,.1,.1,.1,.1,.1c0,0,0,.1,.1,.1Z" class="g6_39" />
<path fill-rule="evenodd" d="M639.6,494.6c0,-.1,0,0,0,-.1q-.1,0,-.1,-.1h-.1c0,.1,.1,.1,.1,.1c0,.1,.1,.2,.1,.1Z" class="g6_39" />
<path fill-rule="evenodd" d="M639.5,500.6c0,0,-.1,-.1,-.1,-.1c0,.1,.1,.2,.1,.2c0,0,.1,.1,.2,0h-.1c-.1,0,-.1,-.1,-.1,-.1Z" class="g6_39" />
<path fill-rule="evenodd" d="M642.4,498.1q0,.1,0,.1h.1c0,0,0,.1,.1,.1q-.1,-.1,-.1,-.1q0,-.1,-.1,-.1Z" class="g6_39" />
<path fill-rule="evenodd" d="M641.8,498.8c.1,-.1,-.1,-.1,-.1,-.1c0,.1,.1,.1,.1,.1Z" class="g6_39" />
<path fill-rule="evenodd" d="M642.1,498.5c-.1,.1,0,.1,0,0c.1,0,0,-.1,0,0Z" class="g6_39" />
<path fill-rule="evenodd" d="M642.8,498c-.1,0,0,0,-.1,-.1c-.1,0,-.1,.2,.1,.1Z" class="g6_39" />
<path fill-rule="evenodd" d="M639.7,494.4c0,0,-.1,0,-.1,0c0,.1,.1,.1,.1,0Z" class="g6_39" />
<path fill-rule="evenodd" d="M639.6,500.5v.1h.1q0,-.1,-.1,-.1Z" class="g6_39" />
<path fill-rule="evenodd" d="M639.4,494.7c0,0,.1,0,.1,-.1h-.1v.1Z" class="g6_39" />
<path fill-rule="evenodd" d="M639.5,500.7c-.1,0,-.2,0,-.1,.1q.1,0,.1,-.1Z" class="g6_39" />
<path fill-rule="evenodd" d="M639.1,501.2q.1,0,0,0c0,-.1,0,0,0,-.1q0,.1,0,.1Z" class="g6_39" />
<path fill-rule="evenodd" d="M639.3,500.9q.1,0,.1,0h-.1Z" class="g6_39" />
<path fill-rule="evenodd" d="M641.9,498.7c0,0,0,-.1,0,-.1v.1Z" class="g6_39" />
<path fill-rule="evenodd" d="M639.8,494.3v-.1q-.1,0,-.1,.1h.1Z" class="g6_39" />
<path fill-rule="evenodd" d="M642.3,498.1h.1q0,-.1,0,-.1q-.1,0,-.1,.1Z" class="g6_39" />
<path fill-rule="evenodd" d="M644.3,493.5c0,.1,0,0,0,0Z" class="g6_39" />
<path fill-rule="evenodd" d="M491.3,559.6H758.7V517.4H491.3Z" class="g0_39" />
<path fill-rule="evenodd" d="M510.9,522.1c9,0,16.3,7.4,16.3,16.4c0,9,-7.3,16.3,-16.3,16.3c-9.1,0,-16.4,-7.3,-16.4,-16.3c0,-9,7.3,-16.4,16.4,-16.4Z" class="g20_39" />
<g clip-path="url(#c2_39)">
<path fill-rule="evenodd" d="M515.5,539.3c-.4,.4,-1.4,1.1,-1.9,1.4c-1.7,.8,-3.8,.8,-5.5,0c-.6,-.3,-1.4,-.9,-1.9,-1.4c-2.6,1.3,-4.5,4,-5.2,6.8c-.2,1,-.3,1.7,1,1.7h17.8c1.2,0,1.1,-.7,.9,-1.7c-.7,-2.9,-2.6,-5.5,-5.2,-6.8Zm-4.6,-10.1c3,0,5.4,2.4,5.4,5.4c0,3,-2.4,5.5,-5.4,5.5c-3.1,0,-5.5,-2.5,-5.5,-5.5c0,-3,2.4,-5.4,5.5,-5.4Z" class="g0_39" />
</g>
<path d="M510.9,522.1c9,0,16.3,7.4,16.3,16.4c0,9,-7.3,16.3,-16.3,16.3c-9.1,0,-16.4,-7.3,-16.4,-16.3c0,-9,7.3,-16.4,16.4,-16.4Z" class="g21_39" />
<path fill-rule="evenodd" d="M704.7,539.3h35.5v.3H704.7Z" class="g6_39" />
<path fill-rule="evenodd" d="M636.2,524.9c0,.1,.1,.1,.4,.2l1.3,.4c-.1,.3,-.2,.3,-.3,.7c-.1,.2,-.1,.6,-.1,.9c-.2,.1,-.4,.2,-.4,.5c0,.1,.1,.2,.1,.3c.1,.1,.2,.2,.2,.2l-.1,.6c0,.5,-.1,1,-.1,1.4c-.1,.2,0,.2,.1,.2h.9c.2,0,.2,-.3,.1,-.4q0,-.1,0,-.2c0,-.2,-.2,-1.5,-.2,-1.6c.2,-.1,.3,-.3,.3,-.5c0,-.2,-.1,-.4,-.3,-.5c0,-.1,0,-.3,.1,-.6c0,-.3,.1,-.6,.3,-.7c0,0,.1,-.1,.1,-.1c0,0,.5,.2,.5,.2c.4,.1,.9,.3,1.3,.4c0,0,.1,0,.1,0c.3,.1,1.1,.4,1.2,.4q.1,0,.2,0l1.9,-.6c.1,-.1,.2,-.1,.3,-.1l1.4,-.5c.1,0,.2,-.1,.3,-.1L647,525q.1,0,.1,-.1q0,-.1,-.1,-.2l-2.2,-.7c-.4,-.1,-.9,-.3,-1.4,-.4l-1.3,-.4q-.4,-.2,-.8,0l-1.3,.4c-.2,0,-.3,.1,-.4,.1l-3.1,1c-.1,0,-.3,0,-.3,.2Z" class="g6_39" />
<path fill-rule="evenodd" d="M638.7,528c0,.2,.2,.4,.4,.5c.1,.1,.3,.2,.5,.3q.1,0,.2,.1c1.1,.3,2.7,.3,3.9,-.1c.2,0,.3,-.1,.5,-.2c.2,-.1,.4,-.3,.5,-.5c0,-.1,0,-.2,0,-.3q0,-.1,0,-.2l-.1,-1.2c0,0,-.1,0,-.1,.1l-2,.6c-.2,0,-.3,.1,-.4,.1q-.4,.1,-.8,0l-.7,-.2c-.2,-.1,-.3,-.1,-.4,-.1l-1.5,-.5Z" class="g6_39" />
<path fill-rule="evenodd" d="M637.9,541.3h7.6v-1.1c0,-.3,-.2,-.5,-.5,-.5h-6.5c-.3,0,-.6,.3,-.6,.6Zm-.2,-6.3c-.1,.2,-.1,.3,0,.4h7.9c.1,0,.2,-.2,.1,-.3l-4,-2.2Zm5.8,.9h1.3v3.5h-1.3Zm-5,0h1.4v3.5h-1.4Zm2.5,0h1.4v3.5H641Z" class="g6_39" />
<path fill-rule="evenodd" d="M639.4,552.5c0,0,.1,0,.1,0q0,.1,.1,.1h.1c-.1,.1,-.2,.1,-.2,0c0,0,-.1,-.1,-.1,-.1Zm3,-2.5c-.1,.1,-.1,0,-.1,0h.1Zm.3,.1h-.1q-.1,0,-.1,0c0,-.1,-.1,0,-.1,-.2c.1,0,0,0,.1,.1c0,0,.1,.1,.1,.1c.1,0,0,0,.1,0Zm-3.1,-3.6c0,.1,-.1,0,-.1,0c0,0,-.1,-.1,-.1,-.1q.1,0,.1,0l.1,.1c0,.1,0,0,0,0Zm.2,-.3v-.1h3.8c0,.2,0,.5,0,.8c0,.3,0,.4,-.1,.6c-.2,.6,-.6,.9,-1.1,1.3c-.1,.1,-.3,.2,-.4,.3c-.1,.2,-.2,.5,0,.6c0,.1,.3,.4,.4,.4c0,-.1,0,0,0,-.1q.1,.1,.1,.1c0,.1,0,0,.1,.1l.3,.3c.3,.3,.7,.9,.7,1.3c0,.1,0,1.1,0,1.1c-.1,.1,-2.6,.1,-2.9,.1c-.3,0,-.7,0,-.9,0l-.1,-.4c0,0,-.1,0,-.1,-.1c0,-.1,.1,-.1,.1,-.1c0,-.1,0,-.6,.1,-.6c0,-.3,.2,-.7,.3,-.8c.2,-.3,.4,-.5,.7,-.7c0,-.1,.1,-.1,.1,-.1c.2,-.2,.5,-.4,.6,-.6c.1,-.4,-.2,-.5,-.4,-.7c-.5,-.4,-1,-.8,-1.3,-1.5c-.1,-.3,0,-.6,0,-1q-.1,.1,-.2,.1c-.1,-.1,0,-.3,.2,-.2q-.1,0,-.1,-.1h.1Zm-.5,.3c.2,-.1,.3,.2,.1,.2h-.1c0,.4,.1,.7,.2,1c.1,.3,.2,.5,.4,.7c.2,.2,.6,.5,.9,.8c0,0,.2,.1,.3,.2q0,.1,-.1,.2c-.4,.3,-.9,.6,-1.2,1c-.1,.3,-.3,.5,-.4,.8c-.1,.4,-.1,.9,-.1,1.2c.1,0,.2,0,.2,.2c0,0,-.1,0,-.2,0q.1,0,.1,0q0,.1,0,.1h-.1c0,.1,0,0,-.1,.1c0,0,-.1,0,-.1,.1c.1,.1,.1,0,0,.1c-.1,.1,-.1,.5,.3,.5c.8,0,1.7,0,2.5,0c.6,0,1.1,0,1.7,0c.3,0,.6,0,.7,-.2c0,-.1,0,-.3,0,-.4c-.1,-.1,-.2,-.1,-.3,-.2c0,-1.2,.2,-1.4,-.6,-2.5c-.1,-.1,-.5,-.5,-.6,-.5c-.1,0,.1,.1,-.1,.1q0,.1,0,.1q-.1,-.1,-.1,-.1c-.1,-.1,.1,-.2,.1,-.2c0,0,-.2,-.1,-.2,-.2q-.2,0,-.2,-.2c0,0,.1,-.1,.2,-.1c.6,-.6,1.3,-1.1,1.5,-2c0,-.3,0,-.9,0,-1.2q.2,-.1,.3,-.2c0,-.1,0,-.3,-.1,-.4c-.1,-.2,-.4,-.1,-.7,-.1h-3.6c-.3,0,-.7,-.1,-.8,.1c0,.1,-.1,.3,0,.4c0,.1,.1,.1,.2,.2Z" class="g6_39" />
<path fill-rule="evenodd" d="M642,550.6c.1,.1,0,.1,-.1,.1c0,.1,-.1,.2,-.2,.1c0,0,-.1,-.1,.1,-.2c-.1,-.1,-.1,0,-.1,-.1c.1,0,0,0,.1,.1q.1,-.1,.2,-.1v.1Zm.3,-.2h-.1q0,.1,-.1,.1q0,.1,0,.1H642q0,-.1,0,-.2c0,-.1,.1,-.1,.2,0v-.1c-.1,-.1,-.3,-.2,-.5,-.2c-.1,-.1,-.3,.1,-.4,.1c-.5,.3,-.9,.8,-1.1,1.4c0,.2,-.2,1,-.1,1.1c.1,.1,1.4,0,1.6,0c.2,0,1.5,.1,1.6,0c0,0,0,-.2,0,-.3c0,-.4,-.1,-.7,-.3,-1.1c-.1,-.3,-.4,-.6,-.6,-.9Z" class="g6_39" />
<path fill-rule="evenodd" d="M641.8,548.9c.3,-.1,.4,-.2,.7,-.4c.2,-.2,.7,-.8,.6,-.9c-.1,-.1,-1.9,0,-2.1,0c-.9,0,-.8,-.1,-.7,.2c.1,.1,.2,.2,.2,.3q.1,.1,.2,.2c0,0,.1,.1,.1,.1l.2,.2c0,0,.1,0,.1,.1c.1,0,.2,.1,.3,.2q.3,.1,.4,0Z" class="g6_39" />
<path fill-rule="evenodd" d="M639.7,552.4v.2l.1,.4c.2,0,.6,0,.9,0c.3,0,2.8,0,2.9,-.1c0,0,0,-1,0,-1.1v1.1h-3.8v-1.1c-.1,0,-.1,.5,-.1,.6Z" class="g6_39" />
<path fill-rule="evenodd" d="M641.8,550.7c0,.1,-.1,.1,-.1,0c0,-.1,.2,-.1,.1,0Zm.1,-.1c0,0,0,-.1,0,-.1c0,0,0,.1,0,.1Zm.1,0v-.1q-.1,0,-.2,.1c-.1,-.1,0,-.1,-.1,-.1c0,.1,0,0,.1,.1c-.2,.1,-.1,.2,-.1,.2c.1,.1,.2,0,.2,-.1c.1,0,.2,0,.1,-.1Z" class="g6_39" />
<path fill-rule="evenodd" d="M642.1,550.4c0,0,.1,0,0,.1c0,0,-.1,0,0,-.1Zm-.1,.2q.1,0,.1,0v-.1q.1,0,.1,-.1q.1,0,.1,0c0,-.1,-.1,-.1,-.1,-.1v.1c-.1,-.1,-.2,-.1,-.2,0q0,.1,0,.2Z" class="g6_39" />
<path fill-rule="evenodd" d="M642.8,550c-.2,0,-.2,-.1,-.1,-.1c.1,0,0,0,.1,.1Zm0,-.1c0,0,-.1,-.1,-.1,-.1c0,0,-.2,.1,-.1,.2l.1,.1V550c.2,0,0,-.1,.1,-.1Z" class="g6_39" />
<path fill-rule="evenodd" d="M639.4,546.6v-.1h.1c0,.1,-.1,.2,-.1,.1Zm-.1,-.1v.2h.1c.2,0,.1,-.3,-.1,-.2Z" class="g6_39" />
<path fill-rule="evenodd" d="M639.7,546.3c0,.2,-.1,.1,-.1,.1c0,-.1,.1,-.1,.1,-.1Zm.1,.1v-.1c-.2,-.1,-.3,.1,-.2,.2q.1,0,.2,-.1Z" class="g6_39" />
<path fill-rule="evenodd" d="M639.5,552.7c0,0,0,.1,-.1,.1c-.1,-.1,0,-.2,.1,-.1Zm-.2,-.1v.2c.1,0,.2,0,.2,0c0,-.2,-.1,-.2,-.2,-.2Z" class="g6_39" />
<path fill-rule="evenodd" d="M639.6,552.5c.1,-.1,.1,0,.1,0h-.1Zm.1,.1v-.2c0,0,-.1,0,-.1,.1c0,.1,.1,.1,.1,.1Z" class="g6_39" />
<path fill-rule="evenodd" d="M642.6,550.1h.1c-.1,0,0,0,-.1,0c0,0,-.1,-.1,-.1,-.1c-.1,-.1,0,-.1,-.1,-.1c0,.2,.1,.1,.1,.2h.1Z" class="g6_39" />
<path fill-rule="evenodd" d="M639.6,546.5c0,0,0,.1,0,0q-.1,-.1,-.1,-.1h-.1c0,0,.1,.1,.1,.1c0,0,.1,.1,.1,0Z" class="g6_39" />
<path fill-rule="evenodd" d="M639.5,552.5c0,0,-.1,0,-.1,0c0,0,.1,.1,.1,.1c0,.1,.1,.1,.2,0h-.1q-.1,0,-.1,-.1Z" class="g6_39" />
<path fill-rule="evenodd" d="M642.4,550.1l.1,.1h.1c-.1,-.1,-.1,0,-.1,-.1l-.1,-.1c0,.1,0,0,0,.1Z" class="g6_39" />
<path fill-rule="evenodd" d="M641.8,550.7c.1,-.1,-.1,-.1,-.1,0c0,.1,.1,.1,.1,0Z" class="g6_39" />
<path fill-rule="evenodd" d="M642.1,550.4c-.1,.1,0,.1,0,.1c.1,-.1,0,-.1,0,-.1Z" class="g6_39" />
<path fill-rule="evenodd" d="M642.8,550c-.1,-.1,0,-.1,-.1,-.1c-.1,0,-.1,.1,.1,.1Z" class="g6_39" />
<path fill-rule="evenodd" d="M639.7,546.3c0,0,-.1,0,-.1,.1c0,0,.1,.1,.1,-.1Z" class="g6_39" />
<path fill-rule="evenodd" d="M639.6,552.5h.1c0,0,0,-.1,-.1,0Z" class="g6_39" />
<path fill-rule="evenodd" d="M639.4,546.6c0,.1,.1,0,.1,-.1h-.1q0,.1,0,.1Z" class="g6_39" />
<path fill-rule="evenodd" d="M639.5,552.7c-.1,-.1,-.2,0,-.1,.1c.1,0,.1,-.1,.1,-.1Z" class="g6_39" />
<path fill-rule="evenodd" d="M639.1,553.2c.1,-.1,.1,0,0,-.1v.1Z" class="g6_39" />
<path fill-rule="evenodd" d="M639.3,552.9q.1,0,.1,0v-.1h-.1Z" class="g6_39" />
<path fill-rule="evenodd" d="M641.9,550.6c0,0,0,-.1,0,-.1c0,0,0,.1,0,.1Z" class="g6_39" />
<path fill-rule="evenodd" d="M639.8,546.3v-.1q-.1,0,-.1,0q0,.1,.1,.1Z" class="g6_39" />
<path fill-rule="evenodd" d="M642.3,550c0,0,0,.1,.1,0q-.1,0,-.1,0Z" class="g6_39" />
<path fill-rule="evenodd" d="M644.3,545.5v-.1Z" class="g6_39" />
<path fill-rule="evenodd" d="M491.3,455.7H758.7V413.5H491.3Z" class="g0_39" />
<path fill-rule="evenodd" d="M610.6,425c0,-.1,.3,-1.7,.4,-1.9h2.9l-.4,1.9Zm-5.7,1c0,.3,.1,.7,.3,.9c.1,.1,.4,.3,.7,.3c.6,.1,1.3,0,2,0c-.1,.4,-.4,1.8,-.5,2.2c-.1,.4,-.1,.7,.1,1.1c.3,.4,.6,.3,.8,.5c.5,0,.8,-.1,1.1,-.6c.2,-.2,.2,-.7,.3,-1c.1,-.3,.4,-2.1,.5,-2.2h2.9c-.1,.4,-.2,.8,-.2,1.1c-.1,.4,-.2,.7,-.3,1.1c-.1,.5,-.1,1,.4,1.4c.2,.1,.3,.1,.5,.2c.3,0,.6,-.1,.8,-.2c.5,-.3,.5,-.9,.6,-1.4c0,0,.4,-2.1,.5,-2.2c0,0,2.2,0,2.4,0c.5,0,.8,0,1.1,-.2c1,-.6,.6,-2,-.6,-2c-.8,0,-1.7,0,-2.5,0l.4,-1.9c.2,0,2,0,2.3,0c.5,0,.6,0,.9,-.2c.4,-.3,.4,-.6,.5,-.8v-.3c-.2,-.2,-.1,-.3,-.4,-.6c-.2,-.2,-.5,-.3,-.8,-.3c-.7,0,-1.4,0,-2,0c.1,-.8,.8,-3,.4,-3.6c-.4,-.8,-1.6,-.8,-2,0c-.1,.4,-.5,3,-.7,3.6h-3c.1,-.3,.5,-2,.5,-2.4c.1,-.5,.2,-.8,0,-1.3c-.3,-.5,-1.1,-.7,-1.6,-.3c-.5,.4,-.5,.9,-.6,1.6c-.1,.4,-.2,.8,-.3,1.2l-.2,1.1c-.1,.1,0,.1,-.1,.1c-.1,0,-2,0,-2.3,0c-.4,0,-.7,0,-1,.2c-.9,.6,-.5,2,.5,2c.4,.1,2,0,2.4,0l-.4,1.9c-.7,0,-1.5,0,-2.2,0c-.4,0,-.6,.1,-.8,.3c-.3,.2,-.3,.5,-.4,.7Z" class="g8_39" />
<path fill-rule="evenodd" d="M540.6,446.7c-2.7,0,-5,-2.2,-5,-5c0,-2.8,2.3,-5,5,-5c2.8,0,5.1,2.2,5.1,5c0,1.1,-.4,2.1,-1,2.9l2.5,2.5c.4,.4,.4,.9,0,1.2c-.3,.4,-.8,.4,-1.2,0l-2.5,-2.5c-.8,.6,-1.8,.9,-2.9,.9Zm0,-1.6c-1.8,0,-3.3,-1.5,-3.3,-3.4c0,-1.9,1.5,-3.4,3.3,-3.4c1.9,0,3.4,1.5,3.4,3.4c0,1.9,-1.5,3.4,-3.4,3.4Z" class="g8_39" />
<path d="M533.4,433.2H716.5c1.7,0,3.1,1.4,3.1,3.1v12.3c0,1.7,-1.4,3.1,-3.1,3.1H533.4c-1.7,0,-3.1,-1.4,-3.1,-3.1V436.3c0,-1.7,1.4,-3.1,3.1,-3.1Z" class="g22_39" />
<path fill-rule="evenodd" d="M662.5,812.2c0,.3,.1,.3,.7,.5l2.1,.6c-.2,.5,-.3,.5,-.5,1.1c-.1,.4,-.3,1.1,-.3,1.5c-.3,.2,-.5,.4,-.5,.8c0,.3,.1,.4,.2,.6c0,.1,.2,.3,.3,.3l-.1,.9c-.1,.8,-.2,1.7,-.4,2.4c0,.2,.2,.4,.3,.4h1.5c.4,0,.2,-.5,.2,-.7c0,-.1,0,-.3,0,-.4c-.1,-.4,-.4,-2.5,-.4,-2.6c.3,-.2,.5,-.5,.5,-.9c0,-.4,-.2,-.6,-.5,-.8c0,-.2,0,-.5,.1,-1c.1,-.4,.3,-.9,.6,-1.2c0,0,.1,0,.1,0c0,0,.8,.2,.9,.2c.7,.3,1.4,.5,2.1,.7c.1,0,.2,.1,.2,.1c.4,.1,1.7,.6,2,.6c.1,0,.2,-.1,.2,-.1l3.2,-1c.1,-.1,.3,-.1,.5,-.2l2.3,-.7c.2,0,.4,-.1,.6,-.2l1.9,-.6c.2,0,.2,-.1,.2,-.2v-.1c0,-.1,-.1,-.2,-.1,-.2l-3.7,-1.1c-.8,-.3,-1.5,-.5,-2.3,-.8l-2.2,-.7c-.7,-.2,-.6,-.2,-1.3,0l-2.2,.7c-.2,.1,-.4,.2,-.6,.2l-5.1,1.6c-.2,.1,-.5,.1,-.5,.3Z" class="g8_39" />
<path fill-rule="evenodd" d="M666.5,817.4c0,.4,.4,.7,.7,.9c.3,.2,.6,.3,.9,.4c.1,.1,.2,.1,.3,.1c1.8,.6,4.5,.6,6.4,0c.3,-.1,.6,-.2,.8,-.4c.4,-.2,.8,-.4,.9,-.9c.1,-.1,0,-.3,0,-.5c0,-.1,0,-.2,0,-.3l-.1,-1.9c-.1,0,-.2,0,-.3,.1l-3.3,1c-.2,.1,-.4,.1,-.6,.2c-.6,.2,-.7,.2,-1.3,0l-1.2,-.4c-.2,0,-.4,-.1,-.6,-.2l-2.4,-.7Z" class="g8_39" />
<path d="M612.8,857.8h82.3v30.5H612.8Zm0,15.2H575.5V822" class="g17_39" />
<path fill-rule="evenodd" d="M633.6,873.7c0,-.2,.4,-2.4,.5,-2.6h4.2l-.6,2.6Zm-8.2,1.4c0,.5,.1,1,.5,1.3c.2,.2,.5,.5,.9,.5c.9,.1,2,0,2.8,0c0,.5,-.5,2.5,-.6,3.1c-.1,.5,-.1,1,.2,1.5c.4,.6,.7,.5,1.1,.7c.7,0,1.2,-.2,1.6,-.8c.2,-.3,.3,-1,.4,-1.4c0,-.4,.5,-2.9,.6,-3.1h4.2c-.1,.5,-.2,1,-.3,1.5c-.2,.5,-.3,1,-.4,1.5c-.1,.8,-.1,1.5,.6,2c.3,.2,.4,.2,.7,.3c.4,0,.8,0,1.1,-.3c.7,-.4,.7,-1.1,.9,-1.9c0,-.1,.6,-3.1,.6,-3.1c.1,-.1,3.2,0,3.5,0c.6,0,1.1,0,1.6,-.3c1.3,-.8,.8,-2.9,-.9,-2.9c-1.2,0,-2.4,0,-3.5,0l.5,-2.6c.3,-.1,2.8,-.1,3.3,-.1c.6,0,.9,0,1.3,-.3c.5,-.4,.5,-.7,.6,-1v-.5c-.2,-.4,-.1,-.5,-.5,-.9c-.3,-.3,-.7,-.4,-1.1,-.4c-1,-.1,-2,0,-2.9,0c.1,-1.1,1.1,-4.3,.6,-5.2c-.6,-1.1,-2.3,-1.1,-2.8,.1c-.3,.6,-.8,4.2,-1.1,5.1h-4.2c.1,-.4,.6,-2.8,.7,-3.5c.2,-.6,.3,-1.1,0,-1.7c-.4,-.8,-1.6,-1.1,-2.3,-.5c-.7,.5,-.7,1.3,-.9,2.3c-.1,.5,-.2,1.1,-.4,1.7l-.3,1.6c0,.1,0,0,0,.1c-.2,.1,-2.9,0,-3.4,0c-.6,0,-.9,0,-1.4,.3c-1.3,.9,-.7,2.8,.8,2.9c.5,0,2.7,0,3.3,0l-.5,2.6c-1.1,0,-2.1,0,-3.2,0c-.5,0,-.8,.2,-1.1,.4c-.4,.4,-.5,.8,-.6,1Z" class="g18_39" />
<path d="M448.8,215.2H347.5V331.1M605.3,268.6v62.5" class="g17_39" />
<path d="M656.9,188.8h25.8v2.9H656.9Z" class="g23_39" />
<path d="M656.9,180.2h25.8v2.9H656.9Z" class="g23_39" />
<path d="M656.9,197.4h25.8v2.9H656.9Z" class="g23_39" />
</svg>