<?xml version="1.0" encoding="UTF-8" standalone="no"?>
<!DOCTYPE svg PUBLIC "-//W3C//DTD SVG 1.1//EN"
"http://www.w3.org/Graphics/SVG/1.1/DTD/svg11.dtd">
<svg viewBox="0 0 909 1286" version="1.1" xmlns="http://www.w3.org/2000/svg" xmlns:xlink="http://www.w3.org/1999/xlink">
<defs>
<style type="text/css"><![CDATA[
.g0_1{
fill: #DA89F7;
}
.g1_1{
fill: #DA89F7;
fill-opacity: 0.4;
}
.g2_1{
fill: #FEFEFE;
}
.g3_1{
fill: #FFFFFF;
}
.g4_1{
fill: #FFFFFF;
stroke: #FFFFFF;
stroke-width: 0.15277778;
stroke-linecap: butt;
stroke-linejoin: miter;
stroke-miterlimit: 22;
}
]]></style>
</defs>
<path fill-rule="evenodd" d="M0,0H909.4V1286.2H0Z" class="g0_1" />
<image preserveAspectRatio="none" x="0" y="680" width="908" height="606" xlink:href="img/1.png" />
<path fill-rule="evenodd" d="M0,0H909.4V1286.2H0Z" class="g1_1" />
<path fill-rule="evenodd" d="M135.5,63.7V57.4l5.4,-3.1l5.4,3.1v6.3l-5.4,3.1Z" class="g2_1" />
<path fill-rule="evenodd" d="M152.8,52.5V44.9l6.6,-3.8l6.4,3.8v7.5l-6.4,3.7Z" class="g2_1" />
<path fill-rule="evenodd" d="M142,53.6v-5l4.4,-2.5l4.2,2.5v5l-4.2,2.5Z" class="g2_1" />
<path fill-rule="evenodd" d="M146.3,71.3V67.4l3.3,-1.9l3.2,1.9v3.8l-3.2,1.9Z" class="g2_1" />
<path fill-rule="evenodd" d="M153.9,73.2V66.8l5.5,-3.1l5.3,3.1v6.3l-5.3,3.1Z" class="g2_1" />
<path fill-rule="evenodd" d="M159.4,62.4v-5l4.3,-2.5l4.2,2.5l-.1,4.9l-4.2,2.5Z" class="g2_1" />
<path fill-rule="evenodd" d="M200,53.1h7.5V49.6h-12V69.3H200V61.4h6.9V57.8H200Z" class="g2_1" />
<path fill-rule="evenodd" d="M222.1,61.5h3.1v4.2c-2.2,.5,-4.3,.2,-6,-.8c-6,-4.4,-.4,-15.7,8.6,-10.9l1.1,-3.6c-7.5,-2.8,-17,0,-16.8,9c.1,4.9,2.2,8,6.3,9.5c3.8,.9,7.5,.8,11,-.4V58.1h-7.3Z" class="g2_1" />
<path fill-rule="evenodd" d="M184.4,49.6h4.5V62.9c-.7,4,-3,6.2,-6.9,6.7c-1.2,.2,-2.4,.1,-3.7,-.2c-3.4,-1.2,-5.2,-3.4,-5.5,-6.5V49.6h4.5V62.9c.5,2.2,1.6,3.2,3.5,3.2c1.9,.1,3.1,-1,3.6,-3.2Z" class="g2_1" />
<path fill-rule="evenodd" d="M524.3,42.3h-9.4v16c2.4,0,4.8,0,7.1,0c2,0,1.8,.3,2.9,-.8c.9,-1,1.1,-.6,1.1,-2.6l-.1,-10.7c-.1,-.7,-1.2,-1.4,-1.6,-1.9Zm-8.5,15c.7,.1,7.6,.2,8.1,0c.5,-.3,1.1,-1,1.1,-1.7V44.9c0,-.5,-.8,-1.3,-1.1,-1.5c-.6,-.4,-7.4,-.2,-8.1,-.1Z" class="g2_1" />
<path fill-rule="evenodd" d="M514.9,76.8h9.4c.4,-.7,.9,-.9,1.4,-1.5c.4,-.5,.3,-1.7,.3,-2.5c0,-3.3,0,-1.9,-1.7,-3.9c1.6,-2.1,1.7,-.8,1.7,-3.5c-.1,-3.4,.3,-2.4,-1.2,-4c-.8,-.7,-.8,-.6,-2.2,-.5h-7.7Zm.9,-.9c2.1,0,4.2,0,6.2,0c1.8,.1,1.5,.3,2.5,-.7c.8,-.8,.5,-1.1,.5,-2.6c.1,-1.6,.2,-1.4,-.7,-2.3c-.8,-.7,-.6,-1,-2.1,-.9c-2.1,0,-4.2,0,-6.3,0Zm0,-7.5c1.9,0,3.9,0,5.8,0c1.3,0,1.5,.2,2.3,-.5c1.4,-1.6,1.1,-.8,1.1,-4.4c0,-.7,-1,-1.7,-1.7,-1.7h-7.5Z" class="g2_1" />
<path fill-rule="evenodd" d="M481.2,58.3h.9V44.1l6.9,6.8c1.3,-.7,5.4,-5.4,7.1,-6.8V58.3h.8c.3,-.9,.1,-14,.1,-16h-.7c-.5,.8,-2.8,2.8,-3.6,3.7c-.6,.6,-1.2,1.1,-1.8,1.7c-.6,.7,-1,1.2,-1.7,1.8c-.4,-.3,-6.9,-6.7,-7.2,-7.2h-.8Z" class="g2_1" />
<path fill-rule="evenodd" d="M567.7,76.8h9.4V68.4h-4.3l-.1,.9l3.4,.1c.1,.9,.1,4.1,0,4.9c-.1,.6,-.7,1.2,-1.1,1.4c-.6,.4,-4,.2,-5,.2c-.9,0,-3.1,.3,-3.1,-1.9V63.8c0,-2.2,2.2,-2,3.1,-2c.9,0,4.4,-.2,5,.2c.5,.3,.7,.9,1.4,1.3l.7,-.5v-.2c-.6,-.5,-1.3,-1.6,-2.1,-1.7c-.4,-.1,-6.8,-.2,-7.3,.1c-.6,.4,-1.7,1.5,-1.7,2.2V74.6c.1,.9,1.3,1.5,1.7,2.2Z" class="g2_1" />
<path fill-rule="evenodd" d="M511.5,42.3H500.9v16h10.6c0,-1,.5,-.9,-1.8,-.9c-1.5,0,-7.1,.1,-7.9,-.1V50.8c.9,-.3,5.8,-.1,7.1,-.1v-.9h-7l-.1,-6.6h9.7Z" class="g2_1" />
<path fill-rule="evenodd" d="M541.9,76.8h7.7c.3,-.4,.7,-.7,1.1,-1.1q.6,-.6,.6,-1.7V60.9h-1V73.2c0,1.4,.2,1.3,-.5,2c-1.1,1.1,-1.4,.7,-4.2,.7c-2.6,0,-3.1,.4,-4.2,-.8c-.6,-.8,-.3,-3.3,-.3,-4.5c0,-3.3,0,-6.5,0,-9.7h-.9c0,3,0,5.9,0,8.9c0,8.3,0,4.1,1.7,7Z" class="g2_1" />
<path fill-rule="evenodd" d="M546.7,42.3h-.8l-8,15.9l1.2,.1L546.2,44c.2,.2,.1,0,.3,.3c.1,.1,.2,.3,.3,.4l3.2,6.6c.6,1.3,1.3,2.5,1.9,3.8c.3,.6,.6,1.2,.9,1.9c.8,1.6,.5,1.3,1.7,1.3c-.7,-2.3,-7.2,-14,-7.8,-16Z" class="g2_1" />
<path fill-rule="evenodd" d="M496.8,76.8h1.1c.4,-1.1,1.2,-2.5,1.8,-3.7L504.9,63q0,-.1,0,-.2l.3,-.2l7,14.2h1.1c-1,-2.5,-2.7,-5.6,-4,-8.1l-3.7,-7.5c-.8,-1.1,-1.2,.4,-1.7,1.4Z" class="g2_1" />
<path fill-rule="evenodd" d="M553.6,76.8h.9l.1,-7.4l7.2,-.1v-.9h-7.3l.1,-6.6h9.6v-.9H553.6Z" class="g2_1" />
<path fill-rule="evenodd" d="M481.2,76.8h12.6l-.1,-.9H482h.2v-15h.1h-1.1Z" class="g2_1" />
<path fill-rule="evenodd" d="M535,42.3h-5.6v.9h2.4V57.4h-2.3l-.1,.9H535v-.9h-2.3V43.3l2.3,-.1Z" class="g2_1" />
<path fill-rule="evenodd" d="M528.7,76.8h1.1l7.9,-15.9c-1.1,0,-1,-.2,-1.5,.9c-1.9,3.9,-6.4,12.4,-7.5,15Z" class="g2_1" />
<path fill-rule="evenodd" d="M697.8,60.3c-1.1,.5,-2,.5,-3.3,.1V73.3c.6,.3,.9,.3,1.8,.3c1,0,1.2,0,1.9,-.2c.4,-1.7,0,-8.1,.2,-8.9c0,-.5,1.3,-1.6,1.7,-1.9c1.4,-.8,2.8,.1,2.9,2c.2,2.4,.2,4.7,.2,7.1c-.1,1.9,-.3,1.9,1.7,1.9c.5,0,1.3,.1,1.7,-.1c.4,-.3,.2,-.9,.2,-1.5V64.7c.1,-.5,.4,-.8,.7,-1.1c1,-1,2.4,-2,3.6,-.6c.6,.8,.5,1.8,.5,3.1c0,1.8,-.2,5.9,.2,7.3c1.1,.3,2.6,.5,3.6,-.1c0,-2.1,0,-4.3,0,-6.4c0,-2.7,.3,-6,-2.3,-7.4c-.5,-.3,-1.8,-.6,-2.7,-.5c-2.7,.3,-3.5,2,-4.2,2.2C705.8,59.8,703.7,58.9,702,59c-2.4,.1,-3.5,1.7,-4.2,2.2Z" class="g2_1" />
<path fill-rule="evenodd" d="M732.1,62.2c1.3,0,3,1.9,3,2.3v3.9c0,.1,-1.2,2.2,-3.2,2.2c-3.3,0,-3.3,-8.4,.2,-8.4Zm3,-8.8v7.3c-.9,-.6,-1.6,-1.7,-3.8,-1.7c-6.5,0,-6.6,9.4,-4.5,12.7c1.6,2.4,4.9,2.7,7.1,1.4c.4,-.2,.6,-.4,.9,-.6c.4,-.3,.5,-.5,.9,-.8c0,2,-.4,1.9,2.2,1.9c.8,0,1,-.2,1,-1V54c0,-1.4,-3.1,-1,-3.8,-.6Z" class="g2_1" />
<path fill-rule="evenodd" d="M754.7,71.2c-2.4,0,-3.2,-3.7,1.2,-3.7h1.4c0,2.2,.3,2.1,-1,3.1c-.4,.3,-1,.6,-1.6,.6Zm-5,-9.9c0,3.1,1.1,1.7,2.8,1.1c1.7,-.6,4.8,-1,4.8,1.5V65c-2,0,-4,.1,-5.6,.7c-1.3,.5,-2.6,1.8,-2.6,3.2v1.2c0,2.2,2,3.8,4.2,3.8c1.2,0,2,0,3.1,-.6c.6,-.3,1,-.6,1.5,-1c0,1.5,.1,1.3,2.2,1.3c.4,0,.7,-.1,.9,-.2c.3,-1.1,.1,-7.2,.1,-8.8c0,-1.8,-.3,-3.5,-1.3,-4.3c-2.9,-2.4,-10.1,-1.1,-10.1,1Z" class="g2_1" />
<path fill-rule="evenodd" d="M694.3,57.2c.7,-.3,1,-.5,2,-.4c.4,0,.8,0,1.1,.1c.6,.2,.4,.3,.7,.6c0,-2.1,0,-4.2,0,-6.3c0,-3,.2,-5.9,-2.4,-7.3c-1.5,-.8,-3.8,-.6,-5.2,.3c-.3,.2,-.6,.4,-.9,.6c-.3,.3,-.5,.6,-.9,.8c0,-2,.5,-1.9,-2.1,-1.9c-.7,0,-.7,.1,-1.1,.3V55.9c0,1,-.2,1.8,.6,2c.3,.1,.6,.1,1,.1c2.7,0,2.2,.3,2.2,-3.6c0,-1.3,0,-2.5,0,-3.8c0,-2.2,-.2,-1.7,1,-2.9c1.8,-1.8,3.9,-1.1,4,1.7c.1,2.5,0,5.3,0,7.8Z" class="g2_1" />
<path fill-rule="evenodd" d="M763.9,63.3c0,4.9,6.4,4,6.4,6.3c0,2,-3.4,1.6,-5,.7c-1.7,-1,-1.4,.3,-1.4,1.8c0,2.4,10.1,3.2,10.1,-2.5c0,-4.8,-4.6,-4.1,-6.2,-5.8c-.7,-.9,.1,-2,1.3,-2c1,0,1.4,-.1,2.4,.4c.7,.2,.7,.5,1.6,.5c.2,-.8,.1,-1.2,.1,-2.1c0,-2.1,-9.3,-2.9,-9.3,2.7Z" class="g2_1" />
<path fill-rule="evenodd" d="M719,59.8V73.1c0,.7,1.7,.5,2.5,.5c.7,0,1.3,-.1,1.3,-.9c0,-2,.2,-12,-.1,-13.1c-.9,-.5,-1.9,-.3,-2.9,-.3c-.4,.1,-.8,.1,-.8,.5Z" class="g2_1" />
<path fill-rule="evenodd" d="M742.5,59.9V73.1c0,1,3.1,.4,3.7,.3c.2,-1.2,.1,-11.2,.1,-13.3c0,-.3,-.1,-.3,-.1,-.5c-.4,-.2,-1.5,-.4,-2,-.4c-.6,.1,-1.7,.1,-1.7,.7Z" class="g2_1" />
<path fill-rule="evenodd" d="M678.1,44.5V57.2c0,1,1.5,.8,2.7,.8c.4,0,1.1,-.2,1.1,-.6V44.2c0,-.7,-2,-.5,-2.9,-.5c-.5,0,-.9,.2,-.9,.8Z" class="g2_1" />
<path fill-rule="evenodd" d="M719,57.2c0,.6,1.1,.5,1.8,.5c.9,0,1.1,-.2,1.5,-.7l2,-2.4c.3,-.4,.8,-.8,.9,-1.4c-.9,-.4,-1.5,-.4,-2.5,-.4c-.8,0,-1,.2,-1.4,.6c-.3,.4,-.5,.8,-.8,1.3c-.2,.3,-1.5,2.2,-1.5,2.5Z" class="g2_1" />
<path fill-rule="evenodd" d="M742.1,55.5c0,1.6,.8,2,2.3,2c2.3,0,2.1,-1.1,2.1,-2.6c0,-1.8,-3.3,-1.6,-3.9,-.9c-.3,.3,-.5,1,-.5,1.5Z" class="g2_1" />
<path fill-rule="evenodd" d="M677.9,40.4c0,.9,.4,1.5,2.1,1.5c.6,0,1.3,-.1,1.7,-.4c.5,-.4,1.6,-3.6,-1.6,-3.6c-1.1,0,-2.2,.1,-2.2,1.5Z" class="g2_1" />
<path fill-rule="evenodd" d="M694.3,57.2c-.3,.4,-.5,.9,-.4,1.7c0,.7,.1,1.3,.6,1.5c1.3,.4,2.2,.4,3.3,-.1c.6,-.6,.5,-1.8,.3,-2.8c-.3,-.3,-.1,-.4,-.7,-.6c-.3,-.1,-.7,-.1,-1.1,-.1c-1,-.1,-1.3,.1,-2,.4Z" class="g2_1" />
<path fill-rule="evenodd" d="M338.6,49.6h3.8V70h-3.8Z" class="g2_1" />
<path fill-rule="evenodd" d="M371.9,49.6h3.8c3.9,0,9,-.6,9.6,5.5c.2,2.3,-1,4,-3.4,5.3c3,1.6,3.2,6.2,4.3,9.5h-3.9c-.8,-4.9,-2.1,-7.7,-4.1,-8.3h-2.5V70h-3.8Zm3.8,2.9v6.3h3.1c2,-.4,3.1,-1.5,3.1,-3.5c-.2,-1.7,-1.1,-2.6,-2.7,-2.8Z" class="g2_1" />
<path fill-rule="evenodd" d="M331.9,53.2l.9,-3c-7.9,-2.4,-15.7,.6,-15.8,9.6c.2,9.3,7.3,12.5,15.5,9.3l-.7,-2.6c-6.1,2,-10.6,-.2,-11.1,-6.8c0,-6.4,5.6,-8.8,11.2,-6.5Z" class="g2_1" />
<path fill-rule="evenodd" d="M354.3,49.6h5.4L365.4,70H362l-1.7,-5.7h-6.6L352,70h-3.4Zm5.2,11.8l-2.5,-9l-2.5,9Z" class="g2_1" />
<path fill-rule="evenodd" d="M550.4,491.5C501.7,476.3,514.8,361.7,598.6,413.4c20.1,12.4,10.5,24.8,56.1,15.9c50.6,-10,21.4,114.7,-56.8,77.5c-31.1,-14.7,-35.9,-5.1,-78,8.7c-.1,.1,-.9,.1,-1,.2Zm41.8,-12.7v6.4c0,2,.2,3.6,.6,4.7c.4,1.1,1,2,1.7,2.7c1,.9,2.5,1.7,4.2,2.2c1.8,.5,3.9,.8,6.4,.8c3.5,0,6.2,-.5,8.1,-1.6c1.8,-1,3.1,-2.2,3.7,-3.7c.5,-1.1,.7,-2.8,.7,-5.2v-6.3Zm-5.3,-5h36V485c0,2.6,-.2,4.5,-.5,5.8c-.5,1.9,-1.4,3.5,-2.6,4.8c-1.6,1.7,-3.7,3,-6.2,3.8c-2.5,.9,-5.3,1.3,-8.5,1.3c-2.7,0,-5.2,-.3,-7.3,-.8c-2.1,-.6,-3.8,-1.4,-5.2,-2.3c-1.4,-.9,-2.5,-1.9,-3.3,-2.9c-.8,-1.1,-1.4,-2.4,-1.8,-3.9c-.4,-1.5,-.6,-3.3,-.6,-5.2ZM613,463.5h20.2V438.1h-4.5V459H617.5V438.2H613V459Zm-41.3,-6.3h24.4v6.3H565.4V424.8h30.7v6.4H571.7v9.5h24.4V447H571.7Z" class="g3_1" />
<path d="M204.5,514.9h-6.2V458.4h6.2Zm20.1,0h-6V458.4h6.2l29.7,45.9h.2V458.4h6v56.5h-6.2L224.7,469h-.1ZM286.2,464H268.7v-5.6h41.1V464H292.3Zm117.3,11.2h-6c-.5,-4,-2.1,-7.1,-4.8,-9.2c-2.6,-2.1,-5.9,-3.2,-9.7,-3.2c-2.3,0,-4.3,.4,-6.2,1.1c-1.9,.8,-3.6,2,-5.1,3.5c-1.4,1.6,-2.6,3.6,-3.4,6.2c-.8,2.5,-1.3,5.5,-1.3,8.8v8.1c0,6.3,1.4,11.2,4.1,14.7c2.7,3.5,6.6,5.3,11.8,5.3c4.3,0,7.9,-1.2,10.7,-3.6c2.8,-2.5,4.2,-5.6,4.2,-9.4v-6.1H382.4v-5.6h21.4v11.7c0,1.6,-.3,3.2,-.7,4.8c-.4,1.7,-1.2,3.3,-2.2,5c-1.1,1.7,-2.4,3.1,-3.9,4.4c-1.6,1.3,-3.6,2.3,-6,3.1c-2.4,.9,-5.1,1.3,-8.1,1.3c-7.1,0,-12.6,-2.3,-16.4,-6.8c-3.7,-4.5,-5.6,-10.8,-5.6,-18.8v-8.1c0,-7.9,2,-14.1,6,-18.5c4,-4.5,9.5,-6.7,16.2,-6.7c3.2,0,6,.5,8.5,1.4c2.6,1,4.7,2.3,6.3,4c1.7,1.7,3,3.6,4,5.7c.9,2.2,1.5,4.5,1.6,6.9Zm18.3,11.1l-.1,5.7l.1,22.9h-6.2V458.4h19.9c2.9,0,5.6,.5,7.9,1.3c2.3,.9,4.2,2.2,5.6,3.7c1.4,1.6,2.4,3.3,3.2,5.3c.7,1.9,1,4,1,6.3c0,2.2,-.3,4.2,-.9,6c-.6,1.8,-1.4,3.4,-2.5,4.6c-1,1.2,-2.1,2.3,-3.3,3.1c-1.3,.8,-2.6,1.4,-4,1.9l11.7,24.3h-7.1L434.8,486.3c4.1,0,6.8,-1,8.9,-2.9c2.1,-1.9,3.2,-4.6,3.2,-8c0,-3.7,-1.1,-6.5,-3.3,-8.5C441.5,465,438.5,464,434.7,464H421.8Zm52,5.9l-1.8,5.1l-6,17.6h-6.3l20.2,-56.5H486l20.3,56.5h-6.7l-6,-17.6l-1.7,-5.1m0,0l-9,-26.2h-.1l-9,26.2m40.7,19.1c0,-1.2,.4,-2.2,1.3,-3.1c.8,-.8,1.9,-1.2,3.1,-1.2c1.2,0,2.2,.4,3,1.2c.9,.9,1.3,1.9,1.3,3.1c0,1.2,-.4,2.2,-1.3,3.1c-.8,.8,-1.8,1.3,-3,1.3c-1.2,0,-2.3,-.5,-3.1,-1.3c-.9,-.9,-1.3,-1.9,-1.3,-3.1Z" class="g4_1" />
<path fill-rule="evenodd" d="M317.9,458.4h33.3V464H323.5v45.2h27.7v5.7H317.9c0,-18.9,0,-37.7,0,-56.5Z" class="g4_1" />
<path fill-rule="evenodd" d="M349.7,488.8H330.9v-5.6h18.8Z" class="g4_1" />
<path fill-rule="evenodd" d="M397.8,491.4H382.4v-5.5h15.4Z" class="g4_1" />
<path fill-rule="evenodd" d="M291.8,514.9V471.4h-5.6v43.5Z" class="g4_1" />
<path fill-rule="evenodd" d="M550.4,491.5C501.7,476.3,514.8,361.7,598.6,413.4c20.1,12.4,10.5,24.8,56.1,15.9c50.6,-10,21.4,114.7,-56.8,77.5c-31.1,-14.7,-35.9,-5.1,-78,8.7c-.1,.1,-.9,.1,-1,.2Zm41.8,-12.7v6.4c0,2,.2,3.6,.6,4.7c.4,1.1,1,2,1.7,2.7c1,.9,2.5,1.7,4.2,2.2c1.8,.5,3.9,.8,6.4,.8c3.5,0,6.2,-.5,8.1,-1.6c1.8,-1,3.1,-2.2,3.7,-3.7c.5,-1.1,.7,-2.8,.7,-5.2v-6.3Zm-5.3,-5h36V485c0,2.6,-.2,4.5,-.5,5.8c-.5,1.9,-1.4,3.5,-2.6,4.8c-1.6,1.7,-3.7,3,-6.2,3.8c-2.5,.9,-5.3,1.3,-8.5,1.3c-2.7,0,-5.2,-.3,-7.3,-.8c-2.1,-.6,-3.8,-1.4,-5.2,-2.3c-1.4,-.9,-2.5,-1.9,-3.3,-2.9c-.8,-1.1,-1.4,-2.4,-1.8,-3.9c-.4,-1.5,-.6,-3.3,-.6,-5.2ZM613,463.5h20.2V438.1h-4.5V459H617.5V438.2H613V459Zm-41.3,-6.3h24.4v6.3H565.4V424.8h30.7v6.4H571.7v9.5h24.4V447H571.7Z" class="g3_1" />
<path d="M204.5,514.9h-6.2V458.4h6.2Zm20.1,0h-6V458.4h6.2l29.7,45.9h.2V458.4h6v56.5h-6.2L224.7,469h-.1ZM286.2,464H268.7v-5.6h41.1V464H292.3Zm117.3,11.2h-6c-.5,-4,-2.1,-7.1,-4.8,-9.2c-2.6,-2.1,-5.9,-3.2,-9.7,-3.2c-2.3,0,-4.3,.4,-6.2,1.1c-1.9,.8,-3.6,2,-5.1,3.5c-1.4,1.6,-2.6,3.6,-3.4,6.2c-.8,2.5,-1.3,5.5,-1.3,8.8v8.1c0,6.3,1.4,11.2,4.1,14.7c2.7,3.5,6.6,5.3,11.8,5.3c4.3,0,7.9,-1.2,10.7,-3.6c2.8,-2.5,4.2,-5.6,4.2,-9.4v-6.1H382.4v-5.6h21.4v11.7c0,1.6,-.3,3.2,-.7,4.8c-.4,1.7,-1.2,3.3,-2.2,5c-1.1,1.7,-2.4,3.1,-3.9,4.4c-1.6,1.3,-3.6,2.3,-6,3.1c-2.4,.9,-5.1,1.3,-8.1,1.3c-7.1,0,-12.6,-2.3,-16.4,-6.8c-3.7,-4.5,-5.6,-10.8,-5.6,-18.8v-8.1c0,-7.9,2,-14.1,6,-18.5c4,-4.5,9.5,-6.7,16.2,-6.7c3.2,0,6,.5,8.5,1.4c2.6,1,4.7,2.3,6.3,4c1.7,1.7,3,3.6,4,5.7c.9,2.2,1.5,4.5,1.6,6.9Zm18.3,11.1l-.1,5.7l.1,22.9h-6.2V458.4h19.9c2.9,0,5.6,.5,7.9,1.3c2.3,.9,4.2,2.2,5.6,3.7c1.4,1.6,2.4,3.3,3.2,5.3c.7,1.9,1,4,1,6.3c0,2.2,-.3,4.2,-.9,6c-.6,1.8,-1.4,3.4,-2.5,4.6c-1,1.2,-2.1,2.3,-3.3,3.1c-1.3,.8,-2.6,1.4,-4,1.9l11.7,24.3h-7.1L434.8,486.3c4.1,0,6.8,-1,8.9,-2.9c2.1,-1.9,3.2,-4.6,3.2,-8c0,-3.7,-1.1,-6.5,-3.3,-8.5C441.5,465,438.5,464,434.7,464H421.8Zm52,5.9l-1.8,5.1l-6,17.6h-6.3l20.2,-56.5H486l20.3,56.5h-6.7l-6,-17.6l-1.7,-5.1m0,0l-9,-26.2h-.1l-9,26.2m40.7,19.1c0,-1.2,.4,-2.2,1.3,-3.1c.8,-.8,1.9,-1.2,3.1,-1.2c1.2,0,2.2,.4,3,1.2c.9,.9,1.3,1.9,1.3,3.1c0,1.2,-.4,2.2,-1.3,3.1c-.8,.8,-1.8,1.3,-3,1.3c-1.2,0,-2.3,-.5,-3.1,-1.3c-.9,-.9,-1.3,-1.9,-1.3,-3.1Z" class="g4_1" />
<path fill-rule="evenodd" d="M317.9,458.4h33.3V464H323.5v45.2h27.7v5.7H317.9c0,-18.9,0,-37.7,0,-56.5Z" class="g4_1" />
<path fill-rule="evenodd" d="M349.7,488.8H330.9v-5.6h18.8Z" class="g4_1" />
<path fill-rule="evenodd" d="M397.8,491.4H382.4v-5.5h15.4Z" class="g4_1" />
<path fill-rule="evenodd" d="M291.8,514.9V471.4h-5.6v43.5Z" class="g4_1" />
</svg>