<?xml version="1.0" encoding="UTF-8" standalone="no"?>
<!DOCTYPE svg PUBLIC "-//W3C//DTD SVG 1.1//EN"
"http://www.w3.org/Graphics/SVG/1.1/DTD/svg11.dtd">
<svg viewBox="0 0 909 1286" version="1.1" xmlns="http://www.w3.org/2000/svg" xmlns:xlink="http://www.w3.org/1999/xlink">
<defs>
<style type="text/css"><![CDATA[
.g0_27{
fill: #FFFFFF;
}
.g1_27{
fill: #FFFFFF;
fill-opacity: 0.5;
}
.g2_27{
fill: none;
stroke: #FFFFFF;
stroke-width: 3.2480555;
stroke-linecap: butt;
stroke-linejoin: miter;
stroke-miterlimit: 22;
}
.g3_27{
fill: #62D9D7;
}
.g4_27{
fill: #0ABBB5;
}
.g5_27{
fill: #FFF77D;
}
.g6_27{
fill: #FFBF00;
}
.g7_27{
fill: #DA89F7;
}
.g8_27{
fill: #B539E9;
}
]]></style>
</defs>
<image preserveAspectRatio="none" x="0" y="0" width="909" height="1286" xlink:href="img/1.png" />
<path fill-rule="evenodd" d="M63.7,140.6C21.2,127.3,32.7,27.1,105.9,72.3C123.5,83.1,115.1,94,155,86.2c44.2,-8.7,18.7,100.3,-49.7,67.8C78.1,141.1,73.9,149.5,37.1,161.6c-.1,0,-.8,.1,-.9,.1Z" class="g0_27" />
<path fill-rule="evenodd" d="M265,508.7v777.5H104.6V508.7Z" class="g1_27" />
<path d="M104.6,72.3V0m0,1286.2V141.4" class="g2_27" />
<path fill-rule="evenodd" d="M537.2,252.3c0,1.1,.3,.9,2.2,1.5l7.8,2.5c-.9,1.6,-1.2,1.7,-1.9,4.1c-.4,1.4,-.8,3.6,-.8,5.2c-1.2,.7,-1.9,1.6,-1.9,3.1c0,.9,.2,1.4,.5,1.9c.1,.3,.8,1.1,1.2,1.2l-.5,3.5c-.4,2.8,-.7,5.9,-1.2,8.7c-.1,.7,.4,1.1,.8,1.1h5.7c1.2,0,.8,-1.7,.7,-2.3c-.1,-.5,-.2,-1,-.2,-1.6c-.2,-1.3,-1.3,-8.8,-1.3,-9.4c1.1,-.7,1.6,-1.6,1.6,-3.1c0,-1.4,-.6,-2.4,-1.8,-3c.2,-.6,.2,-1.9,.6,-3.8c.4,-1.4,1.1,-3.1,2.1,-4.1c0,-.1,.2,-.2,.3,-.2c.2,-.1,3,.8,3.4,1c2.5,.8,5.1,1.5,7.6,2.4c.3,.1,.6,.2,.9,.2c1.2,.4,6.1,2.1,6.9,2.1c.5,0,.8,-.1,1.1,-.2l11.3,-3.6c.7,-.2,1.4,-.4,2.1,-.6l8.2,-2.6c.7,-.2,1.4,-.5,2.1,-.7l7.2,-2.2c.6,-.2,.6,-.5,.7,-.9v-.2c0,-.5,-.3,-.7,-.6,-.8l-13.4,-4.2c-2.7,-.8,-5.5,-1.8,-8.2,-2.6l-8.3,-2.6c-2.4,-.8,-2,-.8,-4.4,0l-8.2,2.6c-.7,.2,-1.4,.4,-2.1,.7l-18.5,5.8c-.7,.2,-1.7,.3,-1.7,1.1Z" class="g0_27" />
<path fill-rule="evenodd" d="M551.7,271c0,1.5,1.5,2.7,2.6,3.4c.9,.7,1.9,1.1,3,1.5c.3,.1,.7,.2,1.1,.4c6.7,2.2,16.5,2.1,23.5,-.2c.9,-.3,2.1,-.8,2.9,-1.3c1.4,-.8,2.7,-1.7,3.1,-3.2c.2,-.6,.1,-1.2,.1,-1.9c0,-.4,-.1,-.6,-.1,-1l-.4,-7.1c-.3,.1,-.7,.2,-1,.3l-12,3.8c-.8,.3,-1.5,.4,-2.2,.7c-2.3,.8,-2.6,.7,-4.8,0L563.2,265c-.8,-.2,-1.5,-.4,-2.2,-.7l-8.8,-2.7Z" class="g0_27" />
<path fill-rule="evenodd" d="M363.4,259.7c-1,.8,-2.8,2.1,-4,2.7c-3.3,1.5,-7.6,1.5,-10.9,0c-1.2,-.6,-2.9,-1.9,-3.9,-2.7c-5.2,2.6,-9,7.8,-10.3,13.5c-.5,2.1,-.7,3.4,1.9,3.4h35.7c2.6,0,2.3,-1.4,1.8,-3.4c-1.3,-5.7,-5.2,-10.9,-10.3,-13.5ZM354,239.3c6.1,0,11,4.9,11,10.9c0,6.1,-4.9,10.9,-11,10.9c-6.1,0,-11,-4.8,-11,-10.9c0,-6,4.9,-10.9,11,-10.9Z" class="g0_27" />
<path fill-rule="evenodd" d="M383.3,263.8c-.7,.6,-2.1,1.6,-3,2c-2.4,1.1,-5.4,1.2,-7.8,.2c1.5,2.1,2.6,4.6,3.2,7.2c.4,2,.7,3.4,-1.8,3.4h15.9c1.9,0,1.7,-1,1.4,-2.6c-1,-4.3,-4,-8.3,-7.9,-10.2Zm-7.1,-15.5c4.6,0,8.3,3.7,8.3,8.3c0,4.6,-3.7,8.3,-8.3,8.3c-4.6,0,-8.4,-3.7,-8.4,-8.3c0,-4.6,3.8,-8.3,8.4,-8.3Z" class="g0_27" />
<path fill-rule="evenodd" d="M324.7,263.8c.8,.6,2.2,1.6,3.1,2c2.3,1.1,5.4,1.2,7.8,.2c-1.5,2.1,-2.6,4.6,-3.2,7.2c-.5,2,-.7,3.4,1.8,3.4h-16c-1.9,0,-1.6,-1,-1.3,-2.6c1,-4.3,3.9,-8.3,7.8,-10.2Zm7.2,-15.5c-4.6,0,-8.4,3.7,-8.4,8.3c0,4.6,3.8,8.3,8.4,8.3c4.6,0,8.3,-3.7,8.3,-8.3c0,-4.6,-3.7,-8.3,-8.3,-8.3Z" class="g0_27" />
<path fill-rule="evenodd" d="M63.7,495.8C21.2,482.5,32.7,382.3,105.9,427.5c17.6,10.8,9.2,21.7,49.1,13.9c44.2,-8.7,18.7,100.3,-49.7,67.8C78.1,496.3,73.9,504.7,37.1,516.8c-.1,0,-.8,.1,-.9,.1Z" class="g0_27" />
<path fill-rule="evenodd" d="M184.8,531c30.7,0,55.6,24.9,55.6,55.6c0,30.7,-24.9,55.6,-55.6,55.6c-30.7,0,-55.6,-24.9,-55.6,-55.6c0,-30.7,24.9,-55.6,55.6,-55.6Z" class="g3_27" />
<path fill-rule="evenodd" d="M184.8,656c30.7,0,55.6,24.9,55.6,55.6c0,30.7,-24.9,55.6,-55.6,55.6c-30.7,0,-55.6,-24.9,-55.6,-55.6c0,-30.7,24.9,-55.6,55.6,-55.6Z" class="g4_27" />
<path fill-rule="evenodd" d="M184.8,784.2c30.7,0,55.6,24.9,55.6,55.6c0,30.7,-24.9,55.6,-55.6,55.6c-30.7,0,-55.6,-24.9,-55.6,-55.6c0,-30.7,24.9,-55.6,55.6,-55.6Z" class="g5_27" />
<path fill-rule="evenodd" d="M184.8,909.2c30.7,0,55.6,24.9,55.6,55.6c0,30.7,-24.9,55.6,-55.6,55.6c-30.7,0,-55.6,-24.9,-55.6,-55.6c0,-30.7,24.9,-55.6,55.6,-55.6Z" class="g6_27" />
<path fill-rule="evenodd" d="M184.8,1034.1c30.7,0,55.6,24.9,55.6,55.7c0,30.7,-24.9,55.6,-55.6,55.6c-30.7,0,-55.6,-24.9,-55.6,-55.6c0,-30.8,24.9,-55.7,55.6,-55.7Z" class="g7_27" />
<path fill-rule="evenodd" d="M184.8,1159.1c30.7,0,55.6,24.9,55.6,55.6c0,30.8,-24.9,55.7,-55.6,55.7c-30.7,0,-55.6,-24.9,-55.6,-55.7c0,-30.7,24.9,-55.6,55.6,-55.6Z" class="g8_27" />
</svg>