<?xml version="1.0" encoding="UTF-8" standalone="no"?>
<!DOCTYPE svg PUBLIC "-//W3C//DTD SVG 1.1//EN"
"http://www.w3.org/Graphics/SVG/1.1/DTD/svg11.dtd">
<svg viewBox="0 0 909 1286" version="1.1" xmlns="http://www.w3.org/2000/svg" xmlns:xlink="http://www.w3.org/1999/xlink">
<defs>
<style type="text/css"><![CDATA[
.g0_5{
fill: #FFFFFF;
}
]]></style>
</defs>
<image preserveAspectRatio="none" x="0" y="645" width="909" height="641" xlink:href="img/1.png" />
<image x="0" y="0" width="911" height="1289" xlink:href="shade/1.png" />
<image preserveAspectRatio="none" x="64" y="36" width="372" height="729" xlink:href="img/2.png" />
<image x="509" y="423" width="272" height="271" xlink:href="shade/2.png" />
<path fill-rule="evenodd" d="M588.2,596.7C531.9,579.2,547.1,446.6,644,506.3c23.2,14.4,12.2,28.8,64.9,18.4c58.5,-11.5,24.8,132.8,-65.7,89.7c-36,-17.1,-41.6,-5.9,-90.2,10.1c-.2,.1,-1,.1,-1.2,.2Zm48.4,-14.6v7.4c0,2.3,.2,4.1,.7,5.4c.4,1.3,1.1,2.3,2,3.1c1.2,1.1,2.8,1.9,4.8,2.5c2.1,.6,4.6,.9,7.5,.9c4,0,7.1,-.6,9.3,-1.8c2.1,-1.1,3.6,-2.6,4.3,-4.3c.5,-1.2,.8,-3.2,.8,-6v-7.2Zm-6.1,-5.8h41.6v12.9c0,3,-.2,5.2,-.6,6.7c-.6,2.2,-1.6,4,-3,5.5c-1.9,2,-4.2,3.5,-7.1,4.5c-2.9,1,-6.2,1.5,-9.9,1.5c-3.2,0,-6,-.4,-8.4,-1c-2.4,-.7,-4.5,-1.6,-6.1,-2.6c-1.6,-1,-2.8,-2.2,-3.7,-3.4c-1,-1.3,-1.7,-2.8,-2.1,-4.5c-.5,-1.8,-.7,-3.8,-.7,-6.1Zm30.2,-12H684V534.9h-5.2v24.2H665.9V535h-5.2v24.1ZM612.9,557h28.2v7.3H605.6V519.6h35.5v7.3H612.9v11h28.2v7.4H612.9Z" class="g0_5" />
</svg>