<?xml version="1.0" encoding="UTF-8" standalone="no"?>
<!DOCTYPE svg PUBLIC "-//W3C//DTD SVG 1.1//EN"
"http://www.w3.org/Graphics/SVG/1.1/DTD/svg11.dtd">
<svg viewBox="0 0 909 1286" version="1.1" xmlns="http://www.w3.org/2000/svg" xmlns:xlink="http://www.w3.org/1999/xlink">
<defs>
<clipPath id="c0_47"><path d="M649.9,228.7V149H829.5v79.7Z" /></clipPath>
<style type="text/css"><![CDATA[
.g0_47{
fill: #FFFFFF;
}
.g1_47{
fill: #DA89F7;
stroke: #DA89F7;
stroke-width: 0.33;
stroke-linecap: butt;
stroke-linejoin: miter;
stroke-miterlimit: 22;
}
.g2_47{
fill: #FFFFFF;
stroke: #FFFFFF;
stroke-width: 0.15277778;
stroke-linecap: butt;
stroke-linejoin: miter;
stroke-miterlimit: 22;
}
.g3_47{
fill: #FFFFFF;
fill-opacity: 0.97999996;
}
.g4_47{
fill: #62D9D7;
stroke: #62D9D7;
stroke-width: 0.33;
stroke-linecap: butt;
stroke-linejoin: miter;
stroke-miterlimit: 22;
}
.g5_47{
fill: none;
stroke: #62D9D7;
stroke-width: 0.7634306;
stroke-linecap: butt;
stroke-linejoin: miter;
stroke-miterlimit: 22;
}
.g6_47{
fill: #E6E6E6;
fill-opacity: 0.3;
}
.g7_47{
fill: none;
stroke: #DA89F7;
stroke-width: 2.1653194;
stroke-linecap: butt;
stroke-linejoin: miter;
stroke-miterlimit: 22;
}
.g8_47{
fill: #DA89F7;
}
.g9_47{
fill: #FFFFFF;
fill-opacity: 0.91999996;
}
.g10_47{
fill: none;
stroke: #6ADBD9;
stroke-width: 1.1455278;
stroke-linecap: butt;
stroke-linejoin: miter;
stroke-miterlimit: 22;
}
.g11_47{
fill: #62D9D7;
}
.g12_47{
fill: none;
stroke: #000000;
stroke-width: 2.1653194;
stroke-linecap: butt;
stroke-linejoin: miter;
stroke-miterlimit: 22;
}
.g13_47{
stroke: #000000;
stroke-width: 0.33;
stroke-linecap: butt;
stroke-linejoin: miter;
stroke-miterlimit: 22;
}
]]></style>
</defs>
<image preserveAspectRatio="none" x="-454" y="741" width="464" height="545" xlink:href="img/1.png" />
<image x="0" y="0" width="911" height="1287" xlink:href="shade/1.png" />
<path fill-rule="evenodd" d="M63.7,140.6C21.2,127.3,32.7,27.1,105.9,72.3C123.5,83.1,115.1,94,155,86.2c44.2,-8.7,18.7,100.3,-49.7,67.8C78.1,141.1,73.9,149.5,37.1,161.6c-.1,0,-.8,.1,-.9,.1Z" class="g0_47" />
<image preserveAspectRatio="none" x="251" y="208" width="408" height="897" xlink:href="img/2.png" />
<image x="277" y="347" width="352" height="625" xlink:href="shade/2.png" />
<path fill-rule="evenodd" d="M277.6,401.5H628.2V347.9H277.6Z" class="g1_47" />
<path d="M611.5,381.5l-2.7,-.4c-.2,-.6,-.4,-1.1,-.7,-1.6l1.6,-2.3c.2,-.2,.1,-.5,0,-.6l-1.8,-1.8c-.2,-.2,-.5,-.2,-.6,-.1l-2.3,1.6c-.5,-.2,-1,-.5,-1.6,-.6l-.5,-2.8c0,-.2,-.2,-.4,-.4,-.4h-2.6c-.2,0,-.4,.2,-.5,.4l-.4,2.8c-.6,.1,-1.1,.4,-1.6,.6l-2.3,-1.6c-.2,-.1,-.4,-.1,-.6,.1l-1.8,1.8c-.2,.1,-.2,.4,-.1,.6l1.6,2.3c-.3,.5,-.5,1,-.6,1.6l-2.8,.4c-.2,.1,-.4,.3,-.4,.5v2.6c0,.2,.2,.4,.4,.4l2.8,.5c.1,.6,.3,1.1,.6,1.6l-1.6,2.3c-.1,.2,-.1,.4,.1,.6l1.8,1.8c.1,.1,.4,.2,.6,0l2.3,-1.6c.5,.3,1,.5,1.6,.7l.4,2.7c.1,.3,.3,.4,.5,.4h2.6c.2,0,.4,-.1,.4,-.3l.5,-2.8c.6,-.2,1.1,-.4,1.6,-.7l2.3,1.6c.2,.2,.4,.1,.6,0l1.8,-1.8c.2,-.2,.2,-.5,.1,-.6l-1.7,-2.3c.3,-.5,.5,-1,.7,-1.6l2.8,-.5c.2,0,.3,-.2,.3,-.4V382c0,-.2,-.1,-.4,-.4,-.5Zm-10.3,5.1c-1.8,0,-3.3,-1.5,-3.3,-3.3c0,-1.8,1.5,-3.3,3.3,-3.3c1.8,0,3.3,1.5,3.3,3.3c0,1.8,-1.5,3.3,-3.3,3.3Z" class="g0_47" />
<path d="M296.6,381.9h20.1v2.2H296.6Z" class="g0_47" />
<path d="M296.6,375.2h20.1v2.2H296.6Z" class="g0_47" />
<path d="M296.6,388.6h20.1v2.2H296.6Z" class="g0_47" />
<path fill-rule="evenodd" d="M477.6,385.9c-10.8,-3.3,-7.9,-28.7,10.6,-17.3c4.5,2.8,2.3,5.5,12.4,3.6c11.2,-2.2,4.8,25.3,-12.5,17.1c-6.9,-3.3,-8,-1.1,-17.3,1.9c0,.1,-.2,.1,-.2,.1Zm9.2,-2.8v1.4c0,.5,0,.8,.1,1.1c.1,.2,.2,.4,.4,.6c.2,.2,.6,.3,.9,.5c.4,.1,.9,.1,1.5,.1c.7,0,1.3,-.1,1.7,-.3c.5,-.2,.7,-.5,.9,-.8c.1,-.3,.1,-.7,.1,-1.2v-1.4ZM485.6,382h8v2.5c0,.6,0,1,-.1,1.3c-.1,.4,-.3,.7,-.6,1c-.3,.4,-.8,.7,-1.4,.9c-.5,.2,-1.1,.3,-1.8,.3c-.6,0,-1.2,-.1,-1.7,-.2c-.4,-.2,-.8,-.3,-1.1,-.5c-.3,-.2,-.6,-.4,-.7,-.7c-.2,-.2,-.3,-.5,-.4,-.8c-.1,-.4,-.2,-.8,-.2,-1.2Zm5.8,-2.3h4.5v-5.6h-1v4.6h-2.5v-4.6h-1v4.6Zm-9.1,-1.4h5.4v1.4h-6.8v-8.5h6.8v1.4h-5.4v2.1h5.4v1.4h-5.4Z" class="g0_47" />
<path d="M401.1,391.1h-1.4V378.6h1.4Zm4.4,0h-1.3V378.6h1.4l6.5,10.2h.1V378.6h1.3v12.5h-1.4l-6.6,-10.2Zm13.6,-11.3h-3.8v-1.2h9.1v1.2h-3.9Zm26,2.5h-1.4c-.1,-.9,-.4,-1.5,-1,-2c-.6,-.5,-1.3,-.7,-2.2,-.7c-.5,0,-.9,.1,-1.3,.2c-.5,.2,-.8,.5,-1.2,.8c-.3,.3,-.5,.8,-.7,1.4c-.2,.5,-.3,1.2,-.3,1.9v1.8c0,1.4,.3,2.5,.9,3.3c.6,.7,1.5,1.1,2.6,1.1c1,0,1.8,-.2,2.4,-.8c.6,-.5,.9,-1.2,.9,-2.1v-1.3h-3.4v-1.2h4.7v2.5c0,.4,0,.8,-.1,1.1c-.1,.4,-.3,.7,-.5,1.1c-.2,.4,-.5,.7,-.9,1c-.3,.3,-.8,.5,-1.3,.7c-.5,.2,-1.1,.3,-1.8,.3c-1.6,0,-2.8,-.5,-3.6,-1.5c-.8,-1,-1.2,-2.4,-1.2,-4.2v-1.8c0,-1.7,.4,-3.1,1.3,-4.1c.9,-1,2.1,-1.5,3.6,-1.5c.7,0,1.3,.1,1.8,.4c.6,.2,1.1,.5,1.4,.8c.4,.4,.7,.8,.9,1.3c.2,.5,.3,1,.4,1.5Zm4,2.5v6.3h-1.4V378.6h4.4c.7,0,1.3,.1,1.8,.3c.5,.2,.9,.5,1.2,.8c.3,.4,.6,.7,.7,1.2c.2,.4,.3,.9,.3,1.4c0,.5,-.1,.9,-.2,1.3c-.2,.4,-.3,.7,-.6,1c-.2,.3,-.5,.5,-.7,.7c-.3,.2,-.6,.3,-.9,.4l2.6,5.4h-1.6L452,384.8c.9,0,1.5,-.2,2,-.7c.4,-.4,.7,-1,.7,-1.7c0,-.9,-.3,-1.5,-.8,-1.9c-.4,-.4,-1.1,-.7,-1.9,-.7h-2.9Zm11.5,1.3l-.4,1.1l-1.3,3.9h-1.4L462,378.6h1.3l4.5,12.5h-1.5L465,387.2l-.4,-1.1m0,0l-2,-5.8l-2,5.8m9,4.2c0,-.3,.1,-.5,.3,-.7c.2,-.2,.4,-.3,.7,-.3c.2,0,.5,.1,.7,.3c.2,.2,.2,.4,.2,.7c0,.3,0,.5,-.2,.7c-.2,.2,-.5,.3,-.7,.3c-.3,0,-.5,-.1,-.7,-.3c-.2,-.2,-.3,-.4,-.3,-.7Z" class="g2_47" />
<path fill-rule="evenodd" d="M426.1,378.6h7.4v1.2h-6.1v10h6.1v1.3h-7.4c0,-4.2,0,-8.3,0,-12.5Z" class="g2_47" />
<path fill-rule="evenodd" d="M433.2,385.3H429v-1.2h4.2Z" class="g2_47" />
<path fill-rule="evenodd" d="M443.8,385.9h-3.4v-1.2h3.4Z" class="g2_47" />
<path fill-rule="evenodd" d="M420.4,391.1v-9.6h-1.3v9.6Z" class="g2_47" />
<path fill-rule="evenodd" d="M277.6,971.6H628.2V401.5H277.6Z" class="g3_47" />
<path fill-rule="evenodd" d="M302,418.9c0,.4,.1,.6,.3,.8c2.3,2.3,4.6,4.6,6.9,6.9c.2,.3,.7,.8,1.2,.9h.2c.2,0,.3,-.1,.5,-.3c.4,-.3,.3,-.9,-.1,-1.2c-.7,-.7,-6.8,-6.8,-6.9,-7c.1,-.2,5.9,-5.9,6.4,-6.5c.5,-.5,.8,-.6,.8,-1.2c0,-.4,-.3,-.8,-.9,-.8c-.4,0,-1,.6,-1.2,.9c-2.1,2.1,-4.2,4.2,-6.3,6.3c-.3,.3,-.9,.8,-.9,1.2Z" class="g4_47" />
<path d="M277.6,438.9H628.2" class="g5_47" />
<path fill-rule="evenodd" d="M277.6,438.9H628.2V971.6H277.6Z" class="g6_47" />
<path d="M433.7,523.9h32c1.7,0,3,1.3,3,3v26.7c0,1.6,-1.3,3,-3,3h-32c-1.7,0,-3,-1.4,-3,-3V526.9c0,-1.7,1.3,-3,3,-3ZM414.1,701.1h76.7c1.6,0,3,1.4,3,3.1v26.6c0,1.7,-1.4,3,-3,3H414.1c-1.7,0,-3,-1.3,-3,-3V704.2c0,-1.7,1.3,-3.1,3,-3.1Z" class="g7_47" />
<path fill-rule="evenodd" d="M405.2,868.6h95.5c8.4,0,15.3,6.9,15.3,15.4c0,8.4,-6.9,15.3,-15.3,15.3H405.2c-8.4,0,-15.3,-6.9,-15.3,-15.3c0,-8.5,6.9,-15.4,15.3,-15.4Z" class="g8_47" />
<image x="649" y="148" width="181" height="79" xlink:href="shade/3.png" />
<g clip-path="url(#c0_47)">
<path fill-rule="evenodd" d="M649.9,226.7h183V-269.2h-183Z" class="g9_47" />
</g>
<path d="M649.9,171.6h166" class="g10_47" />
<g clip-path="url(#c0_47)">
<path fill-rule="evenodd" d="M825.4,101.1c2.2,0,3.9,1.8,3.9,3.9V212.7c0,2.2,-1.7,3.9,-3.9,3.9c-2.1,0,-3.9,-1.7,-3.9,-3.9V105c0,-2.1,1.8,-3.9,3.9,-3.9Z" class="g11_47" />
<path fill-rule="evenodd" d="M795.6,149c1.5,.1,3.1,0,4.6,0c0,-.5,-.1,-4.2,0,-4.4c.1,0,2.8,0,2.9,0c.1,.2,.1,3.9,.1,4.4c1.4,0,3,.1,4.5,0c.3,0,.5,-.3,.6,-.6c0,-.2,0,-4.4,0,-5.3q0,-.3,-.1,-.5c-.5,-.3,-.9,-.7,-1.3,-1c-.5,-.4,-.9,-.8,-1.3,-1.1c-.2,-.1,-.2,-.2,-.4,-.3c-.7,-.5,-1.5,-1.3,-2.2,-1.9c-.2,-.1,-1.2,-.9,-1.3,-1c-.2,.1,-.5,.4,-.7,.5c-.2,.2,-.4,.3,-.6,.5c-.5,.4,-.9,.7,-1.3,1.1l-3.9,3.2c-.2,.1,-.1,.1,-.1,.5c0,.8,-.1,5,0,5.3c0,.3,.3,.6,.5,.6Z" class="g11_47" />
<path fill-rule="evenodd" d="M795.6,149c.1,.1,1,0,1.2,0c.5,0,3.2,.1,3.4,0v-4.4h2.9V149c.2,.1,3.5,0,4.3,0c.1,0,.2,0,.3,0c-1.5,.1,-3.1,0,-4.5,0c0,-.5,0,-4.2,-.1,-4.4c-.1,0,-2.8,0,-2.9,0c-.1,.2,0,3.9,0,4.4c-1.5,0,-3.1,.1,-4.6,0Z" class="g11_47" />
</g>
<path fill-rule="evenodd" d="M803.8,192.3c0,-.6,-.2,-.8,.2,-1.1c.3,-.4,4.3,-.5,5,-.5c.9,-.1,2,-.1,1.7,-1.2c-.2,-.8,-1.2,-.6,-2.1,-.5c-4.4,.3,-6.5,.4,-10.9,.1c-.9,0,-1.8,-.1,-2.7,-.1c-.4,-.1,-1.8,-.3,-1.6,.9c.1,.9,1.2,.7,2,.8c5.8,.3,5,-.3,4.8,3.4c-.1,1.8,-.3,3.4,-.7,5c-.2,.8,-.3,1.5,-.6,2.2c-.3,1.1,-.3,1.2,-.8,2c-.4,.9,.6,1.6,1.3,1.1c1.2,-.9,1.8,-4.9,2.1,-6.4c.1,-.2,.1,-.9,.8,-.6c.2,.1,.2,.2,.2,.5l.6,2.9c.3,1.2,1,3.5,1.9,3.7c.4,.2,.8,-.1,1,-.3c.2,-.6,0,-.8,-.2,-1.1c-.8,-1.3,-1.6,-5.4,-1.7,-6.8Z" class="g11_47" />
<path fill-rule="evenodd" d="M801.6,183.8c-1.3,.2,-2.4,1.3,-2.1,2.9c.5,3.2,5.6,2.5,5,-.9c-.2,-1.2,-1.4,-2.3,-2.9,-2Z" class="g11_47" />
<path d="M649.9,149H829.5v79.7H649.9ZM566.7,376.6V191.9h83.2" class="g12_47" />
<path d="M836.6,157.2h25.7V160H836.6Z" class="g13_47" />
<path d="M836.6,148.6h25.7v2.9H836.6Z" class="g13_47" />
<path d="M836.6,165.8h25.7v2.8H836.6Z" class="g13_47" />
</svg>