<?xml version="1.0" encoding="UTF-8" standalone="no"?>
<!DOCTYPE svg PUBLIC "-//W3C//DTD SVG 1.1//EN"
"http://www.w3.org/Graphics/SVG/1.1/DTD/svg11.dtd">
<svg viewBox="0 0 909 1286" version="1.1" xmlns="http://www.w3.org/2000/svg" xmlns:xlink="http://www.w3.org/1999/xlink">
<defs>
<style type="text/css"><![CDATA[
.g0_5{
fill: #0ABBB5;
stroke: #FEFEFE;
stroke-width: 0.7638889;
stroke-linecap: butt;
stroke-linejoin: miter;
stroke-miterlimit: 22;
}
.g1_5{
fill: #62D9D7;
}
.g2_5{
fill: #FFFFFF;
}
.g3_5{
fill: #FFFFFF;
stroke: #FFFFFF;
stroke-width: 0.15277778;
stroke-linecap: butt;
stroke-linejoin: miter;
stroke-miterlimit: 22;
}
.g4_5{
fill: none;
stroke: #FEFEFE;
stroke-width: 6.496111;
stroke-linecap: butt;
stroke-linejoin: miter;
stroke-miterlimit: 22;
}
]]></style>
</defs>
<path fill-rule="evenodd" d="M-909.3,0H0V1286.2H-909.3Z" class="g0_5" />
<path fill-rule="evenodd" d="M0,0H909.4V1286.2H0Z" class="g0_5" />
<path fill-rule="evenodd" d="M376.2,232.5H600.3V466.3H376.2Z" class="g1_5" />
<path fill-rule="evenodd" d="M716.3,144.3C669.3,129.7,682,18.9,762.9,68.8c19.4,12,10.2,24,54.2,15.4c48.8,-9.6,20.7,110.9,-54.9,74.9c-30,-14.3,-34.7,-4.9,-75.3,8.4c-.2,.1,-.9,.1,-1,.1Zm40.4,-12.2v6.2c0,1.9,.2,3.4,.6,4.5c.3,1.1,.9,1.9,1.6,2.6c1,.9,2.4,1.6,4.1,2.1c1.7,.5,3.8,.8,6.2,.8c3.4,0,6,-.5,7.8,-1.5c1.8,-1,3,-2.2,3.6,-3.7c.4,-1,.7,-2.7,.7,-4.9v-6.1Zm-5.1,-4.9h34.7v10.9c0,2.4,-.1,4.3,-.5,5.6c-.4,1.8,-1.2,3.3,-2.4,4.6c-1.6,1.6,-3.6,2.9,-6,3.7c-2.4,.8,-5.2,1.2,-8.3,1.2c-2.6,0,-4.9,-.3,-7,-.8c-2,-.6,-3.7,-1.3,-5,-2.2c-1.4,-.8,-2.4,-1.8,-3.2,-2.8c-.8,-1.1,-1.3,-2.3,-1.7,-3.8c-.4,-1.4,-.6,-3.1,-.6,-5Zm25.2,-10h19.5V92.7h-4.4v20.2H781.2V92.8h-4.4v20.1Zm-39.9,-6h23.6v6.1H730.8V79.9h29.7V86H736.9v9.2h23.6v6.2H736.9Z" class="g2_5" />
<path d="M382.1,166.9h-5.9V112.3h5.9Zm19.5,0h-5.8V112.3h6l28.7,44.3h.2V112.3h5.7v54.6h-5.9L401.7,122.6h-.1Zm59.5,-49.2H444.2v-5.4h39.7v5.4H467Zm113.4,10.8h-5.9c-.5,-3.8,-2,-6.8,-4.6,-8.8c-2.6,-2.1,-5.7,-3.1,-9.4,-3.1c-2.2,0,-4.2,.3,-6,1.1c-1.8,.7,-3.5,1.9,-4.9,3.4c-1.4,1.4,-2.5,3.4,-3.3,5.9c-.8,2.4,-1.2,5.3,-1.2,8.5v7.8c0,6.1,1.3,10.8,3.9,14.2c2.6,3.4,6.4,5.1,11.4,5.1c4.1,0,7.6,-1.1,10.3,-3.5c2.7,-2.3,4.1,-5.3,4.1,-9v-5.9H554.1v-5.4h20.6v11.3c0,1.5,-.3,3.1,-.7,4.7c-.4,1.5,-1.1,3.1,-2.1,4.7c-1.1,1.7,-2.3,3.1,-3.8,4.3c-1.5,1.3,-3.4,2.3,-5.8,3.1c-2.3,.7,-4.9,1.1,-7.8,1.1c-6.9,0,-12.2,-2.1,-15.8,-6.5c-3.6,-4.4,-5.4,-10.4,-5.4,-18.2v-7.8c0,-7.6,1.9,-13.6,5.8,-17.9c3.9,-4.3,9.1,-6.5,15.6,-6.5c3.1,0,5.8,.5,8.2,1.4c2.5,1,4.5,2.3,6.1,3.9c1.6,1.6,2.9,3.5,3.8,5.5c1,2.1,1.5,4.3,1.7,6.6Zm17.6,10.7l-.1,5.6l.1,22.1h-6V112.3h19.2c2.8,0,5.4,.5,7.6,1.3c2.3,.9,4.1,2.1,5.4,3.6c1.4,1.5,2.4,3.2,3.1,5c.7,1.9,1.1,4,1.1,6.1c0,2.2,-.3,4.1,-.9,5.9c-.6,1.7,-1.4,3.2,-2.4,4.4c-1,1.2,-2.1,2.2,-3.3,3c-1.2,.8,-2.4,1.4,-3.8,1.8l11.3,23.5h-6.8l-12,-27.7c4,0,6.6,-.9,8.7,-2.7c2,-1.8,3,-4.4,3,-7.8c0,-3.5,-1,-6.2,-3.1,-8.1c-2.1,-1.9,-5,-2.9,-8.7,-2.9H592.1Zm50.2,5.8l-1.7,4.9l-5.8,17h-6.1l19.5,-54.6h5.9l19.6,54.6h-6.4l-5.8,-17L659.8,145m0,0l-8.7,-25.3H651L642.3,145m39.3,18.4c0,-1.1,.5,-2.1,1.3,-2.9c.8,-.9,1.8,-1.3,3,-1.3c1.1,0,2.1,.4,2.9,1.3c.8,.8,1.2,1.8,1.2,2.9c0,1.2,-.4,2.2,-1.2,3c-.8,.8,-1.8,1.2,-2.9,1.2c-1.2,0,-2.2,-.4,-3,-1.2c-.8,-.8,-1.3,-1.8,-1.3,-3Z" class="g3_5" />
<path fill-rule="evenodd" d="M491.7,112.3h32.2v5.4H497.1v43.7h26.8v5.5H491.7c0,-18.2,0,-36.4,0,-54.6Z" class="g3_5" />
<path fill-rule="evenodd" d="M522.5,141.7H504.3v-5.4h18.2Z" class="g3_5" />
<path fill-rule="evenodd" d="M568.9,144.2H554.1v-5.3h14.8Z" class="g3_5" />
<path fill-rule="evenodd" d="M466.5,166.9v-42h-5.4v42Z" class="g3_5" />
<path fill-rule="evenodd" d="M716.3,144.3C669.3,129.7,682,18.9,762.9,68.8c19.4,12,10.2,24,54.2,15.4c48.8,-9.6,20.7,110.9,-54.9,74.9c-30,-14.3,-34.7,-4.9,-75.3,8.4c-.2,.1,-.9,.1,-1,.1Zm40.4,-12.2v6.2c0,1.9,.2,3.4,.6,4.5c.3,1.1,.9,1.9,1.6,2.6c1,.9,2.4,1.6,4.1,2.1c1.7,.5,3.8,.8,6.2,.8c3.4,0,6,-.5,7.8,-1.5c1.8,-1,3,-2.2,3.6,-3.7c.4,-1,.7,-2.7,.7,-4.9v-6.1Zm-5.1,-4.9h34.7v10.9c0,2.4,-.1,4.3,-.5,5.6c-.4,1.8,-1.2,3.3,-2.4,4.6c-1.6,1.6,-3.6,2.9,-6,3.7c-2.4,.8,-5.2,1.2,-8.3,1.2c-2.6,0,-4.9,-.3,-7,-.8c-2,-.6,-3.7,-1.3,-5,-2.2c-1.4,-.8,-2.4,-1.8,-3.2,-2.8c-.8,-1.1,-1.3,-2.3,-1.7,-3.8c-.4,-1.4,-.6,-3.1,-.6,-5Zm25.2,-10h19.5V92.7h-4.4v20.2H781.2V92.8h-4.4v20.1Zm-39.9,-6h23.6v6.1H730.8V79.9h29.7V86H736.9v9.2h23.6v6.2H736.9Z" class="g2_5" />
<path d="M382.1,166.9h-5.9V112.3h5.9Zm19.5,0h-5.8V112.3h6l28.7,44.3h.2V112.3h5.7v54.6h-5.9L401.7,122.6h-.1Zm59.5,-49.2H444.2v-5.4h39.7v5.4H467Zm113.4,10.8h-5.9c-.5,-3.8,-2,-6.8,-4.6,-8.8c-2.6,-2.1,-5.7,-3.1,-9.4,-3.1c-2.2,0,-4.2,.3,-6,1.1c-1.8,.7,-3.5,1.9,-4.9,3.4c-1.4,1.4,-2.5,3.4,-3.3,5.9c-.8,2.4,-1.2,5.3,-1.2,8.5v7.8c0,6.1,1.3,10.8,3.9,14.2c2.6,3.4,6.4,5.1,11.4,5.1c4.1,0,7.6,-1.1,10.3,-3.5c2.7,-2.3,4.1,-5.3,4.1,-9v-5.9H554.1v-5.4h20.6v11.3c0,1.5,-.3,3.1,-.7,4.7c-.4,1.5,-1.1,3.1,-2.1,4.7c-1.1,1.7,-2.3,3.1,-3.8,4.3c-1.5,1.3,-3.4,2.3,-5.8,3.1c-2.3,.7,-4.9,1.1,-7.8,1.1c-6.9,0,-12.2,-2.1,-15.8,-6.5c-3.6,-4.4,-5.4,-10.4,-5.4,-18.2v-7.8c0,-7.6,1.9,-13.6,5.8,-17.9c3.9,-4.3,9.1,-6.5,15.6,-6.5c3.1,0,5.8,.5,8.2,1.4c2.5,1,4.5,2.3,6.1,3.9c1.6,1.6,2.9,3.5,3.8,5.5c1,2.1,1.5,4.3,1.7,6.6Zm17.6,10.7l-.1,5.6l.1,22.1h-6V112.3h19.2c2.8,0,5.4,.5,7.6,1.3c2.3,.9,4.1,2.1,5.4,3.6c1.4,1.5,2.4,3.2,3.1,5c.7,1.9,1.1,4,1.1,6.1c0,2.2,-.3,4.1,-.9,5.9c-.6,1.7,-1.4,3.2,-2.4,4.4c-1,1.2,-2.1,2.2,-3.3,3c-1.2,.8,-2.4,1.4,-3.8,1.8l11.3,23.5h-6.8l-12,-27.7c4,0,6.6,-.9,8.7,-2.7c2,-1.8,3,-4.4,3,-7.8c0,-3.5,-1,-6.2,-3.1,-8.1c-2.1,-1.9,-5,-2.9,-8.7,-2.9H592.1Zm50.2,5.8l-1.7,4.9l-5.8,17h-6.1l19.5,-54.6h5.9l19.6,54.6h-6.4l-5.8,-17L659.8,145m0,0l-8.7,-25.3H651L642.3,145m39.3,18.4c0,-1.1,.5,-2.1,1.3,-2.9c.8,-.9,1.8,-1.3,3,-1.3c1.1,0,2.1,.4,2.9,1.3c.8,.8,1.2,1.8,1.2,2.9c0,1.2,-.4,2.2,-1.2,3c-.8,.8,-1.8,1.2,-2.9,1.2c-1.2,0,-2.2,-.4,-3,-1.2c-.8,-.8,-1.3,-1.8,-1.3,-3Z" class="g3_5" />
<path fill-rule="evenodd" d="M491.7,112.3h32.2v5.4H497.1v43.7h26.8v5.5H491.7c0,-18.2,0,-36.4,0,-54.6Z" class="g3_5" />
<path fill-rule="evenodd" d="M522.5,141.7H504.3v-5.4h18.2Z" class="g3_5" />
<path fill-rule="evenodd" d="M568.9,144.2H554.1v-5.3h14.8Z" class="g3_5" />
<path fill-rule="evenodd" d="M466.5,166.9v-42h-5.4v42Z" class="g3_5" />
<path fill-rule="evenodd" d="M613,232.5H837.1V466.3H613Z" class="g1_5" />
<path fill-rule="evenodd" d="M376.2,480H600.3V713.8H376.2Z" class="g1_5" />
<path fill-rule="evenodd" d="M613,480H837.1V713.8H613Z" class="g1_5" />
<path d="M549.1,287.1h39m197.8,0h39m-275.8,288h39m197.8,0h39" class="g4_5" />
<path fill-rule="evenodd" d="M376.2,729.1H600.3V963H376.2Z" class="g1_5" />
<path fill-rule="evenodd" d="M613,729.1H837.1V963H613Z" class="g1_5" />
<path d="M549.1,824.2h39m197.8,0h39" class="g4_5" />
<path fill-rule="evenodd" d="M376.2,978.2H600.3V1212H376.2Z" class="g1_5" />
<path fill-rule="evenodd" d="M613,978.2H837.1V1212H613Z" class="g1_5" />
<path d="M549.1,1073.3h39m197.8,0h39" class="g4_5" />
</svg>